<svg xmlns="http://www.w3.org/2000/svg" width="166" height="51" fill="none" viewBox="0 0 166 51"><rect width="150.99" height="1.946" x="7.653" y=".005" fill="#1F4278"/><rect width="150.99" height="1.946" x="7.653" y="48.654" fill="#1F4278"/><rect width="2.822" height="1.946" x="158.646" y="1.954" fill="#1F4278"/><rect width="2.822" height="1.946" fill="#1F4278" transform="matrix(-1 0 0 1 7.65308 1.9541)"/><rect width="1.411" height="1.946" x="161.47" y="3.898" fill="#1F4278"/><rect width="1.411" height="1.946" fill="#1F4278" transform="matrix(-1 0 0 1 4.83545 3.89844)"/><rect width="1.411" height="1.946" x="162.878" y="5.841" fill="#1F4278"/><rect width="1.411" height="1.946" fill="#1F4278" transform="matrix(-1 0 0 1 3.42749 5.84106)"/><rect width="1.411" height="35.029" x="164.289" y="7.789" fill="#1F4278"/><rect width="1.411" height="35.029" fill="#1F4278" transform="matrix(-1 0 0 1 2.01123 7.78906)"/><rect width="1.411" height="1.946" x="162.878" y="42.818" fill="#1F4278"/><rect width="1.411" height="1.946" fill="#1F4278" transform="matrix(-1 0 0 1 3.42749 42.8176)"/><rect width="1.411" height="1.946" x="161.47" y="44.766" fill="#1F4278"/><rect width="1.411" height="1.946" fill="#1F4278" transform="matrix(-1 0 0 1 4.83545 44.7664)"/><rect width="2.822" height="1.946" x="158.646" y="46.71" fill="#1F4278"/><rect width="2.822" height="1.946" fill="#1F4278" transform="matrix(-1 0 0 1 7.65308 46.71)"/><rect width="150.99" height="46.706" x="7.653" y="1.954" fill="#72A0E6"/><rect width="2.822" height="42.813" x="158.646" y="3.898" fill="#72A0E6"/><rect width="1.411" height="38.921" x="161.47" y="5.841" fill="#72A0E6"/><rect width="1.411" height="35.029" x="162.878" y="7.789" fill="#72A0E6"/><rect width="1.411" height="35.029" x="2.011" y="7.789" fill="#72A0E6"/><rect width="1.411" height="38.921" x="3.427" y="5.841" fill="#72A0E6"/><rect width="2.822" height="42.813" x="4.835" y="3.898" fill="#72A0E6"/><rect width="143.856" height="1.603" x="11.092" y="4.319" fill="#4D74AE"/><rect width="143.856" height="1.603" x="11.092" y="44.386" fill="#4D74AE"/><rect width="2.689" height="1.603" x="154.944" y="5.926" fill="#4D74AE"/><rect width="2.689" height="1.603" fill="#4D74AE" transform="matrix(-1 0 0 1 11.0918 5.92578)"/><rect width="1.344" height="1.603" x="157.636" y="7.522" fill="#4D74AE"/><rect width="1.344" height="1.603" fill="#4D74AE" transform="matrix(-1 0 0 1 8.40063 7.52222)"/><rect width="1.344" height="1.603" x="158.979" y="9.126" fill="#4D74AE"/><rect width="1.344" height="1.603" fill="#4D74AE" transform="matrix(-1 0 0 1 7.06079 9.12598)"/><rect width="1.344" height="28.848" x="160.324" y="10.733" fill="#4D74AE"/><rect width="1.344" height="28.848" fill="#4D74AE" transform="matrix(-1 0 0 1 5.7146 10.7334)"/><rect width="1.344" height="1.603" x="158.979" y="39.576" fill="#4D74AE"/><rect width="1.344" height="1.603" fill="#4D74AE" transform="matrix(-1 0 0 1 7.06055 39.5762)"/><rect width="1.344" height="1.603" x="157.636" y="41.182" fill="#4D74AE"/><rect width="1.344" height="1.603" fill="#4D74AE" transform="matrix(-1 0 0 1 8.40063 41.1816)"/><rect width="2.689" height="1.603" x="154.944" y="42.785" fill="#4D74AE"/><rect width="2.689" height="1.603" fill="#4D74AE" transform="matrix(-1 0 0 1 11.0923 42.7852)"/><rect width="143.856" height="38.463" x="11.092" y="5.926" fill="#A1C1E7"/><rect width="2.689" height="35.258" x="154.944" y="7.522" fill="#A1C1E7"/><rect width="1.344" height="32.053" x="157.636" y="9.126" fill="#A1C1E7"/><rect width="1.344" height="28.848" x="158.979" y="10.733" fill="#A1C1E7"/><rect width="1.344" height="28.848" x="5.715" y="10.733" fill="#A1C1E7"/><rect width="1.344" height="32.053" x="7.061" y="9.126" fill="#A1C1E7"/><rect width="2.689" height="35.258" x="8.401" y="7.522" fill="#A1C1E7"/><path fill="#fff" d="M58.1228 30.0585V31.2051H52.3352V30.0585H51.1886V19.7209H52.3352V18.5925H58.1228V19.7209H59.2512V22.1051H56.8852V19.8301H53.5728V29.9675H56.8852V27.6925H59.2512V30.0585H58.1228ZM68.2689 31.2051V25.5085H63.8281V31.2051H61.4439V18.5925H63.8281V24.2709H68.2689V18.5925H70.6531V31.2051H68.2689ZM80.8993 30.0585V31.2051H73.9833V30.0585H72.8367V19.7209H73.9833V18.5925H80.8993V19.7209H82.0459V30.0585H80.8993ZM79.6617 19.8301H75.2209V29.9675H79.6617V19.8301ZM92.2921 30.0585V31.2051H85.3761V30.0585H84.2295V19.7209H85.3761V18.5925H92.2921V19.7209H93.4387V30.0585H92.2921ZM91.0545 19.8301H86.6137V29.9675H91.0545V19.8301ZM102.557 30.0585V31.2051H96.7689V30.0585H95.6223V27.6925H98.0065V29.9675H101.319V25.5085H96.7689V24.3801H95.6223V19.7209H96.7689V18.5925H102.557V19.7209H103.685V22.1051H101.319V19.8301H98.0065V24.2709H102.557V25.4175H103.685V30.0585H102.557ZM105.878 31.2051V18.5925H112.812V19.8301H108.262V24.2709H111.665V25.5085H108.262V29.9675H112.812V31.2051H105.878Z"/></svg>