<svg width="166" height="51" viewBox="0 0 166 51" fill="none" xmlns="http://www.w3.org/2000/svg">
<rect x="7.65308" y="0.00488281" width="150.99" height="1.94606" fill="#1F4278"/>
<rect x="7.65308" y="48.6536" width="150.99" height="1.94606" fill="#1F4278"/>
<rect x="158.646" y="1.9541" width="2.82224" height="1.94606" fill="#1F4278"/>
<rect width="2.82224" height="1.94606" transform="matrix(-1 0 0 1 7.65308 1.9541)" fill="#1F4278"/>
<rect x="161.47" y="3.89844" width="1.41112" height="1.94606" fill="#1F4278"/>
<rect width="1.41112" height="1.94606" transform="matrix(-1 0 0 1 4.83545 3.89844)" fill="#1F4278"/>
<rect x="162.878" y="5.84106" width="1.41112" height="1.94606" fill="#1F4278"/>
<rect width="1.41112" height="1.94606" transform="matrix(-1 0 0 1 3.42749 5.84106)" fill="#1F4278"/>
<rect x="164.289" y="7.78906" width="1.41112" height="35.0291" fill="#1F4278"/>
<rect width="1.41112" height="35.0291" transform="matrix(-1 0 0 1 2.01123 7.78906)" fill="#1F4278"/>
<rect x="162.878" y="42.8176" width="1.41112" height="1.94606" fill="#1F4278"/>
<rect width="1.41112" height="1.94606" transform="matrix(-1 0 0 1 3.42749 42.8176)" fill="#1F4278"/>
<rect x="161.47" y="44.7664" width="1.41112" height="1.94606" fill="#1F4278"/>
<rect width="1.41112" height="1.94606" transform="matrix(-1 0 0 1 4.83545 44.7664)" fill="#1F4278"/>
<rect x="158.646" y="46.71" width="2.82224" height="1.94606" fill="#1F4278"/>
<rect width="2.82224" height="1.94606" transform="matrix(-1 0 0 1 7.65308 46.71)" fill="#1F4278"/>
<rect x="7.65308" y="1.9541" width="150.99" height="46.7055" fill="#72A0E6"/>
<rect x="158.646" y="3.89844" width="2.82224" height="42.8134" fill="#72A0E6"/>
<rect x="161.47" y="5.84106" width="1.41112" height="38.9212" fill="#72A0E6"/>
<rect x="162.878" y="7.78906" width="1.41112" height="35.0291" fill="#72A0E6"/>
<rect x="2.01123" y="7.78906" width="1.41112" height="35.0291" fill="#72A0E6"/>
<rect x="3.42749" y="5.84106" width="1.41112" height="38.9212" fill="#72A0E6"/>
<rect x="4.83545" y="3.89844" width="2.82224" height="42.8134" fill="#72A0E6"/>
<rect x="11.0918" y="4.31934" width="143.856" height="1.60264" fill="#4D74AE"/>
<rect x="11.0918" y="44.386" width="143.856" height="1.60264" fill="#4D74AE"/>
<rect x="154.944" y="5.92578" width="2.6889" height="1.60264" fill="#4D74AE"/>
<rect width="2.6889" height="1.60264" transform="matrix(-1 0 0 1 11.0918 5.92578)" fill="#4D74AE"/>
<rect x="157.636" y="7.52222" width="1.34445" height="1.60264" fill="#4D74AE"/>
<rect width="1.34445" height="1.60264" transform="matrix(-1 0 0 1 8.40063 7.52222)" fill="#4D74AE"/>
<rect x="158.979" y="9.12598" width="1.34445" height="1.60264" fill="#4D74AE"/>
<rect width="1.34445" height="1.60264" transform="matrix(-1 0 0 1 7.06079 9.12598)" fill="#4D74AE"/>
<rect x="160.324" y="10.7334" width="1.34445" height="28.8475" fill="#4D74AE"/>
<rect width="1.34445" height="28.8475" transform="matrix(-1 0 0 1 5.7146 10.7334)" fill="#4D74AE"/>
<rect x="158.979" y="39.5762" width="1.34445" height="1.60264" fill="#4D74AE"/>
<rect width="1.34445" height="1.60264" transform="matrix(-1 0 0 1 7.06055 39.5762)" fill="#4D74AE"/>
<rect x="157.636" y="41.1816" width="1.34445" height="1.60264" fill="#4D74AE"/>
<rect width="1.34445" height="1.60264" transform="matrix(-1 0 0 1 8.40063 41.1816)" fill="#4D74AE"/>
<rect x="154.944" y="42.7852" width="2.6889" height="1.60264" fill="#4D74AE"/>
<rect width="2.6889" height="1.60264" transform="matrix(-1 0 0 1 11.0923 42.7852)" fill="#4D74AE"/>
<rect x="11.0918" y="5.92578" width="143.856" height="38.4633" fill="#A1C1E7"/>
<rect x="154.944" y="7.52222" width="2.6889" height="35.2581" fill="#A1C1E7"/>
<rect x="157.636" y="9.12598" width="1.34445" height="32.0528" fill="#A1C1E7"/>
<rect x="158.979" y="10.7334" width="1.34445" height="28.8475" fill="#A1C1E7"/>
<rect x="5.7146" y="10.7334" width="1.34445" height="28.8475" fill="#A1C1E7"/>
<rect x="7.06079" y="9.12598" width="1.34445" height="32.0528" fill="#A1C1E7"/>
<rect x="8.40063" y="7.52222" width="2.6889" height="35.2581" fill="#A1C1E7"/>
<path d="M58.1228 30.0585V31.2051H52.3352V30.0585H51.1886V19.7209H52.3352V18.5925H58.1228V19.7209H59.2512V22.1051H56.8852V19.8301H53.5728V29.9675H56.8852V27.6925H59.2512V30.0585H58.1228ZM68.2689 31.2051V25.5085H63.8281V31.2051H61.4439V18.5925H63.8281V24.2709H68.2689V18.5925H70.6531V31.2051H68.2689ZM80.8993 30.0585V31.2051H73.9833V30.0585H72.8367V19.7209H73.9833V18.5925H80.8993V19.7209H82.0459V30.0585H80.8993ZM79.6617 19.8301H75.2209V29.9675H79.6617V19.8301ZM92.2921 30.0585V31.2051H85.3761V30.0585H84.2295V19.7209H85.3761V18.5925H92.2921V19.7209H93.4387V30.0585H92.2921ZM91.0545 19.8301H86.6137V29.9675H91.0545V19.8301ZM102.557 30.0585V31.2051H96.7689V30.0585H95.6223V27.6925H98.0065V29.9675H101.319V25.5085H96.7689V24.3801H95.6223V19.7209H96.7689V18.5925H102.557V19.7209H103.685V22.1051H101.319V19.8301H98.0065V24.2709H102.557V25.4175H103.685V30.0585H102.557ZM105.878 31.2051V18.5925H112.812V19.8301H108.262V24.2709H111.665V25.5085H108.262V29.9675H112.812V31.2051H105.878Z" fill="white"/>
</svg>
