<svg width="63" height="125" viewBox="0 0 63 125" fill="none" xmlns="http://www.w3.org/2000/svg">
<path fill-rule="evenodd" clip-rule="evenodd" d="M23.2645 3.19113L23.3167 5.5767L18.8864 5.67367L14.456 5.77063L14.5008 7.81541L14.5455 9.86018L12.16 9.91239L9.77438 9.96461L9.8266 12.3502L9.87881 14.7357L7.49324 14.788L5.10767 14.8402L5.20369 19.2276L5.2997 23.6143L3.08921 23.8768L0.878711 24.1386L0.894348 33.5147L0.909985 42.8907L3.31464 42.8381L5.7193 42.7854L5.81626 47.2158L5.91323 51.6461L8.2988 51.5939L10.6844 51.5417L10.7366 53.9273L10.7888 56.3128L13.1744 56.2606L15.5599 56.2084L15.6121 58.594L15.6644 60.9796L17.7091 60.9348L19.7539 60.8901L19.7987 62.9348L19.8434 64.9796L22.229 64.9274L24.6146 64.8752L24.6668 67.2608L24.719 69.6463L27.1046 69.5941L29.4901 69.5419L29.5423 71.9275L29.5945 74.313L31.6393 74.2683L33.6841 74.2235L33.7736 78.3131L33.8631 82.4026L31.8183 82.4474L29.7736 82.4921L29.8258 84.8777L29.878 87.2633L27.4924 87.3155L25.1068 87.3677L25.2635 94.5244L25.4201 101.681L27.8057 101.629L30.1913 101.577L30.236 103.621L30.2808 105.666L32.3255 105.622L34.3703 105.577L34.4673 110.007L34.5642 114.437L32.5195 114.482L30.4747 114.527L30.5269 116.913L30.5791 119.298L28.1936 119.35L25.808 119.403L25.8602 121.788L25.9124 124.174L28.298 124.121L30.6835 124.069L30.6388 122.024L30.594 119.98L32.9796 119.927L35.3652 119.875L35.313 117.49L35.2608 115.104L37.6463 115.052L40.0319 115L39.9275 110.229L39.8231 105.457L37.4375 105.51L35.0519 105.562L34.9997 103.176L34.9475 100.791L32.5619 100.843L30.1763 100.895L30.0346 94.42L29.8929 87.9449L32.2785 87.8927L34.664 87.8404L34.6118 85.4549L34.5596 83.0693L36.9452 83.0171L39.3308 82.9649L39.2263 78.1937L39.1219 73.4226L36.7363 73.4748L34.3508 73.527L34.306 71.4822L34.2613 69.4375L36.6468 69.3853L39.0324 69.333L38.9802 66.9475L38.928 64.5619L41.3136 64.5097L43.6991 64.4575L43.6544 62.4127L43.6096 60.3679L45.6544 60.3232L47.6992 60.2784L47.647 57.8929L47.5947 55.5073L49.9803 55.4551L52.3659 55.4029L52.3137 53.0173L52.2615 50.6317L54.647 50.5795L57.0326 50.5273L56.9356 46.0969L56.8387 41.6666L58.8834 41.6218L60.9282 41.5771L60.7194 32.0348L60.5105 22.4925L58.4657 22.5373L56.421 22.582L56.324 18.1517L56.227 13.7213L53.8415 13.7736L51.4559 13.8258L51.4037 11.4402L51.3515 9.05462L48.9659 9.10683L46.5803 9.15905L46.5356 7.11427L46.4908 5.0695L42.0605 5.16646L37.6301 5.26343L37.5779 2.87786L37.5257 0.492285L30.369 0.648922L23.2123 0.805559L23.2645 3.19113Z" fill="#FF814A"/>
<path fill-rule="evenodd" clip-rule="evenodd" d="M23.2645 3.19113L23.3167 5.5767L18.8864 5.67367L14.456 5.77063L14.5008 7.81541L14.5455 9.86018L12.16 9.91239L9.77438 9.96461L9.8266 12.3502L9.87881 14.7357L7.49324 14.788L5.10767 14.8402L5.20369 19.2276L5.2997 23.6143L3.08921 23.8768L0.878711 24.1386L0.894348 33.5147L0.909985 42.8907L3.31464 42.8381L5.7193 42.7854L5.81626 47.2158L5.91323 51.6461L8.2988 51.5939L10.6844 51.5417L10.7366 53.9273L10.7888 56.3128L13.1744 56.2606L15.5599 56.2084L15.6121 58.594L15.6644 60.9796L17.7091 60.9348L19.7539 60.8901L19.7987 62.9348L19.8434 64.9796L22.229 64.9274L24.6146 64.8752L24.6668 67.2608L24.719 69.6463L27.1046 69.5941L29.4901 69.5419L29.5423 71.9275L29.5945 74.313L31.6393 74.2683L33.6841 74.2235L33.7736 78.3131L33.8631 82.4026L31.8183 82.4474L29.7736 82.4921L29.8258 84.8777L29.878 87.2633L27.4924 87.3155L25.1068 87.3677L25.2635 94.5244L25.4201 101.681L27.8057 101.629L30.1913 101.577L30.236 103.621L30.2808 105.666L32.3255 105.622L34.3703 105.577L34.4673 110.007L34.5642 114.437L32.5195 114.482L30.4747 114.527L30.5269 116.913L30.5791 119.298L28.1936 119.35L25.808 119.403L25.8602 121.788L25.9124 124.174L28.298 124.121L30.6835 124.069L30.6388 122.024L30.594 119.98L32.9796 119.927L35.3652 119.875L35.313 117.49L35.2608 115.104L37.6463 115.052L40.0319 115L39.9275 110.229L39.8231 105.457L37.4375 105.51L35.0519 105.562L34.9997 103.176L34.9475 100.791L32.5619 100.843L30.1763 100.895L30.0346 94.42L29.8929 87.9449L32.2785 87.8927L34.664 87.8404L34.6118 85.4549L34.5596 83.0693L36.9452 83.0171L39.3308 82.9649L39.2263 78.1937L39.1219 73.4226L36.7363 73.4748L34.3508 73.527L34.306 71.4822L34.2613 69.4375L36.6468 69.3853L39.0324 69.333L38.9802 66.9475L38.928 64.5619L41.3136 64.5097L43.6991 64.4575L43.6544 62.4127L43.6096 60.3679L45.6544 60.3232L47.6992 60.2784L47.647 57.8929L47.5947 55.5073L49.9803 55.4551L52.3659 55.4029L52.3137 53.0173L52.2615 50.6317L54.647 50.5795L57.0326 50.5273L56.9356 46.0969L56.8387 41.6666L58.8834 41.6218L60.9282 41.5771L60.7194 32.0348L60.5105 22.4925L58.4657 22.5373L56.421 22.582L56.324 18.1517L56.227 13.7213L53.8415 13.7736L51.4559 13.8258L51.4037 11.4402L51.3515 9.05462L48.9659 9.10683L46.5803 9.15905L46.5356 7.11427L46.4908 5.0695L42.0605 5.16646L37.6301 5.26343L37.5779 2.87786L37.5257 0.492285L30.369 0.648922L23.2123 0.805559L23.2645 3.19113ZM37.0008 7.66392L37.053 10.0495L41.4404 9.95346L45.8271 9.85745L46.0896 12.0679L46.3514 14.2784L48.5713 14.4433L50.7911 14.6088L51.0811 27.8563L51.371 41.1043L49.3262 41.1491L47.2815 41.1939L47.3337 43.5794L47.3859 45.965L45.0003 46.0172L42.6148 46.0694L42.667 48.455L42.7192 50.8406L38.3318 50.9366L33.945 51.0326L33.7795 53.2525L33.6147 55.4723L29.53 55.784C27.2834 55.9552 23.2168 55.9413 20.4939 55.7527L15.5425 55.4103L15.4915 53.0833L15.4406 50.7557L13.4285 50.7997L11.4158 50.8438L11.1201 46.5883L10.8238 42.3328L8.60393 42.1679L6.38407 42.0024L6.19204 33.2282L6 24.4541L8.21049 24.1916L10.421 23.9298L10.5309 19.6654L10.6401 15.401L12.6528 15.357L14.6649 15.3129L14.6127 12.9273L14.5604 10.5418L19.3316 10.4373L24.1027 10.3329L24.0505 7.94735L23.9983 5.56178L30.4734 5.42006L36.9485 5.27834L37.0008 7.66392ZM14.8066 21.788L14.8588 24.1736L12.4732 24.2258L10.0877 24.278L10.1324 26.3228L10.1772 28.3676L12.5627 28.3154L14.9483 28.2632L15.0005 30.6487L15.0527 33.0343L17.4383 32.9821L19.8239 32.9299L19.7717 30.5443L19.7194 28.1587L21.7642 28.114L23.809 28.0692L23.7642 26.0245L23.7195 23.9797L21.6747 24.0244L19.6299 24.0692L19.5777 21.6836L19.5255 19.298L17.1399 19.3503L14.7544 19.4025L14.8066 21.788ZM15.2019 39.8502L15.2467 41.895L17.6322 41.8428L20.0178 41.7906L19.973 39.7458L19.9283 37.701L17.5427 37.7532L15.1572 37.8054L15.2019 39.8502Z" fill="#F9F1F1"/>
<path fill-rule="evenodd" clip-rule="evenodd" d="M23.2645 3.19113L23.3167 5.5767L18.8864 5.67367L14.456 5.77063L14.5008 7.81541L14.5455 9.86018L12.16 9.91239L9.77438 9.96461L9.8266 12.3502L9.87881 14.7357L7.49324 14.788L5.10767 14.8402L5.20369 19.2276L5.2997 23.6143L3.08921 23.8768L0.878711 24.1386L0.894348 33.5147L0.909985 42.8907L3.31464 42.8381L5.7193 42.7854L5.81626 47.2158L5.91323 51.6461L8.2988 51.5939L10.6844 51.5417L10.7366 53.9273L10.7888 56.3128L13.1744 56.2606L15.5599 56.2084L15.6121 58.594L15.6644 60.9796L17.7091 60.9348L19.7539 60.8901L19.7987 62.9348L19.8434 64.9796L22.229 64.9274L24.6146 64.8752L24.6668 67.2608L24.719 69.6463L27.1046 69.5941L29.4901 69.5419L29.5423 71.9275L29.5945 74.313L31.6393 74.2683L33.6841 74.2235L33.7736 78.3131L33.8631 82.4026L31.8183 82.4474L29.7736 82.4921L29.8258 84.8777L29.878 87.2633L27.4924 87.3155L25.1068 87.3677L25.2635 94.5244L25.4201 101.681L27.8057 101.629L30.1913 101.577L30.236 103.621L30.2808 105.666L32.3255 105.622L34.3703 105.577L34.4673 110.007L34.5642 114.437L32.5195 114.482L30.4747 114.527L30.5269 116.913L30.5791 119.298L28.1936 119.35L25.808 119.403L25.8602 121.788L25.9124 124.174L28.298 124.121L30.6835 124.069L30.6388 122.024L30.594 119.98L32.9796 119.927L35.3652 119.875L35.313 117.49L35.2608 115.104L37.6463 115.052L40.0319 115L39.9275 110.229L39.8231 105.457L37.4375 105.51L35.0519 105.562L34.9997 103.176L34.9475 100.791L32.5619 100.843L30.1763 100.895L30.0346 94.42L29.8929 87.9449L32.2785 87.8927L34.664 87.8404L34.6118 85.4549L34.5596 83.0693L36.9452 83.0171L39.3308 82.9649L39.2263 78.1937L39.1219 73.4226L36.7363 73.4748L34.3508 73.527L34.306 71.4822L34.2613 69.4375L36.6468 69.3853L39.0324 69.333L38.9802 66.9475L38.928 64.5619L41.3136 64.5097L43.6991 64.4575L43.6544 62.4127L43.6096 60.3679L45.6544 60.3232L47.6992 60.2784L47.647 57.8929L47.5947 55.5073L49.9803 55.4551L52.3659 55.4029L52.3137 53.0173L52.2615 50.6317L54.647 50.5795L57.0326 50.5273L56.9356 46.0969L56.8387 41.6666L58.8834 41.6218L60.9282 41.5771L60.7194 32.0348L60.5105 22.4925L58.4657 22.5373L56.421 22.582L56.324 18.1517L56.227 13.7213L53.8415 13.7736L51.4559 13.8258L51.4037 11.4402L51.3515 9.05462L48.9659 9.10683L46.5803 9.15905L46.5356 7.11427L46.4908 5.0695L42.0605 5.16646L37.6301 5.26343L37.5779 2.87786L37.5257 0.492285L30.369 0.648922L23.2123 0.805559L23.2645 3.19113ZM37.0008 7.66392L37.053 10.0495L41.4404 9.95346L45.8271 9.85745L46.0896 12.0679L46.3514 14.2784L48.5713 14.4433L50.7911 14.6088L51.0811 27.8563L51.371 41.1043L49.3262 41.1491L47.2815 41.1939L47.3337 43.5794L47.3859 45.965L45.0003 46.0172L42.6148 46.0694L42.667 48.455L42.7192 50.8406L38.3318 50.9366L33.945 51.0326L33.7795 53.2525L33.6147 55.4723L29.53 55.784C27.2834 55.9552 23.2168 55.9413 20.4939 55.7527L15.5425 55.4103L15.4915 53.0833L15.4406 50.7557L13.4285 50.7997L11.4158 50.8438L11.1201 46.5883L10.8238 42.3328L8.60393 42.1679L6.38407 42.0024L6.19204 33.2282L6 24.4541L8.21049 24.1916L10.421 23.9298L10.5309 19.6654L10.6401 15.401L12.6528 15.357L14.6649 15.3129L14.6127 12.9273L14.5604 10.5418L19.3316 10.4373L24.1027 10.3329L24.0505 7.94735L23.9983 5.56178L30.4734 5.42006L36.9485 5.27834L37.0008 7.66392Z" fill="#D15024"/>
<path fill-rule="evenodd" clip-rule="evenodd" d="M23.2645 3.19113L23.3167 5.5767L18.8864 5.67367L14.456 5.77063L14.5008 7.81541L14.5455 9.86018L12.16 9.91239L9.77438 9.96461L9.8266 12.3502L9.87881 14.7357L7.49324 14.788L5.10767 14.8402L5.20369 19.2276L5.2997 23.6143L3.08921 23.8768L0.878711 24.1386L0.894348 33.5147L0.909985 42.8907L3.31464 42.8381L5.7193 42.7854L5.81626 47.2158L5.91323 51.6461L8.2988 51.5939L10.6844 51.5417L10.7366 53.9273L10.7888 56.3128L13.1744 56.2606L15.5599 56.2084L15.6121 58.594L15.6644 60.9796L17.7091 60.9348L19.7539 60.8901L19.7987 62.9348L19.8434 64.9796L22.229 64.9274L24.6146 64.8752L24.6643 67.1469L24.714 69.4194L31.8707 69.2627L39.0274 69.1061L38.9777 66.8336L38.928 64.5619L41.3136 64.5097L43.6991 64.4575L43.6544 62.4127L43.6096 60.3679L45.6544 60.3232L47.6992 60.2784L47.647 57.8929L47.5947 55.5073L49.9803 55.4551L52.3659 55.4029L52.3137 53.0173L52.2615 50.6317L54.647 50.5795L57.0326 50.5273L56.9356 46.0969L56.8387 41.6666L58.8834 41.6218L60.9282 41.5771L60.7194 32.0348L60.5105 22.4925L58.4657 22.5373L56.421 22.582L56.324 18.1517L56.227 13.7213L53.8415 13.7736L51.4559 13.8258L51.4037 11.4402L51.3515 9.05462L48.9659 9.10683L46.5803 9.15905L46.5356 7.11427L46.4908 5.0695L42.0605 5.16646L37.6301 5.26343L37.5779 2.87786L37.5257 0.492285L30.369 0.648922L23.2123 0.805559L23.2645 3.19113ZM37.6742 7.27549L37.7182 9.28823L41.9826 9.39743L46.247 9.5073L46.5088 11.7178L46.7713 13.9283L49.1133 13.877L51.4559 13.8258L51.5603 18.5969L51.6647 23.368L53.7095 23.3233L55.7543 23.2785L55.9473 32.0963L56.1403 40.9134L53.9298 41.1759L51.7193 41.4377L51.6182 46.0428L51.5178 50.648L49.5474 50.6911L47.5769 50.7342L47.4113 52.9541L47.2465 55.1739L45.036 55.4358L42.8255 55.6983L42.8693 57.6994L42.9131 59.7013L40.5275 59.7535L38.142 59.8057L38.1942 62.1913L38.2464 64.5768L31.4305 64.726L24.6146 64.8752L24.5623 62.4896L24.5101 60.104L22.4654 60.1488L20.4206 60.1935L20.3758 58.1488L20.3311 56.104L17.9455 56.1562L15.5599 56.2084L15.5077 53.8228L15.4555 51.4373L13.0699 51.4895L10.6844 51.5417L10.5883 47.1543L10.4923 42.7676L8.27247 42.602L6.05263 42.4372L5.66481 33.4103L5.27698 24.3833L7.68232 24.3307L10.0877 24.278L9.98323 19.5069L9.87881 14.7357L12.2644 14.6835L14.6499 14.6313L14.5977 12.2458L14.5455 9.86018L18.9759 9.76322L23.4062 9.66625L23.3615 7.62148L23.3167 5.5767L30.4734 5.42006L37.6301 5.26343L37.6742 7.27549ZM29.5423 71.9275L29.5945 74.313L31.6393 74.2683L33.6841 74.2235L33.7736 78.3131L33.8631 82.4026L31.8183 82.4474L29.7736 82.4921L29.8258 84.8777L29.878 87.2633L27.4924 87.3155L25.1068 87.3677L25.2635 94.5244L25.4201 101.681L27.8057 101.629L30.1913 101.577L30.236 103.621L30.2808 105.666L32.3255 105.622L34.3703 105.577L34.4673 110.007L34.5642 114.437L32.5195 114.482L30.4747 114.527L30.5269 116.913L30.5791 119.298L28.1936 119.35L25.808 119.403L25.8602 121.788L25.9124 124.174L28.298 124.121L30.6835 124.069L30.6388 122.024L30.594 119.98L32.9796 119.927L35.3652 119.875L35.313 117.49L35.2608 115.104L37.6463 115.052L40.0319 115L39.9275 110.229L39.8231 105.457L37.4375 105.51L35.0519 105.562L34.9997 103.176L34.9475 100.791L32.5619 100.843L30.1763 100.895L30.0346 94.42L29.8929 87.9449L32.2785 87.8927L34.664 87.8404L34.6118 85.4549L34.5596 83.0693L36.9452 83.0171L39.3308 82.9649L39.2263 78.1937L39.1219 73.4226L36.7363 73.4748L34.3508 73.527L34.306 71.4822L34.2613 69.4375L31.8757 69.4897L29.4901 69.5419L29.5423 71.9275Z" fill="#662113"/>
<path fill-rule="evenodd" clip-rule="evenodd" d="M29.5421 71.9275L29.5943 74.313L31.6391 74.2683L33.6839 74.2235L33.7734 78.3131L33.8629 82.4026L31.8181 82.4474L29.7733 82.4922L29.8255 84.8777L29.8778 87.2633L27.4922 87.3155L25.1066 87.3677L25.2632 94.5244L25.4199 101.681L27.8055 101.629L30.191 101.577L30.2358 103.621L30.2805 105.666L32.3253 105.622L34.3701 105.577L34.4671 110.007L34.564 114.437L32.5192 114.482L30.4745 114.527L30.5267 116.913L30.5789 119.298L28.1933 119.35L25.8077 119.403L25.86 121.788L25.9122 124.174L28.2977 124.121L30.6833 124.069L30.6386 122.024L30.5938 119.98L32.9794 119.927L35.3649 119.875L35.3127 117.49L35.2605 115.104L37.6461 115.052L40.0317 115L39.9272 110.229L39.8228 105.457L37.4372 105.51L35.0517 105.562L34.9995 103.176L34.9473 100.791L32.5617 100.843L30.1761 100.895L30.0344 94.42L29.8927 87.9449L32.2782 87.8927L34.6638 87.8405L34.6116 85.4549L34.5594 83.0693L36.945 83.0171L39.3305 82.9649L39.2261 78.1938L39.1217 73.4226L36.7361 73.4748L34.3505 73.527L34.3058 71.4823L34.261 69.4375L31.8755 69.4897L29.4899 69.5419L29.5421 71.9275Z" fill="white"/>
</svg>
