<svg width="155" height="184" viewBox="0 0 155 184" fill="none" xmlns="http://www.w3.org/2000/svg">
<path fill-rule="evenodd" clip-rule="evenodd" d="M25.3197 46.3285L26.0983 48.9778L21.4619 50.3404L16.8255 51.703L17.5068 54.0212L18.1881 56.3394L15.5387 57.118L12.8893 57.8966L13.5706 60.2148L14.2519 62.533L11.9337 63.2142L9.61551 63.8955L11.0754 68.8631L12.5353 73.8306L9.8687 74.6143L7.20212 75.398L10.3534 85.445L13.5046 95.4919L16.0487 94.9673L18.593 94.4434L19.9437 99.0394L21.2946 103.636L23.6128 102.955L25.931 102.273L26.7096 104.923L27.4882 107.572L30.1376 106.794L32.787 106.015L33.4682 108.333L34.1495 110.651L36.4677 109.97L38.7859 109.289L39.4672 111.607L40.1485 113.925L42.4667 113.244L44.7849 112.563L45.5635 115.212L46.3421 117.861L48.9914 117.083L51.6408 116.304L52.3221 118.622L53.0034 120.941L55.3216 120.259L57.6398 119.578L59.0023 124.214L60.3649 128.851L58.0467 129.532L55.7285 130.213L56.3981 132.492L57.0675 134.77L54.6443 135.705L52.2208 136.641L54.2232 144.147L56.2256 151.654L58.8968 150.869L61.568 150.084L62.3467 152.733L63.1253 155.382L65.4435 154.701L67.7616 154.02L69.1242 158.656L70.4868 163.292L68.1686 163.974L65.8504 164.655L66.5317 166.973L67.2129 169.291L64.5636 170.07L61.9142 170.849L62.6928 173.498L63.4714 176.147L66.452 175.271L69.4325 174.396L68.7512 172.077L68.0699 169.759L70.3881 169.078L72.7063 168.397L72.025 166.078L71.3438 163.76L73.662 163.079L75.9802 162.398L74.4229 157.099L72.8657 151.8L70.5475 152.481L68.2293 153.163L67.5481 150.845L66.8668 148.526L64.5486 149.208L62.2304 149.889L60.0892 142.603L57.948 135.317L60.2662 134.636L62.5844 133.955L61.9032 131.637L61.2219 129.318L63.5401 128.637L65.8583 127.956L64.301 122.657L62.7438 117.358L60.4256 118.04L58.1074 118.721L57.5235 116.734L56.9395 114.747L59.2577 114.066L61.5759 113.384L60.7973 110.735L60.0187 108.086L62.6681 107.307L65.3174 106.528L64.6362 104.21L63.9549 101.892L66.2731 101.211L68.5913 100.529L67.9217 98.251L67.2523 95.9732L69.6755 95.0373L72.0989 94.102L71.5743 91.5579L71.0504 89.0136L73.3281 88.3442L75.6066 87.6746L74.244 83.0382L72.8815 78.4018L75.1997 77.7205L77.5179 77.0392L74.5008 66.7729L71.4837 56.5066L69.1655 57.1879L66.8473 57.8692L65.3874 52.9016L63.9275 47.9341L61.6093 48.6154L59.2911 49.2966L58.6098 46.9784L57.9285 44.6603L55.2792 45.4389L52.6298 46.2175L51.9485 43.8993L51.2673 41.5811L46.2997 43.041L41.3321 44.5009L40.5535 41.8515L39.7749 39.2021L32.158 41.4406L24.5411 43.6791L25.3197 46.3285Z" fill="#F9F1F2"/>
<path fill-rule="evenodd" clip-rule="evenodd" d="M25.3197 46.3285L26.0983 48.9778L21.4619 50.3404L16.8255 51.703L17.5068 54.0212L18.1881 56.3394L15.5387 57.118L12.8893 57.8966L13.5706 60.2148L14.2519 62.533L11.9337 63.2142L9.61551 63.8955L11.0754 68.8631L12.5353 73.8306L9.8687 74.6143L7.20212 75.398L10.3534 85.445L13.5046 95.4919L16.0487 94.9673L18.593 94.4434L19.9437 99.0394L21.2946 103.636L23.6128 102.955L25.931 102.273L26.7096 104.923L27.4882 107.572L30.1376 106.794L32.787 106.015L33.4682 108.333L34.1495 110.651L36.4677 109.97L38.7859 109.289L39.4672 111.607L40.1485 113.925L42.4667 113.244L44.7849 112.563L45.5635 115.212L46.3421 117.861L48.9914 117.083L51.6408 116.304L52.3221 118.622L53.0034 120.941L55.3216 120.259L57.6398 119.578L59.0023 124.214L60.3649 128.851L58.0467 129.532L55.7285 130.213L56.3981 132.492L57.0675 134.77L54.6443 135.705L52.2208 136.641L54.2232 144.147L56.2256 151.654L58.8968 150.869L61.568 150.084L62.3467 152.733L63.1253 155.382L65.4435 154.701L67.7616 154.02L69.1242 158.656L70.4868 163.292L68.1686 163.974L65.8504 164.655L66.5317 166.973L67.2129 169.291L64.5636 170.07L61.9142 170.849L62.6928 173.498L63.4714 176.147L66.452 175.271L69.4325 174.396L68.7512 172.077L68.0699 169.759L70.3881 169.078L72.7063 168.397L72.025 166.078L71.3438 163.76L73.662 163.079L75.9802 162.398L74.4229 157.099L72.8657 151.8L70.5475 152.481L68.2293 153.163L67.5481 150.845L66.8668 148.526L64.5486 149.208L62.2304 149.889L60.0892 142.603L57.948 135.317L60.2662 134.636L62.5844 133.955L61.9032 131.637L61.2219 129.318L63.5401 128.637L65.8583 127.956L64.301 122.657L62.7438 117.358L60.4256 118.04L58.1074 118.721L57.5235 116.734L56.9395 114.747L59.2577 114.066L61.5759 113.384L60.7973 110.735L60.0187 108.086L62.6681 107.307L65.3174 106.528L64.6362 104.21L63.9549 101.892L66.2731 101.211L68.5913 100.529L67.9217 98.251L67.2523 95.9732L69.6755 95.0373L72.0989 94.102L71.5743 91.5579L71.0504 89.0136L73.3281 88.3442L75.6066 87.6746L74.244 83.0382L72.8815 78.4018L75.1997 77.7205L77.5179 77.0392L74.5008 66.7729L71.4837 56.5066L69.1655 57.1879L66.8473 57.8692L65.3874 52.9016L63.9275 47.9341L61.6093 48.6154L59.2911 49.2966L58.6098 46.9784L57.9285 44.6603L55.2792 45.4389L52.6298 46.2175L51.9485 43.8993L51.2673 41.5811L46.2997 43.041L41.3321 44.5009L40.5535 41.8515L39.7749 39.2021L32.158 41.4406L24.5411 43.6791L25.3197 46.3285ZM26.6202 67.8925L27.3014 70.2106L29.9508 69.432L32.6002 68.6534L33.2815 70.9716L33.9627 73.2898L31.3134 74.0684L28.664 74.847L29.3453 77.1652L30.0266 79.4834L27.7084 80.1647L25.3902 80.846L24.7089 78.5278L24.0276 76.2096L21.7094 76.8909L19.3912 77.5722L18.71 75.254L18.0287 72.9358L20.3469 72.2545L22.6651 71.5732L21.9838 69.255L21.3025 66.9368L23.6207 66.2555L25.9389 65.5743L26.6202 67.8925ZM32.2651 87.1003L32.9464 89.4185L30.6282 90.0998L28.31 90.7811L27.6287 88.4629L26.9474 86.1447L29.2656 85.4634L31.5838 84.7822L32.2651 87.1003Z" fill="#FAD9DD"/>
<path fill-rule="evenodd" clip-rule="evenodd" d="M25.3197 46.3285L26.0983 48.9778L21.4619 50.3404L16.8255 51.703L17.5068 54.0212L18.1881 56.3394L15.5387 57.118L12.8893 57.8966L13.5706 60.2148L14.2519 62.533L11.9337 63.2142L9.61551 63.8955L11.0754 68.8631L12.5353 73.8306L9.8687 74.6143L7.20212 75.398L10.3534 85.445L13.5046 95.4919L16.0487 94.9673L18.593 94.4434L19.9437 99.0394L21.2946 103.636L23.6128 102.955L25.931 102.273L26.7096 104.923L27.4882 107.572L30.1376 106.794L32.787 106.015L33.4682 108.333L34.1495 110.651L36.4677 109.97L38.7859 109.289L39.4672 111.607L40.1485 113.925L42.4667 113.244L44.7849 112.563L45.5635 115.212L46.3421 117.861L48.9914 117.083L51.6408 116.304L52.3221 118.622L53.0034 120.941L55.3216 120.259L57.6398 119.578L59.0023 124.214L60.3649 128.851L58.0467 129.532L55.7285 130.213L56.3981 132.492L57.0675 134.77L54.6443 135.705L52.2208 136.641L54.2232 144.147L56.2256 151.654L58.8968 150.869L61.568 150.084L62.3467 152.733L63.1253 155.382L65.4435 154.701L67.7616 154.02L69.1242 158.656L70.4868 163.292L68.1686 163.974L65.8504 164.655L66.5317 166.973L67.2129 169.291L64.5636 170.07L61.9142 170.849L62.6928 173.498L63.4714 176.147L66.452 175.271L69.4325 174.396L68.7512 172.077L68.0699 169.759L70.3881 169.078L72.7063 168.397L72.025 166.078L71.3438 163.76L73.662 163.079L75.9802 162.398L74.4229 157.099L72.8657 151.8L70.5475 152.481L68.2293 153.163L67.5481 150.845L66.8668 148.526L64.5486 149.208L62.2304 149.889L60.0892 142.603L57.948 135.317L60.2662 134.636L62.5844 133.955L61.9032 131.637L61.2219 129.318L63.5401 128.637L65.8583 127.956L64.301 122.657L62.7438 117.358L60.4256 118.04L58.1074 118.721L57.5235 116.734L56.9395 114.747L59.2577 114.066L61.5759 113.384L60.7973 110.735L60.0187 108.086L62.6681 107.307L65.3174 106.528L64.6362 104.21L63.9549 101.892L66.2731 101.211L68.5913 100.529L67.9217 98.251L67.2523 95.9732L69.6755 95.0373L72.0989 94.102L71.5743 91.5579L71.0504 89.0136L73.3281 88.3442L75.6066 87.6746L74.244 83.0382L72.8815 78.4018L75.1997 77.7205L77.5179 77.0392L74.5008 66.7729L71.4837 56.5066L69.1655 57.1879L66.8473 57.8692L65.3874 52.9016L63.9275 47.9341L61.6093 48.6154L59.2911 49.2966L58.6098 46.9784L57.9285 44.6603L55.2792 45.4389L52.6298 46.2175L51.9485 43.8993L51.2673 41.5811L46.2997 43.041L41.3321 44.5009L40.5535 41.8515L39.7749 39.2021L32.158 41.4406L24.5411 43.6791L25.3197 46.3285ZM26.6 67.3587L27.5353 69.7822L30.0794 69.2575L32.6237 68.7336L33.2931 71.0114L33.9627 73.2898L31.3134 74.0684L28.664 74.847L29.3453 77.1652L30.0266 79.4834L27.7084 80.1647L25.3902 80.846L24.7089 78.5278L24.0276 76.2096L21.7094 76.8909L19.3912 77.5722L18.71 75.254L18.0287 72.9358L20.3469 72.2545L22.6651 71.5732L21.8865 68.9238L21.1078 66.2745L23.3863 65.6049L25.6641 64.9355L26.6 67.3587ZM32.2651 87.1003L32.9464 89.4185L30.6282 90.0998L28.31 90.7811L27.6287 88.4629L26.9474 86.1447L29.2656 85.4634L31.5838 84.7822L32.2651 87.1003Z" fill="#FCB5BD"/>
<path fill-rule="evenodd" clip-rule="evenodd" d="M25.3197 46.3285L26.0983 48.9778L21.4619 50.3404L16.8255 51.703L17.5068 54.0212L18.1881 56.3394L15.5387 57.118L12.8893 57.8966L13.5706 60.2148L14.2519 62.533L11.9337 63.2142L9.61551 63.8955L11.0754 68.8631L12.5353 73.8306L9.8687 74.6143L7.20212 75.398L10.3534 85.445L13.5046 95.4919L16.0487 94.9673L18.593 94.4434L19.9437 99.0394L21.2946 103.636L23.6128 102.955L25.931 102.273L26.7096 104.923L27.4882 107.572L30.1376 106.794L32.787 106.015L33.4682 108.333L34.1495 110.651L36.4677 109.97L38.7859 109.289L39.4672 111.607L40.1485 113.925L42.4667 113.244L44.7849 112.563L45.5635 115.212L46.3421 117.861L48.9914 117.083L51.6408 116.304L52.3221 118.622L53.0034 120.941L55.3216 120.259L57.6398 119.578L59.0023 124.214L60.3649 128.851L58.0467 129.532L55.7285 130.213L56.3981 132.492L57.0675 134.77L54.6443 135.705L52.2208 136.641L54.2232 144.147L56.2256 151.654L58.8968 150.869L61.568 150.084L62.3467 152.733L63.1253 155.382L65.4435 154.701L67.7616 154.02L69.1242 158.656L70.4868 163.292L68.1686 163.974L65.8504 164.655L66.5317 166.973L67.2129 169.291L64.5636 170.07L61.9142 170.849L62.6928 173.498L63.4714 176.147L66.452 175.271L69.4325 174.396L68.7512 172.077L68.0699 169.759L70.3881 169.078L72.7063 168.397L72.025 166.078L71.3438 163.76L73.662 163.079L75.9802 162.398L74.4229 157.099L72.8657 151.8L70.5475 152.481L68.2293 153.163L67.5481 150.845L66.8668 148.526L64.5486 149.208L62.2304 149.889L60.0892 142.603L57.948 135.317L60.2662 134.636L62.5844 133.955L61.9032 131.637L61.2219 129.318L63.5401 128.637L65.8583 127.956L64.301 122.657L62.7438 117.358L60.4256 118.04L58.1074 118.721L57.5235 116.734L56.9395 114.747L59.2577 114.066L61.5759 113.384L60.7973 110.735L60.0187 108.086L62.6681 107.307L65.3174 106.528L64.6362 104.21L63.9549 101.892L66.2731 101.211L68.5913 100.529L67.9217 98.251L67.2523 95.9732L69.6755 95.0373L72.0989 94.102L71.5743 91.5579L71.0504 89.0136L73.3281 88.3442L75.6066 87.6746L74.244 83.0382L72.8815 78.4018L75.1997 77.7205L77.5179 77.0392L74.5008 66.7729L71.4837 56.5066L69.1655 57.1879L66.8473 57.8692L65.3874 52.9016L63.9275 47.9341L61.6093 48.6154L59.2911 49.2966L58.6098 46.9784L57.9285 44.6603L55.2792 45.4389L52.6298 46.2175L51.9485 43.8993L51.2673 41.5811L46.2997 43.041L41.3321 44.5009L40.5535 41.8515L39.7749 39.2021L32.158 41.4406L24.5411 43.6791L25.3197 46.3285ZM27.0879 67.0355L27.7691 69.3537L30.0873 68.6724L32.4055 67.9911L33.1841 70.6405L33.9627 73.2898L31.6843 73.9594L29.4065 74.6288L29.9305 77.1731L30.4551 79.7173L28.0316 80.6525L25.6084 81.5885L24.8179 78.8987L24.0276 76.2096L21.3385 76.9999L18.6487 77.7904L18.1248 75.2461L17.6002 72.7019L20.0236 71.7667L22.4469 70.8307L21.7774 68.5529L21.1078 66.2745L23.7572 65.4959L26.4066 64.7173L27.0879 67.0355ZM32.7529 86.7771L33.6888 89.2003L30.9991 89.9908L28.31 90.7811L27.5197 88.092L26.7292 85.4022L29.2735 84.8783L31.8176 84.3537L32.7529 86.7771Z" fill="#FF919F"/>
<path fill-rule="evenodd" clip-rule="evenodd" d="M25.3197 46.3285L26.0983 48.9778L21.4619 50.3404L16.8255 51.703L17.5068 54.0212L18.1881 56.3394L15.5387 57.118L12.8893 57.8966L13.5706 60.2148L14.2519 62.533L11.9337 63.2142L9.61551 63.8955L11.0754 68.8631L12.5353 73.8306L9.8687 74.6143L7.20212 75.398L10.3534 85.445L13.5046 95.4919L16.0487 94.9673L18.593 94.4434L19.9437 99.0394L21.2946 103.636L23.6128 102.955L25.931 102.273L26.7096 104.923L27.4882 107.572L30.1376 106.794L32.787 106.015L33.4682 108.333L34.1495 110.651L36.4677 109.97L38.7859 109.289L39.4672 111.607L40.1485 113.925L42.4667 113.244L44.7849 112.563L45.5635 115.212L46.3421 117.861L48.9914 117.083L51.6408 116.304L52.3221 118.622L53.0034 120.941L55.3216 120.259L57.6398 119.578L59.0023 124.214L60.3649 128.851L58.0467 129.532L55.7285 130.213L56.3981 132.492L57.0675 134.77L54.6443 135.705L52.2208 136.641L54.2232 144.147L56.2256 151.654L58.8968 150.869L61.568 150.084L62.3467 152.733L63.1253 155.382L65.4435 154.701L67.7616 154.02L69.1242 158.656L70.4868 163.292L68.1686 163.974L65.8504 164.655L66.5317 166.973L67.2129 169.291L64.5636 170.07L61.9142 170.849L62.6928 173.498L63.4714 176.147L66.452 175.271L69.4325 174.396L68.7512 172.077L68.0699 169.759L70.3881 169.078L72.7063 168.397L72.025 166.078L71.3438 163.76L73.662 163.079L75.9802 162.398L74.4229 157.099L72.8657 151.8L70.5475 152.481L68.2293 153.163L67.5481 150.845L66.8668 148.526L64.5486 149.208L62.2304 149.889L60.0892 142.603L57.948 135.317L60.2662 134.636L62.5844 133.955L61.9032 131.637L61.2219 129.318L63.5401 128.637L65.8583 127.956L64.301 122.657L62.7438 117.358L60.4256 118.04L58.1074 118.721L57.5235 116.734L56.9395 114.747L59.2577 114.066L61.5759 113.384L60.7973 110.735L60.0187 108.086L62.6681 107.307L65.3174 106.528L64.6362 104.21L63.9549 101.892L66.2731 101.211L68.5913 100.529L67.9217 98.251L67.2523 95.9732L69.6755 95.0373L72.0989 94.102L71.5743 91.5579L71.0504 89.0136L73.3281 88.3442L75.6066 87.6746L74.244 83.0382L72.8815 78.4018L75.1997 77.7205L77.5179 77.0392L74.5008 66.7729L71.4837 56.5066L69.1655 57.1879L66.8473 57.8692L65.3874 52.9016L63.9275 47.9341L61.6093 48.6154L59.2911 49.2966L58.6098 46.9784L57.9285 44.6603L55.2792 45.4389L52.6298 46.2175L51.9485 43.8993L51.2673 41.5811L46.2997 43.041L41.3321 44.5009L40.5535 41.8515L39.7749 39.2021L32.158 41.4406L24.5411 43.6791L25.3197 46.3285ZM42.1107 47.1502L42.8893 49.7996L47.5257 48.437L52.1621 47.0745L52.8434 49.3927L53.5247 51.7109L56.1741 50.9322L58.8234 50.1536L63.1058 64.7251L67.3881 79.2967L65.0699 79.9779L62.7517 80.6592L63.4213 82.9377L64.0907 85.2155L61.6675 86.1514L59.244 87.0867L59.7687 89.6308L60.2926 92.1751L55.6966 93.5258L51.1 94.8767L51.7813 97.1949L52.4625 99.5131L42.5274 102.433L32.5923 105.353L31.911 103.034L31.2297 100.716L28.9115 101.398L26.5933 102.079L25.1335 97.1112L23.6736 92.1437L21.3554 92.825L19.0372 93.5062L16.2147 83.9023L13.3923 74.2983L15.7105 73.6171L18.0287 72.9358L16.5688 67.9682L15.1089 63.0007L17.4271 62.3194L19.7453 61.6381L19.064 59.3199L18.3827 57.0017L23.3503 55.5418L28.3178 54.0819L27.5392 51.4326L26.7606 48.7832L34.0464 46.642L41.3321 44.5009L42.1107 47.1502Z" fill="#DE6B79"/>
<path fill-rule="evenodd" clip-rule="evenodd" d="M25.3197 46.3285L26.0983 48.9778L21.4619 50.3404L16.8255 51.703L17.5068 54.0212L18.1881 56.3394L15.5387 57.118L12.8893 57.8966L13.5706 60.2148L14.2519 62.533L11.9337 63.2142L9.61551 63.8955L11.0754 68.8631L12.5353 73.8306L9.8687 74.6143L7.20212 75.398L10.3534 85.445L13.5046 95.4919L16.0487 94.9673L18.593 94.4434L19.9437 99.0394L21.2946 103.636L23.6128 102.955L25.931 102.273L26.7096 104.923L27.4882 107.572L30.1376 106.794L32.787 106.015L33.4682 108.333L34.1495 110.651L36.4677 109.97L38.7859 109.289L39.4672 111.607L40.1485 113.925L42.4667 113.244L44.7849 112.563L45.5635 115.212L46.3421 117.861L48.9914 117.083L51.6408 116.304L52.3221 118.622L53.0034 120.941L55.3216 120.259L57.6398 119.578L59.0023 124.214L60.3649 128.851L58.0467 129.532L55.7285 130.213L56.3981 132.492L57.0675 134.77L54.6443 135.705L52.2208 136.641L54.2232 144.147L56.2256 151.654L58.8968 150.869L61.568 150.084L62.3467 152.733L63.1253 155.382L65.4435 154.701L67.7616 154.02L69.1242 158.656L70.4868 163.292L68.1686 163.974L65.8504 164.655L66.5317 166.973L67.2129 169.291L64.5636 170.07L61.9142 170.849L62.6928 173.498L63.4714 176.147L66.452 175.271L69.4325 174.396L68.7512 172.077L68.0699 169.759L70.3881 169.078L72.7063 168.397L72.025 166.078L71.3438 163.76L73.662 163.079L75.9802 162.398L74.4229 157.099L72.8657 151.8L70.5475 152.481L68.2293 153.163L67.5481 150.845L66.8668 148.526L64.5486 149.208L62.2304 149.889L60.0892 142.603L57.948 135.317L60.2662 134.636L62.5844 133.955L61.9032 131.637L61.2219 129.318L63.5401 128.637L65.8583 127.956L64.301 122.657L62.7438 117.358L60.4256 118.04L58.1074 118.721L57.5235 116.734L56.9395 114.747L59.2577 114.066L61.5759 113.384L60.7973 110.735L60.0187 108.086L62.6681 107.307L65.3174 106.528L64.6362 104.21L63.9549 101.892L66.2731 101.211L68.5913 100.529L67.9217 98.251L67.2523 95.9732L69.6755 95.0373L72.0989 94.102L71.5743 91.5579L71.0504 89.0136L73.3281 88.3442L75.6066 87.6746L74.244 83.0382L72.8815 78.4018L75.1997 77.7205L77.5179 77.0392L74.5008 66.7729L71.4837 56.5066L69.1655 57.1879L66.8473 57.8692L65.3874 52.9016L63.9275 47.9341L61.6093 48.6154L59.2911 49.2966L58.6098 46.9784L57.9285 44.6603L55.2792 45.4389L52.6298 46.2175L51.9485 43.8993L51.2673 41.5811L46.2997 43.041L41.3321 44.5009L40.5535 41.8515L39.7749 39.2021L32.158 41.4406L24.5411 43.6791L25.3197 46.3285ZM42.1107 47.1502L42.8893 49.7996L47.8569 48.3397L52.8245 46.8798L53.5057 49.198L54.187 51.5162L56.5052 50.8349L58.8234 50.1536L60.2833 55.1212L61.7432 60.0888L64.0614 59.4075L66.3796 58.7262L69.202 68.3301L72.0245 77.9341L69.7063 78.6154L67.3881 79.2967L68.848 84.2642L70.3079 89.2318L67.6585 90.0104L65.0091 90.789L65.6904 93.1072L66.3717 95.4254L64.0535 96.1067L61.7353 96.7879L62.4166 99.1061L63.0979 101.424L60.7797 102.106L58.4615 102.787L59.2401 105.436L60.0187 108.086L52.733 110.227L45.4472 112.368L44.6686 109.719L43.89 107.069L41.5718 107.751L39.2536 108.432L38.5723 106.114L37.891 103.795L35.2417 104.574L32.5923 105.353L31.911 103.034L31.2297 100.716L28.9115 101.398L26.5933 102.079L25.1335 97.1112L23.6736 92.1437L21.0242 92.9223L18.3748 93.7009L15.5641 84.1367L12.7535 74.5731L15.1767 73.6372L17.6002 72.7019L16.3837 67.8427L15.1672 62.9835L17.4562 62.3108L19.7453 61.6381L19.064 59.3199L18.3827 57.0017L23.3503 55.5418L28.3178 54.0819L27.5392 51.4326L26.7606 48.7832L34.0464 46.642L41.3321 44.5009L42.1107 47.1502Z" fill="#BD5360"/>
<path fill-rule="evenodd" clip-rule="evenodd" d="M25.3197 46.3285L26.0983 48.9778L21.4619 50.3404L16.8255 51.703L17.5068 54.0212L18.1881 56.3394L15.5387 57.118L12.8893 57.8966L13.5706 60.2148L14.2519 62.533L11.9337 63.2142L9.61551 63.8955L11.0754 68.8631L12.5353 73.8306L9.8687 74.6143L7.20212 75.398L10.3534 85.445L13.5046 95.4919L16.0487 94.9673L18.593 94.4434L19.9437 99.0394L21.2946 103.636L23.6128 102.955L25.931 102.273L26.7096 104.923L27.4882 107.572L30.1376 106.794L32.787 106.015L33.4682 108.333L34.1495 110.651L36.4677 109.97L38.7859 109.289L39.4672 111.607L40.1485 113.925L42.4667 113.244L44.7849 112.563L45.5635 115.212L46.3421 117.861L48.9914 117.083L51.6408 116.304L52.3221 118.622L53.0034 120.941L55.3216 120.259L57.6398 119.578L59.0023 124.214L60.3649 128.851L58.0467 129.532L55.7285 130.213L56.3981 132.492L57.0675 134.77L54.6443 135.705L52.2208 136.641L54.2232 144.147L56.2256 151.654L58.8968 150.869L61.568 150.084L62.3467 152.733L63.1253 155.382L65.4435 154.701L67.7616 154.02L69.1242 158.656L70.4868 163.292L68.1686 163.974L65.8504 164.655L66.5317 166.973L67.2129 169.291L64.5636 170.07L61.9142 170.849L62.6928 173.498L63.4714 176.147L66.452 175.271L69.4325 174.396L68.7512 172.077L68.0699 169.759L70.3881 169.078L72.7063 168.397L72.025 166.078L71.3438 163.76L73.662 163.079L75.9802 162.398L74.4229 157.099L72.8657 151.8L70.5475 152.481L68.2293 153.163L67.5481 150.845L66.8668 148.526L64.5486 149.208L62.2304 149.889L60.0892 142.603L57.948 135.317L60.2662 134.636L62.5844 133.955L61.9032 131.637L61.2219 129.318L63.5401 128.637L65.8583 127.956L64.301 122.657L62.7438 117.358L60.4256 118.04L58.1074 118.721L57.5235 116.734L56.9395 114.747L59.2577 114.066L61.5759 113.384L60.7973 110.735L60.0187 108.086L62.6681 107.307L65.3174 106.528L64.6362 104.21L63.9549 101.892L66.2731 101.211L68.5913 100.529L67.9217 98.251L67.2523 95.9732L69.6755 95.0373L72.0989 94.102L71.5743 91.5579L71.0504 89.0136L73.3281 88.3442L75.6066 87.6746L74.244 83.0382L72.8815 78.4018L75.1997 77.7205L77.5179 77.0392L74.5008 66.7729L71.4837 56.5066L69.1655 57.1879L66.8473 57.8692L65.3874 52.9016L63.9275 47.9341L61.6093 48.6154L59.2911 49.2966L58.6098 46.9784L57.9285 44.6603L55.2792 45.4389L52.6298 46.2175L51.9485 43.8993L51.2673 41.5811L46.2997 43.041L41.3321 44.5009L40.5535 41.8515L39.7749 39.2021L32.158 41.4406L24.5411 43.6791L25.3197 46.3285ZM42.0049 46.7899L42.6776 49.079L47.5368 47.8625L52.396 46.646L53.3312 49.0694L54.2672 51.4926L56.545 50.8232L58.8234 50.1536L60.2833 55.1212L61.7432 60.0888L64.0614 59.4075L66.3796 58.7262L69.202 68.3301L72.0245 77.9341L69.7063 78.6154L67.3881 79.2967L68.848 84.2642L70.3079 89.2318L67.9897 89.9131L65.6715 90.5943L66.3528 92.9125L67.034 95.2307L64.3847 96.0093L61.7353 96.7879L62.5139 99.4373L63.2925 102.087L60.9743 102.768L58.6561 103.449L59.3374 105.767L60.0187 108.086L52.733 110.227L45.4472 112.368L44.7659 110.05L44.0846 107.732L41.8062 108.401L39.5284 109.071L38.5925 106.647L37.6572 104.224L35.1131 104.749L32.5687 105.272L31.8993 102.995L31.2297 100.716L28.9407 101.389L26.6516 102.062L25.0457 97.3169L23.4397 92.5722L20.8956 93.0968L18.3513 93.6207L15.5524 84.0969L12.7535 74.5731L15.1767 73.6372L17.6002 72.7019L16.3837 67.8427L15.1672 62.9835L17.4562 62.3108L19.7453 61.6381L18.9667 58.9887L18.1881 56.3394L23.1556 54.8795L28.1232 53.4196L27.4419 51.1014L26.7606 48.7832L34.0464 46.642L41.3321 44.5009L42.0049 46.7899Z" fill="#90686D"/>
<path fill-rule="evenodd" clip-rule="evenodd" d="M25.3197 46.3285L26.0983 48.9778L21.4619 50.3404L16.8255 51.703L17.5068 54.0212L18.1881 56.3394L15.5387 57.118L12.8893 57.8966L13.5706 60.2148L14.2519 62.533L11.9337 63.2142L9.61551 63.8955L11.0754 68.8631L12.5353 73.8306L9.8687 74.6143L7.20212 75.398L10.3534 85.445L13.5046 95.4919L16.0487 94.9673L18.593 94.4434L19.9437 99.0394L21.2946 103.636L23.6128 102.955L25.931 102.273L26.7096 104.923L27.4882 107.572L30.1376 106.794L32.787 106.015L33.4682 108.333L34.1495 110.651L36.4677 109.97L38.7859 109.289L39.4672 111.607L40.1485 113.925L42.4667 113.244L44.7849 112.563L45.5337 115.111L46.2827 117.659L53.8916 115.394L61.5006 113.128L60.7597 110.607L60.0187 108.086L62.6681 107.307L65.3174 106.528L64.6362 104.21L63.9549 101.892L66.2731 101.211L68.5913 100.529L67.9217 98.251L67.2523 95.9732L69.6755 95.0373L72.0989 94.102L71.5743 91.5579L71.0504 89.0136L73.3281 88.3442L75.6066 87.6746L74.244 83.0382L72.8815 78.4018L75.1997 77.7205L77.5179 77.0392L74.5008 66.7729L71.4837 56.5066L69.1655 57.1879L66.8473 57.8692L65.3874 52.9016L63.9275 47.9341L61.6093 48.6154L59.2911 49.2966L58.6098 46.9784L57.9285 44.6603L55.2792 45.4389L52.6298 46.2175L51.9485 43.8993L51.2673 41.5811L46.2997 43.041L41.3321 44.5009L40.5535 41.8515L39.7749 39.2021L32.158 41.4406L24.5411 43.6791L25.3197 46.3285ZM42.0049 46.7899L42.6776 49.079L47.5368 47.8625L52.396 46.646L53.3312 49.0694L54.2672 51.4926L56.545 50.8232L58.8234 50.1536L60.2833 55.1212L61.7432 60.0888L64.0614 59.4075L66.3796 58.7262L69.202 68.3301L72.0245 77.9341L69.7063 78.6154L67.3881 79.2967L68.848 84.2642L70.3079 89.2318L67.9897 89.9131L65.6715 90.5943L66.3528 92.9125L67.034 95.2307L64.3847 96.0093L61.7353 96.7879L62.5139 99.4373L63.2925 102.087L60.9743 102.768L58.6561 103.449L59.3374 105.767L60.0187 108.086L52.733 110.227L45.4472 112.368L44.7659 110.05L44.0846 107.732L41.8062 108.401L39.5284 109.071L38.5925 106.647L37.6572 104.224L35.1131 104.749L32.5687 105.272L31.8993 102.995L31.2297 100.716L28.9407 101.389L26.6516 102.062L25.0457 97.3169L23.4397 92.5722L20.8956 93.0968L18.3513 93.6207L15.5524 84.0969L12.7535 74.5731L15.1767 73.6372L17.6002 72.7019L16.3837 67.8427L15.1672 62.9835L17.4562 62.3108L19.7453 61.6381L18.9667 58.9887L18.1881 56.3394L23.1556 54.8795L28.1232 53.4196L27.4419 51.1014L26.7606 48.7832L34.0464 46.642L41.3321 44.5009L42.0049 46.7899ZM52.3221 118.622L53.0034 120.941L55.3216 120.259L57.6398 119.578L59.0023 124.214L60.3649 128.851L58.0467 129.532L55.7285 130.213L56.3981 132.492L57.0675 134.77L54.6443 135.705L52.2208 136.641L54.2232 144.147L56.2256 151.654L58.8968 150.869L61.568 150.084L62.3467 152.733L63.1253 155.382L65.4435 154.701L67.7616 154.02L69.1242 158.656L70.4868 163.292L68.1686 163.974L65.8504 164.655L66.5317 166.973L67.2129 169.291L64.5636 170.07L61.9142 170.849L62.6928 173.498L63.4714 176.147L66.452 175.271L69.4325 174.396L68.7512 172.077L68.0699 169.759L70.3881 169.078L72.7063 168.397L72.025 166.078L71.3438 163.76L73.662 163.079L75.9802 162.398L74.4229 157.099L72.8657 151.8L70.5475 152.481L68.2293 153.163L67.5481 150.845L66.8668 148.526L64.5486 149.208L62.2304 149.889L60.0892 142.603L57.948 135.317L60.2662 134.636L62.5844 133.955L61.9032 131.637L61.2219 129.318L63.5401 128.637L65.8583 127.956L64.301 122.657L62.7438 117.358L60.4256 118.04L58.1074 118.721L57.5235 116.734L56.9395 114.747L54.2902 115.526L51.6408 116.304L52.3221 118.622Z" fill="#AD404D"/>
<path fill-rule="evenodd" clip-rule="evenodd" d="M25.3197 46.3285L26.0983 48.9778L21.4619 50.3404L16.8255 51.703L17.5068 54.0212L18.1881 56.3394L15.5387 57.118L12.8893 57.8966L13.5706 60.2148L14.2519 62.533L11.9337 63.2142L9.61551 63.8955L11.0754 68.8631L12.5353 73.8306L9.8687 74.6143L7.20212 75.398L10.3534 85.445L13.5046 95.4919L16.0487 94.9673L18.593 94.4434L19.9437 99.0394L21.2946 103.636L23.6128 102.955L25.931 102.273L26.7096 104.923L27.4882 107.572L30.1376 106.794L32.787 106.015L33.4682 108.333L34.1495 110.651L36.4677 109.97L38.7859 109.289L39.4672 111.607L40.1485 113.925L42.4667 113.244L44.7849 112.563L45.5337 115.111L46.2827 117.659L53.8916 115.394L61.5006 113.128L60.7597 110.607L60.0187 108.086L62.6681 107.307L65.3174 106.528L64.6362 104.21L63.9549 101.892L66.2731 101.211L68.5913 100.529L67.9217 98.251L67.2523 95.9732L69.6755 95.0373L72.0989 94.102L71.5743 91.5579L71.0504 89.0136L73.3281 88.3442L75.6066 87.6746L74.244 83.0382L72.8815 78.4018L75.1997 77.7205L77.5179 77.0392L74.5008 66.7729L71.4837 56.5066L69.1655 57.1879L66.8473 57.8692L65.3874 52.9016L63.9275 47.9341L61.6093 48.6154L59.2911 49.2966L58.6098 46.9784L57.9285 44.6603L55.2792 45.4389L52.6298 46.2175L51.9485 43.8993L51.2673 41.5811L46.2997 43.041L41.3321 44.5009L40.5535 41.8515L39.7749 39.2021L32.158 41.4406L24.5411 43.6791L25.3197 46.3285ZM42.0134 46.8191L42.6947 49.1372L47.6623 47.6774L52.6298 46.2175L53.4084 48.8668L54.187 51.5162L56.5052 50.8349L58.8234 50.1536L60.186 54.79L61.5485 59.4264L64.1979 58.6478L66.8473 57.8692L69.767 67.8043L72.6868 77.7394L70.0375 78.518L67.3881 79.2967L68.848 84.2642L70.3079 89.2318L67.9897 89.9131L65.6715 90.5943L66.3528 92.9125L67.034 95.2307L64.7159 95.912L62.3977 96.5933L63.1763 99.2426L63.9549 101.892L61.3055 102.671L58.6561 103.449L59.3374 105.767L60.0187 108.086L52.733 110.227L45.4472 112.368L44.7659 110.05L44.0846 107.732L41.4353 108.51L38.7859 109.289L38.1046 106.971L37.4233 104.652L35.1051 105.334L32.787 106.015L32.0083 103.366L31.2297 100.716L28.5804 101.495L25.931 102.273L24.4711 97.3059L23.0112 92.3383L20.693 93.0196L18.3748 93.7009L15.4551 83.7658L12.5353 73.8306L14.8535 73.1494L17.1717 72.4681L15.8091 67.8317L14.4466 63.1953L17.0959 62.4167L19.7453 61.6381L18.9667 58.9887L18.1881 56.3394L23.1556 54.8795L28.1232 53.4196L27.4419 51.1014L26.7606 48.7832L34.0464 46.642L41.3321 44.5009L42.0134 46.8191ZM52.3221 118.622L53.0034 120.941L55.3216 120.259L57.6398 119.578L59.0023 124.214L60.3649 128.851L58.0467 129.532L55.7285 130.213L56.3981 132.492L57.0675 134.77L54.6443 135.705L52.2208 136.641L54.2232 144.147L56.2256 151.654L58.8968 150.869L61.568 150.084L62.3467 152.733L63.1253 155.382L65.4435 154.701L67.7616 154.02L69.1242 158.656L70.4868 163.292L68.1686 163.974L65.8504 164.655L66.5317 166.973L67.2129 169.291L64.5636 170.07L61.9142 170.849L62.6928 173.498L63.4714 176.147L66.452 175.271L69.4325 174.396L68.7512 172.077L68.0699 169.759L70.3881 169.078L72.7063 168.397L72.025 166.078L71.3438 163.76L73.662 163.079L75.9802 162.398L74.4229 157.099L72.8657 151.8L70.5475 152.481L68.2293 153.163L67.5481 150.845L66.8668 148.526L64.5486 149.208L62.2304 149.889L60.0892 142.603L57.948 135.317L60.2662 134.636L62.5844 133.955L61.9032 131.637L61.2219 129.318L63.5401 128.637L65.8583 127.956L64.301 122.657L62.7438 117.358L60.4256 118.04L58.1074 118.721L57.5235 116.734L56.9395 114.747L54.2902 115.526L51.6408 116.304L52.3221 118.622Z" fill="#7C1421"/>
<path fill-rule="evenodd" clip-rule="evenodd" d="M52.3221 118.622L53.0033 120.941L55.3215 120.259L57.6397 119.578L59.0023 124.214L60.3649 128.851L58.0467 129.532L55.7285 130.213L56.3981 132.492L57.0675 134.77L54.6442 135.705L52.2208 136.641L54.2232 144.147L56.2256 151.654L58.8968 150.869L61.568 150.084L62.3466 152.733L63.1252 155.382L65.4434 154.701L67.7616 154.02L69.1242 158.656L70.4868 163.292L68.1686 163.974L65.8504 164.655L66.5316 166.973L67.2129 169.291L64.5636 170.07L61.9142 170.849L62.6928 173.498L63.4714 176.147L66.4519 175.271L69.4325 174.396L68.7512 172.077L68.0699 169.759L70.3881 169.078L72.7063 168.397L72.025 166.078L71.3437 163.76L73.6619 163.079L75.9801 162.398L74.4229 157.099L72.8657 151.8L70.5475 152.481L68.2293 153.163L67.548 150.845L66.8668 148.526L64.5486 149.208L62.2304 149.889L60.0892 142.603L57.948 135.317L60.2662 134.636L62.5844 133.955L61.9031 131.637L61.2218 129.318L63.54 128.637L65.8582 127.956L64.301 122.657L62.7438 117.358L60.4256 118.04L58.1074 118.721L57.5235 116.734L56.9395 114.747L54.2901 115.526L51.6408 116.304L52.3221 118.622Z" fill="#FBF3F3"/>
<path fill-rule="evenodd" clip-rule="evenodd" d="M104.597 10.8089L103.811 13.9652L97.9489 12.5046L92.0871 11.0441L91.413 13.7495L90.7389 16.455L87.5826 15.6685L84.4262 14.8821L83.6397 18.0384L82.8533 21.1948L79.6969 20.4083L76.5405 19.6219L75.0941 25.4269L73.6479 31.231L70.6465 30.7838L67.6452 30.3358L64.3049 42.6733L60.9645 55.0109L64.1461 55.8036L67.3277 56.5964L65.8671 62.4582L64.4066 68.32L67.5629 69.1065L70.7193 69.8929L69.9328 73.0493L69.1464 76.2056L72.3027 76.9921L75.4591 77.7786L74.6726 80.9349L73.8862 84.0913L76.5916 84.7654L79.2971 85.4395L78.623 88.145L77.9489 90.8504L81.1052 91.6369L84.2616 92.4233L83.4751 95.5797L82.6887 98.7361L85.845 99.5225L89.0014 100.309L88.2149 103.465L87.4285 106.622L90.1339 107.296L92.8394 107.97L91.4912 113.381L90.1429 118.792L87.4375 118.118L84.732 117.444L83.9456 120.6L83.1591 123.756L80.0027 122.97L76.8464 122.183L74.487 131.652L72.1276 141.121L75.284 141.908L78.4403 142.694L77.7662 145.4L77.0921 148.105L79.7976 148.779L82.503 149.454L81.0425 155.315L79.5819 161.177L76.8764 160.503L74.171 159.829L73.3845 162.985L72.5981 166.142L69.4417 165.355L66.2853 164.569L65.4989 167.725L64.7124 170.881L67.8688 171.668L71.0251 172.454L71.6992 169.749L72.3734 167.043L75.5297 167.83L78.6861 168.616L79.4725 165.46L80.259 162.304L83.4154 163.09L86.5717 163.877L88.1446 157.564L89.7176 151.251L86.5612 150.465L83.4048 149.678L84.1913 146.522L84.9778 143.365L81.8214 142.579L78.665 141.793L80.7997 133.225L82.9344 124.658L86.0908 125.445L89.2471 126.231L90.0336 123.075L90.82 119.918L93.9764 120.705L97.1328 121.491L98.7057 115.178L100.279 108.866L97.1223 108.079L93.9659 107.293L94.64 104.587L95.3141 101.882L98.4705 102.668L101.627 103.455L102.413 100.298L103.2 97.1421L106.356 97.9286L109.512 98.715L110.187 96.0096L110.861 93.3041L113.566 93.9782L116.272 94.6523L117.058 91.496L117.845 88.3396L121.001 89.1261L124.157 89.9125L124.944 86.7562L125.73 83.5998L128.887 84.3863L132.043 85.1727L133.503 79.3109L134.964 73.4491L137.669 74.1232L140.375 74.7973L143.521 62.1719L146.667 49.5464L143.961 48.8723L141.256 48.1982L142.716 42.3364L144.177 36.4746L141.02 35.6881L137.864 34.9017L138.651 31.7453L139.437 28.5889L136.281 27.8025L133.124 27.016L133.798 24.3106L134.473 21.6051L128.611 20.1445L122.749 18.684L123.535 15.5276L124.322 12.3713L114.853 10.0119L105.384 7.65249L104.597 10.8089Z" fill="#A383FF"/>
<path fill-rule="evenodd" clip-rule="evenodd" d="M104.597 10.8089L103.811 13.9652L97.9489 12.5046L92.0871 11.0441L91.413 13.7495L90.7389 16.455L87.5826 15.6685L84.4262 14.8821L83.6397 18.0384L82.8533 21.1948L79.6969 20.4083L76.5405 19.6219L75.0941 25.4269L73.6479 31.231L70.6465 30.7838L67.6452 30.3358L64.3049 42.6733L60.9645 55.0109L64.1461 55.8036L67.3277 56.5964L65.8671 62.4582L64.4066 68.32L67.5629 69.1065L70.7193 69.8929L69.9328 73.0493L69.1464 76.2056L72.3027 76.9921L75.4591 77.7786L74.6726 80.9349L73.8862 84.0913L76.5916 84.7654L79.2971 85.4395L78.623 88.145L77.9489 90.8504L81.1052 91.6369L84.2616 92.4233L83.4751 95.5797L82.6887 98.7361L85.845 99.5225L89.0014 100.309L88.2149 103.465L87.4285 106.622L90.1339 107.296L92.8394 107.97L91.4912 113.381L90.1429 118.792L87.4375 118.118L84.732 117.444L83.9456 120.6L83.1591 123.756L80.0027 122.97L76.8464 122.183L74.487 131.652L72.1276 141.121L75.284 141.908L78.4403 142.694L77.7662 145.4L77.0921 148.105L79.7976 148.779L82.503 149.454L81.0425 155.315L79.5819 161.177L76.8764 160.503L74.171 159.829L73.3845 162.985L72.5981 166.142L69.4417 165.355L66.2853 164.569L65.4989 167.725L64.7124 170.881L67.8688 171.668L71.0251 172.454L71.6992 169.749L72.3734 167.043L75.5297 167.83L78.6861 168.616L79.4725 165.46L80.259 162.304L83.4154 163.09L86.5717 163.877L88.1446 157.564L89.7176 151.251L86.5612 150.465L83.4048 149.678L84.1913 146.522L84.9778 143.365L81.8214 142.579L78.665 141.793L80.7997 133.225L82.9344 124.658L86.0908 125.445L89.2471 126.231L90.0336 123.075L90.82 119.918L93.9764 120.705L97.1328 121.491L98.7057 115.178L100.279 108.866L97.1223 108.079L93.9659 107.293L94.64 104.587L95.3141 101.882L98.4705 102.668L101.627 103.455L102.413 100.298L103.2 97.1421L106.356 97.9286L109.512 98.715L110.187 96.0096L110.861 93.3041L113.566 93.9782L116.272 94.6523L117.058 91.496L117.845 88.3396L121.001 89.1261L124.157 89.9125L124.944 86.7562L125.73 83.5998L128.887 84.3863L132.043 85.1727L133.503 79.3109L134.964 73.4491L137.669 74.1232L140.375 74.7973L143.521 62.1719L146.667 49.5464L143.961 48.8723L141.256 48.1982L142.716 42.3364L144.177 36.4746L141.02 35.6881L137.864 34.9017L138.651 31.7453L139.437 28.5889L136.281 27.8025L133.124 27.016L133.798 24.3106L134.473 21.6051L128.611 20.1445L122.749 18.684L123.535 15.5276L124.322 12.3713L114.853 10.0119L105.384 7.65249L104.597 10.8089ZM121.061 21.6156L120.274 24.772L126.079 26.2184L131.883 27.6646L131.436 30.6661L130.988 33.6673L133.849 34.6799L136.709 35.6933L132.342 53.221L127.974 70.7497L125.269 70.0756L122.563 69.4014L121.777 72.5578L120.99 75.7142L117.834 74.9277L114.678 74.1412L113.891 77.2976L113.105 80.454L107.3 79.0076L101.496 77.5614L100.482 80.4217L99.4696 83.2823L93.9855 82.2281C90.9692 81.648 85.6256 80.1719 82.1119 78.9477L75.7222 76.7225L76.4894 73.6437L77.2567 70.564L74.5946 69.9007L71.9315 69.2372L73.068 63.5341L74.2037 57.8307L71.3431 56.8182L68.4828 55.8047L71.3754 44.1956L74.268 32.5865L77.2694 33.0337L80.2707 33.4817L81.9438 27.9123L83.6161 22.3426L86.2791 23.0062L88.9413 23.6695L89.7277 20.5132L90.5142 17.3568L96.8269 18.9297L103.14 20.5026L103.926 17.3463L104.713 14.1899L113.28 16.3246L121.847 18.4593L121.061 21.6156ZM86.8066 32.2368L86.0201 35.3931L82.8638 34.6067L79.7074 33.8202L79.0333 36.5257L78.3592 39.2311L81.5156 40.0176L84.6719 40.804L83.8855 43.9604L83.099 47.1168L86.2554 47.9032L89.4117 48.6897L90.1982 45.5333L90.9847 42.377L93.6901 43.0511L96.3956 43.7252L97.0697 41.0197L97.7438 38.3143L95.0383 37.6402L92.3329 36.9661L93.1193 33.8097L93.9058 30.6533L90.7494 29.8669L87.5931 29.0804L86.8066 32.2368ZM80.852 56.1349L80.1779 58.8404L83.3342 59.6269L86.4906 60.4133L87.1647 57.7079L87.8388 55.0024L84.6824 54.216L81.5261 53.4295L80.852 56.1349Z" fill="#F9F1F1"/>
<path fill-rule="evenodd" clip-rule="evenodd" d="M104.597 10.8089L103.811 13.9652L97.9489 12.5046L92.0871 11.0441L91.413 13.7495L90.7389 16.455L87.5826 15.6685L84.4262 14.8821L83.6397 18.0384L82.8533 21.1948L79.6969 20.4083L76.5405 19.6219L75.0941 25.4269L73.6479 31.231L70.6465 30.7838L67.6452 30.3358L64.3049 42.6733L60.9645 55.0109L64.1461 55.8036L67.3277 56.5964L65.8671 62.4582L64.4066 68.32L67.5629 69.1065L70.7193 69.8929L69.9328 73.0493L69.1464 76.2056L72.3027 76.9921L75.4591 77.7786L74.6726 80.9349L73.8862 84.0913L76.5916 84.7654L79.2971 85.4395L78.623 88.145L77.9489 90.8504L81.1052 91.6369L84.2616 92.4233L83.4751 95.5797L82.6887 98.7361L85.845 99.5225L89.0014 100.309L88.2149 103.465L87.4285 106.622L90.1339 107.296L92.8394 107.97L91.4912 113.381L90.1429 118.792L87.4375 118.118L84.732 117.444L83.9456 120.6L83.1591 123.756L80.0027 122.97L76.8464 122.183L74.487 131.652L72.1276 141.121L75.284 141.908L78.4403 142.694L77.7662 145.4L77.0921 148.105L79.7976 148.779L82.503 149.454L81.0425 155.315L79.5819 161.177L76.8764 160.503L74.171 159.829L73.3845 162.985L72.5981 166.142L69.4417 165.355L66.2853 164.569L65.4989 167.725L64.7124 170.881L67.8688 171.668L71.0251 172.454L71.6992 169.749L72.3734 167.043L75.5297 167.83L78.6861 168.616L79.4725 165.46L80.259 162.304L83.4154 163.09L86.5717 163.877L88.1446 157.564L89.7176 151.251L86.5612 150.465L83.4048 149.678L84.1913 146.522L84.9778 143.365L81.8214 142.579L78.665 141.793L80.7997 133.225L82.9344 124.658L86.0908 125.445L89.2471 126.231L90.0336 123.075L90.82 119.918L93.9764 120.705L97.1328 121.491L98.7057 115.178L100.279 108.866L97.1223 108.079L93.9659 107.293L94.64 104.587L95.3141 101.882L98.4705 102.668L101.627 103.455L102.413 100.298L103.2 97.1421L106.356 97.9286L109.512 98.715L110.187 96.0096L110.861 93.3041L113.566 93.9782L116.272 94.6523L117.058 91.496L117.845 88.3396L121.001 89.1261L124.157 89.9125L124.944 86.7562L125.73 83.5998L128.887 84.3863L132.043 85.1727L133.503 79.3109L134.964 73.4491L137.669 74.1232L140.375 74.7973L143.521 62.1719L146.667 49.5464L143.961 48.8723L141.256 48.1982L142.716 42.3364L144.177 36.4746L141.02 35.6881L137.864 34.9017L138.651 31.7453L139.437 28.5889L136.281 27.8025L133.124 27.016L133.798 24.3106L134.473 21.6051L128.611 20.1445L122.749 18.684L123.535 15.5276L124.322 12.3713L114.853 10.0119L105.384 7.65249L104.597 10.8089ZM121.061 21.6156L120.274 24.772L126.079 26.2184L131.883 27.6646L131.436 30.6661L130.988 33.6673L133.849 34.6799L136.709 35.6933L132.342 53.221L127.974 70.7497L125.269 70.0756L122.563 69.4014L121.777 72.5578L120.99 75.7142L117.834 74.9277L114.678 74.1412L113.891 77.2976L113.105 80.454L107.3 79.0076L101.496 77.5614L100.482 80.4217L99.4696 83.2823L93.9855 82.2281C90.9692 81.648 85.6256 80.1719 82.1119 78.9477L75.7222 76.7225L76.4894 73.6437L77.2567 70.564L74.5946 69.9007L71.9315 69.2372L73.068 63.5341L74.2037 57.8307L71.3431 56.8182L68.4828 55.8047L71.3754 44.1956L74.268 32.5865L77.2694 33.0337L80.2707 33.4817L81.9438 27.9123L83.6161 22.3426L86.2791 23.0062L88.9413 23.6695L89.7277 20.5132L90.5142 17.3568L96.8269 18.9297L103.14 20.5026L103.926 17.3463L104.713 14.1899L113.28 16.3246L121.847 18.4593L121.061 21.6156Z" fill="#7E61D5"/>
<path fill-rule="evenodd" clip-rule="evenodd" d="M104.597 10.8089L103.811 13.9652L97.9489 12.5046L92.0871 11.0441L91.413 13.7495L90.7389 16.455L87.5826 15.6685L84.4262 14.8821L83.6397 18.0384L82.8533 21.1948L79.6969 20.4083L76.5405 19.6219L75.0941 25.4269L73.6479 31.231L70.6465 30.7838L67.6452 30.3358L64.3049 42.6733L60.9645 55.0109L64.1461 55.8036L67.3277 56.5964L65.8671 62.4582L64.4066 68.32L67.5629 69.1065L70.7193 69.8929L69.9328 73.0493L69.1464 76.2056L72.3027 76.9921L75.4591 77.7786L74.6726 80.9349L73.8862 84.0913L76.5916 84.7654L79.2971 85.4395L78.623 88.145L77.9489 90.8504L81.1052 91.6369L84.2616 92.4233L83.5127 95.4291L82.7635 98.4358L92.2326 100.795L101.702 103.155L102.451 100.148L103.2 97.1421L106.356 97.9286L109.512 98.715L110.187 96.0096L110.861 93.3041L113.566 93.9782L116.272 94.6523L117.058 91.496L117.845 88.3396L121.001 89.1261L124.157 89.9125L124.944 86.7562L125.73 83.5998L128.887 84.3863L132.043 85.1727L133.503 79.3109L134.964 73.4491L137.669 74.1232L140.375 74.7973L143.521 62.1719L146.667 49.5464L143.961 48.8723L141.256 48.1982L142.716 42.3364L144.177 36.4746L141.02 35.6881L137.864 34.9017L138.651 31.7453L139.437 28.5889L136.281 27.8025L133.124 27.016L133.798 24.3106L134.473 21.6051L128.611 20.1445L122.749 18.684L123.535 15.5276L124.322 12.3713L114.853 10.0119L105.384 7.65249L104.597 10.8089ZM122.086 21.3461L121.422 24.0092L126.992 25.6814L132.561 27.3546L132.113 30.3558L131.666 33.3573L134.765 34.1294L137.864 34.9017L136.291 41.2144L134.718 47.5271L137.424 48.2012L140.129 48.8753L137.222 60.5421L134.315 72.2081L131.314 71.7609L128.313 71.3129L126.529 77.3337L124.746 83.3547L122.139 82.705L119.532 82.0554L118.519 84.9158L117.506 87.7764L114.505 87.3283L111.503 86.8812L110.844 89.529L110.184 92.1776L107.027 91.3911L103.871 90.6047L103.084 93.761L102.298 96.9174L93.2798 94.6704L84.2616 92.4233L85.048 89.267L85.8345 86.1106L83.1291 85.4365L80.4236 84.7624L81.0977 82.0569L81.7718 79.3515L78.6155 78.565L75.4591 77.7786L76.2456 74.6222L77.032 71.4658L73.8757 70.6794L70.7193 69.8929L72.1657 64.0879L73.6119 58.2838L70.7516 57.2704L67.891 56.2578L70.6167 44.246L73.3424 32.2343L76.5249 33.0272L79.7074 33.8202L81.2803 27.5075L82.8533 21.1948L86.0096 21.9812L89.166 22.7677L89.9525 19.6113L90.7389 16.455L96.6007 17.9155L102.463 19.3761L103.137 16.6707L103.811 13.9652L113.28 16.3246L122.749 18.684L122.086 21.3461ZM88.2149 103.465L87.4285 106.622L90.1339 107.296L92.8394 107.97L91.4912 113.381L90.1429 118.792L87.4375 118.118L84.732 117.444L83.9456 120.6L83.1591 123.756L80.0027 122.97L76.8464 122.183L74.487 131.652L72.1276 141.121L75.284 141.908L78.4403 142.694L77.7662 145.4L77.0921 148.105L79.7976 148.779L82.503 149.454L81.0425 155.315L79.5819 161.177L76.8764 160.503L74.171 159.829L73.3845 162.985L72.5981 166.142L69.4417 165.355L66.2853 164.569L65.4989 167.725L64.7124 170.881L67.8688 171.668L71.0251 172.454L71.6992 169.749L72.3734 167.043L75.5297 167.83L78.6861 168.616L79.4725 165.46L80.259 162.304L83.4154 163.09L86.5717 163.877L88.1446 157.564L89.7176 151.251L86.5612 150.465L83.4048 149.678L84.1913 146.522L84.9778 143.365L81.8214 142.579L78.665 141.793L80.7997 133.225L82.9344 124.658L86.0908 125.445L89.2471 126.231L90.0336 123.075L90.82 119.918L93.9764 120.705L97.1328 121.491L98.7057 115.178L100.279 108.866L97.1223 108.079L93.9659 107.293L94.64 104.587L95.3141 101.882L92.1577 101.095L89.0014 100.309L88.2149 103.465Z" fill="#662113"/>
<path fill-rule="evenodd" clip-rule="evenodd" d="M88.2146 103.465L87.4282 106.622L90.1336 107.296L92.8391 107.97L91.4908 113.381L90.1426 118.792L87.4372 118.118L84.7317 117.443L83.9453 120.6L83.1588 123.756L80.0024 122.97L76.8461 122.183L74.4867 131.652L72.1273 141.121L75.2837 141.908L78.44 142.694L77.7659 145.4L77.0918 148.105L79.7973 148.779L82.5027 149.453L81.0421 155.315L79.5816 161.177L76.8761 160.503L74.1707 159.829L73.3842 162.985L72.5977 166.142L69.4414 165.355L66.285 164.569L65.4986 167.725L64.7121 170.881L67.8685 171.668L71.0248 172.454L71.6989 169.749L72.373 167.043L75.5294 167.83L78.6858 168.616L79.4722 165.46L80.2587 162.304L83.415 163.09L86.5714 163.877L88.1443 157.564L89.7173 151.251L86.5609 150.465L83.4045 149.678L84.191 146.522L84.9775 143.365L81.8211 142.579L78.6647 141.792L80.7994 133.225L82.9341 124.658L86.0905 125.444L89.2468 126.231L90.0333 123.075L90.8197 119.918L93.9761 120.705L97.1325 121.491L98.7054 115.178L100.278 108.866L97.1219 108.079L93.9656 107.293L94.6397 104.587L95.3138 101.882L92.1574 101.095L89.0011 100.309L88.2146 103.465Z" fill="white"/>
</svg>
