<svg width="543" height="151" viewBox="0 0 543 151" fill="none" xmlns="http://www.w3.org/2000/svg">
<rect x="23.1692" width="495.993" height="5.78296" fill="#450B38"/>
<rect x="23.1692" y="144.566" width="495.993" height="5.78296" fill="#450B38"/>
<rect x="519.174" y="5.78906" width="9.27089" height="5.78296" fill="#450B38"/>
<rect width="9.27089" height="5.78296" transform="matrix(-1 0 0 1 23.1692 5.78906)" fill="#450B38"/>
<rect x="528.45" y="11.5704" width="4.63544" height="5.78296" fill="#450B38"/>
<rect width="4.63544" height="5.78296" transform="matrix(-1 0 0 1 13.9124 11.5704)" fill="#450B38"/>
<rect x="533.074" y="17.3414" width="4.63544" height="5.78296" fill="#450B38"/>
<rect width="4.63544" height="5.78296" transform="matrix(-1 0 0 1 9.2876 17.3414)" fill="#450B38"/>
<rect x="537.708" y="23.1306" width="4.63544" height="104.093" fill="#450B38"/>
<rect width="4.63544" height="104.093" transform="matrix(-1 0 0 1 4.63525 23.1306)" fill="#450B38"/>
<rect x="533.074" y="127.224" width="4.63544" height="5.78296" fill="#450B38"/>
<rect width="4.63544" height="5.78296" transform="matrix(-1 0 0 1 9.2876 127.224)" fill="#450B38"/>
<rect x="528.45" y="133.014" width="4.63544" height="5.78296" fill="#450B38"/>
<rect width="4.63544" height="5.78296" transform="matrix(-1 0 0 1 13.9124 133.014)" fill="#450B38"/>
<rect x="519.174" y="138.784" width="9.27089" height="5.78296" fill="#450B38"/>
<rect width="9.27089" height="5.78296" transform="matrix(-1 0 0 1 23.1692 138.784)" fill="#450B38"/>
<rect x="23.1692" y="5.78906" width="495.993" height="138.791" fill="#C475E0"/>
<rect x="519.174" y="11.5704" width="9.27089" height="127.225" fill="#C475E0"/>
<rect x="528.45" y="17.3414" width="4.63544" height="115.659" fill="#C475E0"/>
<rect x="533.074" y="23.1306" width="4.63544" height="104.093" fill="#C475E0"/>
<rect x="4.63525" y="23.1306" width="4.63544" height="104.093" fill="#C475E0"/>
<rect x="9.2876" y="17.3414" width="4.63544" height="115.659" fill="#C475E0"/>
<rect x="13.9124" y="11.5704" width="9.27089" height="127.225" fill="#C475E0"/>
<rect x="37.3066" y="16.8108" width="465.279" height="4.44293" fill="#9C57B4"/>
<rect x="37.3064" y="127.882" width="465.279" height="4.44293" fill="#9C57B4"/>
<rect x="502.571" y="21.2599" width="8.69681" height="4.44293" fill="#9C57B4"/>
<rect width="8.69681" height="4.44293" transform="matrix(-1 0 0 1 37.3064 21.2599)" fill="#9C57B4"/>
<rect x="511.277" y="25.6889" width="4.3484" height="4.44293" fill="#9C57B4"/>
<rect width="4.3484" height="4.44293" transform="matrix(-1 0 0 1 28.6006 25.6889)" fill="#9C57B4"/>
<rect x="515.62" y="30.1383" width="4.3484" height="4.44293" fill="#9C57B4"/>
<rect width="4.3484" height="4.44293" transform="matrix(-1 0 0 1 24.2676 30.1383)" fill="#9C57B4"/>
<rect x="519.972" y="34.5871" width="4.3484" height="79.9727" fill="#9C57B4"/>
<rect width="4.3484" height="79.9727" transform="matrix(-1 0 0 1 19.9143 34.5871)" fill="#9C57B4"/>
<rect x="515.62" y="114.548" width="4.3484" height="4.44293" fill="#9C57B4"/>
<rect width="4.3484" height="4.44293" transform="matrix(-1 0 0 1 24.2676 114.548)" fill="#9C57B4"/>
<rect x="511.277" y="118.996" width="4.3484" height="4.44293" fill="#9C57B4"/>
<rect width="4.3484" height="4.44293" transform="matrix(-1 0 0 1 28.6006 118.996)" fill="#9C57B4"/>
<rect x="502.571" y="123.443" width="8.69681" height="4.44293" fill="#9C57B4"/>
<rect width="8.69681" height="4.44293" transform="matrix(-1 0 0 1 37.3064 123.443)" fill="#9C57B4"/>
<rect x="37.3064" y="21.2599" width="465.279" height="106.63" fill="#D3B3ED"/>
<rect x="502.571" y="25.6889" width="8.69681" height="97.7444" fill="#D3B3ED"/>
<rect x="511.277" y="30.1383" width="4.3484" height="88.8585" fill="#D3B3ED"/>
<rect x="515.62" y="34.5871" width="4.3484" height="79.9727" fill="#D3B3ED"/>
<rect x="19.9143" y="34.5871" width="4.3484" height="79.9727" fill="#D3B3ED"/>
<rect x="24.2676" y="30.1383" width="4.3484" height="88.8585" fill="#D3B3ED"/>
<rect x="28.6006" y="25.6889" width="8.69681" height="97.7444" fill="#D3B3ED"/>
</svg>
