<svg width="363" height="151" viewBox="0 0 363 151" fill="none" xmlns="http://www.w3.org/2000/svg">
<rect x="16.2175" y="0.650879" width="330.412" height="5.78296" fill="#450B38"/>
<rect x="16.2175" y="145.217" width="330.412" height="5.78296" fill="#450B38"/>
<rect x="346.637" y="6.44031" width="6.17592" height="5.78296" fill="#450B38"/>
<rect width="6.17592" height="5.78296" transform="matrix(-1 0 0 1 16.2175 6.44031)" fill="#450B38"/>
<rect x="352.816" y="12.2216" width="3.08796" height="5.78296" fill="#450B38"/>
<rect width="3.08796" height="5.78296" transform="matrix(-1 0 0 1 10.0508 12.2216)" fill="#450B38"/>
<rect x="355.897" y="17.9924" width="3.08796" height="5.78296" fill="#450B38"/>
<rect width="3.08796" height="5.78296" transform="matrix(-1 0 0 1 6.96997 17.9924)" fill="#450B38"/>
<rect x="358.984" y="23.7819" width="3.08796" height="104.093" fill="#450B38"/>
<rect width="3.08796" height="104.093" transform="matrix(-1 0 0 1 3.87109 23.7819)" fill="#450B38"/>
<rect x="355.897" y="127.876" width="3.08796" height="5.78296" fill="#450B38"/>
<rect width="3.08796" height="5.78296" transform="matrix(-1 0 0 1 6.96997 127.876)" fill="#450B38"/>
<rect x="352.816" y="133.665" width="3.08796" height="5.78296" fill="#450B38"/>
<rect width="3.08796" height="5.78296" transform="matrix(-1 0 0 1 10.0508 133.665)" fill="#450B38"/>
<rect x="346.637" y="139.436" width="6.17592" height="5.78296" fill="#450B38"/>
<rect width="6.17592" height="5.78296" transform="matrix(-1 0 0 1 16.2175 139.436)" fill="#450B38"/>
<rect x="16.2175" y="6.44031" width="330.412" height="138.791" fill="#C475E0"/>
<rect x="346.637" y="12.2216" width="6.17592" height="127.225" fill="#C475E0"/>
<rect x="352.816" y="17.9924" width="3.08796" height="115.659" fill="#C475E0"/>
<rect x="355.897" y="23.7819" width="3.08796" height="104.093" fill="#C475E0"/>
<rect x="3.87109" y="23.7819" width="3.08796" height="104.093" fill="#C475E0"/>
<rect x="6.96997" y="17.9924" width="3.08796" height="115.659" fill="#C475E0"/>
<rect x="10.0508" y="12.2216" width="6.17592" height="127.225" fill="#C475E0"/>
<rect x="30.3525" y="17.4623" width="299.697" height="4.44293" fill="#9C57B4"/>
<rect x="30.3525" y="128.534" width="299.697" height="4.44293" fill="#9C57B4"/>
<rect x="330.039" y="21.911" width="5.6018" height="4.44293" fill="#9C57B4"/>
<rect width="5.6018" height="4.44293" transform="matrix(-1 0 0 1 30.3525 21.911)" fill="#9C57B4"/>
<rect x="335.647" y="26.3405" width="2.8009" height="4.44293" fill="#9C57B4"/>
<rect width="2.8009" height="4.44293" transform="matrix(-1 0 0 1 24.7451 26.3405)" fill="#9C57B4"/>
<rect x="338.445" y="30.7899" width="2.8009" height="4.44293" fill="#9C57B4"/>
<rect width="2.8009" height="4.44293" transform="matrix(-1 0 0 1 21.9541 30.7899)" fill="#9C57B4"/>
<rect x="341.248" y="35.2382" width="2.8009" height="79.9727" fill="#9C57B4"/>
<rect width="2.8009" height="79.9727" transform="matrix(-1 0 0 1 19.1499 35.2382)" fill="#9C57B4"/>
<rect x="338.445" y="115.199" width="2.8009" height="4.44293" fill="#9C57B4"/>
<rect width="2.8009" height="4.44293" transform="matrix(-1 0 0 1 21.9541 115.199)" fill="#9C57B4"/>
<rect x="335.647" y="119.648" width="2.8009" height="4.44293" fill="#9C57B4"/>
<rect width="2.8009" height="4.44293" transform="matrix(-1 0 0 1 24.7451 119.648)" fill="#9C57B4"/>
<rect x="330.039" y="124.095" width="5.6018" height="4.44293" fill="#9C57B4"/>
<rect width="5.6018" height="4.44293" transform="matrix(-1 0 0 1 30.3525 124.095)" fill="#9C57B4"/>
<rect x="30.3525" y="21.911" width="299.697" height="106.63" fill="#D3B3ED"/>
<rect x="330.039" y="26.3405" width="5.6018" height="97.7444" fill="#D3B3ED"/>
<rect x="335.647" y="30.7899" width="2.8009" height="88.8585" fill="#D3B3ED"/>
<rect x="338.445" y="35.2382" width="2.8009" height="79.9727" fill="#D3B3ED"/>
<rect x="19.1499" y="35.2382" width="2.8009" height="79.9727" fill="#D3B3ED"/>
<rect x="21.9541" y="30.7899" width="2.8009" height="88.8585" fill="#D3B3ED"/>
<rect x="24.7451" y="26.3405" width="5.6018" height="97.7444" fill="#D3B3ED"/>
</svg>
