<svg xmlns="http://www.w3.org/2000/svg" width="543" height="151" fill="none" viewBox="0 0 543 151"><rect width="495.993" height="5.783" x="23.169" fill="#450B38"/><rect width="495.993" height="5.783" x="23.169" y="144.566" fill="#450B38"/><rect width="9.271" height="5.783" x="519.174" y="5.789" fill="#450B38"/><rect width="9.271" height="5.783" fill="#450B38" transform="matrix(-1 0 0 1 23.1692 5.78906)"/><rect width="4.635" height="5.783" x="528.45" y="11.57" fill="#450B38"/><rect width="4.635" height="5.783" fill="#450B38" transform="matrix(-1 0 0 1 13.9124 11.5704)"/><rect width="4.635" height="5.783" x="533.074" y="17.341" fill="#450B38"/><rect width="4.635" height="5.783" fill="#450B38" transform="matrix(-1 0 0 1 9.2876 17.3414)"/><rect width="4.635" height="104.093" x="537.708" y="23.131" fill="#450B38"/><rect width="4.635" height="104.093" fill="#450B38" transform="matrix(-1 0 0 1 4.63525 23.1306)"/><rect width="4.635" height="5.783" x="533.074" y="127.224" fill="#450B38"/><rect width="4.635" height="5.783" fill="#450B38" transform="matrix(-1 0 0 1 9.2876 127.224)"/><rect width="4.635" height="5.783" x="528.45" y="133.014" fill="#450B38"/><rect width="4.635" height="5.783" fill="#450B38" transform="matrix(-1 0 0 1 13.9124 133.014)"/><rect width="9.271" height="5.783" x="519.174" y="138.784" fill="#450B38"/><rect width="9.271" height="5.783" fill="#450B38" transform="matrix(-1 0 0 1 23.1692 138.784)"/><rect width="495.993" height="138.791" x="23.169" y="5.789" fill="#C475E0"/><rect width="9.271" height="127.225" x="519.174" y="11.57" fill="#C475E0"/><rect width="4.635" height="115.659" x="528.45" y="17.341" fill="#C475E0"/><rect width="4.635" height="104.093" x="533.074" y="23.131" fill="#C475E0"/><rect width="4.635" height="104.093" x="4.635" y="23.131" fill="#C475E0"/><rect width="4.635" height="115.659" x="9.288" y="17.341" fill="#C475E0"/><rect width="9.271" height="127.225" x="13.912" y="11.57" fill="#C475E0"/><rect width="465.279" height="4.443" x="37.307" y="16.811" fill="#9C57B4"/><rect width="465.279" height="4.443" x="37.306" y="127.882" fill="#9C57B4"/><rect width="8.697" height="4.443" x="502.571" y="21.26" fill="#9C57B4"/><rect width="8.697" height="4.443" fill="#9C57B4" transform="matrix(-1 0 0 1 37.3064 21.2599)"/><rect width="4.348" height="4.443" x="511.277" y="25.689" fill="#9C57B4"/><rect width="4.348" height="4.443" fill="#9C57B4" transform="matrix(-1 0 0 1 28.6006 25.6889)"/><rect width="4.348" height="4.443" x="515.62" y="30.138" fill="#9C57B4"/><rect width="4.348" height="4.443" fill="#9C57B4" transform="matrix(-1 0 0 1 24.2676 30.1383)"/><rect width="4.348" height="79.973" x="519.972" y="34.587" fill="#9C57B4"/><rect width="4.348" height="79.973" fill="#9C57B4" transform="matrix(-1 0 0 1 19.9143 34.5871)"/><rect width="4.348" height="4.443" x="515.62" y="114.548" fill="#9C57B4"/><rect width="4.348" height="4.443" fill="#9C57B4" transform="matrix(-1 0 0 1 24.2676 114.548)"/><rect width="4.348" height="4.443" x="511.277" y="118.996" fill="#9C57B4"/><rect width="4.348" height="4.443" fill="#9C57B4" transform="matrix(-1 0 0 1 28.6006 118.996)"/><rect width="8.697" height="4.443" x="502.571" y="123.443" fill="#9C57B4"/><rect width="8.697" height="4.443" fill="#9C57B4" transform="matrix(-1 0 0 1 37.3064 123.443)"/><rect width="465.279" height="106.63" x="37.306" y="21.26" fill="#D3B3ED"/><rect width="8.697" height="97.744" x="502.571" y="25.689" fill="#D3B3ED"/><rect width="4.348" height="88.859" x="511.277" y="30.138" fill="#D3B3ED"/><rect width="4.348" height="79.973" x="515.62" y="34.587" fill="#D3B3ED"/><rect width="4.348" height="79.973" x="19.914" y="34.587" fill="#D3B3ED"/><rect width="4.348" height="88.859" x="24.268" y="30.138" fill="#D3B3ED"/><rect width="8.697" height="97.744" x="28.601" y="25.689" fill="#D3B3ED"/></svg>