<svg xmlns="http://www.w3.org/2000/svg" width="157" height="146" fill="none" viewBox="0 0 157 146"><g id="Button"><g id="Button_2"><g id="Group 289"><rect id="Rectangle 1254" width="135.954" height="5.546" x="10.311" y=".916" fill="#450B38"/><rect id="Rectangle 1255" width="135.954" height="5.546" x="10.31" y="139.558" fill="#450B38"/><rect id="Rectangle 1256" width="3.522" height="5.546" x="146.267" y="6.468" fill="#450B38"/><rect id="Rectangle 1257" width="3.522" height="5.546" fill="#450B38" transform="matrix(-1 0 0 1 10.3105 6.46771)"/><rect id="Rectangle 1260" width="2.552" height="5.546" x="148.81" y="12.012" fill="#450B38"/><rect id="Rectangle 1261" width="2.552" height="5.546" fill="#450B38" transform="matrix(-1 0 0 1 7.77246 12.0122)"/><rect id="Rectangle 1262" width="2.552" height="5.546" x="150.077" y="17.547" fill="#450B38"/><rect id="Rectangle 1263" width="2.552" height="5.546" fill="#450B38" transform="matrix(-1 0 0 1 6.50513 17.5468)"/><rect id="Rectangle 1264" width="4.77" height="99.828" x="151.348" y="23.099" fill="#450B38"/><rect id="Rectangle 1265" width="4.77" height="99.828" fill="#450B38" transform="matrix(-1 0 0 1 5.22998 23.0986)"/><rect id="Rectangle 1266" width="2.552" height="5.546" x="150.077" y="122.927" fill="#450B38"/><rect id="Rectangle 1267" width="2.552" height="5.546" fill="#450B38" transform="matrix(-1 0 0 1 6.50513 122.927)"/><rect id="Rectangle 1268" width="2.552" height="5.546" x="148.81" y="128.479" fill="#450B38"/><rect id="Rectangle 1269" width="2.552" height="5.546" fill="#450B38" transform="matrix(-1 0 0 1 7.77246 128.479)"/><rect id="Rectangle 1272" width="3.522" height="5.546" x="146.267" y="134.013" fill="#450B38"/><rect id="Rectangle 1273" width="3.522" height="5.546" fill="#450B38" transform="matrix(-1 0 0 1 10.3105 134.013)"/><rect id="Rectangle 1274" width="135.954" height="133.104" x="10.31" y="6.468" fill="#C475E0"/><rect id="Rectangle 1275" width="2.541" height="122.012" x="146.267" y="12.012" fill="#C475E0"/><rect id="Rectangle 1276" width="1.271" height="110.92" x="148.81" y="17.547" fill="#C475E0"/><rect id="Rectangle 1277" width="1.271" height="99.828" x="150.077" y="23.099" fill="#C475E0"/><rect id="Rectangle 1278" width="1.271" height="99.828" x="5.23" y="23.099" fill="#C475E0"/><rect id="Rectangle 1279" width="1.271" height="110.92" x="6.505" y="17.547" fill="#C475E0"/><rect id="Rectangle 1280" width="2.541" height="122.012" x="7.772" y="12.012" fill="#C475E0"/></g><g id="Group 288"><rect id="Rectangle 1254_2" width="106.392" height="4.174" x="25.912" y="17.727" fill="#9C57B4"/><rect id="Rectangle 1255_2" width="106.392" height="4.174" x="25.912" y="122.087" fill="#9C57B4"/><rect id="Rectangle 1256_2" width="3.629" height="4.174" x="132.301" y="21.907" fill="#9C57B4"/><rect id="Rectangle 1257_2" width="3.629" height="4.174" fill="#9C57B4" transform="matrix(-1 0 0 1 25.9124 21.9069)"/><rect id="Rectangle 1260_2" width="2.63" height="4.174" x="134.292" y="26.069" fill="#9C57B4"/><rect id="Rectangle 1261_2" width="3.449" height="4.174" fill="#9C57B4" transform="matrix(-1 0 0 1 23.9209 26.0687)"/><rect id="Rectangle 1262_2" width="2.63" height="4.174" x="135.285" y="30.249" fill="#9C57B4"/><rect id="Rectangle 1263_2" width="3.449" height="4.342" fill="#9C57B4" transform="matrix(-1 0 0 1 22.9309 30.2488)"/><rect id="Rectangle 1264_2" width="4.096" height="75.371" x="136.455" y="34.505" fill="#9C57B4"/><rect id="Rectangle 1265_2" width="4.268" height="75.617" fill="#9C57B4" transform="matrix(-1 0 0 1 21.9319 34.5052)"/><rect id="Rectangle 1266_2" width="2.63" height="4.174" x="135.285" y="109.558" fill="#9C57B4"/><rect id="Rectangle 1267_2" width="2.63" height="4.174" fill="#9C57B4" transform="matrix(-1 0 0 1 22.9309 109.558)"/><rect id="Rectangle 1268_2" width="2.63" height="4.174" x="134.292" y="113.737" fill="#9C57B4"/><rect id="Rectangle 1269_2" width="2.63" height="4.174" fill="#9C57B4" transform="matrix(-1 0 0 1 23.9209 113.737)"/><rect id="Rectangle 1272_2" width="3.629" height="4.174" x="132.301" y="117.916" fill="#9C57B4"/><rect id="Rectangle 1273_2" width="3.629" height="4.174" fill="#9C57B4" transform="matrix(-1 0 0 1 25.9124 117.916)"/><rect id="Rectangle 1274_2" width="106.392" height="100.187" x="25.912" y="21.907" fill="#D3B3ED"/><rect id="Rectangle 1275_2" width="1.989" height="91.838" x="132.301" y="26.069" fill="#D3B3ED"/><rect id="Rectangle 1276_2" width=".994" height="83.489" x="134.292" y="30.249" fill="#D3B3ED"/><rect id="Rectangle 1277_2" width=".994" height="75.14" x="135.285" y="34.429" fill="#D3B3ED"/><rect id="Rectangle 1278_2" width=".994" height="75.14" x="21.935" y="34.429" fill="#D3B3ED"/><rect id="Rectangle 1279_2" width=".994" height="83.489" x="22.931" y="30.249" fill="#D3B3ED"/><rect id="Rectangle 1280_2" width="1.989" height="91.838" x="23.921" y="26.069" fill="#D3B3ED"/></g></g></g></svg>