<svg xmlns="http://www.w3.org/2000/svg" width="363" height="151" fill="none" viewBox="0 0 363 151"><rect width="330.412" height="5.783" x="16.218" y=".651" fill="#450B38"/><rect width="330.412" height="5.783" x="16.218" y="145.217" fill="#450B38"/><rect width="6.176" height="5.783" x="346.637" y="6.44" fill="#450B38"/><rect width="6.176" height="5.783" fill="#450B38" transform="matrix(-1 0 0 1 16.2175 6.44031)"/><rect width="3.088" height="5.783" x="352.816" y="12.222" fill="#450B38"/><rect width="3.088" height="5.783" fill="#450B38" transform="matrix(-1 0 0 1 10.0508 12.2216)"/><rect width="3.088" height="5.783" x="355.897" y="17.992" fill="#450B38"/><rect width="3.088" height="5.783" fill="#450B38" transform="matrix(-1 0 0 1 6.96997 17.9924)"/><rect width="3.088" height="104.093" x="358.984" y="23.782" fill="#450B38"/><rect width="3.088" height="104.093" fill="#450B38" transform="matrix(-1 0 0 1 3.87109 23.7819)"/><rect width="3.088" height="5.783" x="355.897" y="127.876" fill="#450B38"/><rect width="3.088" height="5.783" fill="#450B38" transform="matrix(-1 0 0 1 6.96997 127.876)"/><rect width="3.088" height="5.783" x="352.816" y="133.665" fill="#450B38"/><rect width="3.088" height="5.783" fill="#450B38" transform="matrix(-1 0 0 1 10.0508 133.665)"/><rect width="6.176" height="5.783" x="346.637" y="139.436" fill="#450B38"/><rect width="6.176" height="5.783" fill="#450B38" transform="matrix(-1 0 0 1 16.2175 139.436)"/><rect width="330.412" height="138.791" x="16.218" y="6.44" fill="#C475E0"/><rect width="6.176" height="127.225" x="346.637" y="12.222" fill="#C475E0"/><rect width="3.088" height="115.659" x="352.816" y="17.992" fill="#C475E0"/><rect width="3.088" height="104.093" x="355.897" y="23.782" fill="#C475E0"/><rect width="3.088" height="104.093" x="3.871" y="23.782" fill="#C475E0"/><rect width="3.088" height="115.659" x="6.97" y="17.992" fill="#C475E0"/><rect width="6.176" height="127.225" x="10.051" y="12.222" fill="#C475E0"/><rect width="299.697" height="4.443" x="30.352" y="17.462" fill="#9C57B4"/><rect width="299.697" height="4.443" x="30.352" y="128.534" fill="#9C57B4"/><rect width="5.602" height="4.443" x="330.039" y="21.911" fill="#9C57B4"/><rect width="5.602" height="4.443" fill="#9C57B4" transform="matrix(-1 0 0 1 30.3525 21.911)"/><rect width="2.801" height="4.443" x="335.647" y="26.34" fill="#9C57B4"/><rect width="2.801" height="4.443" fill="#9C57B4" transform="matrix(-1 0 0 1 24.7451 26.3405)"/><rect width="2.801" height="4.443" x="338.445" y="30.79" fill="#9C57B4"/><rect width="2.801" height="4.443" fill="#9C57B4" transform="matrix(-1 0 0 1 21.9541 30.7899)"/><rect width="2.801" height="79.973" x="341.248" y="35.238" fill="#9C57B4"/><rect width="2.801" height="79.973" fill="#9C57B4" transform="matrix(-1 0 0 1 19.1499 35.2382)"/><rect width="2.801" height="4.443" x="338.445" y="115.199" fill="#9C57B4"/><rect width="2.801" height="4.443" fill="#9C57B4" transform="matrix(-1 0 0 1 21.9541 115.199)"/><rect width="2.801" height="4.443" x="335.647" y="119.648" fill="#9C57B4"/><rect width="2.801" height="4.443" fill="#9C57B4" transform="matrix(-1 0 0 1 24.7451 119.648)"/><rect width="5.602" height="4.443" x="330.039" y="124.095" fill="#9C57B4"/><rect width="5.602" height="4.443" fill="#9C57B4" transform="matrix(-1 0 0 1 30.3525 124.095)"/><rect width="299.697" height="106.63" x="30.352" y="21.911" fill="#D3B3ED"/><rect width="5.602" height="97.744" x="330.039" y="26.34" fill="#D3B3ED"/><rect width="2.801" height="88.859" x="335.647" y="30.79" fill="#D3B3ED"/><rect width="2.801" height="79.973" x="338.445" y="35.238" fill="#D3B3ED"/><rect width="2.801" height="79.973" x="19.15" y="35.238" fill="#D3B3ED"/><rect width="2.801" height="88.859" x="21.954" y="30.79" fill="#D3B3ED"/><rect width="5.602" height="97.744" x="24.745" y="26.34" fill="#D3B3ED"/></svg>