<svg width="157" height="146" viewBox="0 0 157 146" fill="none" xmlns="http://www.w3.org/2000/svg">
<g id="Button">
<g id="Button_2">
<g id="Group 289">
<rect id="Rectangle 1254" x="10.3108" y="0.91571" width="135.954" height="5.54598" fill="#450B38"/>
<rect id="Rectangle 1255" x="10.3105" y="139.558" width="135.954" height="5.54598" fill="#450B38"/>
<rect id="Rectangle 1256" x="146.267" y="6.46771" width="3.5217" height="5.54598" fill="#450B38"/>
<rect id="Rectangle 1257" width="3.5217" height="5.54598" transform="matrix(-1 0 0 1 10.3105 6.46771)" fill="#450B38"/>
<rect id="Rectangle 1260" x="148.81" y="12.0122" width="2.55184" height="5.54598" fill="#450B38"/>
<rect id="Rectangle 1261" width="2.55184" height="5.54598" transform="matrix(-1 0 0 1 7.77246 12.0122)" fill="#450B38"/>
<rect id="Rectangle 1262" x="150.077" y="17.5468" width="2.55184" height="5.54598" fill="#450B38"/>
<rect id="Rectangle 1263" width="2.55184" height="5.54598" transform="matrix(-1 0 0 1 6.50513 17.5468)" fill="#450B38"/>
<rect id="Rectangle 1264" x="151.348" y="23.0986" width="4.7698" height="99.8277" fill="#450B38"/>
<rect id="Rectangle 1265" width="4.7698" height="99.8277" transform="matrix(-1 0 0 1 5.22998 23.0986)" fill="#450B38"/>
<rect id="Rectangle 1266" x="150.077" y="122.927" width="2.55184" height="5.54598" fill="#450B38"/>
<rect id="Rectangle 1267" width="2.55184" height="5.54598" transform="matrix(-1 0 0 1 6.50513 122.927)" fill="#450B38"/>
<rect id="Rectangle 1268" x="148.81" y="128.479" width="2.55184" height="5.54598" fill="#450B38"/>
<rect id="Rectangle 1269" width="2.55184" height="5.54598" transform="matrix(-1 0 0 1 7.77246 128.479)" fill="#450B38"/>
<rect id="Rectangle 1272" x="146.267" y="134.013" width="3.5217" height="5.54598" fill="#450B38"/>
<rect id="Rectangle 1273" width="3.5217" height="5.54598" transform="matrix(-1 0 0 1 10.3105 134.013)" fill="#450B38"/>
<rect id="Rectangle 1274" x="10.3105" y="6.46771" width="135.954" height="133.104" fill="#C475E0"/>
<rect id="Rectangle 1275" x="146.267" y="12.0122" width="2.54119" height="122.012" fill="#C475E0"/>
<rect id="Rectangle 1276" x="148.81" y="17.5468" width="1.2706" height="110.92" fill="#C475E0"/>
<rect id="Rectangle 1277" x="150.077" y="23.0986" width="1.2706" height="99.8277" fill="#C475E0"/>
<rect id="Rectangle 1278" x="5.22998" y="23.0986" width="1.2706" height="99.8277" fill="#C475E0"/>
<rect id="Rectangle 1279" x="6.50513" y="17.5468" width="1.2706" height="110.92" fill="#C475E0"/>
<rect id="Rectangle 1280" x="7.77246" y="12.0122" width="2.54119" height="122.012" fill="#C475E0"/>
</g>
<g id="Group 288">
<rect id="Rectangle 1254_2" x="25.9124" y="17.7267" width="106.392" height="4.17445" fill="#9C57B4"/>
<rect id="Rectangle 1255_2" x="25.9124" y="122.087" width="106.392" height="4.17445" fill="#9C57B4"/>
<rect id="Rectangle 1256_2" x="132.301" y="21.9069" width="3.62928" height="4.17445" fill="#9C57B4"/>
<rect id="Rectangle 1257_2" width="3.62928" height="4.17445" transform="matrix(-1 0 0 1 25.9124 21.9069)" fill="#9C57B4"/>
<rect id="Rectangle 1260_2" x="134.292" y="26.0687" width="2.62979" height="4.17445" fill="#9C57B4"/>
<rect id="Rectangle 1261_2" width="3.44904" height="4.17445" transform="matrix(-1 0 0 1 23.9209 26.0687)" fill="#9C57B4"/>
<rect id="Rectangle 1262_2" x="135.285" y="30.2488" width="2.62979" height="4.17445" fill="#9C57B4"/>
<rect id="Rectangle 1263_2" width="3.44904" height="4.34203" transform="matrix(-1 0 0 1 22.9309 30.2488)" fill="#9C57B4"/>
<rect id="Rectangle 1264_2" x="136.455" y="34.5052" width="4.09625" height="75.371" fill="#9C57B4"/>
<rect id="Rectangle 1265_2" width="4.26829" height="75.6168" transform="matrix(-1 0 0 1 21.9319 34.5052)" fill="#9C57B4"/>
<rect id="Rectangle 1266_2" x="135.285" y="109.558" width="2.62979" height="4.17445" fill="#9C57B4"/>
<rect id="Rectangle 1267_2" width="2.62979" height="4.17445" transform="matrix(-1 0 0 1 22.9309 109.558)" fill="#9C57B4"/>
<rect id="Rectangle 1268_2" x="134.292" y="113.737" width="2.62979" height="4.17445" fill="#9C57B4"/>
<rect id="Rectangle 1269_2" width="2.62979" height="4.17445" transform="matrix(-1 0 0 1 23.9209 113.737)" fill="#9C57B4"/>
<rect id="Rectangle 1272_2" x="132.301" y="117.916" width="3.62928" height="4.17445" fill="#9C57B4"/>
<rect id="Rectangle 1273_2" width="3.62928" height="4.17445" transform="matrix(-1 0 0 1 25.9124 117.916)" fill="#9C57B4"/>
<rect id="Rectangle 1274_2" x="25.9124" y="21.9069" width="106.392" height="100.187" fill="#D3B3ED"/>
<rect id="Rectangle 1275_2" x="132.301" y="26.0687" width="1.98864" height="91.8379" fill="#D3B3ED"/>
<rect id="Rectangle 1276_2" x="134.292" y="30.2488" width="0.99432" height="83.489" fill="#D3B3ED"/>
<rect id="Rectangle 1277_2" x="135.285" y="34.4289" width="0.99432" height="75.1401" fill="#D3B3ED"/>
<rect id="Rectangle 1278_2" x="21.9353" y="34.4289" width="0.99432" height="75.1401" fill="#D3B3ED"/>
<rect id="Rectangle 1279_2" x="22.9309" y="30.2488" width="0.99432" height="83.489" fill="#D3B3ED"/>
<rect id="Rectangle 1280_2" x="23.9209" y="26.0687" width="1.98864" height="91.8379" fill="#D3B3ED"/>
</g>
</g>
</g>
</svg>
