<svg xmlns="http://www.w3.org/2000/svg" width="346" height="107" fill="none" viewBox="0 0 346 107"><rect width="315.815" height="4.07" x="14.753" y=".228" fill="#1F4278"/><rect width="315.815" height="4.07" x="14.753" y="101.984" fill="#1F4278"/><rect width="5.903" height="4.07" x="330.575" y="4.304" fill="#1F4278"/><rect width="5.903" height="4.07" fill="#1F4278" transform="matrix(-1 0 0 1 14.7529 4.30371)"/><rect width="2.952" height="4.07" x="336.482" y="8.373" fill="#1F4278"/><rect width="2.952" height="4.07" fill="#1F4278" transform="matrix(-1 0 0 1 8.85864 8.37256)"/><rect width="2.952" height="4.07" x="339.426" y="12.435" fill="#1F4278"/><rect width="2.952" height="4.07" fill="#1F4278" transform="matrix(-1 0 0 1 5.91431 12.4349)"/><rect width="2.952" height="73.268" x="342.376" y="16.511" fill="#1F4278"/><rect width="2.952" height="73.268" fill="#1F4278" transform="matrix(-1 0 0 1 2.95166 16.5105)"/><rect width="2.952" height="4.07" x="339.426" y="89.777" fill="#1F4278"/><rect width="2.952" height="4.07" fill="#1F4278" transform="matrix(-1 0 0 1 5.91431 89.7773)"/><rect width="2.952" height="4.07" x="336.482" y="93.853" fill="#1F4278"/><rect width="2.952" height="4.07" fill="#1F4278" transform="matrix(-1 0 0 1 8.85864 93.853)"/><rect width="5.903" height="4.07" x="330.575" y="97.915" fill="#1F4278"/><rect width="5.903" height="4.07" fill="#1F4278" transform="matrix(-1 0 0 1 14.7529 97.9154)"/><rect width="315.815" height="97.69" x="14.753" y="4.304" fill="#72A0E6"/><rect width="5.903" height="89.549" x="330.575" y="8.373" fill="#72A0E6"/><rect width="2.952" height="81.409" x="336.482" y="12.435" fill="#72A0E6"/><rect width="2.952" height="73.268" x="339.426" y="16.511" fill="#72A0E6"/><rect width="2.952" height="73.268" x="2.952" y="16.511" fill="#72A0E6"/><rect width="2.952" height="81.409" x="5.914" y="12.435" fill="#72A0E6"/><rect width="5.903" height="89.549" x="8.859" y="8.373" fill="#72A0E6"/><rect width="300.895" height="3.352" x="21.945" y="9.256" fill="#4D74AE"/><rect width="300.895" height="3.352" x="21.945" y="93.057" fill="#4D74AE"/><rect width="5.624" height="3.352" x="322.83" y="12.614" fill="#4D74AE"/><rect width="5.624" height="3.352" fill="#4D74AE" transform="matrix(-1 0 0 1 21.9453 12.6139)"/><rect width="2.812" height="3.352" x="328.461" y="15.955" fill="#4D74AE"/><rect width="2.812" height="3.352" fill="#4D74AE" transform="matrix(-1 0 0 1 16.3154 15.9552)"/><rect width="2.812" height="3.352" x="331.269" y="19.31" fill="#4D74AE"/><rect width="2.812" height="3.352" fill="#4D74AE" transform="matrix(-1 0 0 1 13.5125 19.3098)"/><rect width="2.812" height="60.338" x="334.084" y="22.668" fill="#4D74AE"/><rect width="2.812" height="60.338" fill="#4D74AE" transform="matrix(-1 0 0 1 10.6978 22.6676)"/><rect width="2.812" height="3.352" x="331.269" y="82.997" fill="#4D74AE"/><rect width="2.812" height="3.352" fill="#4D74AE" transform="matrix(-1 0 0 1 13.5125 82.9969)"/><rect width="2.812" height="3.352" x="328.461" y="86.355" fill="#4D74AE"/><rect width="2.812" height="3.352" fill="#4D74AE" transform="matrix(-1 0 0 1 16.3154 86.3547)"/><rect width="5.624" height="3.352" x="322.83" y="89.709" fill="#4D74AE"/><rect width="5.624" height="3.352" fill="#4D74AE" transform="matrix(-1 0 0 1 21.9453 89.7094)"/><rect width="300.895" height="80.451" x="21.945" y="12.614" fill="#A1C1E7"/><rect width="5.624" height="73.747" x="322.83" y="15.955" fill="#A1C1E7"/><rect width="2.812" height="67.042" x="328.461" y="19.31" fill="#A1C1E7"/><rect width="2.812" height="60.338" x="331.269" y="22.668" fill="#A1C1E7"/><rect width="2.812" height="60.338" x="10.698" y="22.668" fill="#A1C1E7"/><rect width="2.812" height="67.042" x="13.512" y="19.31" fill="#A1C1E7"/><rect width="5.624" height="73.747" x="16.315" y="15.955" fill="#A1C1E7"/></svg>