<svg width="346" height="107" viewBox="0 0 346 107" fill="none" xmlns="http://www.w3.org/2000/svg">
<rect x="14.7529" y="0.228271" width="315.815" height="4.07043" fill="#1F4278"/>
<rect x="14.7529" y="101.984" width="315.815" height="4.07043" fill="#1F4278"/>
<rect x="330.575" y="4.30371" width="5.90308" height="4.07043" fill="#1F4278"/>
<rect width="5.90308" height="4.07043" transform="matrix(-1 0 0 1 14.7529 4.30371)" fill="#1F4278"/>
<rect x="336.482" y="8.37256" width="2.95154" height="4.07043" fill="#1F4278"/>
<rect width="2.95154" height="4.07043" transform="matrix(-1 0 0 1 8.85864 8.37256)" fill="#1F4278"/>
<rect x="339.426" y="12.4349" width="2.95154" height="4.07043" fill="#1F4278"/>
<rect width="2.95154" height="4.07043" transform="matrix(-1 0 0 1 5.91431 12.4349)" fill="#1F4278"/>
<rect x="342.376" y="16.5105" width="2.95154" height="73.2677" fill="#1F4278"/>
<rect width="2.95154" height="73.2677" transform="matrix(-1 0 0 1 2.95166 16.5105)" fill="#1F4278"/>
<rect x="339.426" y="89.7773" width="2.95154" height="4.07043" fill="#1F4278"/>
<rect width="2.95154" height="4.07043" transform="matrix(-1 0 0 1 5.91431 89.7773)" fill="#1F4278"/>
<rect x="336.482" y="93.853" width="2.95154" height="4.07043" fill="#1F4278"/>
<rect width="2.95154" height="4.07043" transform="matrix(-1 0 0 1 8.85864 93.853)" fill="#1F4278"/>
<rect x="330.575" y="97.9154" width="5.90308" height="4.07043" fill="#1F4278"/>
<rect width="5.90308" height="4.07043" transform="matrix(-1 0 0 1 14.7529 97.9154)" fill="#1F4278"/>
<rect x="14.7529" y="4.30371" width="315.815" height="97.6903" fill="#72A0E6"/>
<rect x="330.575" y="8.37256" width="5.90308" height="89.5494" fill="#72A0E6"/>
<rect x="336.482" y="12.4349" width="2.95154" height="81.4086" fill="#72A0E6"/>
<rect x="339.426" y="16.5105" width="2.95154" height="73.2677" fill="#72A0E6"/>
<rect x="2.95166" y="16.5105" width="2.95154" height="73.2677" fill="#72A0E6"/>
<rect x="5.91431" y="12.4349" width="2.95154" height="81.4086" fill="#72A0E6"/>
<rect x="8.85864" y="8.37256" width="5.90308" height="89.5494" fill="#72A0E6"/>
<rect x="21.9453" y="9.25598" width="300.895" height="3.35212" fill="#4D74AE"/>
<rect x="21.9453" y="93.0574" width="300.895" height="3.35212" fill="#4D74AE"/>
<rect x="322.83" y="12.6139" width="5.6242" height="3.35212" fill="#4D74AE"/>
<rect width="5.6242" height="3.35212" transform="matrix(-1 0 0 1 21.9453 12.6139)" fill="#4D74AE"/>
<rect x="328.461" y="15.9552" width="2.8121" height="3.35212" fill="#4D74AE"/>
<rect width="2.8121" height="3.35212" transform="matrix(-1 0 0 1 16.3154 15.9552)" fill="#4D74AE"/>
<rect x="331.269" y="19.3098" width="2.8121" height="3.35212" fill="#4D74AE"/>
<rect width="2.8121" height="3.35212" transform="matrix(-1 0 0 1 13.5125 19.3098)" fill="#4D74AE"/>
<rect x="334.084" y="22.6676" width="2.8121" height="60.3381" fill="#4D74AE"/>
<rect width="2.8121" height="60.3381" transform="matrix(-1 0 0 1 10.6978 22.6676)" fill="#4D74AE"/>
<rect x="331.269" y="82.9969" width="2.8121" height="3.35212" fill="#4D74AE"/>
<rect width="2.8121" height="3.35212" transform="matrix(-1 0 0 1 13.5125 82.9969)" fill="#4D74AE"/>
<rect x="328.461" y="86.3547" width="2.8121" height="3.35212" fill="#4D74AE"/>
<rect width="2.8121" height="3.35212" transform="matrix(-1 0 0 1 16.3154 86.3547)" fill="#4D74AE"/>
<rect x="322.83" y="89.7094" width="5.6242" height="3.35212" fill="#4D74AE"/>
<rect width="5.6242" height="3.35212" transform="matrix(-1 0 0 1 21.9453 89.7094)" fill="#4D74AE"/>
<rect x="21.9453" y="12.6139" width="300.895" height="80.4508" fill="#A1C1E7"/>
<rect x="322.83" y="15.9552" width="5.6242" height="73.7466" fill="#A1C1E7"/>
<rect x="328.461" y="19.3098" width="2.8121" height="67.0424" fill="#A1C1E7"/>
<rect x="331.269" y="22.6676" width="2.8121" height="60.3381" fill="#A1C1E7"/>
<rect x="10.6978" y="22.6676" width="2.8121" height="60.3381" fill="#A1C1E7"/>
<rect x="13.5125" y="19.3098" width="2.8121" height="67.0424" fill="#A1C1E7"/>
<rect x="16.3154" y="15.9552" width="5.6242" height="73.7466" fill="#A1C1E7"/>
</svg>
