<svg xmlns="http://www.w3.org/2000/svg" width="831" height="253" fill="none" viewBox="0 0 831 253"><path fill="#fff" d="M16.5618 186.984L18.3296 185.217L20.0974 186.984L18.3296 188.752L20.0974 190.52L18.3296 192.288L5.95523 179.913L7.72299 178.146L16.5618 186.984ZM13.0263 172.842L14.7941 171.075L27.1684 183.449L25.4007 185.217L23.6329 183.449L21.8651 185.217L20.0974 183.449L21.8651 181.681L13.0263 172.842ZM16.5618 183.449L18.3296 181.681L20.0974 183.449L18.3296 185.217L16.5618 183.449ZM27.1615 165.778L28.9293 167.546L23.626 172.849L21.8582 171.081L27.1615 165.778ZM28.9293 167.546L30.6971 165.778L37.7681 172.849L30.6971 179.92L28.9293 178.152L34.2326 172.849L32.4648 171.081L27.1615 176.385L25.3938 174.617L30.6971 169.314L28.9293 167.546ZM25.3938 178.152L27.1615 176.385L28.9293 178.152L27.1615 179.92L25.3938 178.152ZM35.9935 164.017L37.7612 162.249L39.529 164.017L37.7612 165.785L41.2968 169.321L39.529 171.088L27.1546 158.714L28.9224 156.946L35.9935 164.017ZM37.7612 155.178L39.529 156.946L37.7612 158.714L35.9935 156.946L37.7612 155.178ZM37.7612 158.714L39.529 160.482L37.7612 162.249L35.9935 160.482L37.7612 158.714ZM43.0645 164.017L41.2968 165.785L39.529 164.017L41.2968 162.249L43.0645 164.017ZM46.6001 164.017L44.8323 165.785L43.0645 164.017L44.8323 162.249L46.6001 164.017ZM43.0645 153.411L41.2968 151.643L46.6001 146.34L48.3678 148.107L43.0645 153.411ZM48.3678 148.107L50.1356 146.34L53.6711 149.875L46.6001 156.946L48.3678 158.714L46.6001 160.482L41.2968 155.178L43.0645 153.411L44.8323 155.178L50.1356 149.875L48.3678 148.107ZM50.1356 160.482L48.3678 158.714L55.4389 151.643L57.2067 153.411L50.1356 160.482ZM66.0455 141.036L64.2777 142.804L57.2067 135.733L58.9744 133.965L66.0455 141.036ZM64.2777 128.662L66.0455 126.894L74.8843 135.733L67.8133 142.804L66.0455 141.036L71.3488 135.733L64.2777 128.662ZM80.1807 123.366L81.9485 125.133L76.6452 130.437L80.1807 133.972L78.413 135.74L67.8064 125.133L69.5741 123.366L71.3419 125.133L73.1097 123.366L74.8774 125.133L73.1097 126.901L74.8774 128.669L80.1807 123.366ZM76.6452 119.83L73.1097 123.366L71.3419 121.598L74.8774 118.062L76.6452 119.83ZM76.6452 119.83L78.413 118.062L81.9485 121.598L80.1807 123.366L76.6452 119.83Z"/><path fill="#fff" d="M14.6968 234.707L16.4646 236.475L20.0001 232.939L21.7679 234.707L18.2324 238.243L23.5357 243.546L30.6067 236.475L32.3745 238.243L23.5357 247.082L11.1613 234.707L20.0001 225.868L21.7679 227.636L14.6968 234.707ZM32.3676 220.572L34.1354 222.34L28.8321 227.643L27.0643 225.875L32.3676 220.572ZM34.1354 222.34L35.9031 220.572L42.9742 227.643L35.9031 234.714L34.1354 232.946L39.4387 227.643L37.6709 225.875L32.3676 231.179L30.5998 229.411L35.9031 224.108L34.1354 222.34ZM30.5998 232.946L32.3676 231.179L34.1354 232.946L32.3676 234.714L30.5998 232.946ZM46.5028 220.579L44.7351 222.347L39.4318 217.043L37.664 218.811L35.8962 217.043L37.664 215.276L34.1285 211.74L35.8962 209.972L39.4318 213.508L41.1995 211.74L42.9673 213.508L41.1995 215.276L46.5028 220.579ZM50.0384 220.579L48.2706 222.347L46.5028 220.579L48.2706 218.811L50.0384 220.579ZM57.1233 195.816L58.891 197.584L53.5877 202.887L58.891 208.191L64.1943 202.887L65.9621 204.655L58.891 211.726L46.5167 199.352L53.5877 192.281L55.3555 194.049L50.0522 199.352L51.82 201.12L57.1233 195.816ZM58.891 194.049L57.1233 195.816L55.3555 194.049L57.1233 192.281L58.891 194.049ZM58.891 197.584L60.6588 195.816L65.9621 201.12L64.1943 202.887L58.891 197.584ZM62.4196 190.52L64.1874 192.288L65.9552 190.52L67.7229 192.288L65.9552 194.056L71.2585 199.359L69.4907 201.127L60.6519 192.288L62.4196 190.52ZM67.7229 185.217L69.4907 186.984L65.9552 190.52L64.1874 188.752L67.7229 185.217ZM69.4907 186.984L71.2585 185.217L73.0262 186.984L71.2585 188.752L69.4907 186.984ZM74.7871 181.688L73.0193 179.92L78.3226 174.617L80.0904 176.385L74.7871 181.688ZM80.0904 176.385L81.8582 174.617L85.3937 178.153L78.3226 185.224L80.0904 186.991L78.3226 188.759L73.0193 183.456L74.7871 181.688L76.5549 183.456L81.8582 178.153L80.0904 176.385ZM81.8582 188.759L80.0904 186.991L87.1615 179.92L88.9292 181.688L81.8582 188.759ZM88.9223 164.017L90.6901 165.785L85.3868 171.088L83.619 169.321L88.9223 164.017ZM90.6901 165.785L92.4579 164.017L99.5289 171.088L92.4579 178.159L90.6901 176.392L95.9934 171.088L94.2256 169.321L88.9223 174.624L87.1546 172.856L92.4579 167.553L90.6901 165.785ZM87.1546 176.392L88.9223 174.624L90.6901 176.392L88.9223 178.159L87.1546 176.392ZM97.7543 162.256L99.522 160.489L101.29 162.256L99.522 164.024L103.058 167.56L101.29 169.328L88.9154 156.953L90.6832 155.185L97.7543 162.256ZM99.522 153.418L101.29 155.185L99.522 156.953L97.7543 155.185L99.522 153.418ZM99.522 156.953L101.29 158.721L99.522 160.489L97.7543 158.721L99.522 156.953ZM104.825 162.256L103.058 164.024L101.29 162.256L103.058 160.489L104.825 162.256ZM108.361 162.256L106.593 164.024L104.825 162.256L106.593 160.489L108.361 162.256ZM106.593 142.811L103.058 146.347L101.29 144.579L104.825 141.043L106.593 142.811ZM101.29 148.114L103.058 146.347L104.825 148.114L108.361 144.579L110.129 146.347L106.593 149.882L113.664 156.953L111.896 158.721L104.825 151.65L103.058 153.418L101.29 151.65L103.058 149.882L101.29 148.114ZM117.2 135.74L118.967 137.508L113.664 142.811L111.896 141.043L117.2 135.74ZM118.967 137.508L120.735 135.74L127.806 142.811L120.735 149.882L118.967 148.114L124.271 142.811L122.503 141.043L117.2 146.347L115.432 144.579L120.735 139.275L118.967 137.508ZM115.432 148.114L117.2 146.347L118.967 148.114L117.2 149.882L115.432 148.114ZM124.264 132.211L122.496 130.444L129.567 123.372L131.335 125.14L124.264 132.211ZM122.496 133.979L124.264 132.211L126.032 133.979L124.264 135.747L122.496 133.979ZM127.799 135.747L126.032 133.979L131.335 128.676L133.103 130.444L127.799 135.747ZM136.638 130.444L134.87 132.211L133.103 130.444L134.87 128.676L136.638 130.444ZM134.87 132.211L136.638 133.979L129.567 141.05L127.799 139.282L134.87 132.211ZM141.935 125.147L140.167 126.915L134.864 121.612L133.096 123.379L131.328 121.612L133.096 119.844L129.56 116.308L131.328 114.541L134.864 118.076L136.631 116.308L138.399 118.076L136.631 119.844L141.935 125.147ZM145.47 125.147L143.702 126.915L141.935 125.147L143.702 123.379L145.47 125.147Z"/><path fill="#fff" d="M97.9744 208.43L96.2066 206.662L101.51 201.359L103.278 203.126L97.9744 208.43ZM106.813 217.269L105.045 219.036L96.2066 210.197L97.9744 208.43L106.813 217.269ZM103.278 203.126L105.045 201.359L113.884 210.198L112.117 211.965L103.278 203.126ZM112.117 211.965L113.884 213.733L108.581 219.036L106.813 217.269L112.117 211.965ZM110.342 199.598L112.11 201.366L113.877 199.598L115.645 201.366L113.877 203.133L119.181 208.437L117.413 210.204L108.574 201.366L110.342 199.598ZM115.645 194.295L117.413 196.062L113.877 199.598L112.11 197.83L115.645 194.295ZM117.413 196.062L119.181 194.295L120.948 196.062L119.181 197.83L117.413 196.062ZM115.638 187.23L117.406 185.463L119.174 187.23L117.406 188.998L115.638 187.23ZM119.174 190.766L120.942 188.998L129.78 197.837L128.013 199.605L119.174 190.766ZM126.248 187.227L124.481 185.459L129.784 180.156L131.552 181.924L126.248 187.227ZM131.552 181.924L133.319 180.156L136.855 183.691L129.784 190.762L131.552 192.53L129.784 194.298L124.481 188.995L126.248 187.227L128.016 188.995L133.319 183.691L131.552 181.924ZM133.319 194.298L131.552 192.53L138.623 185.459L140.39 187.227L133.319 194.298ZM140.384 169.556L142.151 171.324L136.848 176.627L143.919 183.698L142.151 185.466L133.312 176.627L140.384 169.556ZM142.151 171.324L143.919 169.556L150.99 176.627L149.222 178.395L142.151 171.324ZM154.519 169.563L152.751 171.331L147.448 166.027L145.68 167.795L143.912 166.027L145.68 164.26L142.144 160.724L143.912 158.956L147.448 162.492L149.215 160.724L150.983 162.492L149.215 164.26L154.519 169.563ZM158.054 169.563L156.287 171.331L154.519 169.563L156.287 167.795L158.054 169.563ZM158.061 151.878L159.829 153.646L154.526 158.95L152.758 157.182L158.061 151.878ZM159.829 153.646L161.597 151.878L168.668 158.95L161.597 166.021L159.829 164.253L165.132 158.95L163.364 157.182L158.061 162.485L156.293 160.717L161.597 155.414L159.829 153.646ZM156.293 164.253L158.061 162.485L159.829 164.253L158.061 166.021L156.293 164.253ZM172.196 151.885L170.429 153.653L165.125 148.35L163.358 150.118L161.59 148.35L163.358 146.582L159.822 143.047L161.59 141.279L165.125 144.814L166.893 143.047L168.661 144.814L166.893 146.582L172.196 151.885ZM175.732 151.885L173.964 153.653L172.196 151.885L173.964 150.118L175.732 151.885ZM165.132 137.736L166.9 135.969L168.668 137.736L166.9 139.504L165.132 137.736ZM168.668 141.272L170.436 139.504L179.274 148.343L177.507 150.111L168.668 141.272ZM175.742 137.733L173.975 135.965L179.278 130.662L181.046 132.43L175.742 137.733ZM181.046 143.036L179.278 144.804L173.975 139.501L175.742 137.733L181.046 143.036ZM181.046 132.43L182.813 130.662L188.117 135.965L186.349 137.733L181.046 132.43ZM186.349 137.733L188.117 139.501L182.813 144.804L181.046 143.036L186.349 137.733ZM189.878 120.062L191.645 121.83L186.342 127.133L193.413 134.204L191.645 135.972L182.806 127.133L189.878 120.062ZM191.645 121.83L193.413 120.062L200.484 127.133L198.716 128.901L191.645 121.83Z"/><path fill="#fff" d="M173.172 202.525L174.94 200.757L176.707 202.525L174.94 204.292L176.707 206.06L174.94 207.828L162.565 195.454L164.333 193.686L173.172 202.525ZM169.636 188.383L171.404 186.615L183.779 198.989L182.011 200.757L180.243 198.989L178.475 200.757L176.707 198.989L178.475 197.221L169.636 188.383ZM173.172 198.989L174.94 197.221L176.707 198.989L174.94 200.757L173.172 198.989ZM180.236 188.389L178.468 186.622L183.772 181.318L185.539 183.086L180.236 188.389ZM185.539 193.693L183.772 195.461L178.468 190.157L180.236 188.389L185.539 193.693ZM185.539 183.086L187.307 181.318L192.61 186.622L190.843 188.389L185.539 183.086ZM190.843 188.389L192.61 190.157L187.307 195.461L185.539 193.693L190.843 188.389ZM189.068 176.022L190.836 177.79L192.604 176.022L194.371 177.79L192.604 179.558L197.907 184.861L196.139 186.629L187.3 177.79L189.068 176.022ZM194.371 170.719L196.139 172.486L192.604 176.022L190.836 174.254L194.371 170.719ZM196.139 172.486L197.907 170.719L199.675 172.486L197.907 174.254L196.139 172.486ZM203.203 168.958L204.971 167.19L206.739 168.958L204.971 170.726L208.507 174.261L206.739 176.029L194.364 163.655L196.132 161.887L203.203 168.958ZM204.971 160.119L206.739 161.887L204.971 163.655L203.203 161.887L204.971 160.119ZM204.971 163.655L206.739 165.422L204.971 167.19L203.203 165.422L204.971 163.655ZM210.274 168.958L208.507 170.726L206.739 168.958L208.507 167.19L210.274 168.958ZM213.81 168.958L212.042 170.726L210.274 168.958L212.042 167.19L213.81 168.958ZM210.274 158.351L208.507 156.584L215.578 149.512L217.345 151.28L210.274 158.351ZM208.507 160.119L210.274 158.351L212.042 160.119L210.274 161.887L208.507 160.119ZM213.81 161.887L212.042 160.119L217.345 154.816L219.113 156.584L213.81 161.887ZM222.649 156.584L220.881 158.351L219.113 156.584L220.881 154.816L222.649 156.584ZM220.881 158.351L222.649 160.119L215.578 167.19L213.81 165.422L220.881 158.351ZM220.874 147.752L222.642 145.984L224.41 147.752L222.642 149.519L227.945 154.823L226.177 156.59L213.803 144.216L215.571 142.448L220.874 147.752ZM224.41 140.681L226.177 142.448L222.642 145.984L220.874 144.216L224.41 140.681ZM226.177 142.448L227.945 140.681L235.016 147.752L233.248 149.519L226.177 142.448ZM231.474 137.152L229.706 135.384L235.009 130.081L236.777 131.849L231.474 137.152ZM236.777 142.455L235.009 144.223L229.706 138.92L231.474 137.152L236.777 142.455ZM236.777 131.849L238.545 130.081L243.848 135.384L242.08 137.152L236.777 131.849ZM242.08 137.152L243.848 138.92L238.545 144.223L236.777 142.455L242.08 137.152ZM250.912 124.784L252.68 126.552L247.377 131.855L250.912 135.391L249.144 137.159L238.538 126.552L240.306 124.784L242.073 126.552L243.841 124.784L245.609 126.552L243.841 128.32L245.609 130.088L250.912 124.784ZM247.377 121.249L243.841 124.784L242.073 123.017L245.609 119.481L247.377 121.249ZM247.377 121.249L249.144 119.481L252.68 123.017L250.912 124.784L247.377 121.249Z"/><path fill="#fff" d="M191.789 224.08L193.557 225.848L188.253 231.151L186.485 229.383L191.789 224.08ZM186.485 232.919L188.253 231.151L197.092 239.99L195.324 241.757L186.485 232.919ZM197.092 225.848L195.324 227.615L193.557 225.848L195.324 224.08L197.092 225.848ZM202.395 231.151L204.163 232.919L202.395 234.686L200.628 232.919L202.395 231.151ZM198.86 241.757L197.092 239.99L202.395 234.686L204.163 236.454L198.86 241.757ZM202.388 224.087L200.621 222.319L205.924 217.016L207.692 218.783L202.388 224.087ZM207.692 229.39L205.924 231.158L200.621 225.854L202.388 224.087L207.692 229.39ZM207.692 218.783L209.46 217.016L214.763 222.319L212.995 224.087L207.692 218.783ZM212.995 224.087L214.763 225.854L209.46 231.158L207.692 229.39L212.995 224.087ZM212.988 209.951L214.756 211.719L212.988 213.487L220.059 220.558L218.291 222.326L209.453 213.487L212.988 209.951ZM214.756 208.184L216.524 206.416L218.291 208.184L216.524 209.951L214.756 208.184ZM214.756 211.719L216.524 209.951L220.059 213.487L218.291 215.255L214.756 211.719ZM218.291 208.184L220.059 206.416L227.13 213.487L225.363 215.255L218.291 208.184ZM232.427 201.12L234.194 202.887L228.891 208.191L232.427 211.726L230.659 213.494L220.052 202.887L221.82 201.12L223.588 202.887L225.356 201.12L227.123 202.887L225.356 204.655L227.123 206.423L232.427 201.12ZM228.891 197.584L225.356 201.12L223.588 199.352L227.123 195.816L228.891 197.584ZM228.891 197.584L230.659 195.816L234.194 199.352L232.427 201.12L228.891 197.584ZM239.491 197.591L237.723 199.359L230.652 192.288L232.42 190.52L239.491 197.591ZM237.723 185.217L239.491 183.449L248.33 192.288L241.259 199.359L239.491 197.591L244.794 192.288L237.723 185.217ZM251.858 185.223L250.091 186.991L244.787 181.688L243.019 183.456L241.252 181.688L243.019 179.92L239.484 176.385L241.252 174.617L244.787 178.152L246.555 176.385L248.323 178.152L246.555 179.92L251.858 185.223ZM255.394 185.223L253.626 186.991L251.858 185.223L253.626 183.456L255.394 185.223ZM251.865 174.61L250.097 172.842L255.401 167.539L257.169 169.307L251.865 174.61ZM257.169 169.307L258.936 167.539L262.472 171.074L255.401 178.146L257.169 179.913L255.401 181.681L250.097 176.378L251.865 174.61L253.633 176.378L258.936 171.074L257.169 169.307ZM258.936 181.681L257.169 179.913L264.24 172.842L266.007 174.61L258.936 181.681ZM260.697 162.243L262.465 164.01L264.233 162.243L266 164.01L264.233 165.778L269.536 171.081L267.768 172.849L258.929 164.01L260.697 162.243ZM266 156.939L267.768 158.707L264.233 162.243L262.465 160.475L266 156.939ZM267.768 158.707L269.536 156.939L271.304 158.707L269.536 160.475L267.768 158.707ZM292.517 144.565L294.285 146.333L285.446 155.171L283.678 153.404L287.214 149.868L280.143 142.797L278.375 144.565L276.607 142.797L278.375 141.029L276.607 139.262L278.375 137.494L288.981 148.1L292.517 144.565ZM287.207 132.197L285.439 130.43L290.742 125.126L292.51 126.894L287.207 132.197ZM296.046 137.501L294.278 139.268L296.046 141.036L294.278 142.804L285.439 133.965L287.207 132.197L292.51 137.501L294.278 135.733L296.046 137.501ZM292.51 126.894L294.278 125.126L303.117 133.965L301.349 135.733L296.046 130.43L294.278 132.197L292.51 130.43L294.278 128.662L292.51 126.894ZM294.278 135.733L292.51 133.965L294.278 132.197L296.046 133.965L294.278 135.733ZM301.349 135.733L303.117 137.501L297.813 142.804L296.046 141.036L301.349 135.733ZM313.716 123.365L315.484 125.133L306.645 133.972L304.877 132.204L308.413 128.669L301.342 121.598L299.574 123.365L297.806 121.598L299.574 119.83L297.806 118.062L299.574 116.294L310.181 126.901L313.716 123.365Z"/><path fill="#fff" d="M298.562 186.984L300.33 185.217L302.097 186.984L300.33 188.752L302.097 190.52L300.33 192.288L287.955 179.913L289.723 178.146L298.562 186.984ZM295.026 172.842L296.794 171.075L309.168 183.449L307.401 185.217L305.633 183.449L303.865 185.217L302.097 183.449L303.865 181.681L295.026 172.842ZM298.562 183.449L300.33 181.681L302.097 183.449L300.33 185.217L298.562 183.449ZM309.162 165.778L310.929 167.546L305.626 172.849L303.858 171.081L309.162 165.778ZM310.929 167.546L312.697 165.778L319.768 172.849L312.697 179.92L310.929 178.152L316.233 172.849L314.465 171.081L309.162 176.385L307.394 174.617L312.697 169.314L310.929 167.546ZM307.394 178.152L309.162 176.385L310.929 178.152L309.162 179.92L307.394 178.152ZM317.993 164.017L319.761 162.249L321.529 164.017L319.761 165.785L323.297 169.321L321.529 171.088L309.155 158.714L310.922 156.946L317.993 164.017ZM319.761 155.178L321.529 156.946L319.761 158.714L317.993 156.946L319.761 155.178ZM319.761 158.714L321.529 160.482L319.761 162.249L317.993 160.482L319.761 158.714ZM325.065 164.017L323.297 165.785L321.529 164.017L323.297 162.249L325.065 164.017ZM328.6 164.017L326.832 165.785L325.065 164.017L326.832 162.249L328.6 164.017ZM325.065 153.411L323.297 151.643L328.6 146.34L330.368 148.107L325.065 153.411ZM330.368 148.107L332.136 146.34L335.671 149.875L328.6 156.946L330.368 158.714L328.6 160.482L323.297 155.178L325.065 153.411L326.832 155.178L332.136 149.875L330.368 148.107ZM332.136 160.482L330.368 158.714L337.439 151.643L339.207 153.411L332.136 160.482ZM348.045 141.036L346.278 142.804L339.207 135.733L340.974 133.965L348.045 141.036ZM346.278 128.662L348.045 126.894L356.884 135.733L349.813 142.804L348.045 141.036L353.349 135.733L346.278 128.662ZM362.181 123.366L363.948 125.133L358.645 130.437L362.181 133.972L360.413 135.74L349.806 125.133L351.574 123.366L353.342 125.133L355.11 123.366L356.877 125.133L355.11 126.901L356.877 128.669L362.181 123.366ZM358.645 119.83L355.11 123.366L353.342 121.598L356.877 118.062L358.645 119.83ZM358.645 119.83L360.413 118.062L363.948 121.598L362.181 123.366L358.645 119.83Z"/><path fill="#fff" d="M292.697 234.707L294.465 236.475L298 232.939L299.768 234.707L296.232 238.243L301.536 243.546L308.607 236.475L310.375 238.243L301.536 247.082L289.161 234.707L298 225.868L299.768 227.636L292.697 234.707ZM310.368 220.572L312.135 222.34L306.832 227.643L305.064 225.875L310.368 220.572ZM312.135 222.34L313.903 220.572L320.974 227.643L313.903 234.714L312.135 232.946L317.439 227.643L315.671 225.875L310.368 231.179L308.6 229.411L313.903 224.108L312.135 222.34ZM308.6 232.946L310.368 231.179L312.135 232.946L310.368 234.714L308.6 232.946ZM324.503 220.579L322.735 222.347L317.432 217.043L315.664 218.811L313.896 217.043L315.664 215.276L312.128 211.74L313.896 209.972L317.432 213.508L319.2 211.74L320.967 213.508L319.2 215.276L324.503 220.579ZM328.038 220.579L326.271 222.347L324.503 220.579L326.271 218.811L328.038 220.579ZM335.123 195.816L336.891 197.584L331.588 202.887L336.891 208.191L342.194 202.887L343.962 204.655L336.891 211.726L324.517 199.352L331.588 192.281L333.355 194.049L328.052 199.352L329.82 201.12L335.123 195.816ZM336.891 194.049L335.123 195.816L333.355 194.049L335.123 192.281L336.891 194.049ZM336.891 197.584L338.659 195.816L343.962 201.12L342.194 202.887L336.891 197.584ZM340.42 190.52L342.187 192.288L343.955 190.52L345.723 192.288L343.955 194.056L349.258 199.359L347.491 201.127L338.652 192.288L340.42 190.52ZM345.723 185.217L347.491 186.984L343.955 190.52L342.187 188.752L345.723 185.217ZM347.491 186.984L349.258 185.217L351.026 186.984L349.258 188.752L347.491 186.984ZM352.787 181.688L351.019 179.92L356.323 174.617L358.09 176.385L352.787 181.688ZM358.09 176.385L359.858 174.617L363.394 178.153L356.323 185.224L358.09 186.991L356.323 188.759L351.019 183.456L352.787 181.688L354.555 183.456L359.858 178.153L358.09 176.385ZM359.858 188.759L358.09 186.991L365.161 179.92L366.929 181.688L359.858 188.759ZM366.922 164.017L368.69 165.785L363.387 171.088L361.619 169.321L366.922 164.017ZM368.69 165.785L370.458 164.017L377.529 171.088L370.458 178.159L368.69 176.392L373.993 171.088L372.226 169.321L366.922 174.624L365.155 172.856L370.458 167.553L368.69 165.785ZM365.155 176.392L366.922 174.624L368.69 176.392L366.922 178.159L365.155 176.392ZM375.754 162.256L377.522 160.489L379.29 162.256L377.522 164.024L381.058 167.56L379.29 169.328L366.915 156.953L368.683 155.185L375.754 162.256ZM377.522 153.418L379.29 155.185L377.522 156.953L375.754 155.185L377.522 153.418ZM377.522 156.953L379.29 158.721L377.522 160.489L375.754 158.721L377.522 156.953ZM382.825 162.256L381.058 164.024L379.29 162.256L381.058 160.489L382.825 162.256ZM386.361 162.256L384.593 164.024L382.825 162.256L384.593 160.489L386.361 162.256ZM384.593 142.811L381.058 146.347L379.29 144.579L382.825 141.043L384.593 142.811ZM379.29 148.114L381.058 146.347L382.825 148.114L386.361 144.579L388.129 146.347L384.593 149.882L391.664 156.953L389.896 158.721L382.825 151.65L381.058 153.418L379.29 151.65L381.058 149.882L379.29 148.114ZM395.2 135.74L396.967 137.508L391.664 142.811L389.896 141.043L395.2 135.74ZM396.967 137.508L398.735 135.74L405.806 142.811L398.735 149.882L396.967 148.114L402.271 142.811L400.503 141.043L395.2 146.347L393.432 144.579L398.735 139.275L396.967 137.508ZM393.432 148.114L395.2 146.347L396.967 148.114L395.2 149.882L393.432 148.114ZM402.264 132.211L400.496 130.444L407.567 123.372L409.335 125.14L402.264 132.211ZM400.496 133.979L402.264 132.211L404.032 133.979L402.264 135.747L400.496 133.979ZM405.799 135.747L404.032 133.979L409.335 128.676L411.103 130.444L405.799 135.747ZM414.638 130.444L412.87 132.211L411.103 130.444L412.87 128.676L414.638 130.444ZM412.87 132.211L414.638 133.979L407.567 141.05L405.799 139.282L412.87 132.211ZM419.935 125.147L418.167 126.915L412.864 121.612L411.096 123.379L409.328 121.612L411.096 119.844L407.56 116.308L409.328 114.541L412.864 118.076L414.631 116.308L416.399 118.076L414.631 119.844L419.935 125.147ZM423.47 125.147L421.702 126.915L419.935 125.147L421.702 123.379L423.47 125.147Z"/><path fill="#fff" d="M373.974 206.43L372.207 204.662L377.51 199.359L379.278 201.126L373.974 206.43ZM382.813 215.269L381.045 217.036L372.207 208.197L373.974 206.43L382.813 215.269ZM379.278 201.126L381.045 199.359L389.884 208.198L388.117 209.965L379.278 201.126ZM388.117 209.965L389.884 211.733L384.581 217.036L382.813 215.269L388.117 209.965ZM386.342 197.598L388.11 199.366L389.877 197.598L391.645 199.366L389.877 201.133L395.181 206.437L393.413 208.204L384.574 199.366L386.342 197.598ZM391.645 192.295L393.413 194.062L389.877 197.598L388.11 195.83L391.645 192.295ZM393.413 194.062L395.181 192.295L396.948 194.062L395.181 195.83L393.413 194.062ZM391.638 185.23L393.406 183.463L395.174 185.23L393.406 186.998L391.638 185.23ZM395.174 188.766L396.942 186.998L405.78 195.837L404.013 197.605L395.174 188.766ZM402.248 185.227L400.481 183.459L405.784 178.156L407.552 179.924L402.248 185.227ZM407.552 179.924L409.319 178.156L412.855 181.691L405.784 188.762L407.552 190.53L405.784 192.298L400.481 186.995L402.248 185.227L404.016 186.995L409.319 181.691L407.552 179.924ZM409.319 192.298L407.552 190.53L414.623 183.459L416.39 185.227L409.319 192.298ZM416.384 167.556L418.151 169.324L412.848 174.627L419.919 181.698L418.151 183.466L409.312 174.627L416.384 167.556ZM418.151 169.324L419.919 167.556L426.99 174.627L425.222 176.395L418.151 169.324ZM430.519 167.563L428.751 169.331L423.448 164.027L421.68 165.795L419.912 164.027L421.68 162.26L418.144 158.724L419.912 156.956L423.448 160.492L425.215 158.724L426.983 160.492L425.215 162.26L430.519 167.563ZM434.054 167.563L432.287 169.331L430.519 167.563L432.287 165.795L434.054 167.563ZM434.061 149.878L435.829 151.646L430.526 156.95L428.758 155.182L434.061 149.878ZM435.829 151.646L437.597 149.878L444.668 156.95L437.597 164.021L435.829 162.253L441.132 156.95L439.364 155.182L434.061 160.485L432.293 158.717L437.597 153.414L435.829 151.646ZM432.293 162.253L434.061 160.485L435.829 162.253L434.061 164.021L432.293 162.253ZM448.196 149.885L446.429 151.653L441.125 146.35L439.358 148.118L437.59 146.35L439.358 144.582L435.822 141.047L437.59 139.279L441.125 142.814L442.893 141.047L444.661 142.814L442.893 144.582L448.196 149.885ZM451.732 149.885L449.964 151.653L448.196 149.885L449.964 148.118L451.732 149.885ZM441.132 135.736L442.9 133.969L444.668 135.736L442.9 137.504L441.132 135.736ZM444.668 139.272L446.436 137.504L455.274 146.343L453.507 148.111L444.668 139.272ZM451.742 135.733L449.975 133.965L455.278 128.662L457.046 130.43L451.742 135.733ZM457.046 141.036L455.278 142.804L449.975 137.501L451.742 135.733L457.046 141.036ZM457.046 130.43L458.813 128.662L464.117 133.965L462.349 135.733L457.046 130.43ZM462.349 135.733L464.117 137.501L458.813 142.804L457.046 141.036L462.349 135.733ZM465.878 118.062L467.645 119.83L462.342 125.133L469.413 132.204L467.645 133.972L458.806 125.133L465.878 118.062ZM467.645 119.83L469.413 118.062L476.484 125.133L474.716 126.901L467.645 119.83Z"/><path fill="#fff" d="M442.172 200.525L443.94 198.757L445.707 200.525L443.94 202.292L445.707 204.06L443.94 205.828L431.565 193.454L433.333 191.686L442.172 200.525ZM438.636 186.383L440.404 184.615L452.779 196.989L451.011 198.757L449.243 196.989L447.475 198.757L445.707 196.989L447.475 195.221L438.636 186.383ZM442.172 196.989L443.94 195.221L445.707 196.989L443.94 198.757L442.172 196.989ZM449.236 186.389L447.468 184.622L452.772 179.318L454.539 181.086L449.236 186.389ZM454.539 191.693L452.772 193.461L447.468 188.157L449.236 186.389L454.539 191.693ZM454.539 181.086L456.307 179.318L461.61 184.622L459.843 186.389L454.539 181.086ZM459.843 186.389L461.61 188.157L456.307 193.461L454.539 191.693L459.843 186.389ZM458.068 174.022L459.836 175.79L461.604 174.022L463.371 175.79L461.604 177.558L466.907 182.861L465.139 184.629L456.3 175.79L458.068 174.022ZM463.371 168.719L465.139 170.486L461.604 174.022L459.836 172.254L463.371 168.719ZM465.139 170.486L466.907 168.719L468.675 170.486L466.907 172.254L465.139 170.486ZM472.203 166.958L473.971 165.19L475.739 166.958L473.971 168.726L477.507 172.261L475.739 174.029L463.364 161.655L465.132 159.887L472.203 166.958ZM473.971 158.119L475.739 159.887L473.971 161.655L472.203 159.887L473.971 158.119ZM473.971 161.655L475.739 163.422L473.971 165.19L472.203 163.422L473.971 161.655ZM479.274 166.958L477.507 168.726L475.739 166.958L477.507 165.19L479.274 166.958ZM482.81 166.958L481.042 168.726L479.274 166.958L481.042 165.19L482.81 166.958ZM479.274 156.351L477.507 154.584L484.578 147.512L486.345 149.28L479.274 156.351ZM477.507 158.119L479.274 156.351L481.042 158.119L479.274 159.887L477.507 158.119ZM482.81 159.887L481.042 158.119L486.345 152.816L488.113 154.584L482.81 159.887ZM491.649 154.584L489.881 156.351L488.113 154.584L489.881 152.816L491.649 154.584ZM489.881 156.351L491.649 158.119L484.578 165.19L482.81 163.422L489.881 156.351ZM489.874 145.752L491.642 143.984L493.41 145.752L491.642 147.519L496.945 152.823L495.177 154.59L482.803 142.216L484.571 140.448L489.874 145.752ZM493.41 138.681L495.177 140.448L491.642 143.984L489.874 142.216L493.41 138.681ZM495.177 140.448L496.945 138.681L504.016 145.752L502.248 147.519L495.177 140.448ZM500.474 135.152L498.706 133.384L504.009 128.081L505.777 129.849L500.474 135.152ZM505.777 140.455L504.009 142.223L498.706 136.92L500.474 135.152L505.777 140.455ZM505.777 129.849L507.545 128.081L512.848 133.384L511.08 135.152L505.777 129.849ZM511.08 135.152L512.848 136.92L507.545 142.223L505.777 140.455L511.08 135.152ZM519.912 122.784L521.68 124.552L516.377 129.855L519.912 133.391L518.144 135.159L507.538 124.552L509.306 122.784L511.073 124.552L512.841 122.784L514.609 124.552L512.841 126.32L514.609 128.088L519.912 122.784ZM516.377 119.249L512.841 122.784L511.073 121.017L514.609 117.481L516.377 119.249ZM516.377 119.249L518.144 117.481L521.68 121.017L519.912 122.784L516.377 119.249Z"/><path fill="#fff" d="M456.789 224.08L458.557 225.848L453.253 231.151L451.485 229.383L456.789 224.08ZM451.485 232.919L453.253 231.151L462.092 239.99L460.324 241.757L451.485 232.919ZM462.092 225.848L460.324 227.615L458.557 225.848L460.324 224.08L462.092 225.848ZM467.395 231.151L469.163 232.919L467.395 234.686L465.628 232.919L467.395 231.151ZM463.86 241.757L462.092 239.99L467.395 234.686L469.163 236.454L463.86 241.757ZM467.388 224.087L465.621 222.319L470.924 217.016L472.692 218.783L467.388 224.087ZM472.692 229.39L470.924 231.158L465.621 225.854L467.388 224.087L472.692 229.39ZM472.692 218.783L474.46 217.016L479.763 222.319L477.995 224.087L472.692 218.783ZM477.995 224.087L479.763 225.854L474.46 231.158L472.692 229.39L477.995 224.087ZM477.988 209.951L479.756 211.719L477.988 213.487L485.059 220.558L483.291 222.326L474.453 213.487L477.988 209.951ZM479.756 208.184L481.524 206.416L483.291 208.184L481.524 209.951L479.756 208.184ZM479.756 211.719L481.524 209.951L485.059 213.487L483.291 215.255L479.756 211.719ZM483.291 208.184L485.059 206.416L492.13 213.487L490.363 215.255L483.291 208.184ZM497.427 201.12L499.194 202.887L493.891 208.191L497.427 211.726L495.659 213.494L485.052 202.887L486.82 201.12L488.588 202.887L490.356 201.12L492.123 202.887L490.356 204.655L492.123 206.423L497.427 201.12ZM493.891 197.584L490.356 201.12L488.588 199.352L492.123 195.816L493.891 197.584ZM493.891 197.584L495.659 195.816L499.194 199.352L497.427 201.12L493.891 197.584ZM504.491 197.591L502.723 199.359L495.652 192.288L497.42 190.52L504.491 197.591ZM502.723 185.217L504.491 183.449L513.33 192.288L506.259 199.359L504.491 197.591L509.794 192.288L502.723 185.217ZM516.858 185.223L515.091 186.991L509.787 181.688L508.019 183.456L506.252 181.688L508.019 179.92L504.484 176.385L506.252 174.617L509.787 178.152L511.555 176.385L513.323 178.152L511.555 179.92L516.858 185.223ZM520.394 185.223L518.626 186.991L516.858 185.223L518.626 183.456L520.394 185.223ZM516.865 174.61L515.097 172.842L520.401 167.539L522.169 169.307L516.865 174.61ZM522.169 169.307L523.936 167.539L527.472 171.074L520.401 178.146L522.169 179.913L520.401 181.681L515.097 176.378L516.865 174.61L518.633 176.378L523.936 171.074L522.169 169.307ZM523.936 181.681L522.169 179.913L529.24 172.842L531.007 174.61L523.936 181.681ZM525.697 162.243L527.465 164.01L529.233 162.243L531 164.01L529.233 165.778L534.536 171.081L532.768 172.849L523.929 164.01L525.697 162.243ZM531 156.939L532.768 158.707L529.233 162.243L527.465 160.475L531 156.939ZM532.768 158.707L534.536 156.939L536.304 158.707L534.536 160.475L532.768 158.707ZM557.517 144.565L559.285 146.333L550.446 155.171L548.678 153.404L552.214 149.868L545.143 142.797L543.375 144.565L541.607 142.797L543.375 141.029L541.607 139.262L543.375 137.494L553.981 148.1L557.517 144.565ZM552.207 132.197L550.439 130.43L555.742 125.126L557.51 126.894L552.207 132.197ZM561.046 137.501L559.278 139.268L561.046 141.036L559.278 142.804L550.439 133.965L552.207 132.197L557.51 137.501L559.278 135.733L561.046 137.501ZM557.51 126.894L559.278 125.126L568.117 133.965L566.349 135.733L561.046 130.43L559.278 132.197L557.51 130.43L559.278 128.662L557.51 126.894ZM559.278 135.733L557.51 133.965L559.278 132.197L561.046 133.965L559.278 135.733ZM566.349 135.733L568.117 137.501L562.813 142.804L561.046 141.036L566.349 135.733ZM578.716 123.365L580.484 125.133L571.645 133.972L569.877 132.204L573.413 128.669L566.342 121.598L564.574 123.365L562.806 121.598L564.574 119.83L562.806 118.062L564.574 116.294L575.181 126.901L578.716 123.365Z"/><path fill="#fff" d="M563.562 188.984L565.33 187.217L567.097 188.984L565.33 190.752L567.097 192.52L565.33 194.288L552.955 181.913L554.723 180.146L563.562 188.984ZM560.026 174.842L561.794 173.075L574.168 185.449L572.401 187.217L570.633 185.449L568.865 187.217L567.097 185.449L568.865 183.681L560.026 174.842ZM563.562 185.449L565.33 183.681L567.097 185.449L565.33 187.217L563.562 185.449ZM574.162 167.778L575.929 169.546L570.626 174.849L568.858 173.081L574.162 167.778ZM575.929 169.546L577.697 167.778L584.768 174.849L577.697 181.92L575.929 180.152L581.233 174.849L579.465 173.081L574.162 178.385L572.394 176.617L577.697 171.314L575.929 169.546ZM572.394 180.152L574.162 178.385L575.929 180.152L574.162 181.92L572.394 180.152ZM582.993 166.017L584.761 164.249L586.529 166.017L584.761 167.785L588.297 171.321L586.529 173.088L574.155 160.714L575.922 158.946L582.993 166.017ZM584.761 157.178L586.529 158.946L584.761 160.714L582.993 158.946L584.761 157.178ZM584.761 160.714L586.529 162.482L584.761 164.249L582.993 162.482L584.761 160.714ZM590.065 166.017L588.297 167.785L586.529 166.017L588.297 164.249L590.065 166.017ZM593.6 166.017L591.832 167.785L590.065 166.017L591.832 164.249L593.6 166.017ZM590.065 155.411L588.297 153.643L593.6 148.34L595.368 150.107L590.065 155.411ZM595.368 150.107L597.136 148.34L600.671 151.875L593.6 158.946L595.368 160.714L593.6 162.482L588.297 157.178L590.065 155.411L591.832 157.178L597.136 151.875L595.368 150.107ZM597.136 162.482L595.368 160.714L602.439 153.643L604.207 155.411L597.136 162.482ZM613.045 143.036L611.278 144.804L604.207 137.733L605.974 135.965L613.045 143.036ZM611.278 130.662L613.045 128.894L621.884 137.733L614.813 144.804L613.045 143.036L618.349 137.733L611.278 130.662ZM627.181 125.366L628.948 127.133L623.645 132.437L627.181 135.972L625.413 137.74L614.806 127.133L616.574 125.366L618.342 127.133L620.11 125.366L621.877 127.133L620.11 128.901L621.877 130.669L627.181 125.366ZM623.645 121.83L620.11 125.366L618.342 123.598L621.877 120.062L623.645 121.83ZM623.645 121.83L625.413 120.062L628.948 123.598L627.181 125.366L623.645 121.83Z"/><path fill="#fff" d="M558.697 236.707L560.465 238.475L564 234.939L565.768 236.707L562.232 240.243L567.536 245.546L574.607 238.475L576.375 240.243L567.536 249.082L555.161 236.707L564 227.868L565.768 229.636L558.697 236.707ZM576.368 222.572L578.135 224.34L572.832 229.643L571.064 227.875L576.368 222.572ZM578.135 224.34L579.903 222.572L586.974 229.643L579.903 236.714L578.135 234.946L583.439 229.643L581.671 227.875L576.368 233.179L574.6 231.411L579.903 226.108L578.135 224.34ZM574.6 234.946L576.368 233.179L578.135 234.946L576.368 236.714L574.6 234.946ZM590.503 222.579L588.735 224.347L583.432 219.043L581.664 220.811L579.896 219.043L581.664 217.276L578.128 213.74L579.896 211.972L583.432 215.508L585.2 213.74L586.967 215.508L585.2 217.276L590.503 222.579ZM594.038 222.579L592.271 224.347L590.503 222.579L592.271 220.811L594.038 222.579ZM601.123 197.816L602.891 199.584L597.588 204.887L602.891 210.191L608.194 204.887L609.962 206.655L602.891 213.726L590.517 201.352L597.588 194.281L599.355 196.049L594.052 201.352L595.82 203.12L601.123 197.816ZM602.891 196.049L601.123 197.816L599.355 196.049L601.123 194.281L602.891 196.049ZM602.891 199.584L604.659 197.816L609.962 203.12L608.194 204.887L602.891 199.584ZM606.42 192.52L608.187 194.288L609.955 192.52L611.723 194.288L609.955 196.056L615.258 201.359L613.491 203.127L604.652 194.288L606.42 192.52ZM611.723 187.217L613.491 188.984L609.955 192.52L608.187 190.752L611.723 187.217ZM613.491 188.984L615.258 187.217L617.026 188.984L615.258 190.752L613.491 188.984ZM618.787 183.688L617.019 181.92L622.323 176.617L624.09 178.385L618.787 183.688ZM624.09 178.385L625.858 176.617L629.394 180.153L622.323 187.224L624.09 188.991L622.323 190.759L617.019 185.456L618.787 183.688L620.555 185.456L625.858 180.153L624.09 178.385ZM625.858 190.759L624.09 188.991L631.161 181.92L632.929 183.688L625.858 190.759ZM632.922 166.017L634.69 167.785L629.387 173.088L627.619 171.321L632.922 166.017ZM634.69 167.785L636.458 166.017L643.529 173.088L636.458 180.159L634.69 178.392L639.993 173.088L638.226 171.321L632.922 176.624L631.155 174.856L636.458 169.553L634.69 167.785ZM631.155 178.392L632.922 176.624L634.69 178.392L632.922 180.159L631.155 178.392ZM641.754 164.256L643.522 162.489L645.29 164.256L643.522 166.024L647.058 169.56L645.29 171.328L632.915 158.953L634.683 157.185L641.754 164.256ZM643.522 155.418L645.29 157.185L643.522 158.953L641.754 157.185L643.522 155.418ZM643.522 158.953L645.29 160.721L643.522 162.489L641.754 160.721L643.522 158.953ZM648.825 164.256L647.058 166.024L645.29 164.256L647.058 162.489L648.825 164.256ZM652.361 164.256L650.593 166.024L648.825 164.256L650.593 162.489L652.361 164.256ZM650.593 144.811L647.058 148.347L645.29 146.579L648.825 143.043L650.593 144.811ZM645.29 150.114L647.058 148.347L648.825 150.114L652.361 146.579L654.129 148.347L650.593 151.882L657.664 158.953L655.896 160.721L648.825 153.65L647.058 155.418L645.29 153.65L647.058 151.882L645.29 150.114ZM661.2 137.74L662.967 139.508L657.664 144.811L655.896 143.043L661.2 137.74ZM662.967 139.508L664.735 137.74L671.806 144.811L664.735 151.882L662.967 150.114L668.271 144.811L666.503 143.043L661.2 148.347L659.432 146.579L664.735 141.275L662.967 139.508ZM659.432 150.114L661.2 148.347L662.967 150.114L661.2 151.882L659.432 150.114ZM668.264 134.211L666.496 132.444L673.567 125.372L675.335 127.14L668.264 134.211ZM666.496 135.979L668.264 134.211L670.032 135.979L668.264 137.747L666.496 135.979ZM671.799 137.747L670.032 135.979L675.335 130.676L677.103 132.444L671.799 137.747ZM680.638 132.444L678.87 134.211L677.103 132.444L678.87 130.676L680.638 132.444ZM678.87 134.211L680.638 135.979L673.567 143.05L671.799 141.282L678.87 134.211ZM685.935 127.147L684.167 128.915L678.864 123.612L677.096 125.379L675.328 123.612L677.096 121.844L673.56 118.308L675.328 116.541L678.864 120.076L680.631 118.308L682.399 120.076L680.631 121.844L685.935 127.147ZM689.47 127.147L687.702 128.915L685.935 127.147L687.702 125.379L689.47 127.147Z"/><path fill="#fff" d="M634.974 206.43L633.207 204.662L638.51 199.359L640.278 201.126L634.974 206.43ZM643.813 215.269L642.045 217.036L633.207 208.197L634.974 206.43L643.813 215.269ZM640.278 201.126L642.045 199.359L650.884 208.198L649.117 209.965L640.278 201.126ZM649.117 209.965L650.884 211.733L645.581 217.036L643.813 215.269L649.117 209.965ZM647.342 197.598L649.11 199.366L650.877 197.598L652.645 199.366L650.877 201.133L656.181 206.437L654.413 208.204L645.574 199.366L647.342 197.598ZM652.645 192.295L654.413 194.062L650.877 197.598L649.11 195.83L652.645 192.295ZM654.413 194.062L656.181 192.295L657.948 194.062L656.181 195.83L654.413 194.062ZM652.638 185.23L654.406 183.463L656.174 185.23L654.406 186.998L652.638 185.23ZM656.174 188.766L657.942 186.998L666.78 195.837L665.013 197.605L656.174 188.766ZM663.248 185.227L661.481 183.459L666.784 178.156L668.552 179.924L663.248 185.227ZM668.552 179.924L670.319 178.156L673.855 181.691L666.784 188.762L668.552 190.53L666.784 192.298L661.481 186.995L663.248 185.227L665.016 186.995L670.319 181.691L668.552 179.924ZM670.319 192.298L668.552 190.53L675.623 183.459L677.39 185.227L670.319 192.298ZM677.384 167.556L679.151 169.324L673.848 174.627L680.919 181.698L679.151 183.466L670.312 174.627L677.384 167.556ZM679.151 169.324L680.919 167.556L687.99 174.627L686.222 176.395L679.151 169.324ZM691.519 167.563L689.751 169.331L684.448 164.027L682.68 165.795L680.912 164.027L682.68 162.26L679.144 158.724L680.912 156.956L684.448 160.492L686.215 158.724L687.983 160.492L686.215 162.26L691.519 167.563ZM695.054 167.563L693.287 169.331L691.519 167.563L693.287 165.795L695.054 167.563ZM695.061 149.878L696.829 151.646L691.526 156.95L689.758 155.182L695.061 149.878ZM696.829 151.646L698.597 149.878L705.668 156.95L698.597 164.021L696.829 162.253L702.132 156.95L700.364 155.182L695.061 160.485L693.293 158.717L698.597 153.414L696.829 151.646ZM693.293 162.253L695.061 160.485L696.829 162.253L695.061 164.021L693.293 162.253ZM709.196 149.885L707.429 151.653L702.125 146.35L700.358 148.118L698.59 146.35L700.358 144.582L696.822 141.047L698.59 139.279L702.125 142.814L703.893 141.047L705.661 142.814L703.893 144.582L709.196 149.885ZM712.732 149.885L710.964 151.653L709.196 149.885L710.964 148.118L712.732 149.885ZM702.132 135.736L703.9 133.969L705.668 135.736L703.9 137.504L702.132 135.736ZM705.668 139.272L707.436 137.504L716.274 146.343L714.507 148.111L705.668 139.272ZM712.742 135.733L710.975 133.965L716.278 128.662L718.046 130.43L712.742 135.733ZM718.046 141.036L716.278 142.804L710.975 137.501L712.742 135.733L718.046 141.036ZM718.046 130.43L719.813 128.662L725.117 133.965L723.349 135.733L718.046 130.43ZM723.349 135.733L725.117 137.501L719.813 142.804L718.046 141.036L723.349 135.733ZM726.878 118.062L728.645 119.83L723.342 125.133L730.413 132.204L728.645 133.972L719.806 125.133L726.878 118.062ZM728.645 119.83L730.413 118.062L737.484 125.133L735.716 126.901L728.645 119.83Z"/><path fill="#fff" d="M106.96 72.7491L111.613 79.41L110.199 80.8242L111.373 82.4789L109.958 83.8931L111.118 85.5619L106.875 89.8045L105.716 88.1357L108.544 85.3073L107.37 83.6527L108.785 82.2385L107.625 80.5697L103.382 84.8123L102.223 83.1436L100.808 84.5578L98.475 81.2344L99.8893 79.8201L98.7155 78.1655L104.372 72.5087L105.546 74.1633L106.96 72.7491ZM104.132 75.5775L101.303 78.4059L103.637 81.7293L106.465 78.9009L104.132 75.5775ZM113.539 71.8271L110.711 74.6555L108.377 71.3321L111.206 68.5037L113.539 71.8271ZM115.858 75.1646L118.192 78.488L115.364 81.3165L113.03 77.9931L115.858 75.1646ZM121.102 58.6069L126.929 66.9225L125.515 68.3367L126.674 70.0055L121.018 75.6624L119.858 73.9936L118.444 75.4078L112.617 67.0922L114.031 65.678L112.858 64.0234L118.514 58.3665L119.688 60.0212L121.102 58.6069ZM117.779 67.5872L119.193 66.173L118.019 64.5184L119.434 63.1041L118.274 61.4354L115.446 64.2638L117.779 67.5872ZM121.767 66.4275L120.353 67.8418L121.513 69.5105L120.098 70.9247L121.272 72.5794L124.101 69.7509L121.767 66.4275ZM131.005 48.7047L136.831 57.0203L135.417 58.4345L136.577 60.1032L130.92 65.7601L129.76 64.0913L128.346 65.5055L122.519 57.19L123.934 55.7758L122.76 54.1211L128.417 48.4643L129.591 50.1189L131.005 48.7047ZM127.681 57.6849L129.096 56.2707L127.922 54.6161L129.336 53.2019L128.176 51.5331L125.348 54.3615L127.681 57.6849ZM131.669 56.5253L130.255 57.9395L131.415 59.6083L130.001 61.0225L131.174 62.6771L134.003 59.8487L131.669 56.5253ZM146.569 33.14L153.556 43.1244L150.727 45.9528L146.074 39.2919L143.246 42.1203L147.899 48.7812L145.07 51.6097L138.084 41.6253L139.498 40.2111L138.324 38.5565L143.981 32.8996L145.155 34.5543L146.569 33.14ZM143.741 35.9685L140.913 38.7969L142.072 40.4657L144.901 37.6372L143.741 35.9685ZM163.458 33.2221L160.629 36.0506L155.977 29.3896L153.148 32.218L157.801 38.879L154.973 41.7074L146.813 30.0684L149.641 27.24L150.815 28.8946L153.643 26.0662L152.469 24.4116L155.298 21.5832L163.458 33.2221Z"/><path fill="#fff" d="M166.554 82.5623L158.069 91.0475L156.91 89.3788L159.738 86.5503L155.071 79.9035L153.657 81.3178L152.497 79.649L153.911 78.2348L152.738 76.5801L155.566 73.7517L162.566 83.7219L165.395 80.8935L166.554 82.5623ZM169.471 62.6757L175.297 70.9912L173.883 72.4054L175.043 74.0742L169.386 79.7311L168.226 78.0623L166.812 79.4765L160.985 71.1609L162.399 69.7467L161.226 68.0921L166.883 62.4352L168.056 64.0899L169.471 62.6757ZM166.147 71.6559L167.561 70.2417L166.388 68.5871L167.802 67.1729L166.642 65.5041L163.814 68.3325L166.147 71.6559ZM170.135 70.4963L168.721 71.9105L169.881 73.5792L168.466 74.9935L169.64 76.6481L172.469 73.8197L170.135 70.4963ZM176.049 61.7537L173.221 64.5821L170.887 61.2587L173.716 58.4303L176.049 61.7537ZM178.369 65.0912L180.702 68.4146L177.874 71.243L175.54 67.9196L178.369 65.0912ZM183.613 48.5335L189.439 56.8491L188.025 58.2633L189.185 59.9321L183.528 65.5889L182.368 63.9202L180.954 65.3344L175.127 57.0188L176.542 55.6046L175.368 53.95L181.025 48.2931L182.198 49.9477L183.613 48.5335ZM180.289 57.5138L181.703 56.0996L180.53 54.4449L181.944 53.0307L180.784 51.3619L177.956 54.1904L180.289 57.5138ZM184.277 56.3541L182.863 57.7683L184.023 59.4371L182.609 60.8513L183.782 62.506L186.611 59.6775L184.277 56.3541ZM193.515 38.6313L199.341 46.9468L197.927 48.3611L199.087 50.0298L193.43 55.6867L192.27 54.0179L190.856 55.4321L185.03 47.1165L186.444 45.7023L185.27 44.0477L190.927 38.3908L192.101 40.0455L193.515 38.6313ZM190.192 47.6115L191.606 46.1973L190.432 44.5427L191.846 43.1285L190.686 41.4597L187.858 44.2881L190.192 47.6115ZM194.18 46.4519L192.765 47.8661L193.925 49.5349L192.511 50.9491L193.685 52.6037L196.513 49.7753L194.18 46.4519ZM209.08 23.0666L216.066 33.051L213.237 35.8794L208.585 29.2185L205.756 32.0469L210.409 38.7078L207.58 41.5363L200.594 31.5519L202.008 30.1377L200.835 28.4831L206.492 22.8262L207.665 24.4808L209.08 23.0666ZM206.251 25.8951L203.423 28.7235L204.582 30.3923L207.411 27.5638L206.251 25.8951ZM225.968 23.1487L223.14 25.9772L218.487 19.3162L215.658 22.1446L220.311 28.8056L217.483 31.634L209.323 19.995L212.151 17.1666L213.325 18.8212L216.153 15.9928L214.98 14.3382L217.808 11.5097L225.968 23.1487Z"/><path fill="#fff" d="M225.676 82.5623L217.19 91.0475L216.031 89.3788L218.859 86.5503L214.192 79.9035L212.778 81.3178L211.618 79.649L213.032 78.2348L211.859 76.5801L214.687 73.7517L221.687 83.7219L224.516 80.8935L225.676 82.5623ZM235.578 72.66L227.093 81.1453L225.933 79.4765L228.761 76.6481L224.094 70.0013L222.68 71.4155L221.521 69.7467L222.935 68.3325L221.761 66.6779L224.589 63.8495L231.59 73.8197L234.418 70.9912L235.578 72.66ZM235.17 61.7537L232.342 64.5821L230.009 61.2587L232.837 58.4303L235.17 61.7537ZM237.49 65.0912L239.823 68.4146L236.995 71.243L234.661 67.9196L237.49 65.0912ZM242.734 48.5335L248.56 56.8491L247.146 58.2633L248.306 59.9321L242.649 65.5889L241.489 63.9202L240.075 65.3344L234.248 57.0188L235.663 55.6046L234.489 53.95L240.146 48.2931L241.32 49.9477L242.734 48.5335ZM239.41 57.5138L240.825 56.0996L239.651 54.4449L241.065 53.0307L239.905 51.3619L237.077 54.1904L239.41 57.5138ZM243.398 56.3541L241.984 57.7683L243.144 59.4371L241.73 60.8513L242.903 62.506L245.732 59.6775L243.398 56.3541ZM252.636 38.6313L258.463 46.9468L257.048 48.3611L258.208 50.0298L252.551 55.6867L251.391 54.0179L249.977 55.4321L244.151 47.1165L245.565 45.7023L244.391 44.0477L250.048 38.3908L251.222 40.0455L252.636 38.6313ZM249.313 47.6115L250.727 46.1973L249.553 44.5427L250.967 43.1285L249.808 41.4597L246.979 44.2881L249.313 47.6115ZM253.301 46.4519L251.886 47.8661L253.046 49.5349L251.632 50.9491L252.806 52.6037L255.634 49.7753L253.301 46.4519ZM268.201 23.0666L275.187 33.051L272.358 35.8794L267.706 29.2185L264.877 32.0469L269.53 38.7078L266.702 41.5363L259.715 31.5519L261.13 30.1377L259.956 28.4831L265.613 22.8262L266.786 24.4808L268.201 23.0666ZM265.372 25.8951L262.544 28.7235L263.703 30.3923L266.532 27.5638L265.372 25.8951ZM285.089 23.1487L282.261 25.9772L277.608 19.3162L274.779 22.1446L279.432 28.8056L276.604 31.634L268.444 19.995L271.272 17.1666L272.446 18.8212L275.274 15.9928L274.101 14.3382L276.929 11.5097L285.089 23.1487Z"/><path fill="#fff" d="M279.818 82.5623L271.333 91.0475L270.173 89.3788L273.002 86.5503L268.335 79.9035L266.921 81.3178L265.761 79.649L267.175 78.2348L266.001 76.5801L268.83 73.7517L275.83 83.7219L278.658 80.8935L279.818 82.5623ZM282.734 62.6757L285.068 65.9991L283.653 67.4133L284.813 69.082L281.985 71.9105L283.144 73.5792L281.73 74.9935L282.904 76.6481L285.732 73.8197L284.559 72.165L287.387 69.3366L289.72 72.66L281.235 81.1453L278.902 77.8219L280.316 76.4077L279.156 74.7389L280.57 73.3247L279.411 71.6559L282.239 68.8275L279.906 65.5041L277.077 68.3325L278.237 70.0013L275.409 72.8297L274.249 71.1609L275.663 69.7467L274.489 68.0921L280.146 62.4352L281.32 64.0899L282.734 62.6757ZM289.313 61.7537L286.485 64.5821L284.151 61.2587L286.98 58.4303L289.313 61.7537ZM291.632 65.0912L293.966 68.4146L291.137 71.243L288.804 67.9196L291.632 65.0912ZM296.876 48.5335L302.703 56.8491L301.289 58.2633L302.448 59.9321L296.791 65.5889L295.632 63.9202L294.218 65.3344L288.391 57.0188L289.805 55.6046L288.631 53.95L294.288 48.2931L295.462 49.9477L296.876 48.5335ZM293.553 57.5138L294.967 56.0996L293.793 54.4449L295.208 53.0307L294.048 51.3619L291.219 54.1904L293.553 57.5138ZM297.541 56.3541L296.127 57.7683L297.286 59.4371L295.872 60.8513L297.046 62.506L299.874 59.6775L297.541 56.3541ZM306.779 38.6313L312.605 46.9468L311.191 48.3611L312.351 50.0298L306.694 55.6867L305.534 54.0179L304.12 55.4321L298.293 47.1165L299.708 45.7023L298.534 44.0477L304.191 38.3908L305.364 40.0455L306.779 38.6313ZM303.455 47.6115L304.869 46.1973L303.696 44.5427L305.11 43.1285L303.95 41.4597L301.122 44.2881L303.455 47.6115ZM307.443 46.4519L306.029 47.8661L307.189 49.5349L305.774 50.9491L306.948 52.6037L309.777 49.7753L307.443 46.4519ZM322.343 23.0666L323.503 24.7354L322.089 26.1496L323.262 27.8042L319.02 32.0469L323.673 38.7078L320.844 41.5363L312.684 29.8973L319.755 22.8262L320.929 24.4808L322.343 23.0666ZM319.515 25.8951L316.686 28.7235L317.846 30.3923L320.674 27.5638L319.515 25.8951ZM339.232 23.1487L336.403 25.9772L331.75 19.3162L328.922 22.1446L333.575 28.8056L330.746 31.634L322.586 19.995L325.415 17.1666L326.589 18.8212L329.417 15.9928L328.243 14.3382L331.072 11.5097L339.232 23.1487Z"/><path fill="#fff" d="M335.35 82.5977L326.865 91.083L325.705 89.4142L328.534 86.5858L323.867 79.939L322.452 81.3532L321.293 79.6844L322.707 78.2702L321.533 76.6156L324.362 73.7872L331.362 83.7574L334.19 80.9289L335.35 82.5977ZM334.943 71.6914L332.114 74.5198L329.781 71.1964L332.609 68.368L334.943 71.6914ZM337.262 75.0289L339.595 78.3523L336.767 81.1807L334.434 77.8573L337.262 75.0289ZM342.506 58.4712L348.333 66.7868L346.918 68.201L348.078 69.8698L342.421 75.5266L341.261 73.8579L339.847 75.2721L334.021 66.9565L335.435 65.5423L334.261 63.8877L339.918 58.2308L341.092 59.8854L342.506 58.4712ZM339.183 67.4515L340.597 66.0373L339.423 64.3826L340.837 62.9684L339.678 61.2997L336.849 64.1281L339.183 67.4515ZM343.171 66.2918L341.756 67.706L342.916 69.3748L341.502 70.789L342.676 72.4437L345.504 69.6152L343.171 66.2918ZM352.408 48.569L358.235 56.8845L356.821 58.2988L357.98 59.9675L352.323 65.6244L351.164 63.9556L349.75 65.3698L343.923 57.0542L345.337 55.64L344.163 53.9854L349.82 48.3285L350.994 49.9832L352.408 48.569ZM349.085 57.5492L350.499 56.135L349.325 54.4804L350.739 53.0662L349.58 51.3974L346.751 54.2258L349.085 57.5492ZM353.073 56.3896L351.659 57.8038L352.818 59.4726L351.404 60.8868L352.578 62.5414L355.406 59.713L353.073 56.3896ZM367.973 33.0043L369.133 34.6731L367.718 36.0873L368.892 37.7419L364.649 41.9846L369.302 48.6455L366.474 51.474L358.314 39.835L365.385 32.7639L366.559 34.4185L367.973 33.0043ZM365.144 35.8328L362.316 38.6612L363.476 40.33L366.304 37.5015L365.144 35.8328ZM384.861 33.0864L382.033 35.9149L377.38 29.2539L374.552 32.0823L379.205 38.7433L376.376 41.5717L368.216 29.9327L371.045 27.1043L372.218 28.7589L375.047 25.9305L373.873 24.2759L376.701 21.4474L384.861 33.0864Z"/><path fill="#fff" d="M383.931 72.6134L386.265 75.9368L384.85 77.351L386.01 79.0197L383.182 81.8482L384.341 83.5169L382.927 84.9312L384.101 86.5858L386.929 83.7574L385.756 82.1027L388.584 79.2743L390.917 82.5977L382.432 91.083L380.099 87.7596L381.513 86.3454L380.353 84.6766L381.768 83.2624L380.608 81.5936L383.436 78.7652L381.103 75.4418L378.274 78.2702L379.434 79.939L376.606 82.7674L375.446 81.0986L376.86 79.6844L375.686 78.0298L381.343 72.3729L382.517 74.0276L383.931 72.6134ZM390.51 71.6914L387.682 74.5198L385.348 71.1964L388.177 68.368L390.51 71.6914ZM392.829 75.0289L395.163 78.3523L392.334 81.1807L390.001 77.8573L392.829 75.0289ZM398.073 58.4712L403.9 66.7868L402.486 68.201L403.645 69.8698L397.989 75.5266L396.829 73.8579L395.415 75.2721L389.588 66.9565L391.002 65.5423L389.829 63.8877L395.485 58.2308L396.659 59.8854L398.073 58.4712ZM394.75 67.4515L396.164 66.0373L394.99 64.3826L396.405 62.9684L395.245 61.2997L392.417 64.1281L394.75 67.4515ZM398.738 66.2918L397.324 67.706L398.484 69.3748L397.069 70.789L398.243 72.4437L401.072 69.6152L398.738 66.2918ZM407.976 48.569L413.802 56.8845L412.388 58.2988L413.548 59.9675L407.891 65.6244L406.731 63.9556L405.317 65.3698L399.49 57.0542L400.905 55.64L399.731 53.9854L405.388 48.3285L406.561 49.9832L407.976 48.569ZM404.652 57.5492L406.066 56.135L404.893 54.4804L406.307 53.0662L405.147 51.3974L402.319 54.2258L404.652 57.5492ZM408.64 56.3896L407.226 57.8038L408.386 59.4726L406.972 60.8868L408.145 62.5414L410.974 59.713L408.64 56.3896ZM423.54 33.0043L424.7 34.6731L423.286 36.0873L424.46 37.7419L420.217 41.9846L424.87 48.6455L422.041 51.474L413.881 39.835L420.952 32.7639L422.126 34.4185L423.54 33.0043ZM420.712 35.8328L417.883 38.6612L419.043 40.33L421.872 37.5015L420.712 35.8328ZM440.429 33.0864L437.6 35.9149L432.948 29.2539L430.119 32.0823L434.772 38.7433L431.943 41.5717L423.783 29.9327L426.612 27.1043L427.786 28.7589L430.614 25.9305L429.44 24.2759L432.269 21.4474L440.429 33.0864Z"/><path fill="#fff" d="M433.088 72.6134L435.421 75.9368L434.007 77.351L435.166 79.0197L436.581 77.6055L438.914 80.9289L437.5 82.3431L438.66 84.0119L433.003 89.6688L431.843 88L430.429 89.4142L429.255 87.7596L432.083 84.9312L433.257 86.5858L436.086 83.7574L433.752 80.434L430.924 83.2624L429.764 81.5936L432.593 78.7652L430.259 75.4418L427.431 78.2702L428.59 79.939L425.762 82.7674L424.602 81.0986L426.016 79.6844L424.843 78.0298L430.499 72.3729L431.673 74.0276L433.088 72.6134ZM439.666 71.6914L436.838 74.5198L434.504 71.1964L437.333 68.368L439.666 71.6914ZM441.986 75.0289L444.319 78.3523L441.491 81.1807L439.157 77.8573L441.986 75.0289ZM447.23 58.4712L453.056 66.7868L451.642 68.201L452.802 69.8698L447.145 75.5266L445.985 73.8579L444.571 75.2721L438.744 66.9565L440.159 65.5423L438.985 63.8877L444.642 58.2308L445.815 59.8854L447.23 58.4712ZM443.906 67.4515L445.32 66.0373L444.147 64.3826L445.561 62.9684L444.401 61.2997L441.573 64.1281L443.906 67.4515ZM447.894 66.2918L446.48 67.706L447.64 69.3748L446.226 70.789L447.399 72.4437L450.228 69.6152L447.894 66.2918ZM457.132 48.569L462.958 56.8845L461.544 58.2988L462.704 59.9675L457.047 65.6244L455.887 63.9556L454.473 65.3698L448.647 57.0542L450.061 55.64L448.887 53.9854L454.544 48.3285L455.718 49.9832L457.132 48.569ZM453.808 57.5492L455.223 56.135L454.049 54.4804L455.463 53.0662L454.303 51.3974L451.475 54.2258L453.808 57.5492ZM457.797 56.3896L456.382 57.8038L457.542 59.4726L456.128 60.8868L457.302 62.5414L460.13 59.713L457.797 56.3896ZM472.697 33.0043L473.856 34.6731L472.442 36.0873L473.616 37.7419L469.373 41.9846L474.026 48.6455L471.197 51.474L463.037 39.835L470.109 32.7639L471.282 34.4185L472.697 33.0043ZM469.868 35.8328L467.04 38.6612L468.199 40.33L471.028 37.5015L469.868 35.8328ZM489.585 33.0864L486.757 35.9149L482.104 29.2539L479.275 32.0823L483.928 38.7433L481.1 41.5717L472.94 29.9327L475.768 27.1043L476.942 28.7589L479.77 25.9305L478.597 24.2759L481.425 21.4474L489.585 33.0864Z"/><path fill="#fff" d="M492.797 84.7356L489.969 87.5641L487.635 84.2407L481.978 89.8975L479.659 86.56L481.073 85.1458L479.899 83.4911L481.314 82.0769L480.154 80.4082L481.568 78.9939L480.394 77.3393L484.637 73.0967L492.797 84.7356ZM484.142 79.2485L482.728 80.6627L483.902 82.3173L482.487 83.7316L483.647 85.4003L486.476 82.5719L484.142 79.2485ZM492.39 73.8293L489.561 76.6577L487.228 73.3343L490.056 70.5059L492.39 73.8293ZM494.709 77.1668L497.043 80.4902L494.214 83.3187L491.881 79.9953L494.709 77.1668ZM499.953 60.6092L505.78 68.9247L504.365 70.339L505.525 72.0077L499.868 77.6646L498.709 75.9958L497.294 77.41L491.468 69.0944L492.882 67.6802L491.708 66.0256L497.365 60.3687L498.539 62.0234L499.953 60.6092ZM496.63 69.5894L498.044 68.1752L496.87 66.5206L498.284 65.1064L497.125 63.4376L494.296 66.266L496.63 69.5894ZM500.618 68.4298L499.203 69.844L500.363 71.5128L498.949 72.927L500.123 74.5816L502.951 71.7532L500.618 68.4298ZM509.855 50.7069L515.682 59.0225L514.268 60.4367L515.427 62.1055L509.77 67.7623L508.611 66.0936L507.197 67.5078L501.37 59.1922L502.784 57.778L501.61 56.1233L507.267 50.4665L508.441 52.1211L509.855 50.7069ZM506.532 59.6872L507.946 58.2729L506.772 56.6183L508.187 55.2041L507.027 53.5353L504.198 56.3638L506.532 59.6872ZM510.52 58.5275L509.106 59.9417L510.265 61.6105L508.851 63.0247L510.025 64.6793L512.853 61.8509L510.52 58.5275ZM525.42 35.1423L526.58 36.811L525.165 38.2253L526.339 39.8799L522.097 44.1225L526.749 50.7835L523.921 53.6119L515.761 41.9729L522.832 34.9019L524.006 36.5565L525.42 35.1423ZM522.591 37.9707L519.763 40.7991L520.923 42.4679L523.751 39.6395L522.591 37.9707ZM542.308 35.2244L539.48 38.0528L534.827 31.3918L531.999 34.2203L536.652 40.8812L533.823 43.7096L525.663 32.0707L528.492 29.2422L529.665 30.8969L532.494 28.0684L531.32 26.4138L534.148 23.5854L542.308 35.2244Z"/><path fill="#fff" d="M537.595 82.0767L541.838 77.834L543.011 79.4887L544.426 78.0745L547.919 83.0666L546.504 84.4808L547.664 86.1496L542.007 91.8065L540.848 90.1377L539.433 91.5519L538.26 89.8973L541.088 87.0689L542.262 88.7235L545.09 85.8951L541.597 80.9029L535.94 86.5597L532.433 81.5817L540.918 73.0964L542.092 74.7511L536.435 80.4079L537.595 82.0767ZM548.671 73.8291L545.843 76.6575L543.509 73.3341L546.338 70.5057L548.671 73.8291ZM550.99 77.1666L553.324 80.49L550.495 83.3184L548.162 79.995L550.99 77.1666ZM556.234 60.6089L562.061 68.9245L560.647 70.3387L561.806 72.0075L556.149 77.6643L554.99 75.9956L553.576 77.4098L547.749 69.0942L549.163 67.68L547.989 66.0254L553.646 60.3685L554.82 62.0231L556.234 60.6089ZM552.911 69.5892L554.325 68.175L553.151 66.5203L554.566 65.1061L553.406 63.4373L550.577 66.2658L552.911 69.5892ZM556.899 68.4295L555.485 69.8437L556.644 71.5125L555.23 72.9267L556.404 74.5813L559.232 71.7529L556.899 68.4295ZM566.137 50.7067L571.963 59.0222L570.549 60.4365L571.709 62.1052L566.052 67.7621L564.892 66.0933L563.478 67.5075L557.651 59.1919L559.065 57.7777L557.892 56.1231L563.549 50.4662L564.722 52.1209L566.137 50.7067ZM562.813 59.6869L564.227 58.2727L563.054 56.6181L564.468 55.2039L563.308 53.5351L560.48 56.3635L562.813 59.6869ZM566.801 58.5273L565.387 59.9415L566.547 61.6102L565.132 63.0245L566.306 64.6791L569.135 61.8507L566.801 58.5273ZM581.701 35.142L582.861 36.8108L581.447 38.225L582.62 39.8796L578.378 44.1223L583.031 50.7832L580.202 53.6117L572.042 41.9727L579.113 34.9016L580.287 36.5562L581.701 35.142ZM578.873 37.9705L576.044 40.7989L577.204 42.4677L580.032 39.6392L578.873 37.9705ZM598.59 35.2241L595.761 38.0525L591.108 31.3916L588.28 34.22L592.933 40.881L590.104 43.7094L581.944 32.0704L584.773 29.242L585.947 30.8966L588.775 28.0682L587.601 26.4136L590.43 23.5851L598.59 35.2241Z"/><path fill="#fff" d="M601.154 79.743L603.487 83.0664L602.073 84.4806L603.232 86.1494L597.576 91.8062L596.416 90.1375L595.002 91.5517L590.335 84.9049L591.749 83.4907L590.589 81.8219L592.004 80.4077L590.83 78.753L595.072 74.5104L596.246 76.165L593.418 78.9935L594.578 80.6622L593.163 82.0764L594.337 83.7311L598.58 79.4884L599.739 81.1572L601.154 79.743ZM598.325 82.5714L595.497 85.3998L597.83 88.7232L600.659 85.8948L598.325 82.5714ZM604.239 73.8288L601.411 76.6572L599.077 73.3338L601.906 70.5054L604.239 73.8288ZM606.559 77.1664L608.892 80.4898L606.064 83.3182L603.73 79.9948L606.559 77.1664ZM611.803 60.6087L617.629 68.9243L616.215 70.3385L617.375 72.0072L611.718 77.6641L610.558 75.9953L609.144 77.4095L603.317 69.094L604.732 67.6797L603.558 66.0251L609.215 60.3683L610.388 62.0229L611.803 60.6087ZM608.479 69.5889L609.893 68.1747L608.72 66.5201L610.134 65.1059L608.974 63.4371L606.146 66.2655L608.479 69.5889ZM612.467 68.4293L611.053 69.8435L612.213 71.5123L610.799 72.9265L611.972 74.5811L614.801 71.7527L612.467 68.4293ZM621.705 50.7064L627.531 59.022L626.117 60.4362L627.277 62.105L621.62 67.7618L620.46 66.0931L619.046 67.5073L613.22 59.1917L614.634 57.7775L613.46 56.1229L619.117 50.466L620.291 52.1206L621.705 50.7064ZM618.381 59.6867L619.796 58.2725L618.622 56.6178L620.036 55.2036L618.876 53.5348L616.048 56.3633L618.381 59.6867ZM622.37 58.527L620.955 59.9412L622.115 61.61L620.701 63.0242L621.875 64.6788L624.703 61.8504L622.37 58.527ZM637.27 35.1418L638.429 36.8106L637.015 38.2248L638.189 39.8794L633.946 44.122L638.599 50.783L635.77 53.6114L627.61 41.9724L634.682 34.9014L635.855 36.556L637.27 35.1418ZM634.441 37.9702L631.613 40.7986L632.772 42.4674L635.601 39.639L634.441 37.9702ZM654.158 35.2239L651.33 38.0523L646.677 31.3914L643.848 34.2198L648.501 40.8807L645.673 43.7092L637.513 32.0702L640.341 29.2418L641.515 30.8964L644.343 28.068L643.17 26.4133L645.998 23.5849L654.158 35.2239Z"/><path fill="#fff" d="M657.699 79.0742L656.285 80.4884L657.444 82.1572L656.03 83.5714L659.523 88.5636L656.695 91.392L653.202 86.3998L654.616 84.9856L653.456 83.3169L654.87 81.9026L652.537 78.5792L649.708 81.4077L650.868 83.0764L648.04 85.9049L645.706 82.5815L654.192 74.0962L657.699 79.0742ZM661.944 74.8288L659.116 77.6572L656.782 74.3338L659.611 71.5054L661.944 74.8288ZM664.263 78.1664L666.597 81.4898L663.769 84.3182L661.435 80.9948L664.263 78.1664ZM669.507 61.6087L675.334 69.9243L673.92 71.3385L675.079 73.0072L669.423 78.6641L668.263 76.9953L666.849 78.4095L661.022 70.094L662.436 68.6797L661.263 67.0251L666.919 61.3683L668.093 63.0229L669.507 61.6087ZM666.184 70.5889L667.598 69.1747L666.424 67.5201L667.839 66.1059L666.679 64.4371L663.851 67.2655L666.184 70.5889ZM670.172 69.4293L668.758 70.8435L669.918 72.5123L668.503 73.9265L669.677 75.5811L672.506 72.7527L670.172 69.4293ZM679.41 51.7064L685.236 60.022L683.822 61.4362L684.982 63.105L679.325 68.7618L678.165 67.0931L676.751 68.5073L670.924 60.1917L672.339 58.7775L671.165 57.1229L676.822 51.466L677.996 53.1206L679.41 51.7064ZM676.086 60.6867L677.501 59.2725L676.327 57.6178L677.741 56.2036L676.581 54.5348L673.753 57.3633L676.086 60.6867ZM680.074 59.527L678.66 60.9412L679.82 62.61L678.406 64.0242L679.579 65.6788L682.408 62.8504L680.074 59.527ZM694.974 36.1418L696.134 37.8106L694.72 39.2248L695.894 40.8794L691.651 45.122L696.304 51.783L693.475 54.6114L685.315 42.9724L692.386 35.9014L693.56 37.556L694.974 36.1418ZM692.146 38.9702L689.318 41.7986L690.477 43.4674L693.306 40.639L692.146 38.9702ZM711.863 36.2239L709.034 39.0523L704.382 32.3914L701.553 35.2198L706.206 41.8807L703.378 44.7092L695.218 33.0702L698.046 30.2418L699.22 31.8964L702.048 29.068L700.874 27.4133L703.703 24.5849L711.863 36.2239Z"/><path fill="#fff" d="M706.658 74.7508L708.992 78.0742L707.578 79.4884L708.737 81.1572L710.151 79.743L712.485 83.0664L711.071 84.4806L712.23 86.1494L706.573 91.8062L705.414 90.1375L704 91.5517L701.666 88.2283L703.08 86.8141L701.921 85.1453L700.506 86.5595L698.173 83.2361L699.587 81.8219L698.413 80.1672L704.07 74.5104L705.244 76.165L706.658 74.7508ZM703.83 77.5792L701.001 80.4077L703.335 83.7311L706.163 80.9026L703.83 77.5792ZM704.495 85.3998L706.828 88.7232L709.656 85.8948L707.323 82.5714L704.495 85.3998ZM713.237 73.8288L710.409 76.6572L708.075 73.3338L710.904 70.5054L713.237 73.8288ZM715.556 77.1664L717.89 80.4898L715.061 83.3182L712.728 79.9948L715.556 77.1664ZM720.8 60.6087L726.627 68.9243L725.213 70.3385L726.372 72.0072L720.716 77.6641L719.556 75.9953L718.142 77.4095L712.315 69.094L713.729 67.6797L712.556 66.0251L718.212 60.3683L719.386 62.0229L720.8 60.6087ZM717.477 69.5889L718.891 68.1747L717.717 66.5201L719.132 65.1059L717.972 63.4371L715.144 66.2655L717.477 69.5889ZM721.465 68.4293L720.051 69.8435L721.211 71.5123L719.796 72.9265L720.97 74.5811L723.799 71.7527L721.465 68.4293ZM730.703 50.7064L736.529 59.022L735.115 60.4362L736.275 62.105L730.618 67.7618L729.458 66.0931L728.044 67.5073L722.217 59.1917L723.632 57.7775L722.458 56.1229L728.115 50.466L729.288 52.1206L730.703 50.7064ZM727.379 59.6867L728.794 58.2725L727.62 56.6178L729.034 55.2036L727.874 53.5348L725.046 56.3633L727.379 59.6867ZM731.367 58.527L729.953 59.9412L731.113 61.61L729.699 63.0242L730.872 64.6788L733.701 61.8504L731.367 58.527ZM746.267 35.1418L747.427 36.8106L746.013 38.2248L747.187 39.8794L742.944 44.122L747.597 50.783L744.768 53.6114L736.608 41.9724L743.679 34.9014L744.853 36.556L746.267 35.1418ZM743.439 37.9702L740.61 40.7986L741.77 42.4674L744.599 39.639L743.439 37.9702ZM763.156 35.2239L760.327 38.0523L755.675 31.3914L752.846 34.2198L757.499 40.8807L754.671 43.7092L746.511 32.0702L749.339 29.2418L750.513 30.8964L753.341 28.068L752.167 26.4133L754.996 23.5849L763.156 35.2239Z"/><path fill="#fff" d="M757.25 74.7508L761.903 81.4118L760.489 82.826L761.663 84.4806L760.248 85.8948L761.408 87.5636L757.165 91.8062L756.006 90.1375L758.834 87.309L757.66 85.6544L759.075 84.2402L757.915 82.5714L753.672 86.8141L752.513 85.1453L751.099 86.5595L748.765 83.2361L750.179 81.8219L749.005 80.1672L754.662 74.5104L755.836 76.165L757.25 74.7508ZM754.422 77.5792L751.593 80.4077L753.927 83.7311L756.755 80.9026L754.422 77.5792ZM763.829 73.8288L761.001 76.6572L758.667 73.3338L761.496 70.5054L763.829 73.8288ZM766.149 77.1664L768.482 80.4898L765.654 83.3182L763.32 79.9948L766.149 77.1664ZM771.392 60.6087L777.219 68.9243L775.805 70.3385L776.964 72.0072L771.308 77.6641L770.148 75.9953L768.734 77.4095L762.907 69.094L764.321 67.6797L763.148 66.0251L768.804 60.3683L769.978 62.0229L771.392 60.6087ZM768.069 69.5889L769.483 68.1747L768.309 66.5201L769.724 65.1059L768.564 63.4371L765.736 66.2655L768.069 69.5889ZM772.057 68.4293L770.643 69.8435L771.803 71.5123L770.388 72.9265L771.562 74.5811L774.391 71.7527L772.057 68.4293ZM781.295 50.7064L787.121 59.022L785.707 60.4362L786.867 62.105L781.21 67.7618L780.05 66.0931L778.636 67.5073L772.809 59.1917L774.224 57.7775L773.05 56.1229L778.707 50.466L779.881 52.1206L781.295 50.7064ZM777.971 59.6867L779.386 58.2725L778.212 56.6178L779.626 55.2036L778.466 53.5348L775.638 56.3633L777.971 59.6867ZM781.959 58.527L780.545 59.9412L781.705 61.61L780.291 63.0242L781.464 64.6788L784.293 61.8504L781.959 58.527ZM796.859 35.1418L798.019 36.8106L796.605 38.2248L797.779 39.8794L793.536 44.122L798.189 50.783L795.36 53.6114L787.2 41.9724L794.271 34.9014L795.445 36.556L796.859 35.1418ZM794.031 37.9702L791.203 40.7986L792.362 42.4674L795.191 39.639L794.031 37.9702ZM813.748 35.2239L810.919 38.0523L806.267 31.3914L803.438 34.2198L808.091 40.8807L805.263 43.7092L797.103 32.0702L799.931 29.2418L801.105 30.8964L803.933 28.068L802.759 26.4133L805.588 23.5849L813.748 35.2239Z"/><path stroke="#fff" stroke-linecap="round" stroke-width="6.056" d="M774.654 101.874L90.0334 101.874"/></svg>