<svg width="955" height="793" viewBox="0 0 955 793" fill="none" xmlns="http://www.w3.org/2000/svg">
<rect x="21.7046" y="62.9432" width="176.222" height="21.7044" transform="rotate(90 21.7046 62.9432)" fill="#B8A590"/>
<rect x="43.4094" y="239.16" width="163.635" height="21.7044" transform="rotate(90 43.4094 239.16)" fill="#B8A590"/>
<rect x="21.7053" y="402.797" width="176.222" height="21.7044" transform="rotate(90 21.7053 402.797)" fill="#B8A590"/>
<rect x="43.4094" y="579.019" width="62.9365" height="21.7044" transform="rotate(90 43.4094 579.019)" fill="#B8A590"/>
<rect x="21.7053" y="641.953" width="113.286" height="21.7044" transform="rotate(90 21.7053 641.953)" fill="#B8A590"/>
<rect width="12.5873" height="520.905" transform="matrix(4.04301e-08 -1 -1 -4.14591e-08 824.761 25.1746)" fill="#B8A590"/>
<rect x="303.852" y="25.1746" width="12.5873" height="260.452" transform="rotate(90 303.852 25.1746)" fill="#B8A590"/>
<rect x="173.631" y="755.242" width="12.5873" height="151.931" transform="rotate(90 173.631 755.242)" fill="#B8A590"/>
<rect x="607.714" y="767.827" width="12.5873" height="434.087" transform="rotate(90 607.714 767.827)" fill="#B8A590"/>
<rect x="672.826" y="755.242" width="12.5873" height="65.1131" transform="rotate(90 672.826 755.242)" fill="#B8A590"/>
<rect x="737.944" y="742.656" width="12.5873" height="65.1131" transform="rotate(90 737.944 742.656)" fill="#B8A590"/>
<rect x="759.649" y="755.242" width="25.1746" height="21.7044" transform="rotate(90 759.649 755.242)" fill="#B8A590"/>
<rect x="889.881" y="780.413" width="12.5873" height="130.226" transform="rotate(90 889.881 780.413)" fill="#B8A590"/>
<rect x="911.578" y="767.827" width="12.5873" height="21.7044" transform="rotate(90 911.578 767.827)" fill="#B8A590"/>
<rect x="933.285" y="553.842" width="213.984" height="21.7044" transform="rotate(90 933.285 553.842)" fill="#B8A590"/>
<rect x="911.578" y="465.731" width="88.1111" height="21.7044" transform="rotate(90 911.578 465.731)" fill="#B8A590"/>
<rect x="933.285" y="113.286" width="352.444" height="21.7044" transform="rotate(90 933.285 113.286)" fill="#B8A590"/>
<rect x="911.578" y="75.5229" width="37.7619" height="21.7044" transform="rotate(90 911.578 75.5229)" fill="#B8A590"/>
<rect x="889.881" y="62.9432" width="12.5873" height="43.4087" transform="rotate(90 889.881 62.9432)" fill="#B8A590"/>
<rect x="846.468" y="25.1746" width="37.7619" height="21.7044" transform="rotate(90 846.468 25.1746)" fill="#B8A590"/>
<rect x="43.4092" y="37.7603" width="25.1746" height="21.7044" transform="rotate(90 43.4092 37.7603)" fill="#B8A590"/>
<rect x="911.578" y="113.286" width="352.444" height="868.174" transform="rotate(90 911.578 113.286)" fill="#B8A590"/>
<rect x="889.881" y="75.5229" width="37.7619" height="846.47" transform="rotate(90 889.881 75.5229)" fill="#B8A590"/>
<rect x="824.761" y="37.7603" width="37.7619" height="520.905" transform="rotate(90 824.761 37.7603)" fill="#B8A590"/>
<rect x="824.761" y="25.1746" width="12.5873" height="520.905" transform="rotate(90 824.761 25.1746)" fill="#B8A590"/>
<rect x="607.714" y="755.242" width="12.5873" height="434.087" transform="rotate(90 607.714 755.242)" fill="#B8A590"/>
<rect x="889.881" y="755.242" width="25.1746" height="130.226" transform="rotate(90 889.881 755.242)" fill="#B8A590"/>
<rect x="303.852" y="37.7604" width="37.7619" height="260.452" transform="rotate(90 303.852 37.7604)" fill="#B8A590"/>
<rect x="43.4092" y="62.9432" width="176.222" height="21.7044" transform="rotate(90 43.4092 62.9432)" fill="#B8A590"/>
<rect x="43.4093" y="402.797" width="176.222" height="21.7044" transform="rotate(90 43.4093 402.797)" fill="#B8A590"/>
<rect x="607.714" y="641.953" width="113.286" height="586.018" transform="rotate(90 607.714 641.953)" fill="#B8A590"/>
<rect x="889.881" y="465.731" width="176.222" height="846.47" transform="rotate(90 889.881 465.731)" fill="#B8A590"/>
<rect x="911.578" y="553.842" width="213.984" height="21.7044" transform="rotate(90 911.578 553.842)" fill="#B8A590"/>
<rect x="672.826" y="742.656" width="12.5873" height="65.1131" transform="rotate(90 672.826 742.656)" fill="#B8A590"/>
<rect x="889.881" y="742.656" width="12.5873" height="151.931" transform="rotate(90 889.881 742.656)" fill="#B8A590"/>
<rect x="889.881" y="641.953" width="100.698" height="282.157" transform="rotate(90 889.881 641.953)" fill="#B8A590"/>
<rect x="43.4192" y="50.356" width="176.222" height="21.7044" transform="rotate(90 43.4192 50.356)" fill="#DCC7AF"/>
<rect x="65.1249" y="226.578" width="163.635" height="21.7044" transform="rotate(90 65.1249 226.578)" fill="#DCC7AF"/>
<rect x="43.4196" y="402.795" width="163.635" height="21.7044" transform="rotate(90 43.4196 402.795)" fill="#DCC7AF"/>
<rect x="65.1254" y="566.432" width="62.9365" height="21.7044" transform="rotate(90 65.1254 566.432)" fill="#DCC7AF"/>
<rect x="43.4192" y="641.952" width="100.698" height="21.7044" transform="rotate(90 43.4192 641.952)" fill="#DCC7AF"/>
<rect width="12.5873" height="520.905" transform="matrix(4.04301e-08 -1 -1 -4.14591e-08 846.475 12.5873)" fill="#DCC7AF"/>
<rect x="325.567" y="12.5873" width="12.5873" height="260.452" transform="rotate(90 325.567 12.5873)" fill="#DCC7AF"/>
<rect x="195.346" y="742.654" width="12.5873" height="151.931" transform="rotate(90 195.346 742.654)" fill="#DCC7AF"/>
<rect x="629.431" y="755.24" width="12.5873" height="434.087" transform="rotate(90 629.431 755.24)" fill="#DCC7AF"/>
<rect x="694.541" y="742.654" width="12.5873" height="65.1131" transform="rotate(90 694.541 742.654)" fill="#DCC7AF"/>
<rect x="759.659" y="730.069" width="12.5873" height="65.1131" transform="rotate(90 759.659 730.069)" fill="#DCC7AF"/>
<rect x="781.366" y="742.654" width="25.1746" height="21.7044" transform="rotate(90 781.366 742.654)" fill="#DCC7AF"/>
<rect x="911.595" y="767.826" width="12.5873" height="130.226" transform="rotate(90 911.595 767.826)" fill="#DCC7AF"/>
<rect x="933.292" y="755.24" width="12.5873" height="21.7044" transform="rotate(90 933.292 755.24)" fill="#DCC7AF"/>
<rect x="955" y="541.255" width="213.984" height="21.7044" transform="rotate(90 955 541.255)" fill="#DCC7AF"/>
<rect x="933.292" y="453.143" width="88.1111" height="21.7044" transform="rotate(90 933.292 453.143)" fill="#DCC7AF"/>
<rect x="955" y="100.698" width="352.444" height="21.7044" transform="rotate(90 955 100.698)" fill="#DCC7AF"/>
<rect x="933.292" y="62.9356" width="37.7619" height="21.7044" transform="rotate(90 933.292 62.9356)" fill="#DCC7AF"/>
<rect x="911.595" y="50.356" width="12.5873" height="43.4087" transform="rotate(90 911.595 50.356)" fill="#DCC7AF"/>
<rect x="868.182" y="12.5873" width="37.7619" height="21.7044" transform="rotate(90 868.182 12.5873)" fill="#DCC7AF"/>
<rect x="65.1248" y="25.173" width="25.1746" height="21.7044" transform="rotate(90 65.1248 25.173)" fill="#DCC7AF"/>
<rect x="933.292" y="100.698" width="352.444" height="868.174" transform="rotate(90 933.292 100.698)" fill="#DCC7AF"/>
<rect x="911.595" y="62.9357" width="37.7619" height="846.47" transform="rotate(90 911.595 62.9357)" fill="#DCC7AF"/>
<rect x="846.475" y="25.1729" width="37.7619" height="520.905" transform="rotate(90 846.475 25.1729)" fill="#DCC7AF"/>
<rect x="846.475" y="12.5873" width="12.5873" height="520.905" transform="rotate(90 846.475 12.5873)" fill="#DCC7AF"/>
<rect x="629.431" y="742.654" width="12.5873" height="434.087" transform="rotate(90 629.431 742.654)" fill="#DCC7AF"/>
<rect x="911.595" y="742.654" width="25.1746" height="130.226" transform="rotate(90 911.595 742.654)" fill="#DCC7AF"/>
<rect x="325.567" y="25.173" width="37.7619" height="260.452" transform="rotate(90 325.567 25.173)" fill="#DCC7AF"/>
<rect x="65.1248" y="50.356" width="176.222" height="21.7044" transform="rotate(90 65.1248 50.356)" fill="#DCC7AF"/>
<rect x="65.1251" y="390.209" width="176.222" height="21.7044" transform="rotate(90 65.1251 390.209)" fill="#DCC7AF"/>
<rect x="629.431" y="629.366" width="113.286" height="586.018" transform="rotate(90 629.431 629.366)" fill="#DCC7AF"/>
<rect x="911.595" y="453.143" width="176.222" height="846.47" transform="rotate(90 911.595 453.143)" fill="#DCC7AF"/>
<rect x="933.292" y="541.255" width="213.984" height="21.7044" transform="rotate(90 933.292 541.255)" fill="#DCC7AF"/>
<rect x="694.541" y="730.069" width="12.5873" height="65.1131" transform="rotate(90 694.541 730.069)" fill="#DCC7AF"/>
<rect x="911.595" y="730.069" width="12.5873" height="151.931" transform="rotate(90 911.595 730.069)" fill="#DCC7AF"/>
<rect x="911.595" y="629.366" width="100.698" height="282.157" transform="rotate(90 911.595 629.366)" fill="#DCC7AF"/>
<rect x="868.183" y="50.356" width="12.5873" height="21.7044" transform="rotate(90 868.183 50.356)" fill="#DCC7AF"/>
<rect x="694.541" y="717.477" width="12.5873" height="434.087" transform="rotate(90 694.541 717.477)" fill="#BAA48B"/>
<rect x="694.541" y="717.477" width="12.5873" height="434.087" transform="rotate(90 694.541 717.477)" fill="#BAA48B"/>
<rect x="694.541" y="62.9357" width="12.5873" height="434.087" transform="rotate(90 694.541 62.9357)" fill="#BAA48B"/>
<rect x="759.652" y="75.5212" width="12.5873" height="108.522" transform="rotate(-90 759.652 75.5212)" fill="#BAA48B"/>
<rect x="868.174" y="125.87" width="21.7044" height="50.3492" transform="rotate(-180 868.174 125.87)" fill="#BAA48B"/>
<rect x="824.76" y="75.5212" width="12.5873" height="21.7044" transform="rotate(90 824.76 75.5212)" fill="#BAA48B"/>
<rect x="846.468" y="88.1187" width="12.5873" height="21.7044" transform="rotate(90 846.468 88.1187)" fill="#BAA48B"/>
<rect x="803.062" y="100.698" width="12.5873" height="21.7044" transform="rotate(90 803.062 100.698)" fill="#BAA48B"/>
<rect width="12.5873" height="108.522" transform="matrix(4.04301e-08 -1 -1 -4.14591e-08 195.354 75.5212)" fill="#BAA48B"/>
<rect width="21.7044" height="50.3492" transform="matrix(1 4.14591e-08 4.04301e-08 -1 86.8304 125.87)" fill="#BAA48B"/>
<rect width="12.5873" height="21.7044" transform="matrix(-4.04301e-08 1 1 4.14591e-08 130.234 75.5213)" fill="#BAA48B"/>
<rect width="12.5873" height="21.7044" transform="matrix(-4.04301e-08 1 1 4.14591e-08 108.528 88.1188)" fill="#BAA48B"/>
<rect width="12.5873" height="21.7044" transform="matrix(-4.04301e-08 1 1 4.14591e-08 151.941 100.698)" fill="#BAA48B"/>
<rect x="195.353" y="717.491" width="12.5873" height="108.522" transform="rotate(90 195.353 717.491)" fill="#BAA48B"/>
<rect x="86.8303" y="667.142" width="21.7044" height="50.3492" fill="#BAA48B"/>
<rect x="130.233" y="717.49" width="12.5873" height="21.7044" transform="rotate(-90 130.233 717.49)" fill="#BAA48B"/>
<rect x="108.528" y="704.898" width="12.5873" height="21.7044" transform="rotate(-90 108.528 704.898)" fill="#BAA48B"/>
<rect x="151.94" y="692.307" width="12.5873" height="21.7044" transform="rotate(-90 151.94 692.307)" fill="#BAA48B"/>
<rect width="12.5873" height="108.522" transform="matrix(-4.04301e-08 1 1 4.14591e-08 759.653 717.491)" fill="#BAA48B"/>
<rect width="21.7044" height="50.3492" transform="matrix(-1 -4.14591e-08 -4.04301e-08 1 868.177 667.142)" fill="#BAA48B"/>
<rect width="12.5873" height="21.7044" transform="matrix(4.04301e-08 -1 -1 -4.14591e-08 824.761 717.49)" fill="#BAA48B"/>
<rect width="12.5873" height="21.7044" transform="matrix(4.04301e-08 -1 -1 -4.14591e-08 846.468 704.898)" fill="#BAA48B"/>
<rect width="12.5873" height="21.7044" transform="matrix(4.04301e-08 -1 -1 -4.14591e-08 803.064 692.307)" fill="#BAA48B"/>
<rect width="12.5873" height="434.087" transform="matrix(-4.04301e-08 1 1 4.14591e-08 195.347 755.24)" fill="#F0DDC8"/>
<rect x="43.4192" y="755.24" width="12.5873" height="151.931" transform="rotate(-90 43.4192 755.24)" fill="#F0DDC8"/>
<rect x="21.7145" y="742.654" width="100.698" height="21.7044" transform="rotate(-90 21.7145 742.654)" fill="#F0DDC8"/>
<rect x="43.4188" y="641.952" width="75.5238" height="21.7044" transform="rotate(-90 43.4188 641.952)" fill="#F0DDC8"/>
<rect x="21.7145" y="566.432" width="163.635" height="21.7044" transform="rotate(-90 21.7145 566.432)" fill="#F0DDC8"/>
<rect x="43.4196" y="402.795" width="176.222" height="21.7044" transform="rotate(-90 43.4196 402.795)" fill="#F0DDC8"/>
<rect x="21.7148" y="226.578" width="176.222" height="21.7044" transform="rotate(-90 21.7148 226.578)" fill="#F0DDC8"/>
<rect x="43.4192" y="50.356" width="25.1746" height="21.7044" transform="rotate(-90 43.4192 50.356)" fill="#F0DDC8"/>
<rect x="65.1183" y="25.173" width="12.5873" height="260.452" transform="rotate(-90 65.1183 25.173)" fill="#F0DDC8"/>
<rect x="325.569" y="12.5873" width="12.5873" height="520.905" transform="rotate(-90 325.569 12.5873)" fill="#F0DDC8"/>
<rect width="12.5873" height="43.4087" transform="matrix(-4.04301e-08 1 1 4.14591e-08 651.136 742.654)" fill="#F0DDC8"/>
<rect width="12.5873" height="65.1131" transform="matrix(-4.04301e-08 1 1 4.14591e-08 694.542 730.069)" fill="#F0DDC8"/>
<rect width="12.5873" height="21.7044" transform="matrix(-4.04301e-08 1 1 4.14591e-08 759.66 755.24)" fill="#F0DDC8"/>
<rect width="12.5873" height="43.4087" transform="matrix(-4.04301e-08 1 1 4.14591e-08 889.887 755.24)" fill="#F0DDC8"/>
<rect width="12.5873" height="43.4087" transform="matrix(-4.04301e-08 1 1 4.14591e-08 911.587 742.654)" fill="#F0DDC8"/>
<rect width="12.5873" height="130.226" transform="matrix(-4.04301e-08 1 1 4.14591e-08 781.365 767.826)" fill="#F0DDC8"/>
<rect x="868.175" y="12.5873" width="37.7619" height="21.7044" transform="rotate(90 868.175 12.5873)" fill="#F0DDC8"/>
<rect x="911.587" y="50.356" width="12.5873" height="43.4087" transform="rotate(90 911.587 50.356)" fill="#F0DDC8"/>
<rect x="933.292" y="62.9356" width="37.7619" height="21.7044" transform="rotate(90 933.292 62.9356)" fill="#F0DDC8"/>
<rect x="955" y="100.698" width="352.444" height="21.7044" transform="rotate(90 955 100.698)" fill="#F0DDC8"/>
<rect x="933.292" y="453.143" width="88.1111" height="21.7044" transform="rotate(90 933.292 453.143)" fill="#F0DDC8"/>
<rect x="955" y="541.255" width="201.397" height="21.7044" transform="rotate(90 955 541.255)" fill="#F0DDC8"/>
<rect x="368.981" y="742.654" width="12.5873" height="43.4087" transform="rotate(90 368.981 742.654)" fill="#F0DDC8"/>
<rect x="564.322" y="742.655" width="12.5873" height="21.7044" transform="rotate(90 564.322 742.655)" fill="#F0DDC8"/>
<rect x="868.175" y="742.654" width="25.1746" height="21.7044" transform="rotate(90 868.175 742.654)" fill="#F0DDC8"/>
<rect x="846.474" y="755.24" width="12.5873" height="21.7044" transform="rotate(90 846.474 755.24)" fill="#F0DDC8"/>
<rect x="933.292" y="579.017" width="88.1111" height="21.7044" transform="rotate(90 933.292 579.017)" fill="#F0DDC8"/>
<rect x="911.586" y="604.195" width="25.1746" height="21.7044" transform="rotate(90 911.586 604.195)" fill="#F0DDC8"/>
<rect x="933.292" y="314.684" width="25.1746" height="21.7044" transform="rotate(90 933.292 314.684)" fill="#F0DDC8"/>
<rect x="911.586" y="327.269" width="12.5873" height="21.7044" transform="rotate(90 911.586 327.269)" fill="#F0DDC8"/>
<rect x="933.292" y="402.795" width="37.7619" height="21.7044" transform="rotate(90 933.292 402.795)" fill="#F0DDC8"/>
<rect x="933.292" y="100.698" width="12.5873" height="21.7044" transform="rotate(90 933.292 100.698)" fill="#F0DDC8"/>
<rect x="911.586" y="100.698" width="25.1746" height="21.7044" transform="rotate(90 911.586 100.698)" fill="#F0DDC8"/>
<rect x="846.474" y="12.5873" width="12.5873" height="151.931" transform="rotate(90 846.474 12.5873)" fill="#F0DDC8"/>
<rect x="846.474" y="25.1729" width="12.5873" height="86.8174" transform="rotate(90 846.474 25.1729)" fill="#F0DDC8"/>
<rect x="520.908" y="12.5873" width="12.5873" height="108.522" transform="rotate(90 520.908 12.5873)" fill="#F0DDC8"/>
<rect x="434.091" y="25.173" width="12.5873" height="65.1131" transform="rotate(90 434.091 25.173)" fill="#F0DDC8"/>
<rect x="368.98" y="12.5873" width="12.5873" height="43.4087" transform="rotate(90 368.98 12.5873)" fill="#F0DDC8"/>
<rect x="303.869" y="25.173" width="12.5873" height="151.931" transform="rotate(90 303.869 25.173)" fill="#F0DDC8"/>
<rect x="130.229" y="25.173" width="12.5873" height="21.7044" transform="rotate(90 130.229 25.173)" fill="#F0DDC8"/>
<rect x="65.1184" y="100.699" width="37.7619" height="21.7044" transform="rotate(90 65.1184 100.699)" fill="#F0DDC8"/>
<rect x="65.1185" y="151.053" width="25.1746" height="21.7044" transform="rotate(90 65.1185 151.053)" fill="#F0DDC8"/>
<rect x="86.8247" y="302.098" width="50.3492" height="21.7044" transform="rotate(90 86.8247 302.098)" fill="#F0DDC8"/>
<rect x="65.1184" y="478.321" width="12.5873" height="21.7044" transform="rotate(90 65.1184 478.321)" fill="#F0DDC8"/>
<rect x="65.1182" y="528.663" width="25.1746" height="21.7044" transform="rotate(90 65.1182 528.663)" fill="#F0DDC8"/>
<rect x="86.8245" y="604.195" width="25.1746" height="21.7044" transform="rotate(90 86.8245 604.195)" fill="#F0DDC8"/>
<rect x="65.119" y="692.306" width="12.5873" height="21.7044" transform="rotate(90 65.119 692.306)" fill="#F0DDC8"/>
<rect x="77.0923" y="61.248" width="791.376" height="88.6484" fill="#DCC7AF"/>
<rect x="77.0922" y="636.657" width="813.402" height="93.4838" fill="#DCC7AF"/>
</svg>
