<svg xmlns="http://www.w3.org/2000/svg" width="955" height="793" fill="none" viewBox="0 0 955 793"><rect width="176.222" height="21.704" x="21.705" y="62.943" fill="#B8A590" transform="rotate(90 21.7046 62.9432)"/><rect width="163.635" height="21.704" x="43.409" y="239.16" fill="#B8A590" transform="rotate(90 43.4094 239.16)"/><rect width="176.222" height="21.704" x="21.705" y="402.797" fill="#B8A590" transform="rotate(90 21.7053 402.797)"/><rect width="62.937" height="21.704" x="43.409" y="579.019" fill="#B8A590" transform="rotate(90 43.4094 579.019)"/><rect width="113.286" height="21.704" x="21.705" y="641.953" fill="#B8A590" transform="rotate(90 21.7053 641.953)"/><rect width="12.587" height="520.905" fill="#B8A590" transform="matrix(4.04301e-08 -1 -1 -4.14591e-08 824.761 25.1746)"/><rect width="12.587" height="260.452" x="303.852" y="25.175" fill="#B8A590" transform="rotate(90 303.852 25.1746)"/><rect width="12.587" height="151.931" x="173.631" y="755.242" fill="#B8A590" transform="rotate(90 173.631 755.242)"/><rect width="12.587" height="434.087" x="607.714" y="767.827" fill="#B8A590" transform="rotate(90 607.714 767.827)"/><rect width="12.587" height="65.113" x="672.826" y="755.242" fill="#B8A590" transform="rotate(90 672.826 755.242)"/><rect width="12.587" height="65.113" x="737.944" y="742.656" fill="#B8A590" transform="rotate(90 737.944 742.656)"/><rect width="25.175" height="21.704" x="759.649" y="755.242" fill="#B8A590" transform="rotate(90 759.649 755.242)"/><rect width="12.587" height="130.226" x="889.881" y="780.413" fill="#B8A590" transform="rotate(90 889.881 780.413)"/><rect width="12.587" height="21.704" x="911.578" y="767.827" fill="#B8A590" transform="rotate(90 911.578 767.827)"/><rect width="213.984" height="21.704" x="933.285" y="553.842" fill="#B8A590" transform="rotate(90 933.285 553.842)"/><rect width="88.111" height="21.704" x="911.578" y="465.731" fill="#B8A590" transform="rotate(90 911.578 465.731)"/><rect width="352.444" height="21.704" x="933.285" y="113.286" fill="#B8A590" transform="rotate(90 933.285 113.286)"/><rect width="37.762" height="21.704" x="911.578" y="75.523" fill="#B8A590" transform="rotate(90 911.578 75.5229)"/><rect width="12.587" height="43.409" x="889.881" y="62.943" fill="#B8A590" transform="rotate(90 889.881 62.9432)"/><rect width="37.762" height="21.704" x="846.468" y="25.175" fill="#B8A590" transform="rotate(90 846.468 25.1746)"/><rect width="25.175" height="21.704" x="43.409" y="37.76" fill="#B8A590" transform="rotate(90 43.4092 37.7603)"/><rect width="352.444" height="868.174" x="911.578" y="113.286" fill="#B8A590" transform="rotate(90 911.578 113.286)"/><rect width="37.762" height="846.47" x="889.881" y="75.523" fill="#B8A590" transform="rotate(90 889.881 75.5229)"/><rect width="37.762" height="520.905" x="824.761" y="37.76" fill="#B8A590" transform="rotate(90 824.761 37.7603)"/><rect width="12.587" height="520.905" x="824.761" y="25.175" fill="#B8A590" transform="rotate(90 824.761 25.1746)"/><rect width="12.587" height="434.087" x="607.714" y="755.242" fill="#B8A590" transform="rotate(90 607.714 755.242)"/><rect width="25.175" height="130.226" x="889.881" y="755.242" fill="#B8A590" transform="rotate(90 889.881 755.242)"/><rect width="37.762" height="260.452" x="303.852" y="37.76" fill="#B8A590" transform="rotate(90 303.852 37.7604)"/><rect width="176.222" height="21.704" x="43.409" y="62.943" fill="#B8A590" transform="rotate(90 43.4092 62.9432)"/><rect width="176.222" height="21.704" x="43.409" y="402.797" fill="#B8A590" transform="rotate(90 43.4093 402.797)"/><rect width="113.286" height="586.018" x="607.714" y="641.953" fill="#B8A590" transform="rotate(90 607.714 641.953)"/><rect width="176.222" height="846.47" x="889.881" y="465.731" fill="#B8A590" transform="rotate(90 889.881 465.731)"/><rect width="213.984" height="21.704" x="911.578" y="553.842" fill="#B8A590" transform="rotate(90 911.578 553.842)"/><rect width="12.587" height="65.113" x="672.826" y="742.656" fill="#B8A590" transform="rotate(90 672.826 742.656)"/><rect width="12.587" height="151.931" x="889.881" y="742.656" fill="#B8A590" transform="rotate(90 889.881 742.656)"/><rect width="100.698" height="282.157" x="889.881" y="641.953" fill="#B8A590" transform="rotate(90 889.881 641.953)"/><rect width="176.222" height="21.704" x="43.419" y="50.356" fill="#DCC7AF" transform="rotate(90 43.4192 50.356)"/><rect width="163.635" height="21.704" x="65.125" y="226.578" fill="#DCC7AF" transform="rotate(90 65.1249 226.578)"/><rect width="163.635" height="21.704" x="43.42" y="402.795" fill="#DCC7AF" transform="rotate(90 43.4196 402.795)"/><rect width="62.937" height="21.704" x="65.125" y="566.432" fill="#DCC7AF" transform="rotate(90 65.1254 566.432)"/><rect width="100.698" height="21.704" x="43.419" y="641.952" fill="#DCC7AF" transform="rotate(90 43.4192 641.952)"/><rect width="12.587" height="520.905" fill="#DCC7AF" transform="matrix(4.04301e-08 -1 -1 -4.14591e-08 846.475 12.5873)"/><rect width="12.587" height="260.452" x="325.567" y="12.587" fill="#DCC7AF" transform="rotate(90 325.567 12.5873)"/><rect width="12.587" height="151.931" x="195.346" y="742.654" fill="#DCC7AF" transform="rotate(90 195.346 742.654)"/><rect width="12.587" height="434.087" x="629.431" y="755.24" fill="#DCC7AF" transform="rotate(90 629.431 755.24)"/><rect width="12.587" height="65.113" x="694.541" y="742.654" fill="#DCC7AF" transform="rotate(90 694.541 742.654)"/><rect width="12.587" height="65.113" x="759.659" y="730.069" fill="#DCC7AF" transform="rotate(90 759.659 730.069)"/><rect width="25.175" height="21.704" x="781.366" y="742.654" fill="#DCC7AF" transform="rotate(90 781.366 742.654)"/><rect width="12.587" height="130.226" x="911.595" y="767.826" fill="#DCC7AF" transform="rotate(90 911.595 767.826)"/><rect width="12.587" height="21.704" x="933.292" y="755.24" fill="#DCC7AF" transform="rotate(90 933.292 755.24)"/><rect width="213.984" height="21.704" x="955" y="541.255" fill="#DCC7AF" transform="rotate(90 955 541.255)"/><rect width="88.111" height="21.704" x="933.292" y="453.143" fill="#DCC7AF" transform="rotate(90 933.292 453.143)"/><rect width="352.444" height="21.704" x="955" y="100.698" fill="#DCC7AF" transform="rotate(90 955 100.698)"/><rect width="37.762" height="21.704" x="933.292" y="62.936" fill="#DCC7AF" transform="rotate(90 933.292 62.9356)"/><rect width="12.587" height="43.409" x="911.595" y="50.356" fill="#DCC7AF" transform="rotate(90 911.595 50.356)"/><rect width="37.762" height="21.704" x="868.182" y="12.587" fill="#DCC7AF" transform="rotate(90 868.182 12.5873)"/><rect width="25.175" height="21.704" x="65.125" y="25.173" fill="#DCC7AF" transform="rotate(90 65.1248 25.173)"/><rect width="352.444" height="868.174" x="933.292" y="100.698" fill="#DCC7AF" transform="rotate(90 933.292 100.698)"/><rect width="37.762" height="846.47" x="911.595" y="62.936" fill="#DCC7AF" transform="rotate(90 911.595 62.9357)"/><rect width="37.762" height="520.905" x="846.475" y="25.173" fill="#DCC7AF" transform="rotate(90 846.475 25.1729)"/><rect width="12.587" height="520.905" x="846.475" y="12.587" fill="#DCC7AF" transform="rotate(90 846.475 12.5873)"/><rect width="12.587" height="434.087" x="629.431" y="742.654" fill="#DCC7AF" transform="rotate(90 629.431 742.654)"/><rect width="25.175" height="130.226" x="911.595" y="742.654" fill="#DCC7AF" transform="rotate(90 911.595 742.654)"/><rect width="37.762" height="260.452" x="325.567" y="25.173" fill="#DCC7AF" transform="rotate(90 325.567 25.173)"/><rect width="176.222" height="21.704" x="65.125" y="50.356" fill="#DCC7AF" transform="rotate(90 65.1248 50.356)"/><rect width="176.222" height="21.704" x="65.125" y="390.209" fill="#DCC7AF" transform="rotate(90 65.1251 390.209)"/><rect width="113.286" height="586.018" x="629.431" y="629.366" fill="#DCC7AF" transform="rotate(90 629.431 629.366)"/><rect width="176.222" height="846.47" x="911.595" y="453.143" fill="#DCC7AF" transform="rotate(90 911.595 453.143)"/><rect width="213.984" height="21.704" x="933.292" y="541.255" fill="#DCC7AF" transform="rotate(90 933.292 541.255)"/><rect width="12.587" height="65.113" x="694.541" y="730.069" fill="#DCC7AF" transform="rotate(90 694.541 730.069)"/><rect width="12.587" height="151.931" x="911.595" y="730.069" fill="#DCC7AF" transform="rotate(90 911.595 730.069)"/><rect width="100.698" height="282.157" x="911.595" y="629.366" fill="#DCC7AF" transform="rotate(90 911.595 629.366)"/><rect width="12.587" height="21.704" x="868.183" y="50.356" fill="#DCC7AF" transform="rotate(90 868.183 50.356)"/><rect width="12.587" height="434.087" x="694.541" y="717.477" fill="#BAA48B" transform="rotate(90 694.541 717.477)"/><rect width="12.587" height="434.087" x="694.541" y="717.477" fill="#BAA48B" transform="rotate(90 694.541 717.477)"/><rect width="12.587" height="434.087" x="694.541" y="62.936" fill="#BAA48B" transform="rotate(90 694.541 62.9357)"/><rect width="12.587" height="108.522" x="759.652" y="75.521" fill="#BAA48B" transform="rotate(-90 759.652 75.5212)"/><rect width="21.704" height="50.349" x="868.174" y="125.87" fill="#BAA48B" transform="rotate(-180 868.174 125.87)"/><rect width="12.587" height="21.704" x="824.76" y="75.521" fill="#BAA48B" transform="rotate(90 824.76 75.5212)"/><rect width="12.587" height="21.704" x="846.468" y="88.119" fill="#BAA48B" transform="rotate(90 846.468 88.1187)"/><rect width="12.587" height="21.704" x="803.062" y="100.698" fill="#BAA48B" transform="rotate(90 803.062 100.698)"/><rect width="12.587" height="108.522" fill="#BAA48B" transform="matrix(4.04301e-08 -1 -1 -4.14591e-08 195.354 75.5212)"/><rect width="21.704" height="50.349" fill="#BAA48B" transform="matrix(1 4.14591e-08 4.04301e-08 -1 86.8304 125.87)"/><rect width="12.587" height="21.704" fill="#BAA48B" transform="matrix(-4.04301e-08 1 1 4.14591e-08 130.234 75.5213)"/><rect width="12.587" height="21.704" fill="#BAA48B" transform="matrix(-4.04301e-08 1 1 4.14591e-08 108.528 88.1188)"/><rect width="12.587" height="21.704" fill="#BAA48B" transform="matrix(-4.04301e-08 1 1 4.14591e-08 151.941 100.698)"/><rect width="12.587" height="108.522" x="195.353" y="717.491" fill="#BAA48B" transform="rotate(90 195.353 717.491)"/><rect width="21.704" height="50.349" x="86.83" y="667.142" fill="#BAA48B"/><rect width="12.587" height="21.704" x="130.233" y="717.49" fill="#BAA48B" transform="rotate(-90 130.233 717.49)"/><rect width="12.587" height="21.704" x="108.528" y="704.898" fill="#BAA48B" transform="rotate(-90 108.528 704.898)"/><rect width="12.587" height="21.704" x="151.94" y="692.307" fill="#BAA48B" transform="rotate(-90 151.94 692.307)"/><rect width="12.587" height="108.522" fill="#BAA48B" transform="matrix(-4.04301e-08 1 1 4.14591e-08 759.653 717.491)"/><rect width="21.704" height="50.349" fill="#BAA48B" transform="matrix(-1 -4.14591e-08 -4.04301e-08 1 868.177 667.142)"/><rect width="12.587" height="21.704" fill="#BAA48B" transform="matrix(4.04301e-08 -1 -1 -4.14591e-08 824.761 717.49)"/><rect width="12.587" height="21.704" fill="#BAA48B" transform="matrix(4.04301e-08 -1 -1 -4.14591e-08 846.468 704.898)"/><rect width="12.587" height="21.704" fill="#BAA48B" transform="matrix(4.04301e-08 -1 -1 -4.14591e-08 803.064 692.307)"/><rect width="12.587" height="434.087" fill="#F0DDC8" transform="matrix(-4.04301e-08 1 1 4.14591e-08 195.347 755.24)"/><rect width="12.587" height="151.931" x="43.419" y="755.24" fill="#F0DDC8" transform="rotate(-90 43.4192 755.24)"/><rect width="100.698" height="21.704" x="21.715" y="742.654" fill="#F0DDC8" transform="rotate(-90 21.7145 742.654)"/><rect width="75.524" height="21.704" x="43.419" y="641.952" fill="#F0DDC8" transform="rotate(-90 43.4188 641.952)"/><rect width="163.635" height="21.704" x="21.715" y="566.432" fill="#F0DDC8" transform="rotate(-90 21.7145 566.432)"/><rect width="176.222" height="21.704" x="43.42" y="402.795" fill="#F0DDC8" transform="rotate(-90 43.4196 402.795)"/><rect width="176.222" height="21.704" x="21.715" y="226.578" fill="#F0DDC8" transform="rotate(-90 21.7148 226.578)"/><rect width="25.175" height="21.704" x="43.419" y="50.356" fill="#F0DDC8" transform="rotate(-90 43.4192 50.356)"/><rect width="12.587" height="260.452" x="65.118" y="25.173" fill="#F0DDC8" transform="rotate(-90 65.1183 25.173)"/><rect width="12.587" height="520.905" x="325.569" y="12.587" fill="#F0DDC8" transform="rotate(-90 325.569 12.5873)"/><rect width="12.587" height="43.409" fill="#F0DDC8" transform="matrix(-4.04301e-08 1 1 4.14591e-08 651.136 742.654)"/><rect width="12.587" height="65.113" fill="#F0DDC8" transform="matrix(-4.04301e-08 1 1 4.14591e-08 694.542 730.069)"/><rect width="12.587" height="21.704" fill="#F0DDC8" transform="matrix(-4.04301e-08 1 1 4.14591e-08 759.66 755.24)"/><rect width="12.587" height="43.409" fill="#F0DDC8" transform="matrix(-4.04301e-08 1 1 4.14591e-08 889.887 755.24)"/><rect width="12.587" height="43.409" fill="#F0DDC8" transform="matrix(-4.04301e-08 1 1 4.14591e-08 911.587 742.654)"/><rect width="12.587" height="130.226" fill="#F0DDC8" transform="matrix(-4.04301e-08 1 1 4.14591e-08 781.365 767.826)"/><rect width="37.762" height="21.704" x="868.175" y="12.587" fill="#F0DDC8" transform="rotate(90 868.175 12.5873)"/><rect width="12.587" height="43.409" x="911.587" y="50.356" fill="#F0DDC8" transform="rotate(90 911.587 50.356)"/><rect width="37.762" height="21.704" x="933.292" y="62.936" fill="#F0DDC8" transform="rotate(90 933.292 62.9356)"/><rect width="352.444" height="21.704" x="955" y="100.698" fill="#F0DDC8" transform="rotate(90 955 100.698)"/><rect width="88.111" height="21.704" x="933.292" y="453.143" fill="#F0DDC8" transform="rotate(90 933.292 453.143)"/><rect width="201.397" height="21.704" x="955" y="541.255" fill="#F0DDC8" transform="rotate(90 955 541.255)"/><rect width="12.587" height="43.409" x="368.981" y="742.654" fill="#F0DDC8" transform="rotate(90 368.981 742.654)"/><rect width="12.587" height="21.704" x="564.322" y="742.655" fill="#F0DDC8" transform="rotate(90 564.322 742.655)"/><rect width="25.175" height="21.704" x="868.175" y="742.654" fill="#F0DDC8" transform="rotate(90 868.175 742.654)"/><rect width="12.587" height="21.704" x="846.474" y="755.24" fill="#F0DDC8" transform="rotate(90 846.474 755.24)"/><rect width="88.111" height="21.704" x="933.292" y="579.017" fill="#F0DDC8" transform="rotate(90 933.292 579.017)"/><rect width="25.175" height="21.704" x="911.586" y="604.195" fill="#F0DDC8" transform="rotate(90 911.586 604.195)"/><rect width="25.175" height="21.704" x="933.292" y="314.684" fill="#F0DDC8" transform="rotate(90 933.292 314.684)"/><rect width="12.587" height="21.704" x="911.586" y="327.269" fill="#F0DDC8" transform="rotate(90 911.586 327.269)"/><rect width="37.762" height="21.704" x="933.292" y="402.795" fill="#F0DDC8" transform="rotate(90 933.292 402.795)"/><rect width="12.587" height="21.704" x="933.292" y="100.698" fill="#F0DDC8" transform="rotate(90 933.292 100.698)"/><rect width="25.175" height="21.704" x="911.586" y="100.698" fill="#F0DDC8" transform="rotate(90 911.586 100.698)"/><rect width="12.587" height="151.931" x="846.474" y="12.587" fill="#F0DDC8" transform="rotate(90 846.474 12.5873)"/><rect width="12.587" height="86.817" x="846.474" y="25.173" fill="#F0DDC8" transform="rotate(90 846.474 25.1729)"/><rect width="12.587" height="108.522" x="520.908" y="12.587" fill="#F0DDC8" transform="rotate(90 520.908 12.5873)"/><rect width="12.587" height="65.113" x="434.091" y="25.173" fill="#F0DDC8" transform="rotate(90 434.091 25.173)"/><rect width="12.587" height="43.409" x="368.98" y="12.587" fill="#F0DDC8" transform="rotate(90 368.98 12.5873)"/><rect width="12.587" height="151.931" x="303.869" y="25.173" fill="#F0DDC8" transform="rotate(90 303.869 25.173)"/><rect width="12.587" height="21.704" x="130.229" y="25.173" fill="#F0DDC8" transform="rotate(90 130.229 25.173)"/><rect width="37.762" height="21.704" x="65.118" y="100.699" fill="#F0DDC8" transform="rotate(90 65.1184 100.699)"/><rect width="25.175" height="21.704" x="65.118" y="151.053" fill="#F0DDC8" transform="rotate(90 65.1185 151.053)"/><rect width="50.349" height="21.704" x="86.825" y="302.098" fill="#F0DDC8" transform="rotate(90 86.8247 302.098)"/><rect width="12.587" height="21.704" x="65.118" y="478.321" fill="#F0DDC8" transform="rotate(90 65.1184 478.321)"/><rect width="25.175" height="21.704" x="65.118" y="528.663" fill="#F0DDC8" transform="rotate(90 65.1182 528.663)"/><rect width="25.175" height="21.704" x="86.825" y="604.195" fill="#F0DDC8" transform="rotate(90 86.8245 604.195)"/><rect width="12.587" height="21.704" x="65.119" y="692.306" fill="#F0DDC8" transform="rotate(90 65.119 692.306)"/><rect width="791.376" height="88.648" x="77.092" y="61.248" fill="#DCC7AF"/><rect width="813.402" height="93.484" x="77.092" y="636.657" fill="#DCC7AF"/></svg>