<svg xmlns="http://www.w3.org/2000/svg" width="221" height="246" fill="none" viewBox="0 0 221 246"><g filter="url(#filter0_f_1934_275)"><rect width="15.638" height="28.273" fill="#fff" transform="matrix(-1 0 0 1 153.567 23)"/><rect width="13.571" height="15.963" fill="#fff" transform="matrix(5.03673e-08 1 1 -3.7935e-08 182.562 75.8716)"/><rect width="13.571" height="15.963" fill="#fff" transform="matrix(5.03673e-08 1 1 -3.7935e-08 92.9702 75.8716)"/><rect width="15.638" height="28.273" fill="#fff" transform="matrix(-1 0 0 1 153.567 114.038)"/><rect width="15.638" height="42.41" fill="#fff" transform="matrix(-1 0 0 1 153.567 61.4525)"/><rect width="13.571" height="48.867" fill="#fff" transform="matrix(5.03673e-08 1 1 -3.7935e-08 121.313 75.8716)"/></g><g filter="url(#filter1_f_1934_275)"><rect width="8.422" height="15.228" fill="#fff" transform="matrix(-1 0 0 1 45.637 168.832)"/><rect width="7.309" height="8.598" fill="#fff" transform="matrix(5.03673e-08 1 1 -3.7935e-08 61.2524 197.307)"/><rect width="7.309" height="8.598" fill="#fff" transform="matrix(5.03673e-08 1 1 -3.7935e-08 13.0002 197.307)"/><rect width="8.422" height="15.228" fill="#fff" transform="matrix(-1 0 0 1 45.637 217.865)"/><rect width="8.422" height="22.841" fill="#fff" transform="matrix(-1 0 0 1 45.637 189.539)"/><rect width="7.309" height="26.32" fill="#fff" transform="matrix(5.03673e-08 1 1 -3.7935e-08 28.2656 197.307)"/></g><defs><filter id="filter0_f_1934_275" width="150.136" height="163.892" x="70.68" y=".71" color-interpolation-filters="sRGB" filterUnits="userSpaceOnUse"><feFlood flood-opacity="0" result="BackgroundImageFix"/><feBlend in="SourceGraphic" in2="BackgroundImageFix" mode="normal" result="shape"/><feGaussianBlur result="effect1_foregroundBlur_1934_275" stdDeviation="11.145"/></filter><filter id="filter1_f_1934_275" width="82.325" height="89.736" x=".263" y="156.094" color-interpolation-filters="sRGB" filterUnits="userSpaceOnUse"><feFlood flood-opacity="0" result="BackgroundImageFix"/><feBlend in="SourceGraphic" in2="BackgroundImageFix" mode="normal" result="shape"/><feGaussianBlur result="effect1_foregroundBlur_1934_275" stdDeviation="6.369"/></filter></defs></svg>