<svg xmlns="http://www.w3.org/2000/svg" width="397" height="364" fill="none" viewBox="0 0 397 364"><circle cx="112.8" cy="250.4" r="112.8" fill="#DBE5FF" fill-opacity=".13"/><circle cx="112.8" cy="250.399" r="98.338" fill="#D3B3ED"/><path fill="#fff" d="M102.163 226.256L101.353 230.883H99.0394L98.6229 233.197H93.9952L93.5787 235.511H91.2649L90.8715 237.825H95.4992L95.8926 235.511H100.52L99.7104 240.139H85.8273L86.6372 235.511H88.951L89.3675 233.197H91.6814L92.0979 230.883H96.7256L97.5354 226.256H92.9077L92.4912 228.569H87.8635L88.28 226.256H90.5939L90.9872 223.942H100.243L99.8493 226.256H102.163ZM117.138 233.197L116.328 237.825H114.015L113.598 240.139H104.343L104.759 237.825H102.445L104.065 228.569H106.379L106.795 226.256H109.109L109.503 223.942H116.444L116.051 226.256H111.423L111.007 228.569H108.693L108.299 230.883H115.241L114.824 233.197H117.138ZM112.511 233.197H107.883L107.073 237.825H111.701L112.511 233.197ZM133.756 230.883H131.442L131.026 233.197H128.712L127.486 240.139H122.858L124.084 233.197H126.398L126.815 230.883H129.128L129.938 226.256H125.311L124.894 228.569H120.266L121.076 223.942H134.959L133.756 230.883ZM50.0102 254.256V251.942H56.9517V254.256H50.0102ZM56.9517 254.256H59.2656V268.139H56.9517V258.883H50.0102V268.139H47.6963V254.256H50.0102V256.569H56.9517V254.256ZM70.8258 256.569V258.883H63.8842V268.139H61.5704V251.942H70.8258V254.256H63.8842V256.569H70.8258ZM70.8258 254.256H73.1396V256.569H70.8258V254.256ZM84.6998 256.569V258.883H77.7583V268.139H75.4444V251.942H84.6998V254.256H77.7583V256.569H84.6998ZM84.6998 254.256H87.0136V256.569H84.6998V254.256ZM100.888 265.825V268.139H89.3185V251.942H91.6323V265.825H100.888ZM107.82 265.825H110.134V268.139H103.192V265.825H105.506V254.256H103.192V251.942H110.134V254.256H107.82V265.825ZM121.712 251.942V254.256H114.771V251.942H121.712ZM112.457 254.256H114.771V265.825H112.457V254.256ZM124.026 256.569H121.712V254.256H124.026V256.569ZM124.026 263.511V265.825H121.712V263.511H124.026ZM114.771 268.139V265.825H121.712V268.139H114.771ZM128.645 254.256V251.942H135.586V254.256H128.645ZM135.586 254.256H137.9V268.139H135.586V258.883H128.645V268.139H126.331V254.256H128.645V256.569H135.586V254.256ZM142.519 254.256H144.833V256.569H142.519V268.139H140.205V251.942H142.519V254.256ZM149.46 251.942H151.774V268.139H149.46V261.197H147.147V258.883H149.46V251.942ZM144.833 256.569H147.147V258.883H144.833V256.569ZM165.648 251.942V254.256H161.021V268.139H158.707V254.256H154.079V251.942H165.648ZM170.267 254.256V251.942H179.522V254.256H170.267ZM167.953 254.256H170.267V256.569H167.953V254.256ZM170.267 258.883V256.569H177.208V258.883H170.267ZM177.208 258.883H179.522V265.825H177.208V258.883ZM167.953 263.511H170.267V265.825H167.953V263.511ZM177.208 265.825V268.139H170.267V265.825H177.208Z"/><circle cx="299.2" cy="97.6" r="97.6" fill="#9392B7"/><ellipse cx="298.4" cy="97.6" fill="#1557A1" rx="85.6" ry="86.4"/><path fill="#fff" d="M293.598 85.1997H280.158L280.561 82.9597H285.041L286.609 73.9997H284.369L284.772 71.7597H287.012L287.393 69.5197H291.873L289.521 82.9597H294.001L293.598 85.1997ZM309.282 85.1997H295.842L296.245 82.9597H300.725L302.293 73.9997H300.053L300.456 71.7597H302.696L303.077 69.5197H307.557L305.205 82.9597H309.685L309.282 85.1997ZM327.341 71.7597L325.75 80.7197H323.51L323.13 82.9597H320.89L320.486 85.1997H313.766L314.17 82.9597H318.65L319.03 80.7197H321.27L321.674 78.4797H314.954L315.357 76.2397H313.117L313.901 71.7597H316.141L316.522 69.5197H325.482L325.101 71.7597H327.341ZM322.861 71.7597H318.381L317.597 76.2397H322.077L322.861 71.7597ZM240.999 98.7597V96.5197H247.719V98.7597H240.999ZM247.719 98.7597H249.959V112.2H247.719V103.24H240.999V112.2H238.759V98.7597H240.999V101H247.719V98.7597ZM263.391 96.5197V98.7597H258.911V112.2H256.671V98.7597H252.191V96.5197H263.391ZM276.822 96.5197V98.7597H272.342V112.2H270.102V98.7597H265.622V96.5197H276.822ZM281.293 98.7597V101H285.773V103.24H281.293V109.96H290.253V112.2H279.053V96.5197H290.253V98.7597H281.293ZM294.724 98.7597H296.964V101H294.724V112.2H292.484V96.5197H294.724V98.7597ZM301.444 96.5197H303.684V112.2H301.444V105.48H299.204V103.24H301.444V96.5197ZM296.964 101H299.204V103.24H296.964V101ZM314.876 109.96V112.2H305.916V96.5197H314.876V98.7597H308.156V109.96H314.876ZM314.876 98.7597H317.116V109.96H314.876V98.7597ZM321.587 98.7597V101H326.067V103.24H321.587V109.96H330.547V112.2H319.347V96.5197H330.547V98.7597H321.587ZM335.018 98.7597V101H339.498V103.24H335.018V109.96H343.978V112.2H332.778V96.5197H343.978V98.7597H335.018ZM348.449 98.7597V96.5197H357.409V98.7597H348.449ZM346.209 98.7597H348.449V101H346.209V98.7597ZM348.449 103.24V101H355.169V103.24H348.449ZM355.169 103.24H357.409V109.96H355.169V103.24ZM346.209 107.72H348.449V109.96H346.209V107.72ZM355.169 109.96V112.2H348.449V109.96H355.169Z"/></svg>