<svg xmlns="http://www.w3.org/2000/svg" width="388" height="501" fill="none" viewBox="0 0 388 501"><circle cx="96" cy="170" r="96" fill="#DBE5FF" fill-opacity=".13"/><circle cx="96" cy="170" r="83.692" fill="#D3B3ED"/><path fill="#fff" d="M86.3112 153.815H84.342L83.9875 155.784H82.0183L80.9746 161.692H77.0361L78.0798 155.784H80.049L80.4035 153.815H82.3727L83.062 149.877H79.1235L78.769 151.846H74.8306L75.5198 147.907H87.3352L86.3112 153.815ZM98.7015 161.692H86.8861L87.2406 159.723H91.179L92.5575 151.846H90.5883L90.9427 149.877H92.912L93.2467 147.907H97.1852L95.1175 159.723H99.056L98.7015 161.692ZM112.49 161.692H100.675L101.029 159.723H104.968L106.346 151.846H104.377L104.731 149.877H106.7L107.035 147.907H110.974L108.906 159.723H112.844L112.49 161.692ZM42.615 173.877V171.907H48.5227V173.877H42.615ZM48.5227 173.877H50.4919V185.692H48.5227V177.815H42.615V185.692H40.6457V173.877H42.615V175.846H48.5227V173.877ZM60.3303 175.846V177.815H54.4227V185.692H52.4534V171.907H60.3303V173.877H54.4227V175.846H60.3303ZM60.3303 173.877H62.2996V175.846H60.3303V173.877ZM72.138 175.846V177.815H66.2303V185.692H64.2611V171.907H72.138V173.877H66.2303V175.846H72.138ZM72.138 173.877H74.1073V175.846H72.138V173.877ZM85.915 183.723V185.692H76.0688V171.907H78.038V183.723H85.915ZM91.815 183.723H93.7842V185.692H87.8765V183.723H89.8457V173.877H87.8765V171.907H93.7842V173.877H91.815V183.723ZM103.638 171.907V173.877H97.7304V171.907H103.638ZM95.7611 173.877H97.7304V183.723H95.7611V173.877ZM105.607 175.846H103.638V173.877H105.607V175.846ZM105.607 181.753V183.723H103.638V181.753H105.607ZM97.7304 185.692V183.723H103.638V185.692H97.7304ZM109.538 173.877V171.907H115.446V173.877H109.538ZM115.446 173.877H117.415V185.692H115.446V177.815H109.538V185.692H107.569V173.877H109.538V175.846H115.446V173.877ZM121.346 173.877H123.315V175.846H121.346V185.692H119.377V171.907H121.346V173.877ZM127.253 171.907H129.223V185.692H127.253V179.784H125.284V177.815H127.253V171.907ZM123.315 175.846H125.284V177.815H123.315V175.846ZM141.03 171.907V173.877H137.092V185.692H135.123V173.877H131.184V171.907H141.03ZM144.961 173.877V171.907H152.838V173.877H144.961ZM142.992 173.877H144.961V175.846H142.992V173.877ZM144.961 177.815V175.846H150.869V177.815H144.961ZM150.869 177.815H152.838V183.723H150.869V177.815ZM142.992 181.753H144.961V183.723H142.992V181.753ZM150.869 183.723V185.692H144.961V183.723H150.869Z"/><circle cx="276.8" cy="80.399" r="80" fill="#9392B7"/><ellipse cx="276.144" cy="80.399" fill="#1557A1" rx="70.164" ry="70.82"/><path fill="#fff" d="M274.154 58.9079L273.511 62.5801H271.675L271.345 64.4161H267.673L267.342 66.2522H265.506L265.194 68.0883H268.866L269.178 66.2522H272.85L272.208 69.9243H261.191L261.834 66.2522H263.67L264.001 64.4161H265.837L266.167 62.5801H269.839L270.482 58.9079H266.81L266.479 60.744H262.807L263.138 58.9079H264.974L265.286 57.0719H272.63L272.318 58.9079H274.154ZM285.064 69.9243H281.392L282.034 66.2522H274.69L275.351 62.5801H277.187L277.499 60.744H279.335L279.666 58.9079H281.502L281.814 57.0719H287.322L285.064 69.9243ZM283.007 60.744H281.171L280.859 62.5801H279.023L278.693 64.4161H282.365L283.007 60.744ZM299.866 58.9079L299.223 62.5801H297.387L297.057 64.4161H298.893L298.25 68.0883H296.414L296.084 69.9243H288.74L289.07 68.0883H287.234L287.877 64.4161H289.713L290.043 62.5801H288.207L288.85 58.9079H290.686L290.998 57.0719H298.342L298.03 58.9079H299.866ZM296.194 58.9079H292.522L291.879 62.5801H295.551L296.194 58.9079ZM291.549 64.4161L290.906 68.0883H294.578L295.221 64.4161H291.549ZM229.094 80.9079V79.0719H234.602V80.9079H229.094ZM234.602 80.9079H236.439V91.9243H234.602V84.5801H229.094V91.9243H227.258V80.9079H229.094V82.744H234.602V80.9079ZM247.448 79.0719V80.9079H243.776V91.9243H241.94V80.9079H238.267V79.0719H247.448ZM258.457 79.0719V80.9079H254.785V91.9243H252.949V80.9079H249.277V79.0719H258.457ZM262.122 80.9079V82.744H265.794V84.5801H262.122V90.0883H269.466V91.9243H260.286V79.0719H269.466V80.9079H262.122ZM273.131 80.9079H274.967V82.744H273.131V91.9243H271.295V79.0719H273.131V80.9079ZM278.639 79.0719H280.475V91.9243H278.639V86.4161H276.803V84.5801H278.639V79.0719ZM274.967 82.744H276.803V84.5801H274.967V82.744ZM289.649 90.0883V91.9243H282.304V79.0719H289.649V80.9079H284.14V90.0883H289.649ZM289.649 80.9079H291.485V90.0883H289.649V80.9079ZM295.15 80.9079V82.744H298.822V84.5801H295.15V90.0883H302.494V91.9243H293.314V79.0719H302.494V80.9079H295.15ZM306.159 80.9079V82.744H309.831V84.5801H306.159V90.0883H313.503V91.9243H304.323V79.0719H313.503V80.9079H306.159ZM317.168 80.9079V79.0719H324.512V80.9079H317.168ZM315.332 80.9079H317.168V82.744H315.332V80.9079ZM317.168 84.5801V82.744H322.676V84.5801H317.168ZM322.676 84.5801H324.512V90.0883H322.676V84.5801ZM315.332 88.2522H317.168V90.0883H315.332V88.2522ZM322.676 90.0883V91.9243H317.168V90.0883H322.676Z"/><circle cx="252" cy="369.199" r="93.6" fill="#8F8EB4"/><mask id="mask0_1414_276" style="mask-type:alpha" width="161" height="161" x="172" y="289" maskUnits="userSpaceOnUse"><circle cx="252.8" cy="370" r="80" fill="#D9D9D9"/></mask><g mask="url(#mask0_1414_276)"><rect width="163.2" height="163.2" x="171.2" y="288.399" fill="#72A0E6"/><path fill="#D3B3ED" d="M252.8 288.399V369.999H334.4V288.399H252.8Z"/><path fill="#1764B5" d="M270.65 451.6L252.8 370L334.4 370.75V451.6H270.65Z"/></g><path fill="#fff" d="M204.183 370.359L203.455 374.519H201.375L201 376.599H192.68L193.055 374.519H190.975L192.431 366.199H194.511L194.885 364.119H196.965L197.319 362.039H203.559L203.205 364.119H199.045L198.671 366.199H196.591L196.237 368.279H202.477L202.103 370.359H204.183ZM200.023 370.359H195.863L195.135 374.519H199.295L200.023 370.359ZM218.747 370.359L218.019 374.519H215.939L215.564 376.599H207.244L207.619 374.519H205.539L206.995 366.199H209.075L209.449 364.119H211.529L211.883 362.039H218.123L217.769 364.119H213.609L213.235 366.199H211.155L210.801 368.279H217.041L216.667 370.359H218.747ZM214.587 370.359H210.427L209.699 374.519H213.859L214.587 370.359ZM221.809 366.199H219.729V362.039H221.809V366.199ZM228.049 362.039H230.129V364.119H228.049V362.039ZM225.969 364.119H228.049V368.279H225.969V364.119ZM223.889 370.359V368.279H225.969V370.359H223.889ZM221.809 370.359H223.889V374.519H221.809V370.359ZM228.049 372.439H230.129V376.599H228.049V372.439ZM219.729 376.599V374.519H221.809V376.599H219.729Z"/><path fill="#fff" d="M282.085 333.719L281.357 337.879H279.277L278.903 339.959H280.983L280.255 344.119H278.175L277.8 346.199H269.48L269.855 344.119H267.775L268.128 342.039H272.288L271.935 344.119H276.095L276.823 339.959H272.663L273.037 337.879H277.197L277.925 333.719H273.765L273.391 335.799H269.231L269.605 333.719H271.685L272.039 331.639H280.359L280.005 333.719H282.085ZM294.444 346.199H281.964L282.339 344.119H286.499L287.955 335.799H285.875L286.249 333.719H288.329L288.683 331.639H292.843L290.659 344.119H294.819L294.444 346.199ZM298.608 335.799H296.528V331.639H298.608V335.799ZM304.848 331.639H306.928V333.719H304.848V331.639ZM302.768 333.719H304.848V337.879H302.768V333.719ZM300.688 339.959V337.879H302.768V339.959H300.688ZM298.608 339.959H300.688V344.119H298.608V339.959ZM304.848 342.039H306.928V346.199H304.848V342.039ZM296.528 346.199V344.119H298.608V346.199H296.528Z"/><path fill="#fff" d="M293.567 391.319L292.839 395.479H290.759L290.385 397.559H292.465L291.737 401.719H289.657L289.282 403.799H280.962L281.337 401.719H279.257L279.61 399.639H283.77L283.417 401.719H287.577L288.305 397.559H284.145L284.519 395.479H288.679L289.407 391.319H285.247L284.873 393.399H280.713L281.087 391.319H283.167L283.521 389.239H291.841L291.487 391.319H293.567ZM295.526 393.399H293.446V389.239H295.526V393.399ZM301.766 389.239H303.846V391.319H301.766V389.239ZM299.686 391.319H301.766V395.479H299.686V391.319ZM297.606 397.559V395.479H299.686V397.559H297.606ZM295.526 397.559H297.606V401.719H295.526V397.559ZM301.766 399.639H303.846V403.799H301.766V399.639ZM293.446 403.799V401.719H295.526V403.799H293.446Z"/><path fill="#fff" d="M232 488.4V486.8H236.8V488.4H232ZM232 496.4H230.4V488.4H232V496.4ZM236.8 488.4H238.4V496.4H236.8V488.4ZM236.8 496.4V498H232V496.4H236.8ZM247.994 486.8V488.4H244.794V498H243.194V488.4H239.994V486.8H247.994ZM255.988 486.8H257.588V498H255.988V491.6H251.188V498H249.588V486.8H251.188V490H255.988V486.8ZM260.782 488.4V490H263.982V491.6H260.782V496.4H267.182V498H259.182V486.8H267.182V488.4H260.782ZM275.175 490V491.6H270.375V498H268.775V486.8H275.175V488.4H270.375V490H275.175ZM276.775 490H275.175V488.4H276.775V490ZM275.175 491.6H276.775V498H275.175V491.6ZM286.375 488.4V486.8H291.175V488.4H286.375ZM291.175 488.4H292.775V498H291.175V491.6H286.375V498H284.775V488.4H286.375V490H291.175V488.4ZM300.769 490V491.6H295.969V498H294.369V486.8H300.769V488.4H295.969V490H300.769ZM300.769 488.4H302.369V490H300.769V488.4ZM310.363 490V491.6H305.563V498H303.963V486.8H310.363V488.4H305.563V490H310.363ZM310.363 488.4H311.963V490H310.363V488.4ZM321.557 496.4V498H313.557V486.8H315.157V496.4H321.557ZM326.35 496.4H327.95V498H323.15V496.4H324.75V488.4H323.15V486.8H327.95V488.4H326.35V496.4ZM335.957 486.8V488.4H331.157V486.8H335.957ZM329.557 488.4H331.157V496.4H329.557V488.4ZM337.557 490H335.957V488.4H337.557V490ZM337.557 494.8V496.4H335.957V494.8H337.557ZM331.157 498V496.4H335.957V498H331.157ZM340.75 488.4V486.8H345.55V488.4H340.75ZM345.55 488.4H347.15V498H345.55V491.6H340.75V498H339.15V488.4H340.75V490H345.55V488.4ZM350.344 488.4H351.944V490H350.344V498H348.744V486.8H350.344V488.4ZM355.144 486.8H356.744V498H355.144V493.2H353.544V491.6H355.144V486.8ZM351.944 490H353.544V491.6H351.944V490ZM366.338 486.8V488.4H363.138V498H361.538V488.4H358.338V486.8H366.338ZM369.532 488.4V486.8H375.932V488.4H369.532ZM367.932 488.4H369.532V490H367.932V488.4ZM369.532 491.6V490H374.332V491.6H369.532ZM374.332 491.6H375.932V496.4H374.332V491.6ZM367.932 494.8H369.532V496.4H367.932V494.8ZM374.332 496.4V498H369.532V496.4H374.332Z"/><path fill="#fff" d="M20.8002 451.599H22.4002V453.199H20.8002V461.199H19.2002V449.999H20.8002V451.599ZM25.6002 449.999H27.2002V461.199H25.6002V453.199H24.0002V451.599H25.6002V449.999ZM22.4002 454.799V453.199H24.0002V454.799H22.4002ZM30.3939 451.599V449.999H35.1939V451.599H30.3939ZM35.1939 451.599H36.7939V461.199H35.1939V454.799H30.3939V461.199H28.7939V451.599H30.3939V453.199H35.1939V451.599ZM46.3877 459.599V461.199H38.3877V449.999H39.9877V459.599H46.3877ZM49.5814 451.599V453.199H52.7814V454.799H49.5814V459.599H55.9814V461.199H47.9814V449.999H55.9814V451.599H49.5814ZM65.5814 451.599V449.999H70.3814V451.599H65.5814ZM70.3814 451.599H71.9814V461.199H70.3814V454.799H65.5814V461.199H63.9814V451.599H65.5814V453.199H70.3814V451.599ZM79.9752 453.199V454.799H75.1752V461.199H73.5752V449.999H79.9752V451.599H75.1752V453.199H79.9752ZM79.9752 451.599H81.5752V453.199H79.9752V451.599ZM89.5689 453.199V454.799H84.7689V461.199H83.1689V449.999H89.5689V451.599H84.7689V453.199H89.5689ZM89.5689 451.599H91.1689V453.199H89.5689V451.599ZM100.763 459.599V461.199H92.7627V449.999H94.3627V459.599H100.763ZM105.556 459.599H107.156V461.199H102.356V459.599H103.956V451.599H102.356V449.999H107.156V451.599H105.556V459.599ZM115.163 449.999V451.599H110.363V449.999H115.163ZM108.763 451.599H110.363V459.599H108.763V451.599ZM116.763 453.199H115.163V451.599H116.763V453.199ZM116.763 457.999V459.599H115.163V457.999H116.763ZM110.363 461.199V459.599H115.163V461.199H110.363ZM119.956 451.599V449.999H124.756V451.599H119.956ZM124.756 451.599H126.356V461.199H124.756V454.799H119.956V461.199H118.356V451.599H119.956V453.199H124.756V451.599ZM129.55 451.599H131.15V453.199H129.55V461.199H127.95V449.999H129.55V451.599ZM134.35 449.999H135.95V461.199H134.35V456.399H132.75V454.799H134.35V449.999ZM131.15 453.199H132.75V454.799H131.15V453.199ZM145.544 449.999V451.599H142.344V461.199H140.744V451.599H137.544V449.999H145.544ZM148.738 451.599V449.999H155.138V451.599H148.738ZM147.138 451.599H148.738V453.199H147.138V451.599ZM148.738 454.799V453.199H153.538V454.799H148.738ZM153.538 454.799H155.138V459.599H153.538V454.799ZM147.138 457.999H148.738V459.599H147.138V457.999ZM153.538 459.599V461.199H148.738V459.599H153.538Z"/><path fill="#fff" d="M238.4 233.999V235.599H232V237.199H235.2V238.799H232V245.199H230.4V233.999H238.4ZM241.594 235.599V237.199H244.794V238.799H241.594V243.599H247.994V245.199H239.994V233.999H247.994V235.599H241.594ZM251.188 235.599H252.788V237.199H251.188V245.199H249.588V233.999H251.188V235.599ZM255.988 233.999H257.588V245.199H255.988V237.199H254.388V235.599H255.988V233.999ZM252.788 238.799V237.199H254.388V238.799H252.788ZM260.782 235.599V233.999H265.582V235.599H260.782ZM265.582 235.599H267.182V245.199H265.582V238.799H260.782V245.199H259.182V235.599H260.782V237.199H265.582V235.599ZM276.775 243.599V245.199H268.775V233.999H270.375V243.599H276.775ZM279.969 235.599V237.199H283.169V238.799H279.969V243.599H286.369V245.199H278.369V233.999H286.369V235.599H279.969ZM295.969 235.599V233.999H300.769V235.599H295.969ZM300.769 235.599H302.369V245.199H300.769V238.799H295.969V245.199H294.369V235.599H295.969V237.199H300.769V235.599ZM310.363 237.199V238.799H305.563V245.199H303.963V233.999H310.363V235.599H305.563V237.199H310.363ZM310.363 235.599H311.963V237.199H310.363V235.599ZM319.957 237.199V238.799H315.157V245.199H313.557V233.999H319.957V235.599H315.157V237.199H319.957ZM319.957 235.599H321.557V237.199H319.957V235.599ZM331.15 243.599V245.199H323.15V233.999H324.75V243.599H331.15ZM335.944 243.599H337.544V245.199H332.744V243.599H334.344V235.599H332.744V233.999H337.544V235.599H335.944V243.599ZM345.55 233.999V235.599H340.75V233.999H345.55ZM339.15 235.599H340.75V243.599H339.15V235.599ZM347.15 237.199H345.55V235.599H347.15V237.199ZM347.15 241.999V243.599H345.55V241.999H347.15ZM340.75 245.199V243.599H345.55V245.199H340.75ZM350.344 235.599V233.999H355.144V235.599H350.344ZM355.144 235.599H356.744V245.199H355.144V238.799H350.344V245.199H348.744V235.599H350.344V237.199H355.144V235.599ZM359.938 235.599H361.538V237.199H359.938V245.199H358.338V233.999H359.938V235.599ZM364.738 233.999H366.338V245.199H364.738V240.399H363.138V238.799H364.738V233.999ZM361.538 237.199H363.138V238.799H361.538V237.199ZM375.932 233.999V235.599H372.732V245.199H371.132V235.599H367.932V233.999H375.932ZM379.125 235.599V233.999H385.525V235.599H379.125ZM377.525 235.599H379.125V237.199H377.525V235.599ZM379.125 238.799V237.199H383.925V238.799H379.125ZM383.925 238.799H385.525V243.599H383.925V238.799ZM377.525 241.999H379.125V243.599H377.525V241.999ZM383.925 243.599V245.199H379.125V243.599H383.925Z"/><path stroke="#fff" stroke-width="1.12" d="M287.2 312.399L319.2 260.399"/><path stroke="#fff" stroke-width="1.12" d="M295.279 421.199L325.69 474.144"/><path stroke="#fff" stroke-width="1.12" d="M148.8 437.393L197.985 401.216"/></svg>