<svg xmlns="http://www.w3.org/2000/svg" width="95" height="107" fill="none" viewBox="0 0 95 107"><g filter="url(#filter0_f_1953_290)"><rect width="7.327" height="13.248" x="33.067" y="12" fill="#fff"/><rect width="6.359" height="7.48" x="19.48" y="36.775" fill="#fff" transform="rotate(90 19.48 36.7749)"/><rect width="6.359" height="7.48" x="61.461" y="36.775" fill="#fff" transform="rotate(90 61.4609 36.7749)"/><rect width="7.327" height="13.248" x="33.067" y="54.659" fill="#fff"/><rect width="7.327" height="19.872" x="33.067" y="30.019" fill="#fff"/><rect width="6.359" height="22.898" x="48.18" y="36.775" fill="#fff" transform="rotate(90 48.1797 36.7749)"/></g><g filter="url(#filter1_f_1953_290)"><rect width="3.947" height="7.135" x="72.946" y="69.599" fill="#fff"/><rect width="3.425" height="4.029" x="65.629" y="82.942" fill="#fff" transform="rotate(90 65.6289 82.9424)"/><rect width="3.425" height="4.029" x="88.239" y="82.942" fill="#fff" transform="rotate(90 88.2393 82.9424)"/><rect width="3.947" height="7.135" x="72.946" y="92.575" fill="#fff"/><rect width="3.947" height="10.703" x="72.946" y="79.302" fill="#fff"/><rect width="3.425" height="12.333" x="81.086" y="82.942" fill="#fff" transform="rotate(90 81.0859 82.9424)"/></g><defs><filter id="filter0_f_1953_290" width="71.861" height="78.307" x=".8" y=".8" color-interpolation-filters="sRGB" filterUnits="userSpaceOnUse"><feFlood flood-opacity="0" result="BackgroundImageFix"/><feBlend in="SourceGraphic" in2="BackgroundImageFix" mode="normal" result="shape"/><feGaussianBlur result="effect1_foregroundBlur_1953_290" stdDeviation="5.6"/></filter><filter id="filter1_f_1953_290" width="39.439" height="42.912" x="55.2" y="63.199" color-interpolation-filters="sRGB" filterUnits="userSpaceOnUse"><feFlood flood-opacity="0" result="BackgroundImageFix"/><feBlend in="SourceGraphic" in2="BackgroundImageFix" mode="normal" result="shape"/><feGaussianBlur result="effect1_foregroundBlur_1953_290" stdDeviation="3.2"/></filter></defs></svg>