<svg width="135" height="159" viewBox="0 0 135 159" fill="none" xmlns="http://www.w3.org/2000/svg">
<g filter="url(#filter0_f_750_2435)">
<rect x="0.320557" y="134.323" width="15.6651" height="15.6651" fill="#BAD1F3"/>
<rect x="15.9858" y="134.323" width="15.6651" height="15.6651" fill="#BAD1F3"/>
<rect x="31.6509" y="134.323" width="15.6651" height="15.6651" fill="#BAD1F3"/>
<rect x="47.3159" y="134.323" width="15.6651" height="15.6651" fill="#BAD1F3"/>
<rect x="62.981" y="134.323" width="15.6651" height="15.6651" fill="#BAD1F3"/>
<rect x="62.981" y="118.656" width="15.6651" height="15.6651" fill="white" fill-opacity="0.9"/>
<rect x="62.981" y="118.656" width="15.6651" height="15.6651" fill="white" fill-opacity="0.9"/>
<rect x="62.981" y="102.989" width="15.6651" height="15.6651" fill="white" fill-opacity="0.9"/>
<rect x="62.981" y="87.3264" width="15.6651" height="15.6651" fill="white" fill-opacity="0.9"/>
<rect x="78.6462" y="87.3264" width="15.6651" height="15.6651" fill="white" fill-opacity="0.9"/>
<rect x="94.3113" y="87.3264" width="15.6651" height="15.6651" fill="white" fill-opacity="0.9"/>
<rect x="94.3113" y="102.989" width="15.6651" height="15.6651" fill="white" fill-opacity="0.9"/>
<rect x="78.6462" y="102.989" width="15.6651" height="15.6651" fill="white" fill-opacity="0.9"/>
<rect x="47.3159" y="102.989" width="15.6651" height="15.6651" fill="white" fill-opacity="0.9"/>
<rect x="15.9858" y="102.989" width="15.6651" height="15.6651" fill="white" fill-opacity="0.9"/>
<rect x="-15.3445" y="102.989" width="15.6651" height="15.6651" fill="white" fill-opacity="0.9"/>
<rect x="0.320557" y="102.989" width="15.6651" height="15.6651" fill="white" fill-opacity="0.9"/>
<rect x="47.3159" y="118.656" width="15.6651" height="15.6651" fill="white" fill-opacity="0.9"/>
<rect x="31.6509" y="118.656" width="15.6651" height="15.6651" fill="white" fill-opacity="0.9"/>
<rect x="15.9858" y="118.656" width="15.6651" height="15.6651" fill="white" fill-opacity="0.9"/>
<rect x="0.320557" y="118.656" width="15.6651" height="15.6651" fill="white" fill-opacity="0.9"/>
<rect x="-15.3445" y="118.656" width="15.6651" height="15.6651" fill="white" fill-opacity="0.9"/>
<rect x="-15.3445" y="87.3264" width="15.6651" height="15.6651" fill="white" fill-opacity="0.9"/>
<rect x="0.320557" y="87.3264" width="15.6651" height="15.6651" fill="white" fill-opacity="0.9"/>
<rect x="15.9858" y="87.3264" width="15.6651" height="15.6651" fill="white" fill-opacity="0.9"/>
<rect x="31.6509" y="87.3264" width="15.6651" height="15.6651" fill="white" fill-opacity="0.9"/>
<rect x="47.3159" y="71.6594" width="15.6651" height="15.6651" fill="white" fill-opacity="0.9"/>
<rect x="31.6509" y="71.6594" width="15.6651" height="15.6651" fill="white" fill-opacity="0.9"/>
<rect x="15.9858" y="71.6594" width="15.6651" height="15.6651" fill="white" fill-opacity="0.9"/>
<rect x="0.320557" y="71.6594" width="15.6651" height="15.6651" fill="white" fill-opacity="0.9"/>
<rect x="-15.3445" y="71.6594" width="15.6651" height="15.6651" fill="white" fill-opacity="0.9"/>
<rect x="-15.3445" y="55.9966" width="15.6651" height="15.6651" fill="white" fill-opacity="0.9"/>
<rect x="0.320557" y="55.9966" width="15.6651" height="15.6651" fill="white" fill-opacity="0.9"/>
<rect x="15.9858" y="55.9966" width="15.6651" height="15.6651" fill="white" fill-opacity="0.9"/>
<rect x="31.6509" y="55.9966" width="15.6651" height="15.6651" fill="white" fill-opacity="0.9"/>
<rect x="47.3159" y="55.9966" width="15.6651" height="15.6651" fill="white" fill-opacity="0.9"/>
<rect x="15.9858" y="40.3298" width="15.6651" height="15.6651" fill="white" fill-opacity="0.9"/>
<rect x="0.320557" y="40.3298" width="15.6651" height="15.6651" fill="white" fill-opacity="0.9"/>
<rect x="-15.3445" y="40.3298" width="15.6651" height="15.6651" fill="white" fill-opacity="0.9"/>
<rect x="0.320557" y="24.667" width="15.6651" height="15.6651" fill="white" fill-opacity="0.9"/>
<rect x="78.6462" y="134.323" width="15.6651" height="15.6651" fill="#BAD1F3"/>
<rect x="94.3113" y="118.656" width="15.6651" height="15.6651" fill="#BAD1F3"/>
<rect x="109.976" y="102.989" width="15.6651" height="15.6651" fill="#BAD1F3"/>
<rect x="109.976" y="87.3264" width="15.6651" height="15.6651" fill="#BAD1F3"/>
<rect x="94.3113" y="71.6594" width="15.6651" height="15.6651" fill="#BAD1F3"/>
<rect x="62.981" y="55.9966" width="15.6651" height="15.6651" fill="#BAD1F3"/>
<rect x="78.6462" y="71.6594" width="15.6651" height="15.6651" fill="#BAD1F3"/>
<rect x="47.3159" y="40.3298" width="15.6651" height="15.6651" fill="#BAD1F3"/>
<rect x="31.6509" y="24.667" width="15.6651" height="15.6651" fill="#BAD1F3"/>
<rect x="15.9858" y="9.00024" width="15.6651" height="15.6651" fill="#BAD1F3"/>
<rect x="0.320557" y="9.00024" width="15.6651" height="15.6651" fill="#BAD1F3"/>
<rect x="-15.3445" y="9.00024" width="15.6651" height="15.6651" fill="#BAD1F3"/>
<rect x="-15.3445" y="24.667" width="15.6651" height="15.6651" fill="#BAD1F3"/>
<rect x="78.6462" y="118.656" width="15.6651" height="15.6651" fill="#BAD1F3"/>
<rect x="47.3159" y="87.3264" width="15.6651" height="15.6651" fill="#BAD1F3"/>
<rect x="31.6509" y="40.3298" width="15.6651" height="15.6651" fill="#BAD1F3"/>
<rect x="15.9858" y="24.667" width="15.6651" height="15.6651" fill="#BAD1F3"/>
<rect x="62.981" y="71.6594" width="15.6651" height="15.6651" fill="#BAD1F3"/>
<rect x="31.6509" y="102.989" width="15.6651" height="15.6651" fill="#BAD1F3"/>
<rect x="-15.3445" y="134.323" width="15.6651" height="15.6651" fill="#BAD1F3"/>
</g>
<defs>
<filter id="filter0_f_750_2435" x="-133.86" y="0.140358" width="268.361" height="158.708" filterUnits="userSpaceOnUse" color-interpolation-filters="sRGB">
<feFlood flood-opacity="0" result="BackgroundImageFix"/>
<feBlend mode="normal" in="SourceGraphic" in2="BackgroundImageFix" result="shape"/>
<feGaussianBlur stdDeviation="4.42994" result="effect1_foregroundBlur_750_2435"/>
</filter>
</defs>
</svg>
