<svg width="269" height="159" viewBox="0 0 269 159" fill="none" xmlns="http://www.w3.org/2000/svg">
<g filter="url(#filter0_f_750_2334)">
<rect width="15.6651" height="15.6651" transform="matrix(-1 0 0 1 134.321 134.323)" fill="#BAD1F3"/>
<rect width="15.6651" height="15.6651" transform="matrix(-1 0 0 1 118.655 134.323)" fill="#BAD1F3"/>
<rect width="15.6651" height="15.6651" transform="matrix(-1 0 0 1 102.99 134.323)" fill="#BAD1F3"/>
<rect width="15.6651" height="15.6651" transform="matrix(-1 0 0 1 87.3252 134.323)" fill="#BAD1F3"/>
<rect width="15.6651" height="15.6651" transform="matrix(-1 0 0 1 71.6602 134.323)" fill="#BAD1F3"/>
<rect width="15.6651" height="15.6651" transform="matrix(-1 0 0 1 71.6602 118.656)" fill="white" fill-opacity="0.9"/>
<rect width="15.6651" height="15.6651" transform="matrix(-1 0 0 1 71.6602 118.656)" fill="white" fill-opacity="0.9"/>
<rect width="15.6651" height="15.6651" transform="matrix(-1 0 0 1 71.6602 102.989)" fill="white" fill-opacity="0.9"/>
<rect width="15.6651" height="15.6651" transform="matrix(-1 0 0 1 71.6602 87.3264)" fill="white" fill-opacity="0.9"/>
<rect width="15.6651" height="15.6651" transform="matrix(-1 0 0 1 55.9949 87.3264)" fill="white" fill-opacity="0.9"/>
<rect width="15.6651" height="15.6651" transform="matrix(-1 0 0 1 40.3298 87.3264)" fill="white" fill-opacity="0.9"/>
<rect width="15.6651" height="15.6651" transform="matrix(-1 0 0 1 40.3298 102.989)" fill="white" fill-opacity="0.9"/>
<rect width="15.6651" height="15.6651" transform="matrix(-1 0 0 1 55.9949 102.989)" fill="white" fill-opacity="0.9"/>
<rect width="15.6651" height="15.6651" transform="matrix(-1 0 0 1 87.3252 102.989)" fill="white" fill-opacity="0.9"/>
<rect width="15.6651" height="15.6651" transform="matrix(-1 0 0 1 118.655 102.989)" fill="white" fill-opacity="0.9"/>
<rect width="15.6651" height="15.6651" transform="matrix(-1 0 0 1 149.986 102.989)" fill="white" fill-opacity="0.9"/>
<rect width="15.6651" height="15.6651" transform="matrix(-1 0 0 1 181.316 102.989)" fill="white" fill-opacity="0.9"/>
<rect width="15.6651" height="15.6651" transform="matrix(-1 0 0 1 212.646 102.989)" fill="white" fill-opacity="0.9"/>
<rect width="15.6651" height="15.6651" transform="matrix(-1 0 0 1 196.981 102.989)" fill="white" fill-opacity="0.9"/>
<rect width="15.6651" height="15.6651" transform="matrix(-1 0 0 1 165.65 102.989)" fill="white" fill-opacity="0.9"/>
<rect width="15.6651" height="15.6651" transform="matrix(-1 0 0 1 134.321 102.989)" fill="white" fill-opacity="0.9"/>
<rect width="15.6651" height="15.6651" transform="matrix(-1 0 0 1 87.3252 118.656)" fill="white" fill-opacity="0.9"/>
<rect width="15.6651" height="15.6651" transform="matrix(-1 0 0 1 102.99 118.656)" fill="white" fill-opacity="0.9"/>
<rect width="15.6651" height="15.6651" transform="matrix(-1 0 0 1 118.655 118.656)" fill="white" fill-opacity="0.9"/>
<rect width="15.6651" height="15.6651" transform="matrix(-1 0 0 1 134.321 118.656)" fill="white" fill-opacity="0.9"/>
<rect width="15.6651" height="15.6651" transform="matrix(-1 0 0 1 149.986 118.656)" fill="white" fill-opacity="0.9"/>
<rect width="15.6651" height="15.6651" transform="matrix(-1 0 0 1 165.65 118.656)" fill="white" fill-opacity="0.9"/>
<rect width="15.6651" height="15.6651" transform="matrix(-1 0 0 1 181.316 118.656)" fill="white" fill-opacity="0.9"/>
<rect width="15.6651" height="15.6651" transform="matrix(-1 0 0 1 196.981 118.656)" fill="white" fill-opacity="0.9"/>
<rect width="15.6651" height="15.6651" transform="matrix(-1 0 0 1 243.976 87.3264)" fill="white" fill-opacity="0.9"/>
<rect width="15.6651" height="15.6651" transform="matrix(-1 0 0 1 228.311 87.3264)" fill="white" fill-opacity="0.9"/>
<rect width="15.6651" height="15.6651" transform="matrix(-1 0 0 1 212.646 87.3264)" fill="white" fill-opacity="0.9"/>
<rect width="15.6651" height="15.6651" transform="matrix(-1 0 0 1 181.316 87.3264)" fill="white" fill-opacity="0.9"/>
<rect width="15.6651" height="15.6651" transform="matrix(-1 0 0 1 165.65 87.3264)" fill="white" fill-opacity="0.9"/>
<rect width="15.6651" height="15.6651" transform="matrix(-1 0 0 1 149.986 87.3264)" fill="white" fill-opacity="0.9"/>
<rect width="15.6651" height="15.6651" transform="matrix(-1 0 0 1 134.321 87.3264)" fill="white" fill-opacity="0.9"/>
<rect width="15.6651" height="15.6651" transform="matrix(-1 0 0 1 118.655 87.3264)" fill="white" fill-opacity="0.9"/>
<rect width="15.6651" height="15.6651" transform="matrix(-1 0 0 1 102.99 87.3264)" fill="white" fill-opacity="0.9"/>
<rect width="15.6651" height="15.6651" transform="matrix(-1 0 0 1 87.3252 71.6594)" fill="white" fill-opacity="0.9"/>
<rect width="15.6651" height="15.6651" transform="matrix(-1 0 0 1 102.99 71.6594)" fill="white" fill-opacity="0.9"/>
<rect width="15.6651" height="15.6651" transform="matrix(-1 0 0 1 118.655 71.6594)" fill="white" fill-opacity="0.9"/>
<rect width="15.6651" height="15.6651" transform="matrix(-1 0 0 1 134.321 71.6594)" fill="white" fill-opacity="0.9"/>
<rect width="15.6651" height="15.6651" transform="matrix(-1 0 0 1 149.986 71.6594)" fill="white" fill-opacity="0.9"/>
<rect width="15.6651" height="15.6651" transform="matrix(-1 0 0 1 165.65 71.6594)" fill="white" fill-opacity="0.9"/>
<rect width="15.6651" height="15.6651" transform="matrix(-1 0 0 1 196.981 71.6594)" fill="white" fill-opacity="0.9"/>
<rect width="15.6651" height="15.6651" transform="matrix(-1 0 0 1 212.646 71.6594)" fill="white" fill-opacity="0.9"/>
<rect width="15.6651" height="15.6651" transform="matrix(-1 0 0 1 228.311 71.6594)" fill="white" fill-opacity="0.9"/>
<rect width="15.6651" height="15.6651" transform="matrix(-1 0 0 1 196.981 55.9966)" fill="white" fill-opacity="0.9"/>
<rect width="15.6651" height="15.6651" transform="matrix(-1 0 0 1 181.316 55.9966)" fill="white" fill-opacity="0.9"/>
<rect width="15.6651" height="15.6651" transform="matrix(-1 0 0 1 165.65 55.9966)" fill="white" fill-opacity="0.9"/>
<rect width="15.6651" height="15.6651" transform="matrix(-1 0 0 1 149.986 55.9966)" fill="white" fill-opacity="0.9"/>
<rect width="15.6651" height="15.6651" transform="matrix(-1 0 0 1 134.321 55.9966)" fill="white" fill-opacity="0.9"/>
<rect width="15.6651" height="15.6651" transform="matrix(-1 0 0 1 118.655 55.9966)" fill="white" fill-opacity="0.9"/>
<rect width="15.6651" height="15.6651" transform="matrix(-1 0 0 1 102.99 55.9966)" fill="white" fill-opacity="0.9"/>
<rect width="15.6651" height="15.6651" transform="matrix(-1 0 0 1 87.3252 55.9966)" fill="white" fill-opacity="0.9"/>
<rect width="15.6651" height="15.6651" transform="matrix(-1 0 0 1 118.655 40.3298)" fill="white" fill-opacity="0.9"/>
<rect width="15.6651" height="15.6651" transform="matrix(-1 0 0 1 134.321 40.3298)" fill="white" fill-opacity="0.9"/>
<rect width="15.6651" height="15.6651" transform="matrix(-1 0 0 1 149.986 40.3298)" fill="white" fill-opacity="0.9"/>
<rect width="15.6651" height="15.6651" transform="matrix(-1 0 0 1 165.65 40.3298)" fill="white" fill-opacity="0.9"/>
<rect width="15.6651" height="15.6651" transform="matrix(-1 0 0 1 134.321 24.667)" fill="white" fill-opacity="0.9"/>
<rect width="15.6651" height="15.6651" transform="matrix(-1 0 0 1 55.9949 134.323)" fill="#BAD1F3"/>
<rect width="15.6651" height="15.6651" transform="matrix(-1 0 0 1 40.3298 118.656)" fill="#BAD1F3"/>
<rect width="15.6651" height="15.6651" transform="matrix(-1 0 0 1 24.6648 102.989)" fill="#BAD1F3"/>
<rect width="15.6651" height="15.6651" transform="matrix(-1 0 0 1 24.6648 87.3264)" fill="#BAD1F3"/>
<rect width="15.6651" height="15.6651" transform="matrix(-1 0 0 1 40.3298 71.6594)" fill="#BAD1F3"/>
<rect width="15.6651" height="15.6651" transform="matrix(-1 0 0 1 71.6602 55.9966)" fill="#BAD1F3"/>
<rect width="15.6651" height="15.6651" transform="matrix(-1 0 0 1 55.9949 71.6594)" fill="#BAD1F3"/>
<rect width="15.6651" height="15.6651" transform="matrix(-1 0 0 1 87.3252 40.3298)" fill="#BAD1F3"/>
<rect width="15.6651" height="15.6651" transform="matrix(-1 0 0 1 102.99 24.667)" fill="#BAD1F3"/>
<rect width="15.6651" height="15.6651" transform="matrix(-1 0 0 1 118.655 9.00024)" fill="#BAD1F3"/>
<rect width="15.6651" height="15.6651" transform="matrix(-1 0 0 1 134.321 9.00024)" fill="#BAD1F3"/>
<rect width="15.6651" height="15.6651" transform="matrix(-1 0 0 1 149.986 9.00024)" fill="#BAD1F3"/>
<rect width="15.6651" height="15.6651" transform="matrix(-1 0 0 1 149.986 24.667)" fill="#BAD1F3"/>
<rect width="15.6651" height="15.6651" transform="matrix(-1 0 0 1 165.65 24.667)" fill="#BAD1F3"/>
<rect width="15.6651" height="15.6651" transform="matrix(-1 0 0 1 181.316 40.3298)" fill="#BAD1F3"/>
<rect width="15.6651" height="15.6651" transform="matrix(-1 0 0 1 212.646 55.9966)" fill="#BAD1F3"/>
<rect width="15.6651" height="15.6651" transform="matrix(-1 0 0 1 55.9949 118.656)" fill="#BAD1F3"/>
<rect width="15.6651" height="15.6651" transform="matrix(-1 0 0 1 196.981 40.3298)" fill="#BAD1F3"/>
<rect width="15.6651" height="15.6651" transform="matrix(-1 0 0 1 243.976 71.6594)" fill="#BAD1F3"/>
<rect width="15.6651" height="15.6651" transform="matrix(-1 0 0 1 228.311 55.9966)" fill="#BAD1F3"/>
<rect width="15.6651" height="15.6651" transform="matrix(-1 0 0 1 259.641 87.3264)" fill="#BAD1F3"/>
<rect width="15.6651" height="15.6651" transform="matrix(-1 0 0 1 259.641 102.989)" fill="#BAD1F3"/>
<rect width="15.6651" height="15.6651" transform="matrix(-1 0 0 1 212.646 118.656)" fill="#BAD1F3"/>
<rect width="15.6651" height="15.6651" transform="matrix(-1 0 0 1 228.311 118.656)" fill="#BAD1F3"/>
<rect width="15.6651" height="15.6651" transform="matrix(-1 0 0 1 243.976 118.656)" fill="#BAD1F3"/>
<rect width="15.6651" height="15.6651" transform="matrix(-1 0 0 1 196.981 134.323)" fill="#BAD1F3"/>
<rect width="15.6651" height="15.6651" transform="matrix(-1 0 0 1 212.646 134.323)" fill="#BAD1F3"/>
<rect width="15.6651" height="15.6651" transform="matrix(-1 0 0 1 181.316 134.323)" fill="#BAD1F3"/>
<rect width="15.6651" height="15.6651" transform="matrix(-1 0 0 1 228.311 102.989)" fill="#BAD1F3"/>
<rect width="15.6651" height="15.6651" transform="matrix(-1 0 0 1 228.311 102.989)" fill="#BAD1F3"/>
<rect width="15.6651" height="15.6651" transform="matrix(-1 0 0 1 243.976 102.989)" fill="#BAD1F3"/>
<rect width="15.6651" height="15.6651" transform="matrix(-1 0 0 1 196.981 87.3264)" fill="#BAD1F3"/>
<rect width="15.6651" height="15.6651" transform="matrix(-1 0 0 1 181.316 71.6594)" fill="#BAD1F3"/>
<rect width="15.6651" height="15.6651" transform="matrix(-1 0 0 1 87.3252 87.3264)" fill="#BAD1F3"/>
<rect width="15.6651" height="15.6651" transform="matrix(-1 0 0 1 102.99 40.3298)" fill="#BAD1F3"/>
<rect width="15.6651" height="15.6651" transform="matrix(-1 0 0 1 118.655 24.667)" fill="#BAD1F3"/>
<rect width="15.6651" height="15.6651" transform="matrix(-1 0 0 1 71.6602 71.6594)" fill="#BAD1F3"/>
<rect width="15.6651" height="15.6651" transform="matrix(-1 0 0 1 102.99 102.989)" fill="#BAD1F3"/>
<rect width="15.6651" height="15.6651" transform="matrix(-1 0 0 1 165.65 134.323)" fill="#BAD1F3"/>
<rect width="15.6651" height="15.6651" transform="matrix(-1 0 0 1 149.986 134.323)" fill="#BAD1F3"/>
</g>
<defs>
<filter id="filter0_f_750_2334" x="0.13987" y="0.140358" width="268.361" height="158.708" filterUnits="userSpaceOnUse" color-interpolation-filters="sRGB">
<feFlood flood-opacity="0" result="BackgroundImageFix"/>
<feBlend mode="normal" in="SourceGraphic" in2="BackgroundImageFix" result="shape"/>
<feGaussianBlur stdDeviation="4.42994" result="effect1_foregroundBlur_750_2334"/>
</filter>
</defs>
</svg>
