<svg xmlns="http://www.w3.org/2000/svg" width="135" height="159" fill="none" viewBox="0 0 135 159"><g filter="url(#filter0_f_750_1969)"><rect width="15.665" height="15.665" x=".321" y="134.323" fill="#BAD1F3"/><rect width="15.665" height="15.665" x="15.986" y="134.323" fill="#BAD1F3"/><rect width="15.665" height="15.665" x="31.651" y="134.323" fill="#BAD1F3"/><rect width="15.665" height="15.665" x="47.316" y="134.323" fill="#BAD1F3"/><rect width="15.665" height="15.665" x="62.981" y="134.323" fill="#BAD1F3"/><rect width="15.665" height="15.665" x="62.981" y="118.656" fill="#fff" fill-opacity=".9"/><rect width="15.665" height="15.665" x="62.981" y="118.656" fill="#fff" fill-opacity=".9"/><rect width="15.665" height="15.665" x="62.981" y="102.989" fill="#fff" fill-opacity=".9"/><rect width="15.665" height="15.665" x="62.981" y="87.326" fill="#fff" fill-opacity=".9"/><rect width="15.665" height="15.665" x="78.646" y="87.326" fill="#fff" fill-opacity=".9"/><rect width="15.665" height="15.665" x="94.311" y="87.326" fill="#fff" fill-opacity=".9"/><rect width="15.665" height="15.665" x="94.311" y="102.989" fill="#fff" fill-opacity=".9"/><rect width="15.665" height="15.665" x="78.646" y="102.989" fill="#fff" fill-opacity=".9"/><rect width="15.665" height="15.665" x="47.316" y="102.989" fill="#fff" fill-opacity=".9"/><rect width="15.665" height="15.665" x="15.986" y="102.989" fill="#fff" fill-opacity=".9"/><rect width="15.665" height="15.665" x="-15.345" y="102.989" fill="#fff" fill-opacity=".9"/><rect width="15.665" height="15.665" x=".321" y="102.989" fill="#fff" fill-opacity=".9"/><rect width="15.665" height="15.665" x="47.316" y="118.656" fill="#fff" fill-opacity=".9"/><rect width="15.665" height="15.665" x="31.651" y="118.656" fill="#fff" fill-opacity=".9"/><rect width="15.665" height="15.665" x="15.986" y="118.656" fill="#fff" fill-opacity=".9"/><rect width="15.665" height="15.665" x=".321" y="118.656" fill="#fff" fill-opacity=".9"/><rect width="15.665" height="15.665" x="-15.345" y="118.656" fill="#fff" fill-opacity=".9"/><rect width="15.665" height="15.665" x="-15.345" y="87.326" fill="#fff" fill-opacity=".9"/><rect width="15.665" height="15.665" x=".321" y="87.326" fill="#fff" fill-opacity=".9"/><rect width="15.665" height="15.665" x="15.986" y="87.326" fill="#fff" fill-opacity=".9"/><rect width="15.665" height="15.665" x="31.651" y="87.326" fill="#fff" fill-opacity=".9"/><rect width="15.665" height="15.665" x="47.316" y="71.659" fill="#fff" fill-opacity=".9"/><rect width="15.665" height="15.665" x="31.651" y="71.659" fill="#fff" fill-opacity=".9"/><rect width="15.665" height="15.665" x="15.986" y="71.659" fill="#fff" fill-opacity=".9"/><rect width="15.665" height="15.665" x=".321" y="71.659" fill="#fff" fill-opacity=".9"/><rect width="15.665" height="15.665" x="-15.345" y="71.659" fill="#fff" fill-opacity=".9"/><rect width="15.665" height="15.665" x="-15.345" y="55.997" fill="#fff" fill-opacity=".9"/><rect width="15.665" height="15.665" x=".321" y="55.997" fill="#fff" fill-opacity=".9"/><rect width="15.665" height="15.665" x="15.986" y="55.997" fill="#fff" fill-opacity=".9"/><rect width="15.665" height="15.665" x="31.651" y="55.997" fill="#fff" fill-opacity=".9"/><rect width="15.665" height="15.665" x="47.316" y="55.997" fill="#fff" fill-opacity=".9"/><rect width="15.665" height="15.665" x="15.986" y="40.33" fill="#fff" fill-opacity=".9"/><rect width="15.665" height="15.665" x=".321" y="40.33" fill="#fff" fill-opacity=".9"/><rect width="15.665" height="15.665" x="-15.345" y="40.33" fill="#fff" fill-opacity=".9"/><rect width="15.665" height="15.665" x=".321" y="24.667" fill="#fff" fill-opacity=".9"/><rect width="15.665" height="15.665" x="78.646" y="134.323" fill="#BAD1F3"/><rect width="15.665" height="15.665" x="94.311" y="118.656" fill="#BAD1F3"/><rect width="15.665" height="15.665" x="109.976" y="102.989" fill="#BAD1F3"/><rect width="15.665" height="15.665" x="109.976" y="87.326" fill="#BAD1F3"/><rect width="15.665" height="15.665" x="94.311" y="71.659" fill="#BAD1F3"/><rect width="15.665" height="15.665" x="62.981" y="55.997" fill="#BAD1F3"/><rect width="15.665" height="15.665" x="78.646" y="71.659" fill="#BAD1F3"/><rect width="15.665" height="15.665" x="47.316" y="40.33" fill="#BAD1F3"/><rect width="15.665" height="15.665" x="31.651" y="24.667" fill="#BAD1F3"/><rect width="15.665" height="15.665" x="15.986" y="9" fill="#BAD1F3"/><rect width="15.665" height="15.665" x=".321" y="9" fill="#BAD1F3"/><rect width="15.665" height="15.665" x="-15.345" y="9" fill="#BAD1F3"/><rect width="15.665" height="15.665" x="-15.345" y="24.667" fill="#BAD1F3"/><rect width="15.665" height="15.665" x="78.646" y="118.656" fill="#BAD1F3"/><rect width="15.665" height="15.665" x="47.316" y="87.326" fill="#BAD1F3"/><rect width="15.665" height="15.665" x="31.651" y="40.33" fill="#BAD1F3"/><rect width="15.665" height="15.665" x="15.986" y="24.667" fill="#BAD1F3"/><rect width="15.665" height="15.665" x="62.981" y="71.659" fill="#BAD1F3"/><rect width="15.665" height="15.665" x="31.651" y="102.989" fill="#BAD1F3"/><rect width="15.665" height="15.665" x="-15.345" y="134.323" fill="#BAD1F3"/></g><defs><filter id="filter0_f_750_1969" width="268.361" height="158.708" x="-133.86" y=".14" color-interpolation-filters="sRGB" filterUnits="userSpaceOnUse"><feFlood flood-opacity="0" result="BackgroundImageFix"/><feBlend in="SourceGraphic" in2="BackgroundImageFix" mode="normal" result="shape"/><feGaussianBlur result="effect1_foregroundBlur_750_1969" stdDeviation="4.43"/></filter></defs></svg>