<svg width="269" height="159" viewBox="0 0 269 159" fill="none" xmlns="http://www.w3.org/2000/svg">
<g filter="url(#filter0_f_750_2132)">
<rect x="134.321" y="134.323" width="15.6651" height="15.6651" fill="#BAD1F3"/>
<rect x="149.986" y="134.323" width="15.6651" height="15.6651" fill="#BAD1F3"/>
<rect x="165.651" y="134.323" width="15.6651" height="15.6651" fill="#BAD1F3"/>
<rect x="181.316" y="134.323" width="15.6651" height="15.6651" fill="#BAD1F3"/>
<rect x="196.981" y="134.323" width="15.6651" height="15.6651" fill="#BAD1F3"/>
<rect x="196.981" y="118.656" width="15.6651" height="15.6651" fill="white" fill-opacity="0.9"/>
<rect x="196.981" y="118.656" width="15.6651" height="15.6651" fill="white" fill-opacity="0.9"/>
<rect x="196.981" y="102.989" width="15.6651" height="15.6651" fill="white" fill-opacity="0.9"/>
<rect x="196.981" y="87.3264" width="15.6651" height="15.6651" fill="white" fill-opacity="0.9"/>
<rect x="212.646" y="87.3264" width="15.6651" height="15.6651" fill="white" fill-opacity="0.9"/>
<rect x="228.311" y="87.3264" width="15.6651" height="15.6651" fill="white" fill-opacity="0.9"/>
<rect x="228.311" y="102.989" width="15.6651" height="15.6651" fill="white" fill-opacity="0.9"/>
<rect x="212.646" y="102.989" width="15.6651" height="15.6651" fill="white" fill-opacity="0.9"/>
<rect x="181.316" y="102.989" width="15.6651" height="15.6651" fill="white" fill-opacity="0.9"/>
<rect x="149.986" y="102.989" width="15.6651" height="15.6651" fill="white" fill-opacity="0.9"/>
<rect x="118.656" y="102.989" width="15.6651" height="15.6651" fill="white" fill-opacity="0.9"/>
<rect x="87.3254" y="102.989" width="15.6651" height="15.6651" fill="white" fill-opacity="0.9"/>
<rect x="55.9951" y="102.989" width="15.6651" height="15.6651" fill="white" fill-opacity="0.9"/>
<rect x="71.6602" y="102.989" width="15.6651" height="15.6651" fill="white" fill-opacity="0.9"/>
<rect x="102.991" y="102.989" width="15.6651" height="15.6651" fill="white" fill-opacity="0.9"/>
<rect x="134.321" y="102.989" width="15.6651" height="15.6651" fill="white" fill-opacity="0.9"/>
<rect x="181.316" y="118.656" width="15.6651" height="15.6651" fill="white" fill-opacity="0.9"/>
<rect x="165.651" y="118.656" width="15.6651" height="15.6651" fill="white" fill-opacity="0.9"/>
<rect x="149.986" y="118.656" width="15.6651" height="15.6651" fill="white" fill-opacity="0.9"/>
<rect x="134.321" y="118.656" width="15.6651" height="15.6651" fill="white" fill-opacity="0.9"/>
<rect x="118.656" y="118.656" width="15.6651" height="15.6651" fill="white" fill-opacity="0.9"/>
<rect x="102.991" y="118.656" width="15.6651" height="15.6651" fill="white" fill-opacity="0.9"/>
<rect x="87.3254" y="118.656" width="15.6651" height="15.6651" fill="white" fill-opacity="0.9"/>
<rect x="71.6602" y="118.656" width="15.6651" height="15.6651" fill="white" fill-opacity="0.9"/>
<rect x="24.6648" y="87.3264" width="15.6651" height="15.6651" fill="white" fill-opacity="0.9"/>
<rect x="40.3301" y="87.3264" width="15.6651" height="15.6651" fill="white" fill-opacity="0.9"/>
<rect x="55.9951" y="87.3264" width="15.6651" height="15.6651" fill="white" fill-opacity="0.9"/>
<rect x="87.3254" y="87.3264" width="15.6651" height="15.6651" fill="white" fill-opacity="0.9"/>
<rect x="102.991" y="87.3264" width="15.6651" height="15.6651" fill="white" fill-opacity="0.9"/>
<rect x="118.656" y="87.3264" width="15.6651" height="15.6651" fill="white" fill-opacity="0.9"/>
<rect x="134.321" y="87.3264" width="15.6651" height="15.6651" fill="white" fill-opacity="0.9"/>
<rect x="149.986" y="87.3264" width="15.6651" height="15.6651" fill="white" fill-opacity="0.9"/>
<rect x="165.651" y="87.3264" width="15.6651" height="15.6651" fill="white" fill-opacity="0.9"/>
<rect x="181.316" y="71.6594" width="15.6651" height="15.6651" fill="white" fill-opacity="0.9"/>
<rect x="165.651" y="71.6594" width="15.6651" height="15.6651" fill="white" fill-opacity="0.9"/>
<rect x="149.986" y="71.6594" width="15.6651" height="15.6651" fill="white" fill-opacity="0.9"/>
<rect x="134.321" y="71.6594" width="15.6651" height="15.6651" fill="white" fill-opacity="0.9"/>
<rect x="118.656" y="71.6594" width="15.6651" height="15.6651" fill="white" fill-opacity="0.9"/>
<rect x="102.991" y="71.6594" width="15.6651" height="15.6651" fill="white" fill-opacity="0.9"/>
<rect x="71.6602" y="71.6594" width="15.6651" height="15.6651" fill="white" fill-opacity="0.9"/>
<rect x="55.9951" y="71.6594" width="15.6651" height="15.6651" fill="white" fill-opacity="0.9"/>
<rect x="40.3301" y="71.6594" width="15.6651" height="15.6651" fill="white" fill-opacity="0.9"/>
<rect x="71.6602" y="55.9966" width="15.6651" height="15.6651" fill="white" fill-opacity="0.9"/>
<rect x="87.3254" y="55.9966" width="15.6651" height="15.6651" fill="white" fill-opacity="0.9"/>
<rect x="102.991" y="55.9966" width="15.6651" height="15.6651" fill="white" fill-opacity="0.9"/>
<rect x="118.656" y="55.9966" width="15.6651" height="15.6651" fill="white" fill-opacity="0.9"/>
<rect x="134.321" y="55.9966" width="15.6651" height="15.6651" fill="white" fill-opacity="0.9"/>
<rect x="149.986" y="55.9966" width="15.6651" height="15.6651" fill="white" fill-opacity="0.9"/>
<rect x="165.651" y="55.9966" width="15.6651" height="15.6651" fill="white" fill-opacity="0.9"/>
<rect x="181.316" y="55.9966" width="15.6651" height="15.6651" fill="white" fill-opacity="0.9"/>
<rect x="149.986" y="40.3298" width="15.6651" height="15.6651" fill="white" fill-opacity="0.9"/>
<rect x="134.321" y="40.3298" width="15.6651" height="15.6651" fill="white" fill-opacity="0.9"/>
<rect x="118.656" y="40.3298" width="15.6651" height="15.6651" fill="white" fill-opacity="0.9"/>
<rect x="102.991" y="40.3298" width="15.6651" height="15.6651" fill="white" fill-opacity="0.9"/>
<rect x="134.321" y="24.667" width="15.6651" height="15.6651" fill="white" fill-opacity="0.9"/>
<rect x="212.646" y="134.323" width="15.6651" height="15.6651" fill="#BAD1F3"/>
<rect x="228.311" y="118.656" width="15.6651" height="15.6651" fill="#BAD1F3"/>
<rect x="243.976" y="102.989" width="15.6651" height="15.6651" fill="#BAD1F3"/>
<rect x="243.976" y="87.3264" width="15.6651" height="15.6651" fill="#BAD1F3"/>
<rect x="228.311" y="71.6594" width="15.6651" height="15.6651" fill="#BAD1F3"/>
<rect x="196.981" y="55.9966" width="15.6651" height="15.6651" fill="#BAD1F3"/>
<rect x="212.646" y="71.6594" width="15.6651" height="15.6651" fill="#BAD1F3"/>
<rect x="181.316" y="40.3298" width="15.6651" height="15.6651" fill="#BAD1F3"/>
<rect x="165.651" y="24.667" width="15.6651" height="15.6651" fill="#BAD1F3"/>
<rect x="149.986" y="9.00024" width="15.6651" height="15.6651" fill="#BAD1F3"/>
<rect x="134.321" y="9.00024" width="15.6651" height="15.6651" fill="#BAD1F3"/>
<rect x="118.656" y="9.00024" width="15.6651" height="15.6651" fill="#BAD1F3"/>
<rect x="118.656" y="24.667" width="15.6651" height="15.6651" fill="#BAD1F3"/>
<rect x="102.991" y="24.667" width="15.6651" height="15.6651" fill="#BAD1F3"/>
<rect x="87.3254" y="40.3298" width="15.6651" height="15.6651" fill="#BAD1F3"/>
<rect x="55.9951" y="55.9966" width="15.6651" height="15.6651" fill="#BAD1F3"/>
<rect x="212.646" y="118.656" width="15.6651" height="15.6651" fill="#BAD1F3"/>
<rect x="71.6602" y="40.3298" width="15.6651" height="15.6651" fill="#BAD1F3"/>
<rect x="24.6648" y="71.6594" width="15.6651" height="15.6651" fill="#BAD1F3"/>
<rect x="40.3301" y="55.9966" width="15.6651" height="15.6651" fill="#BAD1F3"/>
<rect x="9" y="87.3264" width="15.6651" height="15.6651" fill="#BAD1F3"/>
<rect x="9" y="102.989" width="15.6651" height="15.6651" fill="#BAD1F3"/>
<rect x="55.9951" y="118.656" width="15.6651" height="15.6651" fill="#BAD1F3"/>
<rect x="40.3301" y="118.656" width="15.6651" height="15.6651" fill="#BAD1F3"/>
<rect x="24.6648" y="118.656" width="15.6651" height="15.6651" fill="#BAD1F3"/>
<rect x="71.6602" y="134.323" width="15.6651" height="15.6651" fill="#BAD1F3"/>
<rect x="55.9951" y="134.323" width="15.6651" height="15.6651" fill="#BAD1F3"/>
<rect x="87.3254" y="134.323" width="15.6651" height="15.6651" fill="#BAD1F3"/>
<rect x="40.3301" y="102.989" width="15.6651" height="15.6651" fill="#BAD1F3"/>
<rect x="40.3301" y="102.989" width="15.6651" height="15.6651" fill="#BAD1F3"/>
<rect x="24.6648" y="102.989" width="15.6651" height="15.6651" fill="#BAD1F3"/>
<rect x="71.6602" y="87.3264" width="15.6651" height="15.6651" fill="#BAD1F3"/>
<rect x="87.3254" y="71.6594" width="15.6651" height="15.6651" fill="#BAD1F3"/>
<rect x="181.316" y="87.3264" width="15.6651" height="15.6651" fill="#BAD1F3"/>
<rect x="165.651" y="40.3298" width="15.6651" height="15.6651" fill="#BAD1F3"/>
<rect x="149.986" y="24.667" width="15.6651" height="15.6651" fill="#BAD1F3"/>
<rect x="196.981" y="71.6594" width="15.6651" height="15.6651" fill="#BAD1F3"/>
<rect x="165.651" y="102.989" width="15.6651" height="15.6651" fill="#BAD1F3"/>
<rect x="102.991" y="134.323" width="15.6651" height="15.6651" fill="#BAD1F3"/>
<rect x="118.656" y="134.323" width="15.6651" height="15.6651" fill="#BAD1F3"/>
</g>
<defs>
<filter id="filter0_f_750_2132" x="0.140114" y="0.140358" width="268.361" height="158.708" filterUnits="userSpaceOnUse" color-interpolation-filters="sRGB">
<feFlood flood-opacity="0" result="BackgroundImageFix"/>
<feBlend mode="normal" in="SourceGraphic" in2="BackgroundImageFix" result="shape"/>
<feGaussianBlur stdDeviation="4.42994" result="effect1_foregroundBlur_750_2132"/>
</filter>
</defs>
</svg>
