<svg xmlns="http://www.w3.org/2000/svg" width="269" height="159" fill="none" viewBox="0 0 269 159"><g filter="url(#filter0_f_750_1767)"><rect width="15.665" height="15.665" x="134.321" y="134.323" fill="#BAD1F3"/><rect width="15.665" height="15.665" x="149.986" y="134.323" fill="#BAD1F3"/><rect width="15.665" height="15.665" x="165.651" y="134.323" fill="#BAD1F3"/><rect width="15.665" height="15.665" x="181.316" y="134.323" fill="#BAD1F3"/><rect width="15.665" height="15.665" x="196.981" y="134.323" fill="#BAD1F3"/><rect width="15.665" height="15.665" x="196.981" y="118.656" fill="#fff" fill-opacity=".9"/><rect width="15.665" height="15.665" x="196.981" y="118.656" fill="#fff" fill-opacity=".9"/><rect width="15.665" height="15.665" x="196.981" y="102.989" fill="#fff" fill-opacity=".9"/><rect width="15.665" height="15.665" x="196.981" y="87.326" fill="#fff" fill-opacity=".9"/><rect width="15.665" height="15.665" x="212.646" y="87.326" fill="#fff" fill-opacity=".9"/><rect width="15.665" height="15.665" x="228.311" y="87.326" fill="#fff" fill-opacity=".9"/><rect width="15.665" height="15.665" x="228.311" y="102.989" fill="#fff" fill-opacity=".9"/><rect width="15.665" height="15.665" x="212.646" y="102.989" fill="#fff" fill-opacity=".9"/><rect width="15.665" height="15.665" x="181.316" y="102.989" fill="#fff" fill-opacity=".9"/><rect width="15.665" height="15.665" x="149.986" y="102.989" fill="#fff" fill-opacity=".9"/><rect width="15.665" height="15.665" x="118.656" y="102.989" fill="#fff" fill-opacity=".9"/><rect width="15.665" height="15.665" x="87.325" y="102.989" fill="#fff" fill-opacity=".9"/><rect width="15.665" height="15.665" x="55.995" y="102.989" fill="#fff" fill-opacity=".9"/><rect width="15.665" height="15.665" x="71.66" y="102.989" fill="#fff" fill-opacity=".9"/><rect width="15.665" height="15.665" x="102.991" y="102.989" fill="#fff" fill-opacity=".9"/><rect width="15.665" height="15.665" x="134.321" y="102.989" fill="#fff" fill-opacity=".9"/><rect width="15.665" height="15.665" x="181.316" y="118.656" fill="#fff" fill-opacity=".9"/><rect width="15.665" height="15.665" x="165.651" y="118.656" fill="#fff" fill-opacity=".9"/><rect width="15.665" height="15.665" x="149.986" y="118.656" fill="#fff" fill-opacity=".9"/><rect width="15.665" height="15.665" x="134.321" y="118.656" fill="#fff" fill-opacity=".9"/><rect width="15.665" height="15.665" x="118.656" y="118.656" fill="#fff" fill-opacity=".9"/><rect width="15.665" height="15.665" x="102.991" y="118.656" fill="#fff" fill-opacity=".9"/><rect width="15.665" height="15.665" x="87.325" y="118.656" fill="#fff" fill-opacity=".9"/><rect width="15.665" height="15.665" x="71.66" y="118.656" fill="#fff" fill-opacity=".9"/><rect width="15.665" height="15.665" x="24.665" y="87.326" fill="#fff" fill-opacity=".9"/><rect width="15.665" height="15.665" x="40.33" y="87.326" fill="#fff" fill-opacity=".9"/><rect width="15.665" height="15.665" x="55.995" y="87.326" fill="#fff" fill-opacity=".9"/><rect width="15.665" height="15.665" x="87.325" y="87.326" fill="#fff" fill-opacity=".9"/><rect width="15.665" height="15.665" x="102.991" y="87.326" fill="#fff" fill-opacity=".9"/><rect width="15.665" height="15.665" x="118.656" y="87.326" fill="#fff" fill-opacity=".9"/><rect width="15.665" height="15.665" x="134.321" y="87.326" fill="#fff" fill-opacity=".9"/><rect width="15.665" height="15.665" x="149.986" y="87.326" fill="#fff" fill-opacity=".9"/><rect width="15.665" height="15.665" x="165.651" y="87.326" fill="#fff" fill-opacity=".9"/><rect width="15.665" height="15.665" x="181.316" y="71.659" fill="#fff" fill-opacity=".9"/><rect width="15.665" height="15.665" x="165.651" y="71.659" fill="#fff" fill-opacity=".9"/><rect width="15.665" height="15.665" x="149.986" y="71.659" fill="#fff" fill-opacity=".9"/><rect width="15.665" height="15.665" x="134.321" y="71.659" fill="#fff" fill-opacity=".9"/><rect width="15.665" height="15.665" x="118.656" y="71.659" fill="#fff" fill-opacity=".9"/><rect width="15.665" height="15.665" x="102.991" y="71.659" fill="#fff" fill-opacity=".9"/><rect width="15.665" height="15.665" x="71.66" y="71.659" fill="#fff" fill-opacity=".9"/><rect width="15.665" height="15.665" x="55.995" y="71.659" fill="#fff" fill-opacity=".9"/><rect width="15.665" height="15.665" x="40.33" y="71.659" fill="#fff" fill-opacity=".9"/><rect width="15.665" height="15.665" x="71.66" y="55.997" fill="#fff" fill-opacity=".9"/><rect width="15.665" height="15.665" x="87.325" y="55.997" fill="#fff" fill-opacity=".9"/><rect width="15.665" height="15.665" x="102.991" y="55.997" fill="#fff" fill-opacity=".9"/><rect width="15.665" height="15.665" x="118.656" y="55.997" fill="#fff" fill-opacity=".9"/><rect width="15.665" height="15.665" x="134.321" y="55.997" fill="#fff" fill-opacity=".9"/><rect width="15.665" height="15.665" x="149.986" y="55.997" fill="#fff" fill-opacity=".9"/><rect width="15.665" height="15.665" x="165.651" y="55.997" fill="#fff" fill-opacity=".9"/><rect width="15.665" height="15.665" x="181.316" y="55.997" fill="#fff" fill-opacity=".9"/><rect width="15.665" height="15.665" x="149.986" y="40.33" fill="#fff" fill-opacity=".9"/><rect width="15.665" height="15.665" x="134.321" y="40.33" fill="#fff" fill-opacity=".9"/><rect width="15.665" height="15.665" x="118.656" y="40.33" fill="#fff" fill-opacity=".9"/><rect width="15.665" height="15.665" x="102.991" y="40.33" fill="#fff" fill-opacity=".9"/><rect width="15.665" height="15.665" x="134.321" y="24.667" fill="#fff" fill-opacity=".9"/><rect width="15.665" height="15.665" x="212.646" y="134.323" fill="#BAD1F3"/><rect width="15.665" height="15.665" x="228.311" y="118.656" fill="#BAD1F3"/><rect width="15.665" height="15.665" x="243.976" y="102.989" fill="#BAD1F3"/><rect width="15.665" height="15.665" x="243.976" y="87.326" fill="#BAD1F3"/><rect width="15.665" height="15.665" x="228.311" y="71.659" fill="#BAD1F3"/><rect width="15.665" height="15.665" x="196.981" y="55.997" fill="#BAD1F3"/><rect width="15.665" height="15.665" x="212.646" y="71.659" fill="#BAD1F3"/><rect width="15.665" height="15.665" x="181.316" y="40.33" fill="#BAD1F3"/><rect width="15.665" height="15.665" x="165.651" y="24.667" fill="#BAD1F3"/><rect width="15.665" height="15.665" x="149.986" y="9" fill="#BAD1F3"/><rect width="15.665" height="15.665" x="134.321" y="9" fill="#BAD1F3"/><rect width="15.665" height="15.665" x="118.656" y="9" fill="#BAD1F3"/><rect width="15.665" height="15.665" x="118.656" y="24.667" fill="#BAD1F3"/><rect width="15.665" height="15.665" x="102.991" y="24.667" fill="#BAD1F3"/><rect width="15.665" height="15.665" x="87.325" y="40.33" fill="#BAD1F3"/><rect width="15.665" height="15.665" x="55.995" y="55.997" fill="#BAD1F3"/><rect width="15.665" height="15.665" x="212.646" y="118.656" fill="#BAD1F3"/><rect width="15.665" height="15.665" x="71.66" y="40.33" fill="#BAD1F3"/><rect width="15.665" height="15.665" x="24.665" y="71.659" fill="#BAD1F3"/><rect width="15.665" height="15.665" x="40.33" y="55.997" fill="#BAD1F3"/><rect width="15.665" height="15.665" x="9" y="87.326" fill="#BAD1F3"/><rect width="15.665" height="15.665" x="9" y="102.989" fill="#BAD1F3"/><rect width="15.665" height="15.665" x="55.995" y="118.656" fill="#BAD1F3"/><rect width="15.665" height="15.665" x="40.33" y="118.656" fill="#BAD1F3"/><rect width="15.665" height="15.665" x="24.665" y="118.656" fill="#BAD1F3"/><rect width="15.665" height="15.665" x="71.66" y="134.323" fill="#BAD1F3"/><rect width="15.665" height="15.665" x="55.995" y="134.323" fill="#BAD1F3"/><rect width="15.665" height="15.665" x="87.325" y="134.323" fill="#BAD1F3"/><rect width="15.665" height="15.665" x="40.33" y="102.989" fill="#BAD1F3"/><rect width="15.665" height="15.665" x="40.33" y="102.989" fill="#BAD1F3"/><rect width="15.665" height="15.665" x="24.665" y="102.989" fill="#BAD1F3"/><rect width="15.665" height="15.665" x="71.66" y="87.326" fill="#BAD1F3"/><rect width="15.665" height="15.665" x="87.325" y="71.659" fill="#BAD1F3"/><rect width="15.665" height="15.665" x="181.316" y="87.326" fill="#BAD1F3"/><rect width="15.665" height="15.665" x="165.651" y="40.33" fill="#BAD1F3"/><rect width="15.665" height="15.665" x="149.986" y="24.667" fill="#BAD1F3"/><rect width="15.665" height="15.665" x="196.981" y="71.659" fill="#BAD1F3"/><rect width="15.665" height="15.665" x="165.651" y="102.989" fill="#BAD1F3"/><rect width="15.665" height="15.665" x="102.991" y="134.323" fill="#BAD1F3"/><rect width="15.665" height="15.665" x="118.656" y="134.323" fill="#BAD1F3"/></g><defs><filter id="filter0_f_750_1767" width="268.361" height="158.708" x=".14" y=".14" color-interpolation-filters="sRGB" filterUnits="userSpaceOnUse"><feFlood flood-opacity="0" result="BackgroundImageFix"/><feBlend in="SourceGraphic" in2="BackgroundImageFix" mode="normal" result="shape"/><feGaussianBlur result="effect1_foregroundBlur_750_1767" stdDeviation="4.43"/></filter></defs></svg>