<svg xmlns="http://www.w3.org/2000/svg" width="276" height="393" fill="none" viewBox="0 0 276 393"><path fill="#fff" d="M88.4 11.2H89.8V12.6H88.4V14H87V4.2H88.4V11.2ZM92.6 4.2H94V14H92.6V12.6H91.2V11.2H92.6V4.2ZM89.8 9.8H91.2V11.2H89.8V9.8ZM100.995 7V8.4H96.7945V7H100.995ZM100.995 8.4H102.395V14H96.7945V12.6H100.995V11.2H96.7945V9.8H100.995V8.4ZM95.3945 11.2H96.7945V12.6H95.3945V11.2ZM105.189 9.8H106.589V11.2H105.189V14H103.789V4.2H105.189V9.8ZM109.389 7V8.4H107.989V7H109.389ZM107.989 8.4V9.8H106.589V8.4H107.989ZM107.989 12.6H106.589V11.2H107.989V12.6ZM109.389 14H107.989V12.6H109.389V14ZM112.189 8.4V7H116.389V8.4H112.189ZM116.389 8.4H117.789V11.2H112.189V12.6H110.789V8.4H112.189V9.8H116.389V8.4ZM112.189 14V12.6H117.789V14H112.189ZM126.189 12.6H124.789V7H126.189V12.6ZM130.389 7H131.789V14H126.189V12.6H130.389V7ZM138.784 11.2V12.6H134.584V15.4H133.184V7H134.584V8.4H135.984V9.8H134.584V11.2H138.784ZM138.784 8.4H135.984V7H138.784V8.4ZM138.784 8.4H140.184V11.2H138.784V8.4Z"/><path fill="#fff" d="M88.4 145.2H89.8V146.6H88.4V148H87V138.2H88.4V145.2ZM92.6 138.2H94V148H92.6V146.6H91.2V145.2H92.6V138.2ZM89.8 143.8H91.2V145.2H89.8V143.8ZM100.995 141V142.4H96.7945V141H100.995ZM100.995 142.4H102.395V148H96.7945V146.6H100.995V145.2H96.7945V143.8H100.995V142.4ZM95.3945 145.2H96.7945V146.6H95.3945V145.2ZM105.189 143.8H106.589V145.2H105.189V148H103.789V138.2H105.189V143.8ZM109.389 141V142.4H107.989V141H109.389ZM107.989 142.4V143.8H106.589V142.4H107.989ZM107.989 146.6H106.589V145.2H107.989V146.6ZM109.389 148H107.989V146.6H109.389V148ZM112.189 142.4V141H116.389V142.4H112.189ZM116.389 142.4H117.789V145.2H112.189V146.6H110.789V142.4H112.189V143.8H116.389V142.4ZM112.189 148V146.6H117.789V148H112.189ZM126.189 146.6H124.789V141H126.189V146.6ZM130.389 141H131.789V148H126.189V146.6H130.389V141ZM138.784 145.2V146.6H134.584V149.4H133.184V141H134.584V142.4H135.984V143.8H134.584V145.2H138.784ZM138.784 142.4H135.984V141H138.784V142.4ZM138.784 142.4H140.184V145.2H138.784V142.4Z"/><path fill="#fff" d="M88.4 280.2H89.8V281.6H88.4V283H87V273.2H88.4V280.2ZM92.6 273.2H94V283H92.6V281.6H91.2V280.2H92.6V273.2ZM89.8 278.8H91.2V280.2H89.8V278.8ZM100.995 276V277.4H96.7945V276H100.995ZM100.995 277.4H102.395V283H96.7945V281.6H100.995V280.2H96.7945V278.8H100.995V277.4ZM95.3945 280.2H96.7945V281.6H95.3945V280.2ZM105.189 278.8H106.589V280.2H105.189V283H103.789V273.2H105.189V278.8ZM109.389 276V277.4H107.989V276H109.389ZM107.989 277.4V278.8H106.589V277.4H107.989ZM107.989 281.6H106.589V280.2H107.989V281.6ZM109.389 283H107.989V281.6H109.389V283ZM112.189 277.4V276H116.389V277.4H112.189ZM116.389 277.4H117.789V280.2H112.189V281.6H110.789V277.4H112.189V278.8H116.389V277.4ZM112.189 283V281.6H117.789V283H112.189ZM126.189 281.6H124.789V276H126.189V281.6ZM130.389 276H131.789V283H126.189V281.6H130.389V276ZM138.784 280.2V281.6H134.584V284.4H133.184V276H134.584V277.4H135.984V278.8H134.584V280.2H138.784ZM138.784 277.4H135.984V276H138.784V277.4ZM138.784 277.4H140.184V280.2H138.784V277.4Z"/><path fill="#fff" d="M88.4 32.6V34H91.2V35.4H88.4V39.6H94V41H87V31.2H94V32.6H88.4ZM100.995 34V35.4H96.7945V34H100.995ZM100.995 35.4H102.395V41H96.7945V39.6H100.995V38.2H96.7945V36.8H100.995V35.4ZM95.3945 38.2H96.7945V39.6H95.3945V38.2ZM106.589 39.6H105.189V35.4H103.789V34H105.189V31.2H106.589V34H107.989V35.4H106.589V39.6ZM107.989 41H106.589V39.6H107.989V41ZM120.6 34V35.4H116.4V39.6H120.6V41H115V31.2H120.6V32.6H116.4V34H120.6ZM122 34H120.6V32.6H122V34ZM120.6 35.4H122V39.6H120.6V35.4ZM124.795 34V35.4H126.195V36.8H124.795V41H123.395V34H124.795ZM128.995 34V35.4H126.195V34H128.995ZM128.995 35.4H130.395V36.8H128.995V35.4ZM133.189 35.4V34H137.389V35.4H133.189ZM137.389 35.4H138.789V38.2H133.189V39.6H131.789V35.4H133.189V36.8H137.389V35.4ZM133.189 41V39.6H138.789V41H133.189ZM145.784 34V35.4H141.584V34H145.784ZM145.784 35.4H147.184V41H141.584V39.6H145.784V38.2H141.584V36.8H145.784V35.4ZM140.184 38.2H141.584V39.6H140.184V38.2ZM149.978 36.8H151.378V38.2H149.978V41H148.578V31.2H149.978V36.8ZM154.178 34V35.4H152.778V34H154.178ZM152.778 35.4V36.8H151.378V35.4H152.778ZM152.778 39.6H151.378V38.2H152.778V39.6ZM154.178 41H152.778V39.6H154.178V41ZM161.178 32.6H158.378V31.2H161.178V32.6ZM156.978 32.6H158.378V34H161.178V35.4H158.378V41H156.978V35.4H155.578V34H156.978V32.6ZM168.178 34V35.4H163.978V34H168.178ZM168.178 35.4H169.578V41H163.978V39.6H168.178V38.2H163.978V36.8H168.178V35.4ZM162.578 38.2H163.978V39.6H162.578V38.2ZM172.373 35.4V34H177.973V35.4H172.373ZM170.973 35.4H172.373V36.8H170.973V35.4ZM172.373 38.2V36.8H176.573V38.2H172.373ZM177.973 39.6H176.573V38.2H177.973V39.6ZM176.573 39.6V41H170.973V39.6H176.573ZM182.167 39.6H180.767V35.4H179.367V34H180.767V31.2H182.167V34H183.567V35.4H182.167V39.6ZM183.567 41H182.167V39.6H183.567V41Z"/><path fill="#fff" d="M88.4 166.6V168H91.2V169.4H88.4V173.6H94V175H87V165.2H94V166.6H88.4ZM100.995 168V169.4H96.7945V168H100.995ZM100.995 169.4H102.395V175H96.7945V173.6H100.995V172.2H96.7945V170.8H100.995V169.4ZM95.3945 172.2H96.7945V173.6H95.3945V172.2ZM106.589 173.6H105.189V169.4H103.789V168H105.189V165.2H106.589V168H107.989V169.4H106.589V173.6ZM107.989 175H106.589V173.6H107.989V175ZM120.6 168V169.4H116.4V173.6H120.6V175H115V165.2H120.6V166.6H116.4V168H120.6ZM122 168H120.6V166.6H122V168ZM120.6 169.4H122V173.6H120.6V169.4ZM124.795 168V169.4H126.195V170.8H124.795V175H123.395V168H124.795ZM128.995 168V169.4H126.195V168H128.995ZM128.995 169.4H130.395V170.8H128.995V169.4ZM133.189 169.4V168H137.389V169.4H133.189ZM137.389 169.4H138.789V172.2H133.189V173.6H131.789V169.4H133.189V170.8H137.389V169.4ZM133.189 175V173.6H138.789V175H133.189ZM145.784 168V169.4H141.584V168H145.784ZM145.784 169.4H147.184V175H141.584V173.6H145.784V172.2H141.584V170.8H145.784V169.4ZM140.184 172.2H141.584V173.6H140.184V172.2ZM149.978 170.8H151.378V172.2H149.978V175H148.578V165.2H149.978V170.8ZM154.178 168V169.4H152.778V168H154.178ZM152.778 169.4V170.8H151.378V169.4H152.778ZM152.778 173.6H151.378V172.2H152.778V173.6ZM154.178 175H152.778V173.6H154.178V175ZM161.178 166.6H158.378V165.2H161.178V166.6ZM156.978 166.6H158.378V168H161.178V169.4H158.378V175H156.978V169.4H155.578V168H156.978V166.6ZM168.178 168V169.4H163.978V168H168.178ZM168.178 169.4H169.578V175H163.978V173.6H168.178V172.2H163.978V170.8H168.178V169.4ZM162.578 172.2H163.978V173.6H162.578V172.2ZM172.373 169.4V168H177.973V169.4H172.373ZM170.973 169.4H172.373V170.8H170.973V169.4ZM172.373 172.2V170.8H176.573V172.2H172.373ZM177.973 173.6H176.573V172.2H177.973V173.6ZM176.573 173.6V175H170.973V173.6H176.573ZM182.167 173.6H180.767V169.4H179.367V168H180.767V165.2H182.167V168H183.567V169.4H182.167V173.6ZM183.567 175H182.167V173.6H183.567V175Z"/><path fill="#fff" d="M88.4 301.6V303H91.2V304.4H88.4V308.6H94V310H87V300.2H94V301.6H88.4ZM100.995 303V304.4H96.7945V303H100.995ZM100.995 304.4H102.395V310H96.7945V308.6H100.995V307.2H96.7945V305.8H100.995V304.4ZM95.3945 307.2H96.7945V308.6H95.3945V307.2ZM106.589 308.6H105.189V304.4H103.789V303H105.189V300.2H106.589V303H107.989V304.4H106.589V308.6ZM107.989 310H106.589V308.6H107.989V310ZM120.6 303V304.4H116.4V308.6H120.6V310H115V300.2H120.6V301.6H116.4V303H120.6ZM122 303H120.6V301.6H122V303ZM120.6 304.4H122V308.6H120.6V304.4ZM124.795 303V304.4H126.195V305.8H124.795V310H123.395V303H124.795ZM128.995 303V304.4H126.195V303H128.995ZM128.995 304.4H130.395V305.8H128.995V304.4ZM133.189 304.4V303H137.389V304.4H133.189ZM137.389 304.4H138.789V307.2H133.189V308.6H131.789V304.4H133.189V305.8H137.389V304.4ZM133.189 310V308.6H138.789V310H133.189ZM145.784 303V304.4H141.584V303H145.784ZM145.784 304.4H147.184V310H141.584V308.6H145.784V307.2H141.584V305.8H145.784V304.4ZM140.184 307.2H141.584V308.6H140.184V307.2ZM149.978 305.8H151.378V307.2H149.978V310H148.578V300.2H149.978V305.8ZM154.178 303V304.4H152.778V303H154.178ZM152.778 304.4V305.8H151.378V304.4H152.778ZM152.778 308.6H151.378V307.2H152.778V308.6ZM154.178 310H152.778V308.6H154.178V310ZM161.178 301.6H158.378V300.2H161.178V301.6ZM156.978 301.6H158.378V303H161.178V304.4H158.378V310H156.978V304.4H155.578V303H156.978V301.6ZM168.178 303V304.4H163.978V303H168.178ZM168.178 304.4H169.578V310H163.978V308.6H168.178V307.2H163.978V305.8H168.178V304.4ZM162.578 307.2H163.978V308.6H162.578V307.2ZM172.373 304.4V303H177.973V304.4H172.373ZM170.973 304.4H172.373V305.8H170.973V304.4ZM172.373 307.2V305.8H176.573V307.2H172.373ZM177.973 308.6H176.573V307.2H177.973V308.6ZM176.573 308.6V310H170.973V308.6H176.573ZM182.167 308.6H180.767V304.4H179.367V303H180.767V300.2H182.167V303H183.567V304.4H182.167V308.6ZM183.567 310H182.167V308.6H183.567V310Z"/><path fill="#fff" d="M88.4 59.6V58.2H92.6V59.6H88.4ZM88.4 66.6H87V59.6H88.4V66.6ZM92.6 59.6H94V66.6H92.6V59.6ZM92.6 66.6V68H88.4V66.6H92.6ZM96.7945 61V62.4H98.1945V63.8H96.7945V68H95.3945V61H96.7945ZM100.995 61V62.4H98.1945V61H100.995ZM100.995 62.4H102.395V63.8H100.995V62.4ZM103.789 58.2H105.189V59.6H103.789V58.2ZM103.789 61H105.189V68H103.789V61ZM107.992 62.4V61H112.192V62.4H107.992ZM112.192 62.4H113.592V65.2H107.992V66.6H106.592V62.4H107.992V63.8H112.192V62.4ZM107.992 68V66.6H113.592V68H107.992ZM120.586 61V62.4H116.386V68H114.986V61H120.586ZM120.586 62.4H121.986V68H120.586V62.4ZM126.181 66.6H124.781V62.4H123.381V61H124.781V58.2H126.181V61H127.581V62.4H126.181V66.6ZM127.581 68H126.181V66.6H127.581V68ZM134.586 61V62.4H130.386V61H134.586ZM134.586 62.4H135.986V68H130.386V66.6H134.586V65.2H130.386V63.8H134.586V62.4ZM128.986 65.2H130.386V66.6H128.986V65.2ZM140.181 66.6H138.781V62.4H137.381V61H138.781V58.2H140.181V61H141.581V62.4H140.181V66.6ZM141.581 68H140.181V66.6H141.581V68ZM142.986 58.2H144.386V59.6H142.986V58.2ZM142.986 61H144.386V68H142.986V61ZM147.189 62.4V61H151.389V62.4H147.189ZM147.189 66.6H145.789V62.4H147.189V66.6ZM151.389 62.4H152.789V66.6H151.389V62.4ZM151.389 66.6V68H147.189V66.6H151.389ZM159.784 61V62.4H155.584V68H154.184V61H159.784ZM159.784 62.4H161.184V68H159.784V62.4Z"/><path fill="#fff" d="M88.4 193.6V192.2H92.6V193.6H88.4ZM88.4 200.6H87V193.6H88.4V200.6ZM92.6 193.6H94V200.6H92.6V193.6ZM92.6 200.6V202H88.4V200.6H92.6ZM96.7945 195V196.4H98.1945V197.8H96.7945V202H95.3945V195H96.7945ZM100.995 195V196.4H98.1945V195H100.995ZM100.995 196.4H102.395V197.8H100.995V196.4ZM103.789 192.2H105.189V193.6H103.789V192.2ZM103.789 195H105.189V202H103.789V195ZM107.992 196.4V195H112.192V196.4H107.992ZM112.192 196.4H113.592V199.2H107.992V200.6H106.592V196.4H107.992V197.8H112.192V196.4ZM107.992 202V200.6H113.592V202H107.992ZM120.586 195V196.4H116.386V202H114.986V195H120.586ZM120.586 196.4H121.986V202H120.586V196.4ZM126.181 200.6H124.781V196.4H123.381V195H124.781V192.2H126.181V195H127.581V196.4H126.181V200.6ZM127.581 202H126.181V200.6H127.581V202ZM134.586 195V196.4H130.386V195H134.586ZM134.586 196.4H135.986V202H130.386V200.6H134.586V199.2H130.386V197.8H134.586V196.4ZM128.986 199.2H130.386V200.6H128.986V199.2ZM140.181 200.6H138.781V196.4H137.381V195H138.781V192.2H140.181V195H141.581V196.4H140.181V200.6ZM141.581 202H140.181V200.6H141.581V202ZM142.986 192.2H144.386V193.6H142.986V192.2ZM142.986 195H144.386V202H142.986V195ZM147.189 196.4V195H151.389V196.4H147.189ZM147.189 200.6H145.789V196.4H147.189V200.6ZM151.389 196.4H152.789V200.6H151.389V196.4ZM151.389 200.6V202H147.189V200.6H151.389ZM159.784 195V196.4H155.584V202H154.184V195H159.784ZM159.784 196.4H161.184V202H159.784V196.4Z"/><path fill="#fff" d="M88.4 328.6V327.2H92.6V328.6H88.4ZM88.4 335.6H87V328.6H88.4V335.6ZM92.6 328.6H94V335.6H92.6V328.6ZM92.6 335.6V337H88.4V335.6H92.6ZM96.7945 330V331.4H98.1945V332.8H96.7945V337H95.3945V330H96.7945ZM100.995 330V331.4H98.1945V330H100.995ZM100.995 331.4H102.395V332.8H100.995V331.4ZM103.789 327.2H105.189V328.6H103.789V327.2ZM103.789 330H105.189V337H103.789V330ZM107.992 331.4V330H112.192V331.4H107.992ZM112.192 331.4H113.592V334.2H107.992V335.6H106.592V331.4H107.992V332.8H112.192V331.4ZM107.992 337V335.6H113.592V337H107.992ZM120.586 330V331.4H116.386V337H114.986V330H120.586ZM120.586 331.4H121.986V337H120.586V331.4ZM126.181 335.6H124.781V331.4H123.381V330H124.781V327.2H126.181V330H127.581V331.4H126.181V335.6ZM127.581 337H126.181V335.6H127.581V337ZM134.586 330V331.4H130.386V330H134.586ZM134.586 331.4H135.986V337H130.386V335.6H134.586V334.2H130.386V332.8H134.586V331.4ZM128.986 334.2H130.386V335.6H128.986V334.2ZM140.181 335.6H138.781V331.4H137.381V330H138.781V327.2H140.181V330H141.581V331.4H140.181V335.6ZM141.581 337H140.181V335.6H141.581V337ZM142.986 327.2H144.386V328.6H142.986V327.2ZM142.986 330H144.386V337H142.986V330ZM147.189 331.4V330H151.389V331.4H147.189ZM147.189 335.6H145.789V331.4H147.189V335.6ZM151.389 331.4H152.789V335.6H151.389V331.4ZM151.389 335.6V337H147.189V335.6H151.389ZM159.784 330V331.4H155.584V337H154.184V330H159.784ZM159.784 331.4H161.184V337H159.784V331.4Z"/><path fill="#fff" d="M92.6 84.2H94V94H92.6V88.4H88.4V94H87V84.2H88.4V87H92.6V84.2ZM96.7945 88.4V87H100.995V88.4H96.7945ZM96.7945 92.6H95.3945V88.4H96.7945V92.6ZM100.995 88.4H102.395V92.6H100.995V88.4ZM100.995 92.6V94H96.7945V92.6H100.995ZM105.189 92.6H103.789V87H105.189V92.6ZM109.389 87H110.789V94H105.189V92.6H106.589V89.8H107.989V92.6H109.389V87ZM120.589 92.6H119.189V88.4H117.789V87H119.189V84.2H120.589V87H121.989V88.4H120.589V92.6ZM121.989 94H120.589V92.6H121.989V94ZM124.795 88.4V87H128.995V88.4H124.795ZM124.795 92.6H123.395V88.4H124.795V92.6ZM128.995 88.4H130.395V92.6H128.995V88.4ZM128.995 92.6V94H124.795V92.6H128.995ZM142.995 92.6V94H137.395V84.2H138.795V88.4H140.195V89.8H138.795V92.6H142.995ZM142.995 88.4H140.195V87H142.995V88.4ZM142.995 88.4H144.395V92.6H142.995V88.4ZM147.189 88.4V87H151.389V88.4H147.189ZM151.389 88.4H152.789V91.2H147.189V92.6H145.789V88.4H147.189V89.8H151.389V88.4ZM147.189 94V92.6H152.789V94H147.189ZM166.789 87V94H165.389V92.6H161.189V91.2H165.389V88.4H161.189V87H166.789ZM161.189 88.4V91.2H159.789V88.4H161.189ZM165.389 94V95.4H159.789V94H165.389ZM169.584 88.4V87H173.784V88.4H169.584ZM169.584 92.6H168.184V88.4H169.584V92.6ZM173.784 88.4H175.184V92.6H173.784V88.4ZM173.784 92.6V94H169.584V92.6H173.784ZM177.978 88.4V87H182.178V88.4H177.978ZM177.978 92.6H176.578V88.4H177.978V92.6ZM182.178 88.4H183.578V92.6H182.178V88.4ZM182.178 92.6V94H177.978V92.6H182.178ZM190.573 84.2H191.973V94H186.373V92.6H190.573V89.8H189.173V88.4H190.573V84.2ZM189.173 88.4H186.373V87H189.173V88.4ZM186.373 92.6H184.973V88.4H186.373V92.6ZM204.573 87V88.4H200.373V87H204.573ZM204.573 88.4H205.973V94H200.373V92.6H204.573V91.2H200.373V89.8H204.573V88.4ZM198.973 91.2H200.373V92.6H198.973V91.2ZM210.167 92.6H208.767V88.4H207.367V87H208.767V84.2H210.167V87H211.567V88.4H210.167V92.6ZM211.567 94H210.167V92.6H211.567V94ZM224.178 87V88.4H219.978V87H224.178ZM218.578 88.4H219.978V92.6H218.578V88.4ZM225.578 89.8H224.178V88.4H225.578V89.8ZM225.578 91.2V92.6H224.178V91.2H225.578ZM219.978 94V92.6H224.178V94H219.978ZM228.373 88.4V87H232.573V88.4H228.373ZM228.373 92.6H226.973V88.4H228.373V92.6ZM232.573 88.4H233.973V92.6H232.573V88.4ZM232.573 92.6V94H228.373V92.6H232.573ZM240.967 84.2H242.367V94H236.767V92.6H240.967V89.8H239.567V88.4H240.967V84.2ZM239.567 88.4H236.767V87H239.567V88.4ZM236.767 92.6H235.367V88.4H236.767V92.6ZM243.762 84.2H245.162V85.6H243.762V84.2ZM243.762 87H245.162V94H243.762V87ZM252.164 87V88.4H247.964V94H246.564V87H252.164ZM252.164 88.4H253.564V94H252.164V88.4ZM261.959 87V94H260.559V92.6H256.359V91.2H260.559V88.4H256.359V87H261.959ZM256.359 88.4V91.2H254.959V88.4H256.359ZM260.559 94V95.4H254.959V94H260.559Z"/><path fill="#fff" d="M92.6 219.2H94V229H92.6V223.4H88.4V229H87V219.2H88.4V222H92.6V219.2ZM96.7945 223.4V222H100.995V223.4H96.7945ZM96.7945 227.6H95.3945V223.4H96.7945V227.6ZM100.995 223.4H102.395V227.6H100.995V223.4ZM100.995 227.6V229H96.7945V227.6H100.995ZM105.189 227.6H103.789V222H105.189V227.6ZM109.389 222H110.789V229H105.189V227.6H106.589V224.8H107.989V227.6H109.389V222ZM120.589 227.6H119.189V223.4H117.789V222H119.189V219.2H120.589V222H121.989V223.4H120.589V227.6ZM121.989 229H120.589V227.6H121.989V229ZM124.795 223.4V222H128.995V223.4H124.795ZM124.795 227.6H123.395V223.4H124.795V227.6ZM128.995 223.4H130.395V227.6H128.995V223.4ZM128.995 227.6V229H124.795V227.6H128.995ZM142.995 227.6V229H137.395V219.2H138.795V223.4H140.195V224.8H138.795V227.6H142.995ZM142.995 223.4H140.195V222H142.995V223.4ZM142.995 223.4H144.395V227.6H142.995V223.4ZM147.189 223.4V222H151.389V223.4H147.189ZM151.389 223.4H152.789V226.2H147.189V227.6H145.789V223.4H147.189V224.8H151.389V223.4ZM147.189 229V227.6H152.789V229H147.189ZM166.789 222V229H165.389V227.6H161.189V226.2H165.389V223.4H161.189V222H166.789ZM161.189 223.4V226.2H159.789V223.4H161.189ZM165.389 229V230.4H159.789V229H165.389ZM169.584 223.4V222H173.784V223.4H169.584ZM169.584 227.6H168.184V223.4H169.584V227.6ZM173.784 223.4H175.184V227.6H173.784V223.4ZM173.784 227.6V229H169.584V227.6H173.784ZM177.978 223.4V222H182.178V223.4H177.978ZM177.978 227.6H176.578V223.4H177.978V227.6ZM182.178 223.4H183.578V227.6H182.178V223.4ZM182.178 227.6V229H177.978V227.6H182.178ZM190.573 219.2H191.973V229H186.373V227.6H190.573V224.8H189.173V223.4H190.573V219.2ZM189.173 223.4H186.373V222H189.173V223.4ZM186.373 227.6H184.973V223.4H186.373V227.6ZM204.573 222V223.4H200.373V222H204.573ZM204.573 223.4H205.973V229H200.373V227.6H204.573V226.2H200.373V224.8H204.573V223.4ZM198.973 226.2H200.373V227.6H198.973V226.2ZM210.167 227.6H208.767V223.4H207.367V222H208.767V219.2H210.167V222H211.567V223.4H210.167V227.6ZM211.567 229H210.167V227.6H211.567V229ZM224.178 222V223.4H219.978V222H224.178ZM218.578 223.4H219.978V227.6H218.578V223.4ZM225.578 224.8H224.178V223.4H225.578V224.8ZM225.578 226.2V227.6H224.178V226.2H225.578ZM219.978 229V227.6H224.178V229H219.978ZM228.373 223.4V222H232.573V223.4H228.373ZM228.373 227.6H226.973V223.4H228.373V227.6ZM232.573 223.4H233.973V227.6H232.573V223.4ZM232.573 227.6V229H228.373V227.6H232.573ZM240.967 219.2H242.367V229H236.767V227.6H240.967V224.8H239.567V223.4H240.967V219.2ZM239.567 223.4H236.767V222H239.567V223.4ZM236.767 227.6H235.367V223.4H236.767V227.6ZM243.762 219.2H245.162V220.6H243.762V219.2ZM243.762 222H245.162V229H243.762V222ZM252.164 222V223.4H247.964V229H246.564V222H252.164ZM252.164 223.4H253.564V229H252.164V223.4ZM261.959 222V229H260.559V227.6H256.359V226.2H260.559V223.4H256.359V222H261.959ZM256.359 223.4V226.2H254.959V223.4H256.359ZM260.559 229V230.4H254.959V229H260.559Z"/><path fill="#fff" d="M92.6 354.2H94V364H92.6V358.4H88.4V364H87V354.2H88.4V357H92.6V354.2ZM96.7945 358.4V357H100.995V358.4H96.7945ZM96.7945 362.6H95.3945V358.4H96.7945V362.6ZM100.995 358.4H102.395V362.6H100.995V358.4ZM100.995 362.6V364H96.7945V362.6H100.995ZM105.189 362.6H103.789V357H105.189V362.6ZM109.389 357H110.789V364H105.189V362.6H106.589V359.8H107.989V362.6H109.389V357ZM120.589 362.6H119.189V358.4H117.789V357H119.189V354.2H120.589V357H121.989V358.4H120.589V362.6ZM121.989 364H120.589V362.6H121.989V364ZM124.795 358.4V357H128.995V358.4H124.795ZM124.795 362.6H123.395V358.4H124.795V362.6ZM128.995 358.4H130.395V362.6H128.995V358.4ZM128.995 362.6V364H124.795V362.6H128.995ZM142.995 362.6V364H137.395V354.2H138.795V358.4H140.195V359.8H138.795V362.6H142.995ZM142.995 358.4H140.195V357H142.995V358.4ZM142.995 358.4H144.395V362.6H142.995V358.4ZM147.189 358.4V357H151.389V358.4H147.189ZM151.389 358.4H152.789V361.2H147.189V362.6H145.789V358.4H147.189V359.8H151.389V358.4ZM147.189 364V362.6H152.789V364H147.189ZM166.789 357V364H165.389V362.6H161.189V361.2H165.389V358.4H161.189V357H166.789ZM161.189 358.4V361.2H159.789V358.4H161.189ZM165.389 364V365.4H159.789V364H165.389ZM169.584 358.4V357H173.784V358.4H169.584ZM169.584 362.6H168.184V358.4H169.584V362.6ZM173.784 358.4H175.184V362.6H173.784V358.4ZM173.784 362.6V364H169.584V362.6H173.784ZM177.978 358.4V357H182.178V358.4H177.978ZM177.978 362.6H176.578V358.4H177.978V362.6ZM182.178 358.4H183.578V362.6H182.178V358.4ZM182.178 362.6V364H177.978V362.6H182.178ZM190.573 354.2H191.973V364H186.373V362.6H190.573V359.8H189.173V358.4H190.573V354.2ZM189.173 358.4H186.373V357H189.173V358.4ZM186.373 362.6H184.973V358.4H186.373V362.6ZM204.573 357V358.4H200.373V357H204.573ZM204.573 358.4H205.973V364H200.373V362.6H204.573V361.2H200.373V359.8H204.573V358.4ZM198.973 361.2H200.373V362.6H198.973V361.2ZM210.167 362.6H208.767V358.4H207.367V357H208.767V354.2H210.167V357H211.567V358.4H210.167V362.6ZM211.567 364H210.167V362.6H211.567V364ZM224.178 357V358.4H219.978V357H224.178ZM218.578 358.4H219.978V362.6H218.578V358.4ZM225.578 359.8H224.178V358.4H225.578V359.8ZM225.578 361.2V362.6H224.178V361.2H225.578ZM219.978 364V362.6H224.178V364H219.978ZM228.373 358.4V357H232.573V358.4H228.373ZM228.373 362.6H226.973V358.4H228.373V362.6ZM232.573 358.4H233.973V362.6H232.573V358.4ZM232.573 362.6V364H228.373V362.6H232.573ZM240.967 354.2H242.367V364H236.767V362.6H240.967V359.8H239.567V358.4H240.967V354.2ZM239.567 358.4H236.767V357H239.567V358.4ZM236.767 362.6H235.367V358.4H236.767V362.6ZM243.762 354.2H245.162V355.6H243.762V354.2ZM243.762 357H245.162V364H243.762V357ZM252.164 357V358.4H247.964V364H246.564V357H252.164ZM252.164 358.4H253.564V364H252.164V358.4ZM261.959 357V364H260.559V362.6H256.359V361.2H260.559V358.4H256.359V357H261.959ZM256.359 358.4V361.2H254.959V358.4H256.359ZM260.559 364V365.4H254.959V364H260.559Z"/><path fill="#fff" d="M92.6 111.2V112.6H88.4V111.2H92.6ZM87 112.6H88.4V119.6H87V112.6ZM94 114H92.6V112.6H94V114ZM94 118.2V119.6H92.6V118.2H94ZM88.4 121V119.6H92.6V121H88.4ZM96.7945 115.4V114H100.995V115.4H96.7945ZM96.7945 119.6H95.3945V115.4H96.7945V119.6ZM100.995 115.4H102.395V119.6H100.995V115.4ZM100.995 119.6V121H96.7945V119.6H100.995ZM106.589 114V115.4H105.189V121H103.789V114H106.589ZM107.989 114H109.389V115.4H107.989V114ZM106.589 115.4H107.989V118.2H106.589V115.4ZM109.389 115.4H110.789V121H109.389V115.4ZM117.784 118.2V119.6H113.584V122.4H112.184V114H113.584V115.4H114.984V116.8H113.584V118.2H117.784ZM117.784 115.4H114.984V114H117.784V115.4ZM117.784 115.4H119.184V118.2H117.784V115.4ZM121.978 119.6H120.578V114H121.978V119.6ZM126.178 114H127.578V121H121.978V119.6H126.178V114ZM131.773 119.6H130.373V115.4H128.973V114H130.373V111.2H131.773V114H133.173V115.4H131.773V119.6ZM133.173 121H131.773V119.6H133.173V121ZM135.978 115.4V114H140.178V115.4H135.978ZM140.178 115.4H141.578V118.2H135.978V119.6H134.578V115.4H135.978V116.8H140.178V115.4ZM135.978 121V119.6H141.578V121H135.978ZM144.373 114V115.4H145.773V116.8H144.373V121H142.973V114H144.373ZM148.573 114V115.4H145.773V114H148.573ZM148.573 115.4H149.973V116.8H148.573V115.4ZM163.973 119.6V121H156.973V119.6H159.773V114H158.373V112.6H159.773V111.2H161.173V119.6H163.973ZM166.767 112.6V111.2H170.967V112.6H166.767ZM168.167 118.2H166.767V119.6H165.367V112.6H166.767V116.8H168.167V118.2ZM170.967 112.6H172.367V119.6H170.967V115.4H169.567V114H170.967V112.6ZM168.167 116.8V115.4H169.567V116.8H168.167ZM170.967 119.6V121H166.767V119.6H170.967ZM180.762 119.6V121H173.762V119.6H176.562V114H175.162V112.6H176.562V111.2H177.962V119.6H180.762Z"/><path fill="#fff" d="M92.6 246.2V247.6H88.4V246.2H92.6ZM87 247.6H88.4V254.6H87V247.6ZM94 249H92.6V247.6H94V249ZM94 253.2V254.6H92.6V253.2H94ZM88.4 256V254.6H92.6V256H88.4ZM96.7945 250.4V249H100.995V250.4H96.7945ZM96.7945 254.6H95.3945V250.4H96.7945V254.6ZM100.995 250.4H102.395V254.6H100.995V250.4ZM100.995 254.6V256H96.7945V254.6H100.995ZM106.589 249V250.4H105.189V256H103.789V249H106.589ZM107.989 249H109.389V250.4H107.989V249ZM106.589 250.4H107.989V253.2H106.589V250.4ZM109.389 250.4H110.789V256H109.389V250.4ZM117.784 253.2V254.6H113.584V257.4H112.184V249H113.584V250.4H114.984V251.8H113.584V253.2H117.784ZM117.784 250.4H114.984V249H117.784V250.4ZM117.784 250.4H119.184V253.2H117.784V250.4ZM121.978 254.6H120.578V249H121.978V254.6ZM126.178 249H127.578V256H121.978V254.6H126.178V249ZM131.773 254.6H130.373V250.4H128.973V249H130.373V246.2H131.773V249H133.173V250.4H131.773V254.6ZM133.173 256H131.773V254.6H133.173V256ZM135.978 250.4V249H140.178V250.4H135.978ZM140.178 250.4H141.578V253.2H135.978V254.6H134.578V250.4H135.978V251.8H140.178V250.4ZM135.978 256V254.6H141.578V256H135.978ZM144.373 249V250.4H145.773V251.8H144.373V256H142.973V249H144.373ZM148.573 249V250.4H145.773V249H148.573ZM148.573 250.4H149.973V251.8H148.573V250.4ZM163.973 254.6V256H156.973V254.6H159.773V249H158.373V247.6H159.773V246.2H161.173V254.6H163.973ZM166.767 247.6V246.2H170.967V247.6H166.767ZM168.167 253.2H166.767V254.6H165.367V247.6H166.767V251.8H168.167V253.2ZM170.967 247.6H172.367V254.6H170.967V250.4H169.567V249H170.967V247.6ZM168.167 251.8V250.4H169.567V251.8H168.167ZM170.967 254.6V256H166.767V254.6H170.967ZM180.762 254.6V256H173.762V254.6H176.562V249H175.162V247.6H176.562V246.2H177.962V254.6H180.762Z"/><path fill="#fff" d="M92.6 381.2V382.6H88.4V381.2H92.6ZM87 382.6H88.4V389.6H87V382.6ZM94 384H92.6V382.6H94V384ZM94 388.2V389.6H92.6V388.2H94ZM88.4 391V389.6H92.6V391H88.4ZM96.7945 385.4V384H100.995V385.4H96.7945ZM96.7945 389.6H95.3945V385.4H96.7945V389.6ZM100.995 385.4H102.395V389.6H100.995V385.4ZM100.995 389.6V391H96.7945V389.6H100.995ZM106.589 384V385.4H105.189V391H103.789V384H106.589ZM107.989 384H109.389V385.4H107.989V384ZM106.589 385.4H107.989V388.2H106.589V385.4ZM109.389 385.4H110.789V391H109.389V385.4ZM117.784 388.2V389.6H113.584V392.4H112.184V384H113.584V385.4H114.984V386.8H113.584V388.2H117.784ZM117.784 385.4H114.984V384H117.784V385.4ZM117.784 385.4H119.184V388.2H117.784V385.4ZM121.978 389.6H120.578V384H121.978V389.6ZM126.178 384H127.578V391H121.978V389.6H126.178V384ZM131.773 389.6H130.373V385.4H128.973V384H130.373V381.2H131.773V384H133.173V385.4H131.773V389.6ZM133.173 391H131.773V389.6H133.173V391ZM135.978 385.4V384H140.178V385.4H135.978ZM140.178 385.4H141.578V388.2H135.978V389.6H134.578V385.4H135.978V386.8H140.178V385.4ZM135.978 391V389.6H141.578V391H135.978ZM144.373 384V385.4H145.773V386.8H144.373V391H142.973V384H144.373ZM148.573 384V385.4H145.773V384H148.573ZM148.573 385.4H149.973V386.8H148.573V385.4ZM163.973 389.6V391H156.973V389.6H159.773V384H158.373V382.6H159.773V381.2H161.173V389.6H163.973ZM166.767 382.6V381.2H170.967V382.6H166.767ZM168.167 388.2H166.767V389.6H165.367V382.6H166.767V386.8H168.167V388.2ZM170.967 382.6H172.367V389.6H170.967V385.4H169.567V384H170.967V382.6ZM168.167 386.8V385.4H169.567V386.8H168.167ZM170.967 389.6V391H166.767V389.6H170.967ZM180.762 389.6V391H173.762V389.6H176.562V384H175.162V382.6H176.562V381.2H177.962V389.6H180.762Z"/><path fill="#fff" d="M15.9941 6H16.9941V10H15.9941V11H14.9941V12H11.9941V11H13.9941V10H14.9941V9H11.9941V8H10.9941V6H11.9941V5H15.9941V6ZM14.9941 8V6H12.9941V8H14.9941ZM19.9961 6V8H17.9961V6H19.9961ZM17.9961 10H19.9961V12H17.9961V10ZM25.9941 6H26.9941V11H25.9941V12H21.9941V11H20.9941V6H21.9941V5H25.9941V6ZM22.9941 6V8H23.9941V7H24.9941V6H22.9941ZM24.9941 11V9H23.9941V10H22.9941V11H24.9941ZM32.9961 6H33.9961V11H32.9961V12H28.9961V11H27.9961V6H28.9961V5H32.9961V6ZM29.9961 6V8H30.9961V7H31.9961V6H29.9961ZM31.9961 11V9H30.9961V10H29.9961V11H31.9961ZM44.002 6H45.002V12H43.002V8H41.002V12H39.002V6H40.002V5H44.002V6ZM43.002 7V6H41.002V7H43.002ZM52.0039 5V12H50.0039V8H48.0039V12H46.0039V5H48.0039V6H50.0039V5H52.0039Z"/><path fill="#fff" d="M15.9941 141H16.9941V145H15.9941V146H14.9941V147H11.9941V146H13.9941V145H14.9941V144H11.9941V143H10.9941V141H11.9941V140H15.9941V141ZM14.9941 143V141H12.9941V143H14.9941ZM19.9961 141V143H17.9961V141H19.9961ZM17.9961 145H19.9961V147H17.9961V145ZM25.9941 141H26.9941V146H25.9941V147H21.9941V146H20.9941V141H21.9941V140H25.9941V141ZM22.9941 141V143H23.9941V142H24.9941V141H22.9941ZM24.9941 146V144H23.9941V145H22.9941V146H24.9941ZM32.9961 141H33.9961V146H32.9961V147H28.9961V146H27.9961V141H28.9961V140H32.9961V141ZM29.9961 141V143H30.9961V142H31.9961V141H29.9961ZM31.9961 146V144H30.9961V145H29.9961V146H31.9961ZM44.002 141H45.002V147H43.002V143H41.002V147H39.002V141H40.002V140H44.002V141ZM43.002 142V141H41.002V142H43.002ZM52.0039 140V147H50.0039V143H48.0039V147H46.0039V140H48.0039V141H50.0039V140H52.0039Z"/><path fill="#fff" d="M15.9941 276H16.9941V280H15.9941V281H14.9941V282H11.9941V281H13.9941V280H14.9941V279H11.9941V278H10.9941V276H11.9941V275H15.9941V276ZM14.9941 278V276H12.9941V278H14.9941ZM19.9961 276V278H17.9961V276H19.9961ZM17.9961 280H19.9961V282H17.9961V280ZM25.9941 276H26.9941V281H25.9941V282H21.9941V281H20.9941V276H21.9941V275H25.9941V276ZM22.9941 276V278H23.9941V277H24.9941V276H22.9941ZM24.9941 281V279H23.9941V280H22.9941V281H24.9941ZM32.9961 276H33.9961V281H32.9961V282H28.9961V281H27.9961V276H28.9961V275H32.9961V276ZM29.9961 276V278H30.9961V277H31.9961V276H29.9961ZM31.9961 281V279H30.9961V280H29.9961V281H31.9961ZM44.002 276H45.002V282H43.002V278H41.002V282H39.002V276H40.002V275H44.002V276ZM43.002 277V276H41.002V277H43.002ZM52.0039 275V282H50.0039V278H48.0039V282H46.0039V275H48.0039V276H50.0039V275H52.0039Z"/><path fill="#fff" d="M17.4932 38V39H11.4932V38H13.4932V34H12.4932V33H13.4932V32H15.4932V38H17.4932ZM23.4951 33H24.4951V38H23.4951V39H19.4951V38H18.4951V33H19.4951V32H23.4951V33ZM20.4951 33V35H21.4951V34H22.4951V33H20.4951ZM22.4951 38V36H21.4951V37H20.4951V38H22.4951ZM27.4971 33V35H25.4971V33H27.4971ZM25.4971 37H27.4971V39H25.4971V37ZM33.4951 33H34.4951V38H33.4951V39H29.4951V38H28.4951V33H29.4951V32H33.4951V33ZM30.4951 33V35H31.4951V34H32.4951V33H30.4951ZM32.4951 38V36H31.4951V37H30.4951V38H32.4951ZM40.4971 33H41.4971V38H40.4971V39H36.4971V38H35.4971V33H36.4971V32H40.4971V33ZM37.4971 33V35H38.4971V34H39.4971V33H37.4971ZM39.4971 38V36H38.4971V37H37.4971V38H39.4971ZM51.5029 33H52.5029V39H50.5029V35H48.5029V39H46.5029V33H47.5029V32H51.5029V33ZM50.5029 34V33H48.5029V34H50.5029ZM59.5049 32V39H57.5049V35H55.5049V39H53.5049V32H55.5049V33H57.5049V32H59.5049Z"/><path fill="#fff" d="M17.4932 173V174H11.4932V173H13.4932V169H12.4932V168H13.4932V167H15.4932V173H17.4932ZM23.4951 168H24.4951V173H23.4951V174H19.4951V173H18.4951V168H19.4951V167H23.4951V168ZM20.4951 168V170H21.4951V169H22.4951V168H20.4951ZM22.4951 173V171H21.4951V172H20.4951V173H22.4951ZM27.4971 168V170H25.4971V168H27.4971ZM25.4971 172H27.4971V174H25.4971V172ZM33.4951 168H34.4951V173H33.4951V174H29.4951V173H28.4951V168H29.4951V167H33.4951V168ZM30.4951 168V170H31.4951V169H32.4951V168H30.4951ZM32.4951 173V171H31.4951V172H30.4951V173H32.4951ZM40.4971 168H41.4971V173H40.4971V174H36.4971V173H35.4971V168H36.4971V167H40.4971V168ZM37.4971 168V170H38.4971V169H39.4971V168H37.4971ZM39.4971 173V171H38.4971V172H37.4971V173H39.4971ZM51.5029 168H52.5029V174H50.5029V170H48.5029V174H46.5029V168H47.5029V167H51.5029V168ZM50.5029 169V168H48.5029V169H50.5029ZM59.5049 167V174H57.5049V170H55.5049V174H53.5049V167H55.5049V168H57.5049V167H59.5049Z"/><path fill="#fff" d="M17.4932 308V309H11.4932V308H13.4932V304H12.4932V303H13.4932V302H15.4932V308H17.4932ZM23.4951 303H24.4951V308H23.4951V309H19.4951V308H18.4951V303H19.4951V302H23.4951V303ZM20.4951 303V305H21.4951V304H22.4951V303H20.4951ZM22.4951 308V306H21.4951V307H20.4951V308H22.4951ZM27.4971 303V305H25.4971V303H27.4971ZM25.4971 307H27.4971V309H25.4971V307ZM33.4951 303H34.4951V308H33.4951V309H29.4951V308H28.4951V303H29.4951V302H33.4951V303ZM30.4951 303V305H31.4951V304H32.4951V303H30.4951ZM32.4951 308V306H31.4951V307H30.4951V308H32.4951ZM40.4971 303H41.4971V308H40.4971V309H36.4971V308H35.4971V303H36.4971V302H40.4971V303ZM37.4971 303V305H38.4971V304H39.4971V303H37.4971ZM39.4971 308V306H38.4971V307H37.4971V308H39.4971ZM51.5029 303H52.5029V309H50.5029V305H48.5029V309H46.5029V303H47.5029V302H51.5029V303ZM50.5029 304V303H48.5029V304H50.5029ZM59.5049 302V309H57.5049V305H55.5049V309H53.5049V302H55.5049V303H57.5049V302H59.5049Z"/><path fill="#fff" d="M15.9932 65V66H9.99316V65H11.9932V61H10.9932V60H11.9932V59H13.9932V65H15.9932ZM22.9951 65V66H16.9951V65H18.9951V61H17.9951V60H18.9951V59H20.9951V65H22.9951ZM25.9971 60V62H23.9971V60H25.9971ZM23.9971 64H25.9971V66H23.9971V64ZM31.9951 60H32.9951V65H31.9951V66H27.9951V65H26.9951V60H27.9951V59H31.9951V60ZM28.9951 60V62H29.9951V61H30.9951V60H28.9951ZM30.9951 65V63H29.9951V64H28.9951V65H30.9951ZM38.9971 60H39.9971V65H38.9971V66H34.9971V65H33.9971V60H34.9971V59H38.9971V60ZM35.9971 60V62H36.9971V61H37.9971V60H35.9971ZM37.9971 65V63H36.9971V64H35.9971V65H37.9971ZM50.0029 60H51.0029V66H49.0029V62H47.0029V66H45.0029V60H46.0029V59H50.0029V60ZM49.0029 61V60H47.0029V61H49.0029ZM58.0049 59V66H56.0049V62H54.0049V66H52.0049V59H54.0049V60H56.0049V59H58.0049Z"/><path fill="#fff" d="M15.9932 200V201H9.99316V200H11.9932V196H10.9932V195H11.9932V194H13.9932V200H15.9932ZM22.9951 200V201H16.9951V200H18.9951V196H17.9951V195H18.9951V194H20.9951V200H22.9951ZM25.9971 195V197H23.9971V195H25.9971ZM23.9971 199H25.9971V201H23.9971V199ZM31.9951 195H32.9951V200H31.9951V201H27.9951V200H26.9951V195H27.9951V194H31.9951V195ZM28.9951 195V197H29.9951V196H30.9951V195H28.9951ZM30.9951 200V198H29.9951V199H28.9951V200H30.9951ZM38.9971 195H39.9971V200H38.9971V201H34.9971V200H33.9971V195H34.9971V194H38.9971V195ZM35.9971 195V197H36.9971V196H37.9971V195H35.9971ZM37.9971 200V198H36.9971V199H35.9971V200H37.9971ZM50.0029 195H51.0029V201H49.0029V197H47.0029V201H45.0029V195H46.0029V194H50.0029V195ZM49.0029 196V195H47.0029V196H49.0029ZM58.0049 194V201H56.0049V197H54.0049V201H52.0049V194H54.0049V195H56.0049V194H58.0049Z"/><path fill="#fff" d="M15.9932 335V336H9.99316V335H11.9932V331H10.9932V330H11.9932V329H13.9932V335H15.9932ZM22.9951 335V336H16.9951V335H18.9951V331H17.9951V330H18.9951V329H20.9951V335H22.9951ZM25.9971 330V332H23.9971V330H25.9971ZM23.9971 334H25.9971V336H23.9971V334ZM31.9951 330H32.9951V335H31.9951V336H27.9951V335H26.9951V330H27.9951V329H31.9951V330ZM28.9951 330V332H29.9951V331H30.9951V330H28.9951ZM30.9951 335V333H29.9951V334H28.9951V335H30.9951ZM38.9971 330H39.9971V335H38.9971V336H34.9971V335H33.9971V330H34.9971V329H38.9971V330ZM35.9971 330V332H36.9971V331H37.9971V330H35.9971ZM37.9971 335V333H36.9971V334H35.9971V335H37.9971ZM50.0029 330H51.0029V336H49.0029V332H47.0029V336H45.0029V330H46.0029V329H50.0029V330ZM49.0029 331V330H47.0029V331H49.0029ZM58.0049 329V336H56.0049V332H54.0049V336H52.0049V329H54.0049V330H56.0049V329H58.0049Z"/><path fill="#fff" d="M15.9932 92V93H9.99316V92H11.9932V88H10.9932V87H11.9932V86H13.9932V92H15.9932ZM21.9951 87H22.9951V89H21.9951V90H19.9951V91H18.9951V92H20.9951V91H22.9951V93H16.9951V91H17.9951V90H18.9951V89H20.9951V87H18.9951V88H16.9951V87H17.9951V86H21.9951V87ZM25.9971 87V89H23.9971V87H25.9971ZM23.9971 91H25.9971V93H23.9971V91ZM31.9951 87H32.9951V92H31.9951V93H27.9951V92H26.9951V87H27.9951V86H31.9951V87ZM28.9951 87V89H29.9951V88H30.9951V87H28.9951ZM30.9951 92V90H29.9951V91H28.9951V92H30.9951ZM38.9971 87H39.9971V92H38.9971V93H34.9971V92H33.9971V87H34.9971V86H38.9971V87ZM35.9971 87V89H36.9971V88H37.9971V87H35.9971ZM37.9971 92V90H36.9971V91H35.9971V92H37.9971ZM50.0029 87H51.0029V88H50.0029V89H47.0029V93H45.0029V86H50.0029V87ZM49.0029 88V87H47.0029V88H49.0029ZM58.0049 86V93H56.0049V89H54.0049V93H52.0049V86H54.0049V87H56.0049V86H58.0049Z"/><path fill="#fff" d="M15.9932 227V228H9.99316V227H11.9932V223H10.9932V222H11.9932V221H13.9932V227H15.9932ZM21.9951 222H22.9951V224H21.9951V225H19.9951V226H18.9951V227H20.9951V226H22.9951V228H16.9951V226H17.9951V225H18.9951V224H20.9951V222H18.9951V223H16.9951V222H17.9951V221H21.9951V222ZM25.9971 222V224H23.9971V222H25.9971ZM23.9971 226H25.9971V228H23.9971V226ZM31.9951 222H32.9951V227H31.9951V228H27.9951V227H26.9951V222H27.9951V221H31.9951V222ZM28.9951 222V224H29.9951V223H30.9951V222H28.9951ZM30.9951 227V225H29.9951V226H28.9951V227H30.9951ZM38.9971 222H39.9971V227H38.9971V228H34.9971V227H33.9971V222H34.9971V221H38.9971V222ZM35.9971 222V224H36.9971V223H37.9971V222H35.9971ZM37.9971 227V225H36.9971V226H35.9971V227H37.9971ZM50.0029 222H51.0029V223H50.0029V224H47.0029V228H45.0029V221H50.0029V222ZM49.0029 223V222H47.0029V223H49.0029ZM58.0049 221V228H56.0049V224H54.0049V228H52.0049V221H54.0049V222H56.0049V221H58.0049Z"/><path fill="#fff" d="M15.9932 362V363H9.99316V362H11.9932V358H10.9932V357H11.9932V356H13.9932V362H15.9932ZM21.9951 357H22.9951V359H21.9951V360H19.9951V361H18.9951V362H20.9951V361H22.9951V363H16.9951V361H17.9951V360H18.9951V359H20.9951V357H18.9951V358H16.9951V357H17.9951V356H21.9951V357ZM25.9971 357V359H23.9971V357H25.9971ZM23.9971 361H25.9971V363H23.9971V361ZM31.9951 357H32.9951V362H31.9951V363H27.9951V362H26.9951V357H27.9951V356H31.9951V357ZM28.9951 357V359H29.9951V358H30.9951V357H28.9951ZM30.9951 362V360H29.9951V361H28.9951V362H30.9951ZM38.9971 357H39.9971V362H38.9971V363H34.9971V362H33.9971V357H34.9971V356H38.9971V357ZM35.9971 357V359H36.9971V358H37.9971V357H35.9971ZM37.9971 362V360H36.9971V361H35.9971V362H37.9971ZM50.0029 357H51.0029V358H50.0029V359H47.0029V363H45.0029V356H50.0029V357ZM49.0029 358V357H47.0029V358H49.0029ZM58.0049 356V363H56.0049V359H54.0049V363H52.0049V356H54.0049V357H56.0049V356H58.0049Z"/><path fill="#fff" d="M14.9941 119V120H8.99414V119H10.9941V115H9.99414V114H10.9941V113H12.9941V119H14.9941ZM17.9961 114V116H15.9961V114H17.9961ZM15.9961 118H17.9961V120H15.9961V118ZM23.9941 114H24.9941V119H23.9941V120H19.9941V119H18.9941V114H19.9941V113H23.9941V114ZM20.9941 114V116H21.9941V115H22.9941V114H20.9941ZM22.9941 119V117H21.9941V118H20.9941V119H22.9941ZM30.9961 114H31.9961V119H30.9961V120H26.9961V119H25.9961V114H26.9961V113H30.9961V114ZM27.9961 114V116H28.9961V115H29.9961V114H27.9961ZM29.9961 119V117H28.9961V118H27.9961V119H29.9961ZM42.002 114H43.002V115H42.002V116H39.002V120H37.002V113H42.002V114ZM41.002 115V114H39.002V115H41.002ZM50.0039 113V120H48.0039V116H46.0039V120H44.0039V113H46.0039V114H48.0039V113H50.0039Z"/><path fill="#fff" d="M14.9941 254V255H8.99414V254H10.9941V250H9.99414V249H10.9941V248H12.9941V254H14.9941ZM17.9961 249V251H15.9961V249H17.9961ZM15.9961 253H17.9961V255H15.9961V253ZM23.9941 249H24.9941V254H23.9941V255H19.9941V254H18.9941V249H19.9941V248H23.9941V249ZM20.9941 249V251H21.9941V250H22.9941V249H20.9941ZM22.9941 254V252H21.9941V253H20.9941V254H22.9941ZM30.9961 249H31.9961V254H30.9961V255H26.9961V254H25.9961V249H26.9961V248H30.9961V249ZM27.9961 249V251H28.9961V250H29.9961V249H27.9961ZM29.9961 254V252H28.9961V253H27.9961V254H29.9961ZM42.002 249H43.002V250H42.002V251H39.002V255H37.002V248H42.002V249ZM41.002 250V249H39.002V250H41.002ZM50.0039 248V255H48.0039V251H46.0039V255H44.0039V248H46.0039V249H48.0039V248H50.0039Z"/><path fill="#fff" d="M14.9941 389V390H8.99414V389H10.9941V385H9.99414V384H10.9941V383H12.9941V389H14.9941ZM17.9961 384V386H15.9961V384H17.9961ZM15.9961 388H17.9961V390H15.9961V388ZM23.9941 384H24.9941V389H23.9941V390H19.9941V389H18.9941V384H19.9941V383H23.9941V384ZM20.9941 384V386H21.9941V385H22.9941V384H20.9941ZM22.9941 389V387H21.9941V388H20.9941V389H22.9941ZM30.9961 384H31.9961V389H30.9961V390H26.9961V389H25.9961V384H26.9961V383H30.9961V384ZM27.9961 384V386H28.9961V385H29.9961V384H27.9961ZM29.9961 389V387H28.9961V388H27.9961V389H29.9961ZM42.002 384H43.002V385H42.002V386H39.002V390H37.002V383H42.002V384ZM41.002 385V384H39.002V385H41.002ZM50.0039 383V390H48.0039V386H46.0039V390H44.0039V383H46.0039V384H48.0039V383H50.0039Z"/><path stroke="#fff" stroke-linecap="round" stroke-width="3" d="M72.4331 2L72.4331 391"/></svg>