<svg width="277" height="930" viewBox="0 0 277 930" fill="none" xmlns="http://www.w3.org/2000/svg">
<path d="M90.5835 21.11V23H81.0435V21.11H79.1535V17.21H83.0835V20.96H88.5435V13.61H81.0435V11.75H79.1535V4.07H81.0435V2.21H90.5835V4.07H92.4435V8H88.5435V4.25H83.0835V11.57H90.5835V13.46H92.4435V21.11H90.5835ZM105.448 23V21.11H103.738V23H97.9478V21.11H96.0578V15.32H97.9478V13.46H103.558V8H99.9878V11.75H96.0578V7.82H97.9478V5.96H105.598V7.82H107.488V23H105.448ZM103.558 15.5H99.9878V20.96H103.558V15.5ZM118.827 21.11V23H113.037V21.11H111.147V8H109.287V5.96H111.147V2.21H115.077V5.96H118.827V8H115.077V20.96H116.787V17.21H120.687V21.11H118.827ZM133.69 23V21.11H130.09V23H126.19V21.11H124.3V5.96H128.23V20.96H129.94V19.07H131.8V5.96H135.73V23H133.69ZM146.829 11.75V8H145.119V9.86H143.259V23H139.329V5.96H141.369V7.82H144.969V5.96H148.869V7.82H150.759V11.75H146.829ZM163.749 23V21.11H160.149V23H156.249V21.11H154.359V7.82H156.249V5.96H160.149V7.82H161.859V0.319999H165.789V23H163.749ZM161.859 9.86H159.999V8H158.289V20.96H159.999V19.07H161.859V9.86ZM178.778 23V21.11H177.068V23H171.278V21.11H169.388V15.32H171.278V13.46H176.888V8H173.318V11.75H169.388V7.82H171.278V5.96H178.928V7.82H180.818V23H178.778ZM176.888 15.5H173.318V20.96H176.888V15.5ZM192.097 26.75V28.61H186.307V26.75H184.417V24.71H188.347V26.57H191.917V21.11H190.207V23H186.307V21.11H184.417V5.96H188.347V20.96H190.057V19.07H191.917V5.96H195.847V26.75H192.097Z" fill="white"/>
<path d="M104.705 716.61V718.5H95.1646V716.61H93.2746V712.71H97.2046V716.46H102.665V709.11H95.1646V707.25H93.2746V699.57H95.1646V697.71H104.705V699.57H106.565V703.5H102.665V699.75H97.2046V707.07H104.705V708.96H106.565V716.61H104.705ZM119.569 718.5V716.61H115.969V718.5H112.069V716.61H110.179V701.46H114.109V716.46H115.819V714.57H117.679V701.46H121.609V718.5H119.569ZM132.708 718.5V703.5H130.998V705.36H129.138V718.5H125.208V701.46H127.248V703.32H130.848V701.46H134.748V703.32H136.638V718.5H132.708ZM149.628 718.5V716.61H146.028V718.5H142.128V716.61H140.238V703.32H142.128V701.46H146.028V703.32H147.738V695.82H151.668V718.5H149.628ZM147.738 705.36H145.878V703.5H144.168V716.46H145.878V714.57H147.738V705.36ZM164.657 718.5V716.61H162.947V718.5H157.157V716.61H155.267V710.82H157.157V708.96H162.767V703.5H159.197V707.25H155.267V703.32H157.157V701.46H164.807V703.32H166.697V718.5H164.657ZM162.767 711H159.197V716.46H162.767V711ZM177.976 722.25V724.11H172.186V722.25H170.296V720.21H174.226V722.07H177.796V716.61H176.086V718.5H172.186V716.61H170.296V701.46H174.226V716.46H175.936V714.57H177.796V701.46H181.726V722.25H177.976Z" fill="white"/>
<path d="M67 647.5L67 53" stroke="white" stroke-width="2.97535" stroke-linecap="round"/>
<path d="M86.8474 59.8592V58.669H90.4179V59.8592H86.8474ZM85.6573 59.8592H86.8474V65.8099H85.6573V59.8592ZM86.8474 65.8099H90.4179V67H86.8474V65.8099ZM90.4179 64.6197H91.608V65.8099H90.4179V64.6197ZM90.4179 59.8592H91.608V61.0493H90.4179V59.8592ZM99.9413 67H98.7512V63.4296H95.1807V67H93.9906V58.669H95.1807V62.2394H98.7512V58.669H99.9413V67ZM108.275 59.8592H103.514V62.2394H105.894V63.4296H103.514V65.8099H108.275V67H102.324V58.669H108.275V59.8592ZM111.847 59.8592V58.669H115.418V59.8592H111.847ZM110.657 59.8592H111.847V65.8099H110.657V59.8592ZM111.847 65.8099H115.418V67H111.847V65.8099ZM115.418 64.6197H116.608V65.8099H115.418V64.6197ZM115.418 59.8592H116.608V61.0493H115.418V59.8592ZM121.371 63.4296H120.181V67H118.991V58.669H120.181V62.2394H121.371V63.4296ZM121.371 63.4296H122.561V64.6197H121.371V63.4296ZM121.371 61.0493H122.561V62.2394H121.371V61.0493ZM122.561 64.6197H123.751V65.8099H122.561V64.6197ZM122.561 59.8592H123.751V61.0493H122.561V59.8592ZM123.751 65.8099H124.941V67H123.751V65.8099ZM123.751 58.669H124.941V59.8592H123.751V58.669ZM128.514 64.6197V63.4296H132.084V64.6197H128.514ZM138.037 59.8592H136.847V58.669H140.418V59.8592H139.228V65.8099H140.418V67H136.847V65.8099H138.037V59.8592ZM145.181 61.0493H146.371V62.2394H145.181V67H143.99V58.669H145.181V61.0493ZM146.371 62.2394H147.561V63.4296H146.371V62.2394ZM147.561 63.4296H148.751V58.669H149.941V67H148.751V64.6197H147.561V63.4296Z" fill="white"/>
<path d="M85.6901 85.669H91.6408V86.8592H89.2606V94H88.0704V86.8592H85.6901V85.669ZM99.9741 86.8592H95.2136V89.2394H97.5939V90.4296H95.2136V92.8099H99.9741V94H94.0234V85.669H99.9741V86.8592ZM107.117 86.8592H103.547V85.669H107.117V86.8592ZM102.357 86.8592H103.547V90.4296H107.117V86.8592H108.307V94H107.117V91.6197H103.547V94H102.357V86.8592ZM111.88 86.8592H113.07V88.0493H111.88V94H110.69V85.669H111.88V86.8592ZM113.07 88.0493H114.26V89.2394H113.07V88.0493ZM114.26 86.8592H115.451V85.669H116.641V94H115.451V88.0493H114.26V86.8592ZM133.307 86.8592H128.547V89.2394H130.927V90.4296H128.547V94H127.357V85.669H133.307V86.8592ZM140.45 85.669V86.8592H136.88V85.669H140.45ZM135.69 86.8592H136.88V92.8099H135.69V86.8592ZM136.88 92.8099H140.45V94H136.88V92.8099ZM140.45 86.8592H141.641V92.8099H140.45V86.8592ZM147.594 90.4296V91.6197H146.404V90.4296H145.213V94H144.023V85.669H148.784V86.8592H145.213V89.2394H148.784V90.4296H147.594ZM147.594 91.6197H148.784V92.8099H147.594V91.6197ZM148.784 92.8099H149.974V94H148.784V92.8099ZM148.784 86.8592H149.974V89.2394H148.784V86.8592ZM153.547 86.8592H154.737V88.0493H153.547V94H152.357V85.669H153.547V86.8592ZM154.737 88.0493H155.927V89.2394H154.737V88.0493ZM155.927 86.8592H157.117V85.669H158.307V94H157.117V88.0493H155.927V86.8592ZM165.45 86.8592H161.88V85.669H165.45V86.8592ZM160.69 86.8592H161.88V90.4296H165.45V86.8592H166.641V94H165.45V91.6197H161.88V94H160.69V86.8592ZM169.023 85.669H174.974V86.8592H172.594V94H171.403V86.8592H169.023V85.669ZM179.737 86.8592H178.547V85.669H182.117V86.8592H180.927V92.8099H182.117V94H178.547V92.8099H179.737V86.8592ZM190.45 85.669V86.8592H186.88V85.669H190.45ZM185.69 86.8592H186.88V92.8099H185.69V86.8592ZM186.88 92.8099H190.45V94H186.88V92.8099ZM190.45 86.8592H191.64V92.8099H190.45V86.8592ZM195.213 88.0493H196.403V89.2394H195.213V94H194.023V85.669H195.213V88.0493ZM196.403 89.2394H197.593V90.4296H196.403V89.2394ZM197.593 90.4296H198.784V85.669H199.974V94H198.784V91.6197H197.593V90.4296ZM203.546 86.8592V85.669H207.117V86.8592H203.546ZM202.356 91.6197H203.546V92.8099H202.356V91.6197ZM202.356 86.8592H203.546V89.2394H202.356V86.8592ZM203.546 92.8099H207.117V94H203.546V92.8099ZM203.546 89.2394H207.117V90.4296H203.546V89.2394ZM207.117 90.4296H208.307V92.8099H207.117V90.4296ZM207.117 86.8592H208.307V88.0493H207.117V86.8592Z" fill="white"/>
<path d="M88.0704 113.859H86.8803V112.669H90.4507V113.859H89.2606V119.81H90.4507V121H86.8803V119.81H88.0704V113.859ZM95.2136 115.049H96.4037V116.239H95.2136V121H94.0234V112.669H95.2136V115.049ZM96.4037 116.239H97.5939V117.43H96.4037V116.239ZM97.5939 117.43H98.784V112.669H99.9741V121H98.784V118.62H97.5939V117.43ZM102.357 112.669H108.307V113.859H105.927V121H104.737V113.859H102.357V112.669ZM114.26 117.43V118.62H113.07V117.43H111.88V121H110.69V112.669H115.451V113.859H111.88V116.239H115.451V117.43H114.26ZM114.26 118.62H115.451V119.81H114.26V118.62ZM115.451 119.81H116.641V121H115.451V119.81ZM115.451 113.859H116.641V116.239H115.451V113.859ZM123.784 112.669V113.859H120.213V112.669H123.784ZM119.023 113.859H120.213V119.81H119.023V113.859ZM120.213 119.81H123.784V121H120.213V119.81ZM123.784 113.859H124.974V119.81H123.784V113.859ZM135.69 112.669H141.641V113.859H139.26V121H138.07V113.859H135.69V112.669ZM148.784 112.669V113.859H145.213V112.669H148.784ZM144.023 113.859H145.213V119.81H144.023V113.859ZM145.213 119.81H148.784V121H145.213V119.81ZM148.784 113.859H149.974V119.81H148.784V113.859ZM166.641 113.859H161.88V116.239H164.26V117.43H161.88V121H160.69V112.669H166.641V113.859ZM169.023 112.669H170.213V119.81H169.023V112.669ZM170.213 119.81H173.784V121H170.213V119.81ZM173.784 112.669H174.974V119.81H173.784V112.669ZM177.356 121V112.669H178.547V119.81H183.307V121H177.356ZM185.69 121V112.669H186.88V119.81H191.64V121H185.69ZM203.546 113.859V112.669H207.117V113.859H203.546ZM202.356 118.62H203.546V119.81H202.356V118.62ZM202.356 113.859H203.546V116.239H202.356V113.859ZM203.546 119.81H207.117V121H203.546V119.81ZM203.546 116.239H207.117V117.43H203.546V116.239ZM207.117 117.43H208.307V119.81H207.117V117.43ZM207.117 113.859H208.307V115.049H207.117V113.859ZM210.69 112.669H216.64V113.859H214.26V121H213.07V113.859H210.69V112.669ZM223.784 113.859H220.213V112.669H223.784V113.859ZM219.023 113.859H220.213V117.43H223.784V113.859H224.974V121H223.784V118.62H220.213V121H219.023V113.859ZM228.546 113.859V112.669H232.117V113.859H228.546ZM227.356 113.859H228.546V119.81H227.356V113.859ZM228.546 119.81H232.117V121H228.546V119.81ZM232.117 118.62H233.307V119.81H232.117V118.62ZM232.117 113.859H233.307V115.049H232.117V113.859ZM238.07 117.43H236.88V121H235.69V112.669H236.88V116.239H238.07V117.43ZM238.07 117.43H239.26V118.62H238.07V117.43ZM238.07 115.049H239.26V116.239H238.07V115.049ZM239.26 118.62H240.45V119.81H239.26V118.62ZM239.26 113.859H240.45V115.049H239.26V113.859ZM240.45 119.81H241.64V121H240.45V119.81ZM240.45 112.669H241.64V113.859H240.45V112.669ZM257.117 113.859H253.546V119.81H257.117V121H252.356V112.669H257.117V113.859ZM257.117 113.859H258.307V119.81H257.117V113.859ZM266.64 113.859H261.88V116.239H264.26V117.43H261.88V119.81H266.64V121H260.689V112.669H266.64V113.859ZM269.023 112.669H270.213V116.239H269.023V112.669ZM270.213 116.239H271.403V118.62H270.213V116.239ZM271.403 118.62H272.593V121H271.403V118.62ZM272.593 116.239H273.783V118.62H272.593V116.239ZM273.783 112.669H274.973V116.239H273.783V112.669Z" fill="white"/>
<path d="M91.6408 148H90.4507V144.43H86.8803V148H85.6901V139.669H86.8803V143.239H90.4507V139.669H91.6408V148ZM98.784 140.859H95.2136V139.669H98.784V140.859ZM94.0234 140.859H95.2136V144.43H98.784V140.859H99.9741V148H98.784V145.62H95.2136V148H94.0234V140.859ZM103.547 140.859V139.669H107.117V140.859H103.547ZM102.357 140.859H103.547V146.81H102.357V140.859ZM103.547 146.81H107.117V148H103.547V146.81ZM107.117 145.62H108.307V146.81H107.117V145.62ZM107.117 140.859H108.307V142.049H107.117V140.859ZM113.07 144.43H111.88V148H110.69V139.669H111.88V143.239H113.07V144.43ZM113.07 144.43H114.26V145.62H113.07V144.43ZM113.07 142.049H114.26V143.239H113.07V142.049ZM114.26 145.62H115.451V146.81H114.26V145.62ZM114.26 140.859H115.451V142.049H114.26V140.859ZM115.451 146.81H116.641V148H115.451V146.81ZM115.451 139.669H116.641V140.859H115.451V139.669ZM123.784 140.859H120.213V139.669H123.784V140.859ZM119.023 140.859H120.213V144.43H123.784V140.859H124.974V148H123.784V145.62H120.213V148H119.023V140.859ZM127.357 139.669H133.307V140.859H130.927V148H129.737V140.859H127.357V139.669ZM141.641 148H140.45V144.43H136.88V148H135.69V139.669H136.88V143.239H140.45V139.669H141.641V148ZM148.784 139.669V140.859H145.213V139.669H148.784ZM144.023 140.859H145.213V146.81H144.023V140.859ZM145.213 146.81H148.784V148H145.213V146.81ZM148.784 140.859H149.974V146.81H148.784V140.859ZM153.547 142.049H154.737V143.239H153.547V148H152.357V139.669H153.547V142.049ZM154.737 143.239H155.927V144.43H154.737V143.239ZM155.927 144.43H157.117V139.669H158.307V148H157.117V145.62H155.927V144.43ZM172.594 148H171.403V142.049H170.213V140.859H171.403V139.669H172.594V148ZM182.117 139.669V140.859H178.547V139.669H182.117ZM177.356 140.859H178.547V146.81H177.356V140.859ZM178.547 146.81H182.117V148H178.547V146.81ZM182.117 140.859H183.307V146.81H182.117V140.859ZM189.26 148H188.07V142.049H186.88V140.859H188.07V139.669H189.26V148Z" fill="white"/>
<path d="M85.6901 166.669H91.6408V167.859H89.2606V175H88.0704V167.859H85.6901V166.669ZM99.9741 167.859H95.2136V170.239H97.5939V171.43H95.2136V173.81H99.9741V175H94.0234V166.669H99.9741V167.859ZM107.117 167.859H103.547V166.669H107.117V167.859ZM102.357 167.859H103.547V171.43H107.117V167.859H108.307V175H107.117V172.62H103.547V175H102.357V167.859ZM111.88 167.859H113.07V169.049H111.88V175H110.69V166.669H111.88V167.859ZM113.07 169.049H114.26V170.239H113.07V169.049ZM114.26 167.859H115.451V166.669H116.641V175H115.451V169.049H114.26V167.859ZM133.307 167.859H128.547V170.239H130.927V171.43H128.547V175H127.357V166.669H133.307V167.859ZM140.45 166.669V167.859H136.88V166.669H140.45ZM135.69 167.859H136.88V173.81H135.69V167.859ZM136.88 173.81H140.45V175H136.88V173.81ZM140.45 167.859H141.641V173.81H140.45V167.859ZM147.594 171.43V172.62H146.404V171.43H145.213V175H144.023V166.669H148.784V167.859H145.213V170.239H148.784V171.43H147.594ZM147.594 172.62H148.784V173.81H147.594V172.62ZM148.784 173.81H149.974V175H148.784V173.81ZM148.784 167.859H149.974V170.239H148.784V167.859ZM153.547 167.859H154.737V169.049H153.547V175H152.357V166.669H153.547V167.859ZM154.737 169.049H155.927V170.239H154.737V169.049ZM155.927 167.859H157.117V166.669H158.307V175H157.117V169.049H155.927V167.859ZM165.45 167.859H161.88V166.669H165.45V167.859ZM160.69 167.859H161.88V171.43H165.45V167.859H166.641V175H165.45V172.62H161.88V175H160.69V167.859ZM169.023 166.669H174.974V167.859H172.594V175H171.403V167.859H169.023V166.669ZM179.737 167.859H178.547V166.669H182.117V167.859H180.927V173.81H182.117V175H178.547V173.81H179.737V167.859ZM190.45 166.669V167.859H186.88V166.669H190.45ZM185.69 167.859H186.88V173.81H185.69V167.859ZM186.88 173.81H190.45V175H186.88V173.81ZM190.45 167.859H191.64V173.81H190.45V167.859ZM195.213 169.049H196.403V170.239H195.213V175H194.023V166.669H195.213V169.049ZM196.403 170.239H197.593V171.43H196.403V170.239ZM197.593 171.43H198.784V166.669H199.974V175H198.784V172.62H197.593V171.43ZM203.546 167.859V166.669H207.117V167.859H203.546ZM202.356 172.62H203.546V173.81H202.356V172.62ZM202.356 167.859H203.546V170.239H202.356V167.859ZM203.546 173.81H207.117V175H203.546V173.81ZM203.546 170.239H207.117V171.43H203.546V170.239ZM207.117 171.43H208.307V173.81H207.117V171.43ZM207.117 167.859H208.307V169.049H207.117V167.859Z" fill="white"/>
<path d="M85.6901 202V193.669H86.8803V200.81H91.6408V202H85.6901ZM94.0234 193.669H95.2136V200.81H94.0234V193.669ZM95.2136 200.81H98.784V202H95.2136V200.81ZM98.784 193.669H99.9741V200.81H98.784V193.669ZM103.547 196.049H104.737V197.239H103.547V202H102.357V193.669H103.547V196.049ZM104.737 197.239H105.927V198.43H104.737V197.239ZM105.927 198.43H107.117V193.669H108.307V202H107.117V199.62H105.927V198.43ZM111.88 194.859V193.669H115.451V194.859H111.88ZM110.69 194.859H111.88V200.81H110.69V194.859ZM111.88 200.81H115.451V202H111.88V200.81ZM115.451 199.62H116.641V200.81H115.451V199.62ZM115.451 194.859H116.641V196.049H115.451V194.859ZM124.974 202H123.784V198.43H120.213V202H119.023V193.669H120.213V197.239H123.784V193.669H124.974V202ZM136.88 198.43V200.81H140.45V202H135.69V193.669H140.45V194.859H136.88V197.239H140.45V198.43H136.88ZM140.45 198.43H141.641V200.81H140.45V198.43ZM140.45 194.859H141.641V197.239H140.45V194.859ZM147.594 198.43V199.62H146.404V198.43H145.213V202H144.023V193.669H148.784V194.859H145.213V197.239H148.784V198.43H147.594ZM147.594 199.62H148.784V200.81H147.594V199.62ZM148.784 200.81H149.974V202H148.784V200.81ZM148.784 194.859H149.974V197.239H148.784V194.859ZM158.307 194.859H153.547V197.239H155.927V198.43H153.547V200.81H158.307V202H152.357V193.669H158.307V194.859ZM165.45 194.859H161.88V193.669H165.45V194.859ZM160.69 194.859H161.88V198.43H165.45V194.859H166.641V202H165.45V199.62H161.88V202H160.69V194.859ZM171.403 198.43H170.213V202H169.023V193.669H170.213V197.239H171.403V198.43ZM171.403 198.43H172.594V199.62H171.403V198.43ZM171.403 196.049H172.594V197.239H171.403V196.049ZM172.594 199.62H173.784V200.81H172.594V199.62ZM172.594 194.859H173.784V196.049H172.594V194.859ZM173.784 200.81H174.974V202H173.784V200.81ZM173.784 193.669H174.974V194.859H173.784V193.669Z" fill="white"/>
<path d="M90.4507 221.859H86.8803V220.669H90.4507V221.859ZM85.6901 221.859H86.8803V225.43H90.4507V221.859H91.6408V229H90.4507V226.62H86.8803V229H85.6901V221.859ZM95.2136 225.43V229H94.0234V220.669H98.784V221.859H95.2136V224.239H98.784V225.43H95.2136ZM98.784 221.859H99.9741V224.239H98.784V221.859ZM104.737 221.859H103.547V220.669H107.117V221.859H105.927V227.81H107.117V229H103.547V227.81H104.737V221.859ZM122.594 229H121.404V223.049H120.213V221.859H121.404V220.669H122.594V229ZM132.117 220.669V221.859H128.547V220.669H132.117ZM127.357 221.859H128.547V227.81H127.357V221.859ZM128.547 227.81H132.117V229H128.547V227.81ZM132.117 221.859H133.307V227.81H132.117V221.859ZM139.26 229H138.07V223.049H136.88V221.859H138.07V220.669H139.26V229Z" fill="white"/>
<path d="M88.0704 248.859H86.8803V247.669H90.4507V248.859H89.2606V254.81H90.4507V256H86.8803V254.81H88.0704V248.859ZM95.2136 250.049H96.4037V251.239H95.2136V256H94.0234V247.669H95.2136V250.049ZM96.4037 251.239H97.5939V252.43H96.4037V251.239ZM97.5939 252.43H98.784V247.669H99.9741V256H98.784V253.62H97.5939V252.43ZM102.357 247.669H108.307V248.859H105.927V256H104.737V248.859H102.357V247.669ZM114.26 252.43V253.62H113.07V252.43H111.88V256H110.69V247.669H115.451V248.859H111.88V251.239H115.451V252.43H114.26ZM114.26 253.62H115.451V254.81H114.26V253.62ZM115.451 254.81H116.641V256H115.451V254.81ZM115.451 248.859H116.641V251.239H115.451V248.859ZM123.784 247.669V248.859H120.213V247.669H123.784ZM119.023 248.859H120.213V254.81H119.023V248.859ZM120.213 254.81H123.784V256H120.213V254.81ZM123.784 248.859H124.974V254.81H123.784V248.859ZM135.69 247.669H141.641V248.859H139.26V256H138.07V248.859H135.69V247.669ZM148.784 247.669V248.859H145.213V247.669H148.784ZM144.023 248.859H145.213V254.81H144.023V248.859ZM145.213 254.81H148.784V256H145.213V254.81ZM148.784 248.859H149.974V254.81H148.784V248.859ZM160.69 247.669H161.88V254.81H160.69V247.669ZM161.88 254.81H163.07V256H161.88V254.81ZM163.07 251.239H164.26V254.81H163.07V251.239ZM164.26 254.81H165.45V256H164.26V254.81ZM165.45 247.669H166.641V254.81H165.45V247.669ZM174.974 248.859H170.213V251.239H172.594V252.43H170.213V254.81H174.974V256H169.023V247.669H174.974V248.859ZM178.547 252.43V254.81H182.117V256H177.356V247.669H182.117V248.859H178.547V251.239H182.117V252.43H178.547ZM182.117 252.43H183.307V254.81H182.117V252.43ZM182.117 248.859H183.307V251.239H182.117V248.859ZM198.784 248.859H195.213V254.81H198.784V256H194.023V247.669H198.784V248.859ZM198.784 248.859H199.974V254.81H198.784V248.859ZM208.307 248.859H203.546V251.239H205.927V252.43H203.546V254.81H208.307V256H202.356V247.669H208.307V248.859ZM210.69 247.669H211.88V251.239H210.69V247.669ZM211.88 251.239H213.07V253.62H211.88V251.239ZM213.07 253.62H214.26V256H213.07V253.62ZM214.26 251.239H215.45V253.62H214.26V251.239ZM215.45 247.669H216.64V251.239H215.45V247.669Z" fill="white"/>
<path d="M91.6408 275.859H86.8803V278.239H89.2606V279.43H86.8803V283H85.6901V274.669H91.6408V275.859ZM96.4037 275.859H95.2136V274.669H98.784V275.859H97.5939V281.81H98.784V283H95.2136V281.81H96.4037V275.859ZM103.547 275.859V274.669H107.117V275.859H103.547ZM102.357 275.859H103.547V281.81H102.357V275.859ZM103.547 281.81H107.117V280.62H105.927V279.43H108.307V283H103.547V281.81ZM107.117 275.859H108.307V277.049H107.117V275.859ZM111.88 275.859H113.07V277.049H111.88V283H110.69V274.669H111.88V275.859ZM113.07 277.049H114.26V278.239H113.07V277.049ZM114.26 275.859H115.451V274.669H116.641V283H115.451V277.049H114.26V275.859ZM123.784 275.859H120.213V274.669H123.784V275.859ZM119.023 275.859H120.213V279.43H123.784V275.859H124.974V283H123.784V280.62H120.213V283H119.023V275.859ZM135.69 274.669H136.88V281.81H135.69V274.669ZM136.88 281.81H138.07V283H136.88V281.81ZM138.07 278.239H139.26V281.81H138.07V278.239ZM139.26 281.81H140.45V283H139.26V281.81ZM140.45 274.669H141.641V281.81H140.45V274.669ZM148.784 274.669V275.859H145.213V274.669H148.784ZM144.023 275.859H145.213V281.81H144.023V275.859ZM145.213 281.81H148.784V283H145.213V281.81ZM148.784 275.859H149.974V281.81H148.784V275.859ZM155.927 279.43V280.62H154.737V279.43H153.547V283H152.357V274.669H157.117V275.859H153.547V278.239H157.117V279.43H155.927ZM155.927 280.62H157.117V281.81H155.927V280.62ZM157.117 281.81H158.307V283H157.117V281.81ZM157.117 275.859H158.307V278.239H157.117V275.859ZM163.07 279.43H161.88V283H160.69V274.669H161.88V278.239H163.07V279.43ZM163.07 279.43H164.26V280.62H163.07V279.43ZM163.07 277.049H164.26V278.239H163.07V277.049ZM164.26 280.62H165.45V281.81H164.26V280.62ZM164.26 275.859H165.45V277.049H164.26V275.859ZM165.45 281.81H166.641V283H165.45V281.81ZM165.45 274.669H166.641V275.859H165.45V274.669ZM170.213 275.859V274.669H173.784V275.859H170.213ZM169.023 280.62H170.213V281.81H169.023V280.62ZM169.023 275.859H170.213V278.239H169.023V275.859ZM170.213 281.81H173.784V283H170.213V281.81ZM170.213 278.239H173.784V279.43H170.213V278.239ZM173.784 279.43H174.974V281.81H173.784V279.43ZM173.784 275.859H174.974V277.049H173.784V275.859ZM183.307 283H182.117V279.43H178.547V283H177.356V274.669H178.547V278.239H182.117V274.669H183.307V283ZM190.45 274.669V275.859H186.88V274.669H190.45ZM185.69 275.859H186.88V281.81H185.69V275.859ZM186.88 281.81H190.45V283H186.88V281.81ZM190.45 275.859H191.64V281.81H190.45V275.859ZM195.213 279.43V283H194.023V274.669H198.784V275.859H195.213V278.239H198.784V279.43H195.213ZM198.784 275.859H199.974V278.239H198.784V275.859Z" fill="white"/>
<path d="M91.6408 302.859H86.8803V305.239H89.2606V306.43H86.8803V308.81H91.6408V310H85.6901V301.669H91.6408V302.859ZM94.0234 301.669H99.9741V302.859H97.5939V310H96.4037V302.859H94.0234V301.669ZM108.307 310H107.117V306.43H103.547V310H102.357V301.669H103.547V305.239H107.117V301.669H108.307V310ZM113.07 302.859H111.88V301.669H115.451V302.859H114.26V308.81H115.451V310H111.88V308.81H113.07V302.859ZM120.213 302.859V301.669H123.784V302.859H120.213ZM119.023 302.859H120.213V308.81H119.023V302.859ZM120.213 308.81H123.784V310H120.213V308.81ZM123.784 307.62H124.974V308.81H123.784V307.62ZM123.784 302.859H124.974V304.049H123.784V302.859ZM132.117 302.859H128.547V301.669H132.117V302.859ZM127.357 302.859H128.547V306.43H132.117V302.859H133.307V310H132.117V307.62H128.547V310H127.357V302.859ZM135.69 310V301.669H136.88V308.81H141.641V310H135.69ZM157.117 302.859H153.547V301.669H157.117V302.859ZM152.357 302.859H153.547V306.43H157.117V302.859H158.307V310H157.117V307.62H153.547V310H152.357V302.859ZM163.07 302.859H161.88V301.669H165.45V302.859H164.26V308.81H165.45V310H161.88V308.81H163.07V302.859Z" fill="white"/>
<path d="M85.6901 328.669H86.8803V335.81H85.6901V328.669ZM86.8803 335.81H88.0704V337H86.8803V335.81ZM88.0704 332.239H89.2606V335.81H88.0704V332.239ZM89.2606 335.81H90.4507V337H89.2606V335.81ZM90.4507 328.669H91.6408V335.81H90.4507V328.669ZM99.9741 329.859H95.2136V332.239H97.5939V333.43H95.2136V335.81H99.9741V337H94.0234V328.669H99.9741V329.859ZM103.547 333.43V335.81H107.117V337H102.357V328.669H107.117V329.859H103.547V332.239H107.117V333.43H103.547ZM107.117 333.43H108.307V335.81H107.117V333.43ZM107.117 329.859H108.307V332.239H107.117V329.859ZM123.784 329.859H120.213V335.81H123.784V337H119.023V328.669H123.784V329.859ZM123.784 329.859H124.974V335.81H123.784V329.859ZM133.307 329.859H128.547V332.239H130.927V333.43H128.547V335.81H133.307V337H127.357V328.669H133.307V329.859ZM135.69 328.669H136.88V332.239H135.69V328.669ZM136.88 332.239H138.07V334.62H136.88V332.239ZM138.07 334.62H139.26V337H138.07V334.62ZM139.26 332.239H140.45V334.62H139.26V332.239ZM140.45 328.669H141.641V332.239H140.45V328.669ZM155.927 329.859H154.737V328.669H155.927V329.859ZM153.547 329.859H154.737V335.81H153.547V329.859ZM154.737 335.81H155.927V337H154.737V335.81ZM163.07 329.859H161.88V328.669H165.45V329.859H164.26V335.81H165.45V337H161.88V335.81H163.07V329.859ZM170.213 331.049H171.403V332.239H170.213V337H169.023V328.669H170.213V331.049ZM171.403 332.239H172.594V333.43H171.403V332.239ZM172.594 333.43H173.784V328.669H174.974V337H173.784V334.62H172.594V333.43ZM177.356 328.669H183.307V329.859H180.927V337H179.737V329.859H177.356V328.669ZM191.64 329.859H186.88V332.239H189.26V333.43H186.88V335.81H191.64V337H185.69V328.669H191.64V329.859ZM197.593 333.43V334.62H196.403V333.43H195.213V337H194.023V328.669H198.784V329.859H195.213V332.239H198.784V333.43H197.593ZM197.593 334.62H198.784V335.81H197.593V334.62ZM198.784 335.81H199.974V337H198.784V335.81ZM198.784 329.859H199.974V332.239H198.784V329.859ZM203.546 329.859H204.737V331.049H203.546V337H202.356V328.669H203.546V329.859ZM204.737 331.049H205.927V332.239H204.737V331.049ZM205.927 329.859H207.117V328.669H208.307V337H207.117V331.049H205.927V329.859ZM216.64 329.859H211.88V332.239H214.26V333.43H211.88V335.81H216.64V337H210.69V328.669H216.64V329.859ZM223.784 329.859H220.213V335.81H223.784V337H219.023V328.669H223.784V329.859ZM223.784 329.859H224.974V335.81H223.784V329.859ZM229.737 329.859H228.546V328.669H232.117V329.859H230.927V335.81H232.117V337H228.546V335.81H229.737V329.859ZM240.45 329.859H236.88V328.669H240.45V329.859ZM235.69 329.859H236.88V333.43H240.45V329.859H241.64V337H240.45V334.62H236.88V337H235.69V329.859ZM244.023 328.669H249.974V329.859H247.593V337H246.403V329.859H244.023V328.669ZM258.307 329.859H253.546V332.239H255.927V333.43H253.546V335.81H258.307V337H252.356V328.669H258.307V329.859ZM263.665 329.859H262.475V328.669H263.665V329.859ZM262.475 335.81H263.665V337H262.475V335.81ZM263.665 329.859H264.855V335.81H263.665V329.859Z" fill="white"/>
<path d="M88.0704 356.859H86.8803V355.669H90.4507V356.859H89.2606V362.81H90.4507V364H86.8803V362.81H88.0704V356.859ZM95.2136 358.049H96.4037V359.239H95.2136V364H94.0234V355.669H95.2136V358.049ZM96.4037 359.239H97.5939V360.43H96.4037V359.239ZM97.5939 360.43H98.784V355.669H99.9741V364H98.784V361.62H97.5939V360.43ZM102.357 355.669H108.307V356.859H105.927V364H104.737V356.859H102.357V355.669ZM114.26 360.43V361.62H113.07V360.43H111.88V364H110.69V355.669H115.451V356.859H111.88V359.239H115.451V360.43H114.26ZM114.26 361.62H115.451V362.81H114.26V361.62ZM115.451 362.81H116.641V364H115.451V362.81ZM115.451 356.859H116.641V359.239H115.451V356.859ZM123.784 355.669V356.859H120.213V355.669H123.784ZM119.023 356.859H120.213V362.81H119.023V356.859ZM120.213 362.81H123.784V364H120.213V362.81ZM123.784 356.859H124.974V362.81H123.784V356.859ZM135.69 355.669H141.641V356.859H139.26V364H138.07V356.859H135.69V355.669ZM148.784 355.669V356.859H145.213V355.669H148.784ZM144.023 356.859H145.213V362.81H144.023V356.859ZM145.213 362.81H148.784V364H145.213V362.81ZM148.784 356.859H149.974V362.81H148.784V356.859ZM165.45 356.859H161.88V355.669H165.45V356.859ZM160.69 356.859H161.88V360.43H165.45V356.859H166.641V364H165.45V361.62H161.88V364H160.69V356.859ZM171.403 356.859H170.213V355.669H173.784V356.859H172.594V362.81H173.784V364H170.213V362.81H171.403V356.859Z" fill="white"/>
<path d="M90.4507 383.859H86.8803V389.81H90.4507V391H85.6901V382.669H90.4507V383.859ZM90.4507 383.859H91.6408V389.81H90.4507V383.859ZM96.4037 383.859H95.2136V382.669H98.784V383.859H97.5939V389.81H98.784V391H95.2136V389.81H96.4037V383.859ZM103.547 383.859V382.669H107.117V383.859H103.547ZM102.357 388.62H103.547V389.81H102.357V388.62ZM102.357 383.859H103.547V386.239H102.357V383.859ZM103.547 389.81H107.117V391H103.547V389.81ZM103.547 386.239H107.117V387.43H103.547V386.239ZM107.117 387.43H108.307V389.81H107.117V387.43ZM107.117 383.859H108.307V385.049H107.117V383.859ZM111.88 383.859V382.669H115.451V383.859H111.88ZM110.69 383.859H111.88V389.81H110.69V383.859ZM111.88 389.81H115.451V391H111.88V389.81ZM115.451 388.62H116.641V389.81H115.451V388.62ZM115.451 383.859H116.641V385.049H115.451V383.859ZM123.784 382.669V383.859H120.213V382.669H123.784ZM119.023 383.859H120.213V389.81H119.023V383.859ZM120.213 389.81H123.784V391H120.213V389.81ZM123.784 383.859H124.974V389.81H123.784V383.859ZM127.357 382.669H128.547V386.239H127.357V382.669ZM128.547 386.239H129.737V388.62H128.547V386.239ZM129.737 388.62H130.927V391H129.737V388.62ZM130.927 386.239H132.117V388.62H130.927V386.239ZM132.117 382.669H133.307V386.239H132.117V382.669ZM141.641 383.859H136.88V386.239H139.26V387.43H136.88V389.81H141.641V391H135.69V382.669H141.641V383.859ZM147.594 387.43V388.62H146.404V387.43H145.213V391H144.023V382.669H148.784V383.859H145.213V386.239H148.784V387.43H147.594ZM147.594 388.62H148.784V389.81H147.594V388.62ZM148.784 389.81H149.974V391H148.784V389.81ZM148.784 383.859H149.974V386.239H148.784V383.859ZM160.69 382.669H161.88V389.81H160.69V382.669ZM161.88 389.81H165.45V391H161.88V389.81ZM165.45 382.669H166.641V389.81H165.45V382.669ZM170.213 385.049H171.403V386.239H170.213V391H169.023V382.669H170.213V385.049ZM171.403 386.239H172.594V387.43H171.403V386.239ZM172.594 387.43H173.784V382.669H174.974V391H173.784V388.62H172.594V387.43ZM179.737 383.859H178.547V382.669H182.117V383.859H180.927V389.81H182.117V391H178.547V389.81H179.737V383.859ZM185.69 382.669H191.64V383.859H189.26V391H188.07V383.859H185.69V382.669ZM194.023 385.049V382.669H195.213V385.049H194.023ZM195.213 385.049H196.403V386.239H195.213V385.049ZM196.403 386.239H197.593V391H196.403V386.239ZM197.593 385.049H198.784V386.239H197.593V385.049ZM198.784 382.669H199.974V385.049H198.784V382.669Z" fill="white"/>
<path d="M89.2606 414.43V415.62H88.0704V414.43H86.8803V418H85.6901V409.669H90.4507V410.859H86.8803V413.239H90.4507V414.43H89.2606ZM89.2606 415.62H90.4507V416.81H89.2606V415.62ZM90.4507 416.81H91.6408V418H90.4507V416.81ZM90.4507 410.859H91.6408V413.239H90.4507V410.859ZM99.9741 410.859H95.2136V413.239H97.5939V414.43H95.2136V416.81H99.9741V418H94.0234V409.669H99.9741V410.859ZM103.547 410.859V409.669H107.117V410.859H103.547ZM102.357 415.62H103.547V416.81H102.357V415.62ZM102.357 410.859H103.547V413.239H102.357V410.859ZM103.547 416.81H107.117V418H103.547V416.81ZM103.547 413.239H107.117V414.43H103.547V413.239ZM107.117 414.43H108.307V416.81H107.117V414.43ZM107.117 410.859H108.307V412.049H107.117V410.859ZM110.69 409.669H111.88V416.81H110.69V409.669ZM111.88 416.81H115.451V418H111.88V416.81ZM115.451 409.669H116.641V416.81H115.451V409.669ZM120.213 410.859H121.404V412.049H120.213V418H119.023V409.669H120.213V410.859ZM121.404 412.049H122.594V413.239H121.404V412.049ZM122.594 410.859H123.784V409.669H124.974V418H123.784V412.049H122.594V410.859ZM133.307 410.859H128.547V413.239H130.927V414.43H128.547V416.81H133.307V418H127.357V409.669H133.307V410.859ZM144.023 409.669H145.213V416.81H144.023V409.669ZM145.213 416.81H146.404V418H145.213V416.81ZM146.404 413.239H147.594V416.81H146.404V413.239ZM147.594 416.81H148.784V418H147.594V416.81ZM148.784 409.669H149.974V416.81H148.784V409.669ZM157.117 409.669V410.859H153.547V409.669H157.117ZM152.357 410.859H153.547V416.81H152.357V410.859ZM153.547 416.81H157.117V418H153.547V416.81ZM157.117 410.859H158.307V416.81H157.117V410.859ZM164.26 414.43V415.62H163.07V414.43H161.88V418H160.69V409.669H165.45V410.859H161.88V413.239H165.45V414.43H164.26ZM164.26 415.62H165.45V416.81H164.26V415.62ZM165.45 416.81H166.641V418H165.45V416.81ZM165.45 410.859H166.641V413.239H165.45V410.859ZM171.403 414.43H170.213V418H169.023V409.669H170.213V413.239H171.403V414.43ZM171.403 414.43H172.594V415.62H171.403V414.43ZM171.403 412.049H172.594V413.239H171.403V412.049ZM172.594 415.62H173.784V416.81H172.594V415.62ZM172.594 410.859H173.784V412.049H172.594V410.859ZM173.784 416.81H174.974V418H173.784V416.81ZM173.784 409.669H174.974V410.859H173.784V409.669ZM178.547 410.859V409.669H182.117V410.859H178.547ZM177.356 415.62H178.547V416.81H177.356V415.62ZM177.356 410.859H178.547V413.239H177.356V410.859ZM178.547 416.81H182.117V418H178.547V416.81ZM178.547 413.239H182.117V414.43H178.547V413.239ZM182.117 414.43H183.307V416.81H182.117V414.43ZM182.117 410.859H183.307V412.049H182.117V410.859ZM191.64 418H190.45V414.43H186.88V418H185.69V409.669H186.88V413.239H190.45V409.669H191.64V418ZM198.784 409.669V410.859H195.213V409.669H198.784ZM194.023 410.859H195.213V416.81H194.023V410.859ZM195.213 416.81H198.784V418H195.213V416.81ZM198.784 410.859H199.974V416.81H198.784V410.859ZM203.546 414.43V418H202.356V409.669H207.117V410.859H203.546V413.239H207.117V414.43H203.546ZM207.117 410.859H208.307V413.239H207.117V410.859Z" fill="white"/>
<path d="M86.8803 437.859H88.0704V439.049H86.8803V445H85.6901V436.669H86.8803V437.859ZM88.0704 439.049H89.2606V440.239H88.0704V439.049ZM89.2606 437.859H90.4507V436.669H91.6408V445H90.4507V439.049H89.2606V437.859ZM94.0234 445V436.669H95.2136V443.81H99.9741V445H94.0234ZM108.307 445H107.117V441.43H103.547V445H102.357V436.669H103.547V440.239H107.117V436.669H108.307V445ZM119.023 436.669H120.213V443.81H119.023V436.669ZM120.213 443.81H121.404V445H120.213V443.81ZM121.404 440.239H122.594V443.81H121.404V440.239ZM122.594 443.81H123.784V445H122.594V443.81ZM123.784 436.669H124.974V443.81H123.784V436.669ZM132.117 436.669V437.859H128.547V436.669H132.117ZM127.357 437.859H128.547V443.81H127.357V437.859ZM128.547 443.81H132.117V445H128.547V443.81ZM132.117 437.859H133.307V443.81H132.117V437.859ZM139.26 441.43V442.62H138.07V441.43H136.88V445H135.69V436.669H140.45V437.859H136.88V440.239H140.45V441.43H139.26ZM139.26 442.62H140.45V443.81H139.26V442.62ZM140.45 443.81H141.641V445H140.45V443.81ZM140.45 437.859H141.641V440.239H140.45V437.859ZM146.404 441.43H145.213V445H144.023V436.669H145.213V440.239H146.404V441.43ZM146.404 441.43H147.594V442.62H146.404V441.43ZM146.404 439.049H147.594V440.239H146.404V439.049ZM147.594 442.62H148.784V443.81H147.594V442.62ZM147.594 437.859H148.784V439.049H147.594V437.859ZM148.784 443.81H149.974V445H148.784V443.81ZM148.784 436.669H149.974V437.859H148.784V436.669ZM153.547 437.859V436.669H157.117V437.859H153.547ZM152.357 442.62H153.547V443.81H152.357V442.62ZM152.357 437.859H153.547V440.239H152.357V437.859ZM153.547 443.81H157.117V445H153.547V443.81ZM153.547 440.239H157.117V441.43H153.547V440.239ZM157.117 441.43H158.307V443.81H157.117V441.43ZM157.117 437.859H158.307V439.049H157.117V437.859ZM166.641 445H165.45V441.43H161.88V445H160.69V436.669H161.88V440.239H165.45V436.669H166.641V445ZM173.784 436.669V437.859H170.213V436.669H173.784ZM169.023 437.859H170.213V443.81H169.023V437.859ZM170.213 443.81H173.784V445H170.213V443.81ZM173.784 437.859H174.974V443.81H173.784V437.859ZM178.547 441.43V445H177.356V436.669H182.117V437.859H178.547V440.239H182.117V441.43H178.547ZM182.117 437.859H183.307V440.239H182.117V437.859Z" fill="white"/>
<path d="M90.4507 464.859H86.8803V470.81H90.4507V472H85.6901V463.669H90.4507V464.859ZM90.4507 464.859H91.6408V470.81H90.4507V464.859ZM96.4037 464.859H95.2136V463.669H98.784V464.859H97.5939V470.81H98.784V472H95.2136V470.81H96.4037V464.859ZM103.547 466.049H104.737V467.239H103.547V472H102.357V463.669H103.547V466.049ZM104.737 467.239H105.927V468.43H104.737V467.239ZM105.927 468.43H107.117V463.669H108.307V472H107.117V469.62H105.927V468.43ZM111.88 466.049H113.07V467.239H111.88V472H110.69V463.669H111.88V466.049ZM113.07 467.239H114.26V468.43H113.07V467.239ZM114.26 468.43H115.451V463.669H116.641V472H115.451V469.62H114.26V468.43ZM124.974 464.859H120.213V467.239H122.594V468.43H120.213V470.81H124.974V472H119.023V463.669H124.974V464.859ZM130.927 468.43V469.62H129.737V468.43H128.547V472H127.357V463.669H132.117V464.859H128.547V467.239H132.117V468.43H130.927ZM130.927 469.62H132.117V470.81H130.927V469.62ZM132.117 470.81H133.307V472H132.117V470.81ZM132.117 464.859H133.307V467.239H132.117V464.859Z" fill="white"/>
<path d="M91.6408 491.859H86.8803V494.239H89.2606V495.43H86.8803V497.81H91.6408V499H85.6901V490.669H91.6408V491.859ZM95.2136 491.859V490.669H98.784V491.859H95.2136ZM94.0234 491.859H95.2136V497.81H94.0234V491.859ZM95.2136 497.81H98.784V499H95.2136V497.81ZM98.784 496.62H99.9741V497.81H98.784V496.62ZM98.784 491.859H99.9741V493.049H98.784V491.859ZM108.307 499H107.117V495.43H103.547V499H102.357V490.669H103.547V494.239H107.117V490.669H108.307V499ZM115.451 490.669V491.859H111.88V490.669H115.451ZM110.69 491.859H111.88V497.81H110.69V491.859ZM111.88 497.81H115.451V499H111.88V497.81ZM115.451 491.859H116.641V497.81H115.451V491.859ZM132.117 493.049V491.859H127.357V490.669H133.307V493.049H132.117ZM127.357 496.62H128.547V497.81H127.357V496.62ZM128.547 497.81H132.117V499H128.547V497.81ZM129.737 494.239H130.927V493.049H132.117V495.43H129.737V494.239ZM132.117 495.43H133.307V497.81H132.117V495.43ZM140.45 491.859H136.88V497.81H140.45V499H135.69V490.669H140.45V491.859ZM140.45 491.859H141.641V497.81H140.45V491.859ZM152.357 490.669H153.547V497.81H152.357V490.669ZM153.547 497.81H154.737V499H153.547V497.81ZM154.737 494.239H155.927V497.81H154.737V494.239ZM155.927 497.81H157.117V499H155.927V497.81ZM157.117 490.669H158.307V497.81H157.117V490.669ZM165.45 490.669V491.859H161.88V490.669H165.45ZM160.69 491.859H161.88V497.81H160.69V491.859ZM161.88 497.81H165.45V499H161.88V497.81ZM165.45 491.859H166.641V497.81H165.45V491.859ZM172.594 495.43V496.62H171.403V495.43H170.213V499H169.023V490.669H173.784V491.859H170.213V494.239H173.784V495.43H172.594ZM172.594 496.62H173.784V497.81H172.594V496.62ZM173.784 497.81H174.974V499H173.784V497.81ZM173.784 491.859H174.974V494.239H173.784V491.859ZM179.737 495.43H178.547V499H177.356V490.669H178.547V494.239H179.737V495.43ZM179.737 495.43H180.927V496.62H179.737V495.43ZM179.737 493.049H180.927V494.239H179.737V493.049ZM180.927 496.62H182.117V497.81H180.927V496.62ZM180.927 491.859H182.117V493.049H180.927V491.859ZM182.117 497.81H183.307V499H182.117V497.81ZM182.117 490.669H183.307V491.859H182.117V490.669ZM186.88 491.859V490.669H190.45V491.859H186.88ZM185.69 496.62H186.88V497.81H185.69V496.62ZM185.69 491.859H186.88V494.239H185.69V491.859ZM186.88 497.81H190.45V499H186.88V497.81ZM186.88 494.239H190.45V495.43H186.88V494.239ZM190.45 495.43H191.64V497.81H190.45V495.43ZM190.45 491.859H191.64V493.049H190.45V491.859ZM199.974 499H198.784V495.43H195.213V499H194.023V490.669H195.213V494.239H198.784V490.669H199.974V499ZM207.117 490.669V491.859H203.546V490.669H207.117ZM202.356 491.859H203.546V497.81H202.356V491.859ZM203.546 497.81H207.117V499H203.546V497.81ZM207.117 491.859H208.307V497.81H207.117V491.859ZM211.88 495.43V499H210.69V490.669H215.45V491.859H211.88V494.239H215.45V495.43H211.88ZM215.45 491.859H216.64V494.239H215.45V491.859Z" fill="white"/>
<path d="M88.0704 518.859H86.8803V517.669H90.4507V518.859H89.2606V524.81H90.4507V526H86.8803V524.81H88.0704V518.859ZM95.2136 520.049H96.4037V521.239H95.2136V526H94.0234V517.669H95.2136V520.049ZM96.4037 521.239H97.5939V522.43H96.4037V521.239ZM97.5939 522.43H98.784V517.669H99.9741V526H98.784V523.62H97.5939V522.43ZM102.357 517.669H108.307V518.859H105.927V526H104.737V518.859H102.357V517.669ZM114.26 522.43V523.62H113.07V522.43H111.88V526H110.69V517.669H115.451V518.859H111.88V521.239H115.451V522.43H114.26ZM114.26 523.62H115.451V524.81H114.26V523.62ZM115.451 524.81H116.641V526H115.451V524.81ZM115.451 518.859H116.641V521.239H115.451V518.859ZM123.784 517.669V518.859H120.213V517.669H123.784ZM119.023 518.859H120.213V524.81H119.023V518.859ZM120.213 524.81H123.784V526H120.213V524.81ZM123.784 518.859H124.974V524.81H123.784V518.859ZM135.69 517.669H141.641V518.859H139.26V526H138.07V518.859H135.69V517.669ZM148.784 517.669V518.859H145.213V517.669H148.784ZM144.023 518.859H145.213V524.81H144.023V518.859ZM145.213 524.81H148.784V526H145.213V524.81ZM148.784 518.859H149.974V524.81H148.784V518.859ZM160.69 526V517.669H161.88V524.81H166.641V526H160.69ZM174.974 518.859H170.213V521.239H172.594V522.43H170.213V524.81H174.974V526H169.023V517.669H174.974V518.859ZM183.307 518.859H178.547V521.239H180.927V522.43H178.547V524.81H183.307V526H177.356V517.669H183.307V518.859ZM185.69 517.669H191.64V518.859H189.26V526H188.07V518.859H185.69V517.669ZM195.213 518.859V517.669H198.784V518.859H195.213ZM194.023 518.859H195.213V524.81H194.023V518.859ZM195.213 524.81H198.784V526H195.213V524.81ZM198.784 523.62H199.974V524.81H198.784V523.62ZM198.784 518.859H199.974V520.049H198.784V518.859ZM207.117 517.669V518.859H203.546V517.669H207.117ZM202.356 518.859H203.546V524.81H202.356V518.859ZM203.546 524.81H207.117V526H203.546V524.81ZM207.117 518.859H208.307V524.81H207.117V518.859ZM215.45 518.859H211.88V524.81H215.45V526H210.69V517.669H215.45V518.859ZM215.45 518.859H216.64V524.81H215.45V518.859ZM224.974 518.859H220.213V521.239H222.593V522.43H220.213V524.81H224.974V526H219.023V517.669H224.974V518.859Z" fill="white"/>
<path d="M90.4507 545.859V551.81H89.2606V545.859H88.0704V544.669H91.6408V545.859H90.4507ZM85.6901 550.62H86.8803V551.81H85.6901V550.62ZM86.8803 551.81H89.2606V553H86.8803V551.81ZM99.9741 545.859H95.2136V548.239H97.5939V549.43H95.2136V551.81H99.9741V553H94.0234V544.669H99.9741V545.859ZM107.117 544.669V545.859H103.547V544.669H107.117ZM102.357 545.859H103.547V551.81H102.357V545.859ZM103.547 551.81H107.117V553H103.547V551.81ZM107.117 545.859H108.307V551.81H107.117V545.859ZM111.88 549.43V553H110.69V544.669H115.451V545.859H111.88V548.239H115.451V549.43H111.88ZM115.451 545.859H116.641V548.239H115.451V545.859ZM124.974 545.859H120.213V548.239H122.594V549.43H120.213V551.81H124.974V553H119.023V544.669H124.974V545.859ZM130.927 549.43V550.62H129.737V549.43H128.547V553H127.357V544.669H132.117V545.859H128.547V548.239H132.117V549.43H130.927ZM130.927 550.62H132.117V551.81H130.927V550.62ZM132.117 551.81H133.307V553H132.117V551.81ZM132.117 545.859H133.307V548.239H132.117V545.859ZM140.45 545.859H136.88V551.81H140.45V553H135.69V544.669H140.45V545.859ZM140.45 545.859H141.641V551.81H140.45V545.859ZM144.023 547.049V544.669H145.213V547.049H144.023ZM145.213 547.049H146.404V548.239H145.213V547.049ZM146.404 548.239H147.594V553H146.404V548.239ZM147.594 547.049H148.784V548.239H147.594V547.049ZM148.784 544.669H149.974V547.049H148.784V544.669Z" fill="white"/>
<path d="M85.6901 571.669H86.8803V575.239H85.6901V571.669ZM86.8803 575.239H88.0704V577.62H86.8803V575.239ZM88.0704 577.62H89.2606V580H88.0704V577.62ZM89.2606 575.239H90.4507V577.62H89.2606V575.239ZM90.4507 571.669H91.6408V575.239H90.4507V571.669ZM96.4037 572.859H95.2136V571.669H98.784V572.859H97.5939V578.81H98.784V580H95.2136V578.81H96.4037V572.859ZM107.117 572.859H103.547V578.81H107.117V580H102.357V571.669H107.117V572.859ZM107.117 572.859H108.307V578.81H107.117V572.859ZM116.641 572.859H111.88V575.239H114.26V576.43H111.88V578.81H116.641V580H110.69V571.669H116.641V572.859ZM123.784 571.669V572.859H120.213V571.669H123.784ZM119.023 572.859H120.213V578.81H119.023V572.859ZM120.213 578.81H123.784V580H120.213V578.81ZM123.784 572.859H124.974V578.81H123.784V572.859ZM136.88 572.859V571.669H140.45V572.859H136.88ZM135.69 572.859H136.88V578.81H135.69V572.859ZM136.88 578.81H140.45V577.62H139.26V576.43H141.641V580H136.88V578.81ZM140.45 572.859H141.641V574.049H140.45V572.859ZM148.784 572.859H145.213V571.669H148.784V572.859ZM144.023 572.859H145.213V576.43H148.784V572.859H149.974V580H148.784V577.62H145.213V580H144.023V572.859ZM153.547 572.859H154.737V574.049H153.547V580H152.357V571.669H153.547V572.859ZM154.737 574.049H155.927V575.239H154.737V574.049ZM155.927 572.859H157.117V571.669H158.307V580H157.117V574.049H155.927V572.859ZM166.641 572.859H161.88V575.239H164.26V576.43H161.88V578.81H166.641V580H160.69V571.669H166.641V572.859ZM177.356 571.669H178.547V578.81H177.356V571.669ZM178.547 578.81H179.737V580H178.547V578.81ZM179.737 575.239H180.927V578.81H179.737V575.239ZM180.927 578.81H182.117V580H180.927V578.81ZM182.117 571.669H183.307V578.81H182.117V571.669ZM190.45 571.669V572.859H186.88V571.669H190.45ZM185.69 572.859H186.88V578.81H185.69V572.859ZM186.88 578.81H190.45V580H186.88V578.81ZM190.45 572.859H191.64V578.81H190.45V572.859ZM197.593 576.43V577.62H196.403V576.43H195.213V580H194.023V571.669H198.784V572.859H195.213V575.239H198.784V576.43H197.593ZM197.593 577.62H198.784V578.81H197.593V577.62ZM198.784 578.81H199.974V580H198.784V578.81ZM198.784 572.859H199.974V575.239H198.784V572.859ZM204.737 576.43H203.546V580H202.356V571.669H203.546V575.239H204.737V576.43ZM204.737 576.43H205.927V577.62H204.737V576.43ZM204.737 574.049H205.927V575.239H204.737V574.049ZM205.927 577.62H207.117V578.81H205.927V577.62ZM205.927 572.859H207.117V574.049H205.927V572.859ZM207.117 578.81H208.307V580H207.117V578.81ZM207.117 571.669H208.307V572.859H207.117V571.669ZM211.88 572.859V571.669H215.45V572.859H211.88ZM210.69 577.62H211.88V578.81H210.69V577.62ZM210.69 572.859H211.88V575.239H210.69V572.859ZM211.88 578.81H215.45V580H211.88V578.81ZM211.88 575.239H215.45V576.43H211.88V575.239ZM215.45 576.43H216.64V578.81H215.45V576.43ZM215.45 572.859H216.64V574.049H215.45V572.859ZM224.974 580H223.784V576.43H220.213V580H219.023V571.669H220.213V575.239H223.784V571.669H224.974V580ZM232.117 571.669V572.859H228.546V571.669H232.117ZM227.356 572.859H228.546V578.81H227.356V572.859ZM228.546 578.81H232.117V580H228.546V578.81ZM232.117 572.859H233.307V578.81H232.117V572.859ZM236.88 576.43V580H235.69V571.669H240.45V572.859H236.88V575.239H240.45V576.43H236.88ZM240.45 572.859H241.64V575.239H240.45V572.859Z" fill="white"/>
<path d="M88.0704 603.43H86.8803V607H85.6901V598.669H86.8803V602.239H88.0704V603.43ZM88.0704 603.43H89.2606V604.62H88.0704V603.43ZM88.0704 601.049H89.2606V602.239H88.0704V601.049ZM89.2606 604.62H90.4507V605.81H89.2606V604.62ZM89.2606 599.859H90.4507V601.049H89.2606V599.859ZM90.4507 605.81H91.6408V607H90.4507V605.81ZM90.4507 598.669H91.6408V599.859H90.4507V598.669ZM98.784 599.859H95.2136V598.669H98.784V599.859ZM94.0234 599.859H95.2136V603.43H98.784V599.859H99.9741V607H98.784V604.62H95.2136V607H94.0234V599.859ZM105.927 603.43V604.62H104.737V603.43H103.547V607H102.357V598.669H107.117V599.859H103.547V602.239H107.117V603.43H105.927ZM105.927 604.62H107.117V605.81H105.927V604.62ZM107.117 605.81H108.307V607H107.117V605.81ZM107.117 599.859H108.307V602.239H107.117V599.859ZM115.451 599.859H111.88V598.669H115.451V599.859ZM110.69 599.859H111.88V603.43H115.451V599.859H116.641V607H115.451V604.62H111.88V607H110.69V599.859ZM123.784 598.669V599.859H120.213V598.669H123.784ZM119.023 599.859H120.213V605.81H119.023V599.859ZM120.213 605.81H123.784V607H120.213V605.81ZM123.784 599.859H124.974V605.81H123.784V599.859ZM129.737 603.43H128.547V607H127.357V598.669H128.547V602.239H129.737V603.43ZM129.737 603.43H130.927V604.62H129.737V603.43ZM129.737 601.049H130.927V602.239H129.737V601.049ZM130.927 604.62H132.117V605.81H130.927V604.62ZM130.927 599.859H132.117V601.049H130.927V599.859ZM132.117 605.81H133.307V607H132.117V605.81ZM132.117 598.669H133.307V599.859H132.117V598.669ZM141.641 599.859H136.88V602.239H139.26V603.43H136.88V605.81H141.641V607H135.69V598.669H141.641V599.859Z" fill="white"/>
<path d="M86.8803 630.43V632.81H90.4507V634H85.6901V625.669H90.4507V626.859H86.8803V629.239H90.4507V630.43H86.8803ZM90.4507 630.43H91.6408V632.81H90.4507V630.43ZM90.4507 626.859H91.6408V629.239H90.4507V626.859ZM98.784 626.859H95.2136V625.669H98.784V626.859ZM94.0234 626.859H95.2136V630.43H98.784V626.859H99.9741V634H98.784V631.62H95.2136V634H94.0234V626.859ZM102.357 634V625.669H103.547V632.81H108.307V634H102.357ZM110.69 634V625.669H111.88V632.81H116.641V634H110.69ZM123.784 625.669V626.859H120.213V625.669H123.784ZM119.023 626.859H120.213V632.81H119.023V626.859ZM120.213 632.81H123.784V634H120.213V632.81ZM123.784 626.859H124.974V632.81H123.784V626.859ZM132.117 625.669V626.859H128.547V625.669H132.117ZM127.357 626.859H128.547V632.81H127.357V626.859ZM128.547 632.81H132.117V634H128.547V632.81ZM132.117 626.859H133.307V632.81H132.117V626.859ZM136.88 628.049H138.07V629.239H136.88V634H135.69V625.669H136.88V628.049ZM138.07 629.239H139.26V630.43H138.07V629.239ZM139.26 630.43H140.45V625.669H141.641V634H140.45V631.62H139.26V630.43ZM157.117 626.859H153.547V625.669H157.117V626.859ZM152.357 626.859H153.547V630.43H157.117V626.859H158.307V634H157.117V631.62H153.547V634H152.357V626.859ZM161.88 628.049H163.07V629.239H161.88V634H160.69V625.669H161.88V628.049ZM163.07 629.239H164.26V630.43H163.07V629.239ZM164.26 630.43H165.45V625.669H166.641V634H165.45V631.62H164.26V630.43ZM171.403 626.859H170.213V625.669H173.784V626.859H172.594V632.81H173.784V634H170.213V632.81H171.403V626.859ZM178.547 626.859H179.737V628.049H178.547V634H177.356V625.669H178.547V626.859ZM179.737 628.049H180.927V629.239H179.737V628.049ZM180.927 626.859H182.117V625.669H183.307V634H182.117V628.049H180.927V626.859ZM190.45 626.859H186.88V625.669H190.45V626.859ZM185.69 626.859H186.88V630.43H190.45V626.859H191.64V634H190.45V631.62H186.88V634H185.69V626.859ZM194.023 634V625.669H195.213V632.81H199.974V634H194.023ZM210.69 625.669H211.88V632.81H210.69V625.669ZM211.88 632.81H213.07V634H211.88V632.81ZM213.07 629.239H214.26V632.81H213.07V629.239ZM214.26 632.81H215.45V634H214.26V632.81ZM215.45 625.669H216.64V632.81H215.45V625.669ZM223.784 625.669V626.859H220.213V625.669H223.784ZM219.023 626.859H220.213V632.81H219.023V626.859ZM220.213 632.81H223.784V634H220.213V632.81ZM223.784 626.859H224.974V632.81H223.784V626.859ZM230.927 630.43V631.62H229.737V630.43H228.546V634H227.356V625.669H232.117V626.859H228.546V629.239H232.117V630.43H230.927ZM230.927 631.62H232.117V632.81H230.927V631.62ZM232.117 632.81H233.307V634H232.117V632.81ZM232.117 626.859H233.307V629.239H232.117V626.859ZM238.07 630.43H236.88V634H235.69V625.669H236.88V629.239H238.07V630.43ZM238.07 630.43H239.26V631.62H238.07V630.43ZM238.07 628.049H239.26V629.239H238.07V628.049ZM239.26 631.62H240.45V632.81H239.26V631.62ZM239.26 626.859H240.45V628.049H239.26V626.859ZM240.45 632.81H241.64V634H240.45V632.81ZM240.45 625.669H241.64V626.859H240.45V625.669ZM245.213 626.859V625.669H248.783V626.859H245.213ZM244.023 631.62H245.213V632.81H244.023V631.62ZM244.023 626.859H245.213V629.239H244.023V626.859ZM245.213 632.81H248.783V634H245.213V632.81ZM245.213 629.239H248.783V630.43H245.213V629.239ZM248.783 630.43H249.974V632.81H248.783V630.43ZM248.783 626.859H249.974V628.049H248.783V626.859ZM258.307 634H257.117V630.43H253.546V634H252.356V625.669H253.546V629.239H257.117V625.669H258.307V634ZM265.45 625.669V626.859H261.88V625.669H265.45ZM260.689 626.859H261.88V632.81H260.689V626.859ZM261.88 632.81H265.45V634H261.88V632.81ZM265.45 626.859H266.64V632.81H265.45V626.859ZM270.213 630.43V634H269.023V625.669H273.783V626.859H270.213V629.239H273.783V630.43H270.213ZM273.783 626.859H274.973V629.239H273.783V626.859Z" fill="white"/>
<path d="M12.7924 61.0493H13.7842V65.0164H12.7924V66.0082H11.8006V67H8.82528V66.0082H10.8088V65.0164H11.8006V64.0247H8.82528V63.0329H7.8335V61.0493H8.82528V60.0575H12.7924V61.0493ZM11.8006 63.0329V61.0493H9.81706V63.0329H11.8006ZM16.7615 61.0493V63.0329H14.7779V61.0493H16.7615ZM14.7779 65.0164H16.7615V67H14.7779V65.0164ZM22.7102 61.0493H23.702V66.0082H22.7102V67H18.7431V66.0082H17.7513V61.0493H18.7431V60.0575H22.7102V61.0493ZM19.7349 61.0493V63.0329H20.7267V62.0411H21.7185V61.0493H19.7349ZM21.7185 66.0082V64.0247H20.7267V65.0164H19.7349V66.0082H21.7185ZM29.6547 61.0493H30.6464V66.0082H29.6547V67H25.6875V66.0082H24.6957V61.0493H25.6875V60.0575H29.6547V61.0493ZM26.6793 61.0493V63.0329H27.6711V62.0411H28.6629V61.0493H26.6793ZM28.6629 66.0082V64.0247H27.6711V65.0164H26.6793V66.0082H28.6629ZM40.5701 61.0493H41.5619V67H39.5783V63.0329H37.5947V67H35.6112V61.0493H36.6029V60.0575H40.5701V61.0493ZM39.5783 62.0411V61.0493H37.5947V62.0411H39.5783ZM48.5063 60.0575V67H46.5227V63.0329H44.5391V67H42.5556V60.0575H44.5391V61.0493H46.5227V60.0575H48.5063Z" fill="white"/>
<path d="M6.33978 93.0082V94H0.38908V93.0082H2.37265V89.0411H1.38086V88.0493H2.37265V87.0575H4.35621V93.0082H6.33978ZM12.2924 88.0493H13.2842V93.0082H12.2924V94H8.32528V93.0082H7.3335V88.0493H8.32528V87.0575H12.2924V88.0493ZM9.31706 88.0493V90.0329H10.3088V89.0411H11.3006V88.0493H9.31706ZM11.3006 93.0082V91.0247H10.3088V92.0164H9.31706V93.0082H11.3006ZM16.2615 88.0493V90.0329H14.2779V88.0493H16.2615ZM14.2779 92.0164H16.2615V94H14.2779V92.0164ZM22.2102 88.0493H23.202V93.0082H22.2102V94H18.2431V93.0082H17.2513V88.0493H18.2431V87.0575H22.2102V88.0493ZM19.2349 88.0493V90.0329H20.2267V89.0411H21.2185V88.0493H19.2349ZM21.2185 93.0082V91.0247H20.2267V92.0164H19.2349V93.0082H21.2185ZM29.1547 88.0493H30.1464V93.0082H29.1547V94H25.1875V93.0082H24.1957V88.0493H25.1875V87.0575H29.1547V88.0493ZM26.1793 88.0493V90.0329H27.1711V89.0411H28.1629V88.0493H26.1793ZM28.1629 93.0082V91.0247H27.1711V92.0164H26.1793V93.0082H28.1629ZM40.0701 88.0493H41.0619V94H39.0783V90.0329H37.0947V94H35.1112V88.0493H36.1029V87.0575H40.0701V88.0493ZM39.0783 89.0411V88.0493H37.0947V89.0411H39.0783ZM48.0063 87.0575V94H46.0227V90.0329H44.0391V94H42.0556V87.0575H44.0391V88.0493H46.0227V87.0575H48.0063Z" fill="white"/>
<path d="M6.83978 120.008V121H0.88908V120.008H2.87265V116.041H1.88086V115.049H2.87265V114.058H4.85621V120.008H6.83978ZM13.7842 120.008V121H7.8335V120.008H9.81706V116.041H8.82528V115.049H9.81706V114.058H11.8006V120.008H13.7842ZM16.7615 115.049V117.033H14.7779V115.049H16.7615ZM14.7779 119.016H16.7615V121H14.7779V119.016ZM22.7102 115.049H23.702V120.008H22.7102V121H18.7431V120.008H17.7513V115.049H18.7431V114.058H22.7102V115.049ZM19.7349 115.049V117.033H20.7267V116.041H21.7185V115.049H19.7349ZM21.7185 120.008V118.025H20.7267V119.016H19.7349V120.008H21.7185ZM29.6547 115.049H30.6464V120.008H29.6547V121H25.6875V120.008H24.6957V115.049H25.6875V114.058H29.6547V115.049ZM26.6793 115.049V117.033H27.6711V116.041H28.6629V115.049H26.6793ZM28.6629 120.008V118.025H27.6711V119.016H26.6793V120.008H28.6629ZM40.5701 115.049H41.5619V121H39.5783V117.033H37.5947V121H35.6112V115.049H36.6029V114.058H40.5701V115.049ZM39.5783 116.041V115.049H37.5947V116.041H39.5783ZM48.5063 114.058V121H46.5227V117.033H44.5391V121H42.5556V114.058H44.5391V115.049H46.5227V114.058H48.5063Z" fill="white"/>
<path d="M6.83978 147.008V148H0.88908V147.008H2.87265V143.041H1.88086V142.049H2.87265V141.058H4.85621V147.008H6.83978ZM13.7842 147.008V148H7.8335V147.008H9.81706V143.041H8.82528V142.049H9.81706V141.058H11.8006V147.008H13.7842ZM16.7615 142.049V144.033H14.7779V142.049H16.7615ZM14.7779 146.016H16.7615V148H14.7779V146.016ZM22.7102 142.049H23.702V144.033H22.7102V145.025H23.702V147.008H22.7102V148H18.7431V147.008H17.7513V146.016H19.7349V147.008H21.7185V145.025H19.7349V144.033H21.7185V142.049H19.7349V143.041H17.7513V142.049H18.7431V141.058H22.7102V142.049ZM29.6547 142.049H30.6464V147.008H29.6547V148H25.6875V147.008H24.6957V142.049H25.6875V141.058H29.6547V142.049ZM26.6793 142.049V144.033H27.6711V143.041H28.6629V142.049H26.6793ZM28.6629 147.008V145.025H27.6711V146.016H26.6793V147.008H28.6629ZM40.5701 142.049H41.5619V148H39.5783V144.033H37.5947V148H35.6112V142.049H36.6029V141.058H40.5701V142.049ZM39.5783 143.041V142.049H37.5947V143.041H39.5783ZM48.5063 141.058V148H46.5227V144.033H44.5391V148H42.5556V141.058H44.5391V142.049H46.5227V141.058H48.5063Z" fill="white"/>
<path d="M6.83978 174.008V175H0.88908V174.008H2.87265V170.041H1.88086V169.049H2.87265V168.058H4.85621V174.008H6.83978ZM13.7842 174.008V175H7.8335V174.008H9.81706V170.041H8.82528V169.049H9.81706V168.058H11.8006V174.008H13.7842ZM16.7615 169.049V171.033H14.7779V169.049H16.7615ZM14.7779 173.016H16.7615V175H14.7779V173.016ZM19.7349 169.049V170.041H22.7102V171.033H23.702V174.008H22.7102V175H18.7431V174.008H17.7513V173.016H19.7349V174.008H21.7185V171.033H17.7513V168.058H23.702V169.049H19.7349ZM29.6547 169.049H30.6464V174.008H29.6547V175H25.6875V174.008H24.6957V169.049H25.6875V168.058H29.6547V169.049ZM26.6793 169.049V171.033H27.6711V170.041H28.6629V169.049H26.6793ZM28.6629 174.008V172.025H27.6711V173.016H26.6793V174.008H28.6629ZM40.5701 169.049H41.5619V175H39.5783V171.033H37.5947V175H35.6112V169.049H36.6029V168.058H40.5701V169.049ZM39.5783 170.041V169.049H37.5947V170.041H39.5783ZM48.5063 168.058V175H46.5227V171.033H44.5391V175H42.5556V168.058H44.5391V169.049H46.5227V168.058H48.5063Z" fill="white"/>
<path d="M6.83978 201.008V202H0.88908V201.008H2.87265V197.041H1.88086V196.049H2.87265V195.058H4.85621V201.008H6.83978ZM12.7924 196.049H13.7842V198.033H12.7924V199.025H10.8088V200.016H9.81706V201.008H11.8006V200.016H13.7842V202H7.8335V200.016H8.82528V199.025H9.81706V198.033H11.8006V196.049H9.81706V197.041H7.8335V196.049H8.82528V195.058H12.7924V196.049ZM16.7615 196.049V198.033H14.7779V196.049H16.7615ZM14.7779 200.016H16.7615V202H14.7779V200.016ZM22.7102 196.049H23.702V201.008H22.7102V202H18.7431V201.008H17.7513V196.049H18.7431V195.058H22.7102V196.049ZM19.7349 196.049V198.033H20.7267V197.041H21.7185V196.049H19.7349ZM21.7185 201.008V199.025H20.7267V200.016H19.7349V201.008H21.7185ZM29.6547 196.049H30.6464V201.008H29.6547V202H25.6875V201.008H24.6957V196.049H25.6875V195.058H29.6547V196.049ZM26.6793 196.049V198.033H27.6711V197.041H28.6629V196.049H26.6793ZM28.6629 201.008V199.025H27.6711V200.016H26.6793V201.008H28.6629ZM40.5701 196.049H41.5619V197.041H40.5701V198.033H37.5947V202H35.6112V195.058H40.5701V196.049ZM39.5783 197.041V196.049H37.5947V197.041H39.5783ZM48.5063 195.058V202H46.5227V198.033H44.5391V202H42.5556V195.058H44.5391V196.049H46.5227V195.058H48.5063Z" fill="white"/>
<path d="M13.7842 228.008V229H7.8335V228.008H9.81706V224.041H8.82528V223.049H9.81706V222.058H11.8006V228.008H13.7842ZM16.7615 223.049V225.033H14.7779V223.049H16.7615ZM14.7779 227.016H16.7615V229H14.7779V227.016ZM22.7102 223.049H23.702V228.008H22.7102V229H18.7431V228.008H17.7513V223.049H18.7431V222.058H22.7102V223.049ZM19.7349 223.049V225.033H20.7267V224.041H21.7185V223.049H19.7349ZM21.7185 228.008V226.025H20.7267V227.016H19.7349V228.008H21.7185ZM29.6547 223.049H30.6464V228.008H29.6547V229H25.6875V228.008H24.6957V223.049H25.6875V222.058H29.6547V223.049ZM26.6793 223.049V225.033H27.6711V224.041H28.6629V223.049H26.6793ZM28.6629 228.008V226.025H27.6711V227.016H26.6793V228.008H28.6629ZM40.5701 223.049H41.5619V224.041H40.5701V225.033H37.5947V229H35.6112V222.058H40.5701V223.049ZM39.5783 224.041V223.049H37.5947V224.041H39.5783ZM48.5063 222.058V229H46.5227V225.033H44.5391V229H42.5556V222.058H44.5391V223.049H46.5227V222.058H48.5063Z" fill="white"/>
<path d="M13.7842 255.008V256H7.8335V255.008H9.81706V251.041H8.82528V250.049H9.81706V249.058H11.8006V255.008H13.7842ZM16.7615 250.049V252.033H14.7779V250.049H16.7615ZM14.7779 254.016H16.7615V256H14.7779V254.016ZM22.7102 250.049H23.702V255.008H22.7102V256H18.7431V255.008H17.7513V250.049H18.7431V249.058H22.7102V250.049ZM19.7349 250.049V252.033H20.7267V251.041H21.7185V250.049H19.7349ZM21.7185 255.008V253.025H20.7267V254.016H19.7349V255.008H21.7185ZM29.6547 250.049H30.6464V255.008H29.6547V256H25.6875V255.008H24.6957V250.049H25.6875V249.058H29.6547V250.049ZM26.6793 250.049V252.033H27.6711V251.041H28.6629V250.049H26.6793ZM28.6629 255.008V253.025H27.6711V254.016H26.6793V255.008H28.6629ZM40.5701 250.049H41.5619V251.041H40.5701V252.033H37.5947V256H35.6112V249.058H40.5701V250.049ZM39.5783 251.041V250.049H37.5947V251.041H39.5783ZM48.5063 249.058V256H46.5227V252.033H44.5391V256H42.5556V249.058H44.5391V250.049H46.5227V249.058H48.5063Z" fill="white"/>
<path d="M12.7924 277.049H13.7842V279.033H12.7924V280.025H10.8088V281.016H9.81706V282.008H11.8006V281.016H13.7842V283H7.8335V281.016H8.82528V280.025H9.81706V279.033H11.8006V277.049H9.81706V278.041H7.8335V277.049H8.82528V276.058H12.7924V277.049ZM16.7615 277.049V279.033H14.7779V277.049H16.7615ZM14.7779 281.016H16.7615V283H14.7779V281.016ZM22.7102 277.049H23.702V282.008H22.7102V283H18.7431V282.008H17.7513V277.049H18.7431V276.058H22.7102V277.049ZM19.7349 277.049V279.033H20.7267V278.041H21.7185V277.049H19.7349ZM21.7185 282.008V280.025H20.7267V281.016H19.7349V282.008H21.7185ZM29.6547 277.049H30.6464V282.008H29.6547V283H25.6875V282.008H24.6957V277.049H25.6875V276.058H29.6547V277.049ZM26.6793 277.049V279.033H27.6711V278.041H28.6629V277.049H26.6793ZM28.6629 282.008V280.025H27.6711V281.016H26.6793V282.008H28.6629ZM40.5701 277.049H41.5619V278.041H40.5701V279.033H37.5947V283H35.6112V276.058H40.5701V277.049ZM39.5783 278.041V277.049H37.5947V278.041H39.5783ZM48.5063 276.058V283H46.5227V279.033H44.5391V283H42.5556V276.058H44.5391V277.049H46.5227V276.058H48.5063Z" fill="white"/>
<path d="M12.7924 304.049H13.7842V306.033H12.7924V307.025H10.8088V308.016H9.81706V309.008H11.8006V308.016H13.7842V310H7.8335V308.016H8.82528V307.025H9.81706V306.033H11.8006V304.049H9.81706V305.041H7.8335V304.049H8.82528V303.058H12.7924V304.049ZM16.7615 304.049V306.033H14.7779V304.049H16.7615ZM14.7779 308.016H16.7615V310H14.7779V308.016ZM22.7102 304.049H23.702V309.008H22.7102V310H18.7431V309.008H17.7513V304.049H18.7431V303.058H22.7102V304.049ZM19.7349 304.049V306.033H20.7267V305.041H21.7185V304.049H19.7349ZM21.7185 309.008V307.025H20.7267V308.016H19.7349V309.008H21.7185ZM29.6547 304.049H30.6464V309.008H29.6547V310H25.6875V309.008H24.6957V304.049H25.6875V303.058H29.6547V304.049ZM26.6793 304.049V306.033H27.6711V305.041H28.6629V304.049H26.6793ZM28.6629 309.008V307.025H27.6711V308.016H26.6793V309.008H28.6629ZM40.5701 304.049H41.5619V305.041H40.5701V306.033H37.5947V310H35.6112V303.058H40.5701V304.049ZM39.5783 305.041V304.049H37.5947V305.041H39.5783ZM48.5063 303.058V310H46.5227V306.033H44.5391V310H42.5556V303.058H44.5391V304.049H46.5227V303.058H48.5063Z" fill="white"/>
<path d="M12.7924 331.049H13.7842V333.033H12.7924V334.025H13.7842V336.008H12.7924V337H8.82528V336.008H7.8335V335.016H9.81706V336.008H11.8006V334.025H9.81706V333.033H11.8006V331.049H9.81706V332.041H7.8335V331.049H8.82528V330.058H12.7924V331.049ZM16.7615 331.049V333.033H14.7779V331.049H16.7615ZM14.7779 335.016H16.7615V337H14.7779V335.016ZM22.7102 331.049H23.702V336.008H22.7102V337H18.7431V336.008H17.7513V331.049H18.7431V330.058H22.7102V331.049ZM19.7349 331.049V333.033H20.7267V332.041H21.7185V331.049H19.7349ZM21.7185 336.008V334.025H20.7267V335.016H19.7349V336.008H21.7185ZM29.6547 331.049H30.6464V336.008H29.6547V337H25.6875V336.008H24.6957V331.049H25.6875V330.058H29.6547V331.049ZM26.6793 331.049V333.033H27.6711V332.041H28.6629V331.049H26.6793ZM28.6629 336.008V334.025H27.6711V335.016H26.6793V336.008H28.6629ZM40.5701 331.049H41.5619V332.041H40.5701V333.033H37.5947V337H35.6112V330.058H40.5701V331.049ZM39.5783 332.041V331.049H37.5947V332.041H39.5783ZM48.5063 330.058V337H46.5227V333.033H44.5391V337H42.5556V330.058H44.5391V331.049H46.5227V330.058H48.5063Z" fill="white"/>
<path d="M13.7842 357.058V364H11.8006V362.016H7.8335V360.033H8.82528V359.041H9.81706V358.049H10.8088V357.058H13.7842ZM11.8006 361.025V359.041H10.8088V360.033H9.81706V361.025H11.8006ZM16.7615 358.049V360.033H14.7779V358.049H16.7615ZM14.7779 362.016H16.7615V364H14.7779V362.016ZM22.7102 358.049H23.702V363.008H22.7102V364H18.7431V363.008H17.7513V358.049H18.7431V357.058H22.7102V358.049ZM19.7349 358.049V360.033H20.7267V359.041H21.7185V358.049H19.7349ZM21.7185 363.008V361.025H20.7267V362.016H19.7349V363.008H21.7185ZM29.6547 358.049H30.6464V363.008H29.6547V364H25.6875V363.008H24.6957V358.049H25.6875V357.058H29.6547V358.049ZM26.6793 358.049V360.033H27.6711V359.041H28.6629V358.049H26.6793ZM28.6629 363.008V361.025H27.6711V362.016H26.6793V363.008H28.6629ZM40.5701 358.049H41.5619V359.041H40.5701V360.033H37.5947V364H35.6112V357.058H40.5701V358.049ZM39.5783 359.041V358.049H37.5947V359.041H39.5783ZM48.5063 357.058V364H46.5227V360.033H44.5391V364H42.5556V357.058H44.5391V358.049H46.5227V357.058H48.5063Z" fill="white"/>
<path d="M13.7842 384.058V391H11.8006V389.016H7.8335V387.033H8.82528V386.041H9.81706V385.049H10.8088V384.058H13.7842ZM11.8006 388.025V386.041H10.8088V387.033H9.81706V388.025H11.8006ZM16.7615 385.049V387.033H14.7779V385.049H16.7615ZM14.7779 389.016H16.7615V391H14.7779V389.016ZM22.7102 385.049H23.702V390.008H22.7102V391H18.7431V390.008H17.7513V385.049H18.7431V384.058H22.7102V385.049ZM19.7349 385.049V387.033H20.7267V386.041H21.7185V385.049H19.7349ZM21.7185 390.008V388.025H20.7267V389.016H19.7349V390.008H21.7185ZM29.6547 385.049H30.6464V390.008H29.6547V391H25.6875V390.008H24.6957V385.049H25.6875V384.058H29.6547V385.049ZM26.6793 385.049V387.033H27.6711V386.041H28.6629V385.049H26.6793ZM28.6629 390.008V388.025H27.6711V389.016H26.6793V390.008H28.6629ZM40.5701 385.049H41.5619V386.041H40.5701V387.033H37.5947V391H35.6112V384.058H40.5701V385.049ZM39.5783 386.041V385.049H37.5947V386.041H39.5783ZM48.5063 384.058V391H46.5227V387.033H44.5391V391H42.5556V384.058H44.5391V385.049H46.5227V384.058H48.5063Z" fill="white"/>
<path d="M9.81706 412.049V413.041H12.7924V414.033H13.7842V417.008H12.7924V418H8.82528V417.008H7.8335V416.016H9.81706V417.008H11.8006V414.033H7.8335V411.058H13.7842V412.049H9.81706ZM16.7615 412.049V414.033H14.7779V412.049H16.7615ZM14.7779 416.016H16.7615V418H14.7779V416.016ZM22.7102 412.049H23.702V417.008H22.7102V418H18.7431V417.008H17.7513V412.049H18.7431V411.058H22.7102V412.049ZM19.7349 412.049V414.033H20.7267V413.041H21.7185V412.049H19.7349ZM21.7185 417.008V415.025H20.7267V416.016H19.7349V417.008H21.7185ZM29.6547 412.049H30.6464V417.008H29.6547V418H25.6875V417.008H24.6957V412.049H25.6875V411.058H29.6547V412.049ZM26.6793 412.049V414.033H27.6711V413.041H28.6629V412.049H26.6793ZM28.6629 417.008V415.025H27.6711V416.016H26.6793V417.008H28.6629ZM40.5701 412.049H41.5619V413.041H40.5701V414.033H37.5947V418H35.6112V411.058H40.5701V412.049ZM39.5783 413.041V412.049H37.5947V413.041H39.5783ZM48.5063 411.058V418H46.5227V414.033H44.5391V418H42.5556V411.058H44.5391V412.049H46.5227V411.058H48.5063Z" fill="white"/>
<path d="M9.81706 439.049V440.041H12.7924V441.033H13.7842V444.008H12.7924V445H8.82528V444.008H7.8335V443.016H9.81706V444.008H11.8006V441.033H7.8335V438.058H13.7842V439.049H9.81706ZM16.7615 439.049V441.033H14.7779V439.049H16.7615ZM14.7779 443.016H16.7615V445H14.7779V443.016ZM22.7102 439.049H23.702V444.008H22.7102V445H18.7431V444.008H17.7513V439.049H18.7431V438.058H22.7102V439.049ZM19.7349 439.049V441.033H20.7267V440.041H21.7185V439.049H19.7349ZM21.7185 444.008V442.025H20.7267V443.016H19.7349V444.008H21.7185ZM29.6547 439.049H30.6464V444.008H29.6547V445H25.6875V444.008H24.6957V439.049H25.6875V438.058H29.6547V439.049ZM26.6793 439.049V441.033H27.6711V440.041H28.6629V439.049H26.6793ZM28.6629 444.008V442.025H27.6711V443.016H26.6793V444.008H28.6629ZM40.5701 439.049H41.5619V440.041H40.5701V441.033H37.5947V445H35.6112V438.058H40.5701V439.049ZM39.5783 440.041V439.049H37.5947V440.041H39.5783ZM48.5063 438.058V445H46.5227V441.033H44.5391V445H42.5556V438.058H44.5391V439.049H46.5227V438.058H48.5063Z" fill="white"/>
<path d="M12.7924 469.025H13.7842V471.008H12.7924V472H8.82528V471.008H7.8335V467.041H8.82528V466.049H9.81706V465.058H12.7924V466.049H10.8088V467.041H9.81706V468.033H12.7924V469.025ZM11.8006 471.008V469.025H9.81706V471.008H11.8006ZM16.7615 466.049V468.033H14.7779V466.049H16.7615ZM14.7779 470.016H16.7615V472H14.7779V470.016ZM22.7102 466.049H23.702V468.033H22.7102V469.025H23.702V471.008H22.7102V472H18.7431V471.008H17.7513V470.016H19.7349V471.008H21.7185V469.025H19.7349V468.033H21.7185V466.049H19.7349V467.041H17.7513V466.049H18.7431V465.058H22.7102V466.049ZM29.6547 466.049H30.6464V471.008H29.6547V472H25.6875V471.008H24.6957V466.049H25.6875V465.058H29.6547V466.049ZM26.6793 466.049V468.033H27.6711V467.041H28.6629V466.049H26.6793ZM28.6629 471.008V469.025H27.6711V470.016H26.6793V471.008H28.6629ZM40.5701 466.049H41.5619V467.041H40.5701V468.033H37.5947V472H35.6112V465.058H40.5701V466.049ZM39.5783 467.041V466.049H37.5947V467.041H39.5783ZM48.5063 465.058V472H46.5227V468.033H44.5391V472H42.5556V465.058H44.5391V466.049H46.5227V465.058H48.5063Z" fill="white"/>
<path d="M13.7842 492.058V495.033H12.7924V496.025H11.8006V499H9.81706V496.025H10.8088V495.033H11.8006V493.049H9.81706V494.041H7.8335V492.058H13.7842ZM16.7615 493.049V495.033H14.7779V493.049H16.7615ZM14.7779 497.016H16.7615V499H14.7779V497.016ZM22.7102 493.049H23.702V495.033H22.7102V496.025H23.702V498.008H22.7102V499H18.7431V498.008H17.7513V497.016H19.7349V498.008H21.7185V496.025H19.7349V495.033H21.7185V493.049H19.7349V494.041H17.7513V493.049H18.7431V492.058H22.7102V493.049ZM29.6547 493.049H30.6464V498.008H29.6547V499H25.6875V498.008H24.6957V493.049H25.6875V492.058H29.6547V493.049ZM26.6793 493.049V495.033H27.6711V494.041H28.6629V493.049H26.6793ZM28.6629 498.008V496.025H27.6711V497.016H26.6793V498.008H28.6629ZM40.5701 493.049H41.5619V494.041H40.5701V495.033H37.5947V499H35.6112V492.058H40.5701V493.049ZM39.5783 494.041V493.049H37.5947V494.041H39.5783ZM48.5063 492.058V499H46.5227V495.033H44.5391V499H42.5556V492.058H44.5391V493.049H46.5227V492.058H48.5063Z" fill="white"/>
<path d="M12.7924 520.049H13.7842V522.033H12.7924V523.025H13.7842V525.008H12.7924V526H8.82528V525.008H7.8335V523.025H8.82528V522.033H7.8335V520.049H8.82528V519.058H12.7924V520.049ZM11.8006 522.033V520.049H9.81706V522.033H11.8006ZM11.8006 523.025H9.81706V525.008H11.8006V523.025ZM16.7615 520.049V522.033H14.7779V520.049H16.7615ZM14.7779 524.016H16.7615V526H14.7779V524.016ZM22.7102 520.049H23.702V522.033H22.7102V523.025H23.702V525.008H22.7102V526H18.7431V525.008H17.7513V524.016H19.7349V525.008H21.7185V523.025H19.7349V522.033H21.7185V520.049H19.7349V521.041H17.7513V520.049H18.7431V519.058H22.7102V520.049ZM29.6547 520.049H30.6464V525.008H29.6547V526H25.6875V525.008H24.6957V520.049H25.6875V519.058H29.6547V520.049ZM26.6793 520.049V522.033H27.6711V521.041H28.6629V520.049H26.6793ZM28.6629 525.008V523.025H27.6711V524.016H26.6793V525.008H28.6629ZM40.5701 520.049H41.5619V521.041H40.5701V522.033H37.5947V526H35.6112V519.058H40.5701V520.049ZM39.5783 521.041V520.049H37.5947V521.041H39.5783ZM48.5063 519.058V526H46.5227V522.033H44.5391V526H42.5556V519.058H44.5391V520.049H46.5227V519.058H48.5063Z" fill="white"/>
<path d="M12.7924 547.049H13.7842V549.033H12.7924V550.025H13.7842V552.008H12.7924V553H8.82528V552.008H7.8335V550.025H8.82528V549.033H7.8335V547.049H8.82528V546.058H12.7924V547.049ZM11.8006 549.033V547.049H9.81706V549.033H11.8006ZM11.8006 550.025H9.81706V552.008H11.8006V550.025ZM16.7615 547.049V549.033H14.7779V547.049H16.7615ZM14.7779 551.016H16.7615V553H14.7779V551.016ZM22.7102 547.049H23.702V549.033H22.7102V550.025H23.702V552.008H22.7102V553H18.7431V552.008H17.7513V551.016H19.7349V552.008H21.7185V550.025H19.7349V549.033H21.7185V547.049H19.7349V548.041H17.7513V547.049H18.7431V546.058H22.7102V547.049ZM29.6547 547.049H30.6464V552.008H29.6547V553H25.6875V552.008H24.6957V547.049H25.6875V546.058H29.6547V547.049ZM26.6793 547.049V549.033H27.6711V548.041H28.6629V547.049H26.6793ZM28.6629 552.008V550.025H27.6711V551.016H26.6793V552.008H28.6629ZM40.5701 547.049H41.5619V548.041H40.5701V549.033H37.5947V553H35.6112V546.058H40.5701V547.049ZM39.5783 548.041V547.049H37.5947V548.041H39.5783ZM48.5063 546.058V553H46.5227V549.033H44.5391V553H42.5556V546.058H44.5391V547.049H46.5227V546.058H48.5063Z" fill="white"/>
<path d="M12.7924 574.049H13.7842V578.016H12.7924V579.008H11.8006V580H8.82528V579.008H10.8088V578.016H11.8006V577.025H8.82528V576.033H7.8335V574.049H8.82528V573.058H12.7924V574.049ZM11.8006 576.033V574.049H9.81706V576.033H11.8006ZM16.7615 574.049V576.033H14.7779V574.049H16.7615ZM14.7779 578.016H16.7615V580H14.7779V578.016ZM22.7102 574.049H23.702V576.033H22.7102V577.025H23.702V579.008H22.7102V580H18.7431V579.008H17.7513V578.016H19.7349V579.008H21.7185V577.025H19.7349V576.033H21.7185V574.049H19.7349V575.041H17.7513V574.049H18.7431V573.058H22.7102V574.049ZM29.6547 574.049H30.6464V579.008H29.6547V580H25.6875V579.008H24.6957V574.049H25.6875V573.058H29.6547V574.049ZM26.6793 574.049V576.033H27.6711V575.041H28.6629V574.049H26.6793ZM28.6629 579.008V577.025H27.6711V578.016H26.6793V579.008H28.6629ZM40.5701 574.049H41.5619V575.041H40.5701V576.033H37.5947V580H35.6112V573.058H40.5701V574.049ZM39.5783 575.041V574.049H37.5947V575.041H39.5783ZM48.5063 573.058V580H46.5227V576.033H44.5391V580H42.5556V573.058H44.5391V574.049H46.5227V573.058H48.5063Z" fill="white"/>
<path d="M6.83978 606.008V607H0.88908V606.008H2.87265V602.041H1.88086V601.049H2.87265V600.058H4.85621V606.008H6.83978ZM12.7924 601.049H13.7842V606.008H12.7924V607H8.82528V606.008H7.8335V601.049H8.82528V600.058H12.7924V601.049ZM9.81706 601.049V603.033H10.8088V602.041H11.8006V601.049H9.81706ZM11.8006 606.008V604.025H10.8088V605.016H9.81706V606.008H11.8006ZM16.7615 601.049V603.033H14.7779V601.049H16.7615ZM14.7779 605.016H16.7615V607H14.7779V605.016ZM22.7102 601.049H23.702V603.033H22.7102V604.025H23.702V606.008H22.7102V607H18.7431V606.008H17.7513V605.016H19.7349V606.008H21.7185V604.025H19.7349V603.033H21.7185V601.049H19.7349V602.041H17.7513V601.049H18.7431V600.058H22.7102V601.049ZM29.6547 601.049H30.6464V606.008H29.6547V607H25.6875V606.008H24.6957V601.049H25.6875V600.058H29.6547V601.049ZM26.6793 601.049V603.033H27.6711V602.041H28.6629V601.049H26.6793ZM28.6629 606.008V604.025H27.6711V605.016H26.6793V606.008H28.6629ZM40.5701 601.049H41.5619V602.041H40.5701V603.033H37.5947V607H35.6112V600.058H40.5701V601.049ZM39.5783 602.041V601.049H37.5947V602.041H39.5783ZM48.5063 600.058V607H46.5227V603.033H44.5391V607H42.5556V600.058H44.5391V601.049H46.5227V600.058H48.5063Z" fill="white"/>
<path d="M6.83978 633.008V634H0.88908V633.008H2.87265V629.041H1.88086V628.049H2.87265V627.058H4.85621V633.008H6.83978ZM12.7924 628.049H13.7842V633.008H12.7924V634H8.82528V633.008H7.8335V628.049H8.82528V627.058H12.7924V628.049ZM9.81706 628.049V630.033H10.8088V629.041H11.8006V628.049H9.81706ZM11.8006 633.008V631.025H10.8088V632.016H9.81706V633.008H11.8006ZM16.7615 628.049V630.033H14.7779V628.049H16.7615ZM14.7779 632.016H16.7615V634H14.7779V632.016ZM22.7102 628.049H23.702V630.033H22.7102V631.025H23.702V633.008H22.7102V634H18.7431V633.008H17.7513V632.016H19.7349V633.008H21.7185V631.025H19.7349V630.033H21.7185V628.049H19.7349V629.041H17.7513V628.049H18.7431V627.058H22.7102V628.049ZM29.6547 628.049H30.6464V633.008H29.6547V634H25.6875V633.008H24.6957V628.049H25.6875V627.058H29.6547V628.049ZM26.6793 628.049V630.033H27.6711V629.041H28.6629V628.049H26.6793ZM28.6629 633.008V631.025H27.6711V632.016H26.6793V633.008H28.6629ZM40.5701 628.049H41.5619V629.041H40.5701V630.033H37.5947V634H35.6112V627.058H40.5701V628.049ZM39.5783 629.041V628.049H37.5947V629.041H39.5783ZM48.5063 627.058V634H46.5227V630.033H44.5391V634H42.5556V627.058H44.5391V628.049H46.5227V627.058H48.5063Z" fill="white"/>
<path d="M77.5 928.5V748.5" stroke="white" stroke-width="2.95439" stroke-linecap="round"/>
<path d="M97.3803 755.359H98.5704V756.549H97.3803V762.5H96.1901V754.169H97.3803V755.359ZM98.5704 756.549H99.7606V757.739H98.5704V756.549ZM99.7606 755.359H100.951V754.169H102.141V762.5H100.951V756.549H99.7606V755.359ZM106.904 755.359H105.714V754.169H109.284V755.359H108.094V761.31H109.284V762.5H105.714V761.31H106.904V755.359ZM117.617 755.359H114.047V761.31H117.617V762.5H112.857V754.169H117.617V755.359ZM117.617 755.359H118.807V761.31H117.617V755.359ZM122.38 756.549H123.57V757.739H122.38V762.5H121.19V754.169H122.38V756.549ZM123.57 757.739H124.76V758.93H123.57V757.739ZM124.76 758.93H125.951V754.169H127.141V762.5H125.951V760.12H124.76V758.93ZM131.904 755.359H130.713V754.169H134.284V755.359H133.094V761.31H134.284V762.5H130.713V761.31H131.904V755.359ZM139.047 755.359V754.169H142.617V755.359H139.047ZM137.857 755.359H139.047V761.31H137.857V755.359ZM139.047 761.31H142.617V760.12H141.427V758.93H143.807V762.5H139.047V761.31ZM142.617 755.359H143.807V756.549H142.617V755.359ZM152.141 762.5H150.95V758.93H147.38V762.5H146.19V754.169H147.38V757.739H150.95V754.169H152.141V762.5ZM154.523 754.169H160.474V755.359H158.094V762.5H156.904V755.359H154.523V754.169ZM172.38 755.359V754.169H175.95V755.359H172.38ZM171.19 760.12H172.38V761.31H171.19V760.12ZM171.19 755.359H172.38V757.739H171.19V755.359ZM172.38 761.31H175.95V762.5H172.38V761.31ZM172.38 757.739H175.95V758.93H172.38V757.739ZM175.95 758.93H177.141V761.31H175.95V758.93ZM175.95 755.359H177.141V756.549H175.95V755.359ZM180.713 756.549H181.903V757.739H180.713V762.5H179.523V754.169H180.713V756.549ZM181.903 757.739H183.094V758.93H181.903V757.739ZM183.094 758.93H184.284V754.169H185.474V762.5H184.284V760.12H183.094V758.93ZM192.617 755.359H189.047V754.169H192.617V755.359ZM187.856 755.359H189.047V758.93H192.617V755.359H193.807V762.5H192.617V760.12H189.047V762.5H187.856V755.359ZM197.38 755.359V754.169H200.95V755.359H197.38ZM196.19 755.359H197.38V761.31H196.19V755.359ZM197.38 761.31H200.95V762.5H197.38V761.31ZM200.95 760.12H202.14V761.31H200.95V760.12ZM200.95 755.359H202.14V756.549H200.95V755.359ZM206.903 758.93H205.713V762.5H204.523V754.169H205.713V757.739H206.903V758.93ZM206.903 758.93H208.093V760.12H206.903V758.93ZM206.903 756.549H208.093V757.739H206.903V756.549ZM208.093 760.12H209.284V761.31H208.093V760.12ZM208.093 755.359H209.284V756.549H208.093V755.359ZM209.284 761.31H210.474V762.5H209.284V761.31ZM209.284 754.169H210.474V755.359H209.284V754.169Z" fill="white"/>
<path d="M97.3803 782.359V781.169H100.951V782.359H97.3803ZM96.1901 787.12H97.3803V788.31H96.1901V787.12ZM96.1901 782.359H97.3803V784.739H96.1901V782.359ZM97.3803 788.31H100.951V789.5H97.3803V788.31ZM97.3803 784.739H100.951V785.93H97.3803V784.739ZM100.951 785.93H102.141V788.31H100.951V785.93ZM100.951 782.359H102.141V783.549H100.951V782.359ZM104.523 789.5V781.169H105.714V788.31H110.474V789.5H104.523ZM118.807 782.359H114.047V784.739H116.427V785.93H114.047V788.31H118.807V789.5H112.857V781.169H118.807V782.359ZM127.141 782.359H122.38V784.739H124.76V785.93H122.38V788.31H127.141V789.5H121.19V781.169H127.141V782.359ZM130.713 785.93V789.5H129.523V781.169H134.284V782.359H130.713V784.739H134.284V785.93H130.713ZM134.284 782.359H135.474V784.739H134.284V782.359Z" fill="white"/>
<path d="M97.3803 812.93V815.31H100.951V816.5H96.1901V808.169H100.951V809.359H97.3803V811.739H100.951V812.93H97.3803ZM100.951 812.93H102.141V815.31H100.951V812.93ZM100.951 809.359H102.141V811.739H100.951V809.359ZM108.094 812.93V814.12H106.904V812.93H105.714V816.5H104.523V808.169H109.284V809.359H105.714V811.739H109.284V812.93H108.094ZM108.094 814.12H109.284V815.31H108.094V814.12ZM109.284 815.31H110.474V816.5H109.284V815.31ZM109.284 809.359H110.474V811.739H109.284V809.359ZM118.807 809.359H114.047V811.739H116.427V812.93H114.047V815.31H118.807V816.5H112.857V808.169H118.807V809.359ZM125.951 809.359H122.38V808.169H125.951V809.359ZM121.19 809.359H122.38V812.93H125.951V809.359H127.141V816.5H125.951V814.12H122.38V816.5H121.19V809.359ZM131.904 812.93H130.713V816.5H129.523V808.169H130.713V811.739H131.904V812.93ZM131.904 812.93H133.094V814.12H131.904V812.93ZM131.904 810.549H133.094V811.739H131.904V810.549ZM133.094 814.12H134.284V815.31H133.094V814.12ZM133.094 809.359H134.284V810.549H133.094V809.359ZM134.284 815.31H135.474V816.5H134.284V815.31ZM134.284 808.169H135.474V809.359H134.284V808.169ZM143.807 809.359H139.047V811.739H141.427V812.93H139.047V816.5H137.857V808.169H143.807V809.359ZM150.95 809.359H147.38V808.169H150.95V809.359ZM146.19 809.359H147.38V812.93H150.95V809.359H152.141V816.5H150.95V814.12H147.38V816.5H146.19V809.359ZM155.713 809.359V808.169H159.284V809.359H155.713ZM154.523 814.12H155.713V815.31H154.523V814.12ZM154.523 809.359H155.713V811.739H154.523V809.359ZM155.713 815.31H159.284V816.5H155.713V815.31ZM155.713 811.739H159.284V812.93H155.713V811.739ZM159.284 812.93H160.474V815.31H159.284V812.93ZM159.284 809.359H160.474V810.549H159.284V809.359ZM162.857 808.169H168.807V809.359H166.427V816.5H165.237V809.359H162.857V808.169Z" fill="white"/>
<path d="M97.3803 836.359V835.169H100.951V836.359H97.3803ZM96.1901 836.359H97.3803V842.31H96.1901V836.359ZM97.3803 842.31H100.951V843.5H97.3803V842.31ZM100.951 841.12H102.141V842.31H100.951V841.12ZM100.951 836.359H102.141V837.549H100.951V836.359ZM109.284 835.169V836.359H105.714V835.169H109.284ZM104.523 836.359H105.714V842.31H104.523V836.359ZM105.714 842.31H109.284V843.5H105.714V842.31ZM109.284 836.359H110.474V842.31H109.284V836.359ZM118.807 836.359H114.047V838.739H116.427V839.93H114.047V843.5H112.857V835.169H118.807V836.359ZM127.141 836.359H122.38V838.739H124.76V839.93H122.38V843.5H121.19V835.169H127.141V836.359ZM135.474 836.359H130.713V838.739H133.094V839.93H130.713V842.31H135.474V843.5H129.523V835.169H135.474V836.359ZM143.807 836.359H139.047V838.739H141.427V839.93H139.047V842.31H143.807V843.5H137.857V835.169H143.807V836.359ZM155.713 836.359V835.169H159.284V836.359H155.713ZM154.523 836.359H155.713V842.31H154.523V836.359ZM155.713 842.31H159.284V843.5H155.713V842.31ZM159.284 841.12H160.474V842.31H159.284V841.12ZM159.284 836.359H160.474V837.549H159.284V836.359ZM168.807 843.5H167.617V839.93H164.047V843.5H162.857V835.169H164.047V838.739H167.617V835.169H168.807V843.5ZM175.95 836.359H172.38V835.169H175.95V836.359ZM171.19 836.359H172.38V839.93H175.95V836.359H177.141V843.5H175.95V841.12H172.38V843.5H171.19V836.359ZM179.523 835.169H185.474V836.359H183.094V843.5H181.903V836.359H179.523V835.169ZM196.19 835.169H197.38V842.31H196.19V835.169ZM197.38 842.31H198.57V843.5H197.38V842.31ZM198.57 838.739H199.76V842.31H198.57V838.739ZM199.76 842.31H200.95V843.5H199.76V842.31ZM200.95 835.169H202.14V842.31H200.95V835.169ZM209.284 835.169V836.359H205.713V835.169H209.284ZM204.523 836.359H205.713V842.31H204.523V836.359ZM205.713 842.31H209.284V843.5H205.713V842.31ZM209.284 836.359H210.474V842.31H209.284V836.359ZM216.427 839.93V841.12H215.237V839.93H214.046V843.5H212.856V835.169H217.617V836.359H214.046V838.739H217.617V839.93H216.427ZM216.427 841.12H217.617V842.31H216.427V841.12ZM217.617 842.31H218.807V843.5H217.617V842.31ZM217.617 836.359H218.807V838.739H217.617V836.359ZM223.57 839.93H222.38V843.5H221.19V835.169H222.38V838.739H223.57V839.93ZM223.57 839.93H224.76V841.12H223.57V839.93ZM223.57 837.549H224.76V838.739H223.57V837.549ZM224.76 841.12H225.95V842.31H224.76V841.12ZM224.76 836.359H225.95V837.549H224.76V836.359ZM225.95 842.31H227.14V843.5H225.95V842.31ZM225.95 835.169H227.14V836.359H225.95V835.169ZM230.713 836.359V835.169H234.284V836.359H230.713ZM229.523 841.12H230.713V842.31H229.523V841.12ZM229.523 836.359H230.713V838.739H229.523V836.359ZM230.713 842.31H234.284V843.5H230.713V842.31ZM230.713 838.739H234.284V839.93H230.713V838.739ZM234.284 839.93H235.474V842.31H234.284V839.93ZM234.284 836.359H235.474V837.549H234.284V836.359ZM243.807 843.5H242.617V839.93H239.046V843.5H237.856V835.169H239.046V838.739H242.617V835.169H243.807V843.5ZM250.95 835.169V836.359H247.38V835.169H250.95ZM246.19 836.359H247.38V842.31H246.19V836.359ZM247.38 842.31H250.95V843.5H247.38V842.31ZM250.95 836.359H252.14V842.31H250.95V836.359ZM255.713 839.93V843.5H254.523V835.169H259.283V836.359H255.713V838.739H259.283V839.93H255.713ZM259.283 836.359H260.474V838.739H259.283V836.359Z" fill="white"/>
<path d="M97.3803 866.93V870.5H96.1901V862.169H100.951V863.359H97.3803V865.739H100.951V866.93H97.3803ZM100.951 863.359H102.141V865.739H100.951V863.359ZM106.904 863.359H105.714V862.169H109.284V863.359H108.094V869.31H109.284V870.5H105.714V869.31H106.904V863.359ZM114.047 864.549H115.237V865.739H114.047V870.5H112.857V862.169H114.047V864.549ZM115.237 865.739H116.427V866.93H115.237V865.739ZM116.427 866.93H117.617V862.169H118.807V870.5H117.617V868.12H116.427V866.93ZM125.951 863.359H122.38V862.169H125.951V863.359ZM121.19 863.359H122.38V866.93H125.951V863.359H127.141V870.5H125.951V868.12H122.38V870.5H121.19V863.359ZM129.523 862.169H135.474V863.359H133.094V870.5H131.904V863.359H129.523V862.169ZM142.617 863.359H139.047V862.169H142.617V863.359ZM137.857 863.359H139.047V866.93H142.617V863.359H143.807V870.5H142.617V868.12H139.047V870.5H137.857V863.359ZM154.523 862.169H155.713V869.31H154.523V862.169ZM155.713 869.31H156.904V870.5H155.713V869.31ZM156.904 865.739H158.094V869.31H156.904V865.739ZM158.094 869.31H159.284V870.5H158.094V869.31ZM159.284 862.169H160.474V869.31H159.284V862.169ZM167.617 862.169V863.359H164.047V862.169H167.617ZM162.857 863.359H164.047V869.31H162.857V863.359ZM164.047 869.31H167.617V870.5H164.047V869.31ZM167.617 863.359H168.807V869.31H167.617V863.359ZM174.76 866.93V868.12H173.57V866.93H172.38V870.5H171.19V862.169H175.95V863.359H172.38V865.739H175.95V866.93H174.76ZM174.76 868.12H175.95V869.31H174.76V868.12ZM175.95 869.31H177.141V870.5H175.95V869.31ZM175.95 863.359H177.141V865.739H175.95V863.359ZM181.903 866.93H180.713V870.5H179.523V862.169H180.713V865.739H181.903V866.93ZM181.903 866.93H183.094V868.12H181.903V866.93ZM181.903 864.549H183.094V865.739H181.903V864.549ZM183.094 868.12H184.284V869.31H183.094V868.12ZM183.094 863.359H184.284V864.549H183.094V863.359ZM184.284 869.31H185.474V870.5H184.284V869.31ZM184.284 862.169H185.474V863.359H184.284V862.169ZM189.047 863.359V862.169H192.617V863.359H189.047ZM187.856 868.12H189.047V869.31H187.856V868.12ZM187.856 863.359H189.047V865.739H187.856V863.359ZM189.047 869.31H192.617V870.5H189.047V869.31ZM189.047 865.739H192.617V866.93H189.047V865.739ZM192.617 866.93H193.807V869.31H192.617V866.93ZM192.617 863.359H193.807V864.549H192.617V863.359ZM202.14 870.5H200.95V866.93H197.38V870.5H196.19V862.169H197.38V865.739H200.95V862.169H202.14V870.5ZM209.284 862.169V863.359H205.713V862.169H209.284ZM204.523 863.359H205.713V869.31H204.523V863.359ZM205.713 869.31H209.284V870.5H205.713V869.31ZM209.284 863.359H210.474V869.31H209.284V863.359ZM214.046 866.93V870.5H212.856V862.169H217.617V863.359H214.046V865.739H217.617V866.93H214.046ZM217.617 863.359H218.807V865.739H217.617V863.359Z" fill="white"/>
<path d="M100.951 890.359V896.31H99.7606V890.359H98.5704V889.169H102.141V890.359H100.951ZM96.1901 895.12H97.3803V896.31H96.1901V895.12ZM97.3803 896.31H99.7606V897.5H97.3803V896.31ZM104.523 889.169H105.714V896.31H104.523V889.169ZM105.714 896.31H109.284V897.5H105.714V896.31ZM109.284 889.169H110.474V896.31H109.284V889.169ZM117.617 890.359H114.047V896.31H117.617V897.5H112.857V889.169H117.617V890.359ZM117.617 890.359H118.807V896.31H117.617V890.359ZM122.38 890.359V889.169H125.951V890.359H122.38ZM121.19 890.359H122.38V896.31H121.19V890.359ZM122.38 896.31H125.951V895.12H124.76V893.93H127.141V897.5H122.38V896.31ZM125.951 890.359H127.141V891.549H125.951V890.359ZM131.904 890.359H130.713V889.169H134.284V890.359H133.094V896.31H134.284V897.5H130.713V896.31H131.904V890.359ZM139.047 891.549H140.237V892.739H139.047V897.5H137.857V889.169H139.047V891.549ZM140.237 892.739H141.427V893.93H140.237V892.739ZM141.427 893.93H142.617V889.169H143.807V897.5H142.617V895.12H141.427V893.93ZM147.38 890.359V889.169H150.95V890.359H147.38ZM146.19 890.359H147.38V896.31H146.19V890.359ZM147.38 896.31H150.95V895.12H149.76V893.93H152.141V897.5H147.38V896.31ZM150.95 890.359H152.141V891.549H150.95V890.359Z" fill="white"/>
<path d="M97.3803 917.359V916.169H100.951V917.359H97.3803ZM96.1901 917.359H97.3803V923.31H96.1901V917.359ZM97.3803 923.31H100.951V924.5H97.3803V923.31ZM100.951 922.12H102.141V923.31H100.951V922.12ZM100.951 917.359H102.141V918.549H100.951V917.359ZM104.523 924.5V916.169H105.714V923.31H110.474V924.5H104.523ZM117.617 916.169V917.359H114.047V916.169H117.617ZM112.857 917.359H114.047V923.31H112.857V917.359ZM114.047 923.31H117.617V924.5H114.047V923.31ZM117.617 917.359H118.807V923.31H117.617V917.359ZM122.38 917.359V916.169H125.951V917.359H122.38ZM121.19 922.12H122.38V923.31H121.19V922.12ZM121.19 917.359H122.38V919.739H121.19V917.359ZM122.38 923.31H125.951V924.5H122.38V923.31ZM122.38 919.739H125.951V920.93H122.38V919.739ZM125.951 920.93H127.141V923.31H125.951V920.93ZM125.951 917.359H127.141V918.549H125.951V917.359ZM131.904 917.359H130.713V916.169H134.284V917.359H133.094V923.31H134.284V924.5H130.713V923.31H131.904V917.359ZM139.047 918.549H140.237V919.739H139.047V924.5H137.857V916.169H139.047V918.549ZM140.237 919.739H141.427V920.93H140.237V919.739ZM141.427 920.93H142.617V916.169H143.807V924.5H142.617V922.12H141.427V920.93ZM147.38 917.359V916.169H150.95V917.359H147.38ZM146.19 917.359H147.38V923.31H146.19V917.359ZM147.38 923.31H150.95V922.12H149.76V920.93H152.141V924.5H147.38V923.31ZM150.95 917.359H152.141V918.549H150.95V917.359ZM164.047 917.359V916.169H167.617V917.359H164.047ZM162.857 917.359H164.047V923.31H162.857V917.359ZM164.047 923.31H167.617V924.5H164.047V923.31ZM167.617 922.12H168.807V923.31H167.617V922.12ZM167.617 917.359H168.807V918.549H167.617V917.359ZM177.141 917.359H172.38V919.739H174.76V920.93H172.38V923.31H177.141V924.5H171.19V916.169H177.141V917.359ZM183.094 920.93V922.12H181.903V920.93H180.713V924.5H179.523V916.169H184.284V917.359H180.713V919.739H184.284V920.93H183.094ZM183.094 922.12H184.284V923.31H183.094V922.12ZM184.284 923.31H185.474V924.5H184.284V923.31ZM184.284 917.359H185.474V919.739H184.284V917.359ZM193.807 917.359H189.047V919.739H191.427V920.93H189.047V923.31H193.807V924.5H187.856V916.169H193.807V917.359ZM197.38 917.359H198.57V918.549H197.38V924.5H196.19V916.169H197.38V917.359ZM198.57 918.549H199.76V919.739H198.57V918.549ZM199.76 917.359H200.95V916.169H202.14V924.5H200.95V918.549H199.76V917.359ZM209.284 916.169V917.359H205.713V916.169H209.284ZM204.523 917.359H205.713V923.31H204.523V917.359ZM205.713 923.31H209.284V924.5H205.713V923.31ZM209.284 917.359H210.474V923.31H209.284V917.359ZM214.046 918.549H215.237V919.739H214.046V924.5H212.856V916.169H214.046V918.549ZM215.237 919.739H216.427V920.93H215.237V919.739ZM216.427 920.93H217.617V916.169H218.807V924.5H217.617V922.12H216.427V920.93ZM221.19 918.549V916.169H222.38V918.549H221.19ZM222.38 918.549H223.57V919.739H222.38V918.549ZM223.57 919.739H224.76V924.5H223.57V919.739ZM224.76 918.549H225.95V919.739H224.76V918.549ZM225.95 916.169H227.14V918.549H225.95V916.169Z" fill="white"/>
<path d="M17.3398 761.508V762.5H11.3891V761.508H13.3726V757.541H12.3809V756.549H13.3726V755.558H15.3562V761.508H17.3398ZM23.2924 756.549H24.2842V758.533H23.2924V759.525H21.3088V760.516H20.3171V761.508H22.3006V760.516H24.2842V762.5H18.3335V760.516H19.3253V759.525H20.3171V758.533H22.3006V756.549H20.3171V757.541H18.3335V756.549H19.3253V755.558H23.2924V756.549ZM27.2615 756.549V758.533H25.2779V756.549H27.2615ZM25.2779 760.516H27.2615V762.5H25.2779V760.516ZM33.2102 756.549H34.202V761.508H33.2102V762.5H29.2431V761.508H28.2513V756.549H29.2431V755.558H33.2102V756.549ZM30.2349 756.549V758.533H31.2267V757.541H32.2185V756.549H30.2349ZM32.2185 761.508V759.525H31.2267V760.516H30.2349V761.508H32.2185ZM40.1547 756.549H41.1464V761.508H40.1547V762.5H36.1875V761.508H35.1957V756.549H36.1875V755.558H40.1547V756.549ZM37.1793 756.549V758.533H38.1711V757.541H39.1629V756.549H37.1793ZM39.1629 761.508V759.525H38.1711V760.516H37.1793V761.508H39.1629ZM51.0701 756.549H52.0619V762.5H50.0783V758.533H48.0947V762.5H46.1112V756.549H47.1029V755.558H51.0701V756.549ZM50.0783 757.541V756.549H48.0947V757.541H50.0783ZM59.0063 755.558V762.5H57.0227V758.533H55.0391V762.5H53.0556V755.558H55.0391V756.549H57.0227V755.558H59.0063Z" fill="white"/>
<path d="M24.2842 788.508V789.5H18.3335V788.508H20.3171V784.541H19.3253V783.549H20.3171V782.558H22.3006V788.508H24.2842ZM27.2615 783.549V785.533H25.2779V783.549H27.2615ZM25.2779 787.516H27.2615V789.5H25.2779V787.516ZM33.2102 783.549H34.202V788.508H33.2102V789.5H29.2431V788.508H28.2513V783.549H29.2431V782.558H33.2102V783.549ZM30.2349 783.549V785.533H31.2267V784.541H32.2185V783.549H30.2349ZM32.2185 788.508V786.525H31.2267V787.516H30.2349V788.508H32.2185ZM40.1547 783.549H41.1464V788.508H40.1547V789.5H36.1875V788.508H35.1957V783.549H36.1875V782.558H40.1547V783.549ZM37.1793 783.549V785.533H38.1711V784.541H39.1629V783.549H37.1793ZM39.1629 788.508V786.525H38.1711V787.516H37.1793V788.508H39.1629ZM51.0701 783.549H52.0619V789.5H50.0783V785.533H48.0947V789.5H46.1112V783.549H47.1029V782.558H51.0701V783.549ZM50.0783 784.541V783.549H48.0947V784.541H50.0783ZM59.0063 782.558V789.5H57.0227V785.533H55.0391V789.5H53.0556V782.558H55.0391V783.549H57.0227V782.558H59.0063Z" fill="white"/>
<path d="M23.2924 810.549H24.2842V812.533H23.2924V813.525H24.2842V815.508H23.2924V816.5H19.3253V815.508H18.3335V813.525H19.3253V812.533H18.3335V810.549H19.3253V809.558H23.2924V810.549ZM22.3006 812.533V810.549H20.3171V812.533H22.3006ZM22.3006 813.525H20.3171V815.508H22.3006V813.525ZM27.2615 810.549V812.533H25.2779V810.549H27.2615ZM25.2779 814.516H27.2615V816.5H25.2779V814.516ZM33.2102 810.549H34.202V815.508H33.2102V816.5H29.2431V815.508H28.2513V810.549H29.2431V809.558H33.2102V810.549ZM30.2349 810.549V812.533H31.2267V811.541H32.2185V810.549H30.2349ZM32.2185 815.508V813.525H31.2267V814.516H30.2349V815.508H32.2185ZM40.1547 810.549H41.1464V815.508H40.1547V816.5H36.1875V815.508H35.1957V810.549H36.1875V809.558H40.1547V810.549ZM37.1793 810.549V812.533H38.1711V811.541H39.1629V810.549H37.1793ZM39.1629 815.508V813.525H38.1711V814.516H37.1793V815.508H39.1629ZM51.0701 810.549H52.0619V816.5H50.0783V812.533H48.0947V816.5H46.1112V810.549H47.1029V809.558H51.0701V810.549ZM50.0783 811.541V810.549H48.0947V811.541H50.0783ZM59.0063 809.558V816.5H57.0227V812.533H55.0391V816.5H53.0556V809.558H55.0391V810.549H57.0227V809.558H59.0063Z" fill="white"/>
<path d="M23.2924 837.549H24.2842V841.516H23.2924V842.508H22.3006V843.5H19.3253V842.508H21.3088V841.516H22.3006V840.525H19.3253V839.533H18.3335V837.549H19.3253V836.558H23.2924V837.549ZM22.3006 839.533V837.549H20.3171V839.533H22.3006ZM27.2615 837.549V839.533H25.2779V837.549H27.2615ZM25.2779 841.516H27.2615V843.5H25.2779V841.516ZM33.2102 837.549H34.202V842.508H33.2102V843.5H29.2431V842.508H28.2513V837.549H29.2431V836.558H33.2102V837.549ZM30.2349 837.549V839.533H31.2267V838.541H32.2185V837.549H30.2349ZM32.2185 842.508V840.525H31.2267V841.516H30.2349V842.508H32.2185ZM40.1547 837.549H41.1464V842.508H40.1547V843.5H36.1875V842.508H35.1957V837.549H36.1875V836.558H40.1547V837.549ZM37.1793 837.549V839.533H38.1711V838.541H39.1629V837.549H37.1793ZM39.1629 842.508V840.525H38.1711V841.516H37.1793V842.508H39.1629ZM51.0701 837.549H52.0619V843.5H50.0783V839.533H48.0947V843.5H46.1112V837.549H47.1029V836.558H51.0701V837.549ZM50.0783 838.541V837.549H48.0947V838.541H50.0783ZM59.0063 836.558V843.5H57.0227V839.533H55.0391V843.5H53.0556V836.558H55.0391V837.549H57.0227V836.558H59.0063Z" fill="white"/>
<path d="M17.3398 869.508V870.5H11.3891V869.508H13.3726V865.541H12.3809V864.549H13.3726V863.558H15.3562V869.508H17.3398ZM23.2924 864.549H24.2842V869.508H23.2924V870.5H19.3253V869.508H18.3335V864.549H19.3253V863.558H23.2924V864.549ZM20.3171 864.549V866.533H21.3088V865.541H22.3006V864.549H20.3171ZM22.3006 869.508V867.525H21.3088V868.516H20.3171V869.508H22.3006ZM27.2615 864.549V866.533H25.2779V864.549H27.2615ZM25.2779 868.516H27.2615V870.5H25.2779V868.516ZM33.2102 864.549H34.202V869.508H33.2102V870.5H29.2431V869.508H28.2513V864.549H29.2431V863.558H33.2102V864.549ZM30.2349 864.549V866.533H31.2267V865.541H32.2185V864.549H30.2349ZM32.2185 869.508V867.525H31.2267V868.516H30.2349V869.508H32.2185ZM40.1547 864.549H41.1464V869.508H40.1547V870.5H36.1875V869.508H35.1957V864.549H36.1875V863.558H40.1547V864.549ZM37.1793 864.549V866.533H38.1711V865.541H39.1629V864.549H37.1793ZM39.1629 869.508V867.525H38.1711V868.516H37.1793V869.508H39.1629ZM51.0701 864.549H52.0619V870.5H50.0783V866.533H48.0947V870.5H46.1112V864.549H47.1029V863.558H51.0701V864.549ZM50.0783 865.541V864.549H48.0947V865.541H50.0783ZM59.0063 863.558V870.5H57.0227V866.533H55.0391V870.5H53.0556V863.558H55.0391V864.549H57.0227V863.558H59.0063Z" fill="white"/>
<path d="M17.3398 896.508V897.5H11.3891V896.508H13.3726V892.541H12.3809V891.549H13.3726V890.558H15.3562V896.508H17.3398ZM24.2842 896.508V897.5H18.3335V896.508H20.3171V892.541H19.3253V891.549H20.3171V890.558H22.3006V896.508H24.2842ZM27.2615 891.549V893.533H25.2779V891.549H27.2615ZM25.2779 895.516H27.2615V897.5H25.2779V895.516ZM33.2102 891.549H34.202V896.508H33.2102V897.5H29.2431V896.508H28.2513V891.549H29.2431V890.558H33.2102V891.549ZM30.2349 891.549V893.533H31.2267V892.541H32.2185V891.549H30.2349ZM32.2185 896.508V894.525H31.2267V895.516H30.2349V896.508H32.2185ZM40.1547 891.549H41.1464V896.508H40.1547V897.5H36.1875V896.508H35.1957V891.549H36.1875V890.558H40.1547V891.549ZM37.1793 891.549V893.533H38.1711V892.541H39.1629V891.549H37.1793ZM39.1629 896.508V894.525H38.1711V895.516H37.1793V896.508H39.1629ZM51.0701 891.549H52.0619V897.5H50.0783V893.533H48.0947V897.5H46.1112V891.549H47.1029V890.558H51.0701V891.549ZM50.0783 892.541V891.549H48.0947V892.541H50.0783ZM59.0063 890.558V897.5H57.0227V893.533H55.0391V897.5H53.0556V890.558H55.0391V891.549H57.0227V890.558H59.0063Z" fill="white"/>
<path d="M23.2924 918.549H24.2842V920.533H23.2924V921.525H21.3088V922.516H20.3171V923.508H22.3006V922.516H24.2842V924.5H18.3335V922.516H19.3253V921.525H20.3171V920.533H22.3006V918.549H20.3171V919.541H18.3335V918.549H19.3253V917.558H23.2924V918.549ZM27.2615 918.549V920.533H25.2779V918.549H27.2615ZM25.2779 922.516H27.2615V924.5H25.2779V922.516ZM33.2102 918.549H34.202V923.508H33.2102V924.5H29.2431V923.508H28.2513V918.549H29.2431V917.558H33.2102V918.549ZM30.2349 918.549V920.533H31.2267V919.541H32.2185V918.549H30.2349ZM32.2185 923.508V921.525H31.2267V922.516H30.2349V923.508H32.2185ZM40.1547 918.549H41.1464V923.508H40.1547V924.5H36.1875V923.508H35.1957V918.549H36.1875V917.558H40.1547V918.549ZM37.1793 918.549V920.533H38.1711V919.541H39.1629V918.549H37.1793ZM39.1629 923.508V921.525H38.1711V922.516H37.1793V923.508H39.1629ZM51.0701 918.549H52.0619V919.541H51.0701V920.533H48.0947V924.5H46.1112V917.558H51.0701V918.549ZM50.0783 919.541V918.549H48.0947V919.541H50.0783ZM59.0063 917.558V924.5H57.0227V920.533H55.0391V924.5H53.0556V917.558H55.0391V918.549H57.0227V917.558H59.0063Z" fill="white"/>
</svg>
