<svg width="1155" height="1316" viewBox="0 0 1155 1316" fill="none" xmlns="http://www.w3.org/2000/svg">
<path d="M134 1313L134 124" stroke="white" stroke-width="5.9507" stroke-linecap="round"/>
<path d="M180.836 138.718H173.695V136.338H180.836V138.718ZM171.315 150.62V138.718H173.695V150.62H171.315ZM173.695 153V150.62H180.836V153H173.695ZM180.836 150.62V148.239H183.216V150.62H180.836ZM180.836 141.099V138.718H183.216V141.099H180.836ZM199.883 136.338V153H197.502V145.859H190.361V153H187.981V136.338H190.361V143.479H197.502V136.338H199.883ZM216.549 136.338V138.718H207.028V143.479H211.789V145.859H207.028V150.62H216.549V153H204.648V136.338H216.549ZM230.836 138.718H223.695V136.338H230.836V138.718ZM221.314 150.62V138.718H223.695V150.62H221.314ZM223.695 153V150.62H230.836V153H223.695ZM230.836 150.62V148.239H233.216V150.62H230.836ZM230.836 141.099V138.718H233.216V141.099H230.836ZM242.742 143.479V145.859H240.361V153H237.981V136.338H240.361V143.479H242.742ZM242.742 148.239V145.859H245.122V148.239H242.742ZM242.742 143.479V141.099H245.122V143.479H242.742ZM245.122 150.62V148.239H247.502V150.62H245.122ZM245.122 141.099V138.718H247.502V141.099H245.122ZM247.502 153V150.62H249.882V153H247.502ZM247.502 138.718V136.338H249.882V138.718H247.502ZM264.169 148.239H257.028V145.859H264.169V148.239ZM276.075 150.62V138.718H273.694V136.338H280.835V138.718H278.455V150.62H280.835V153H273.694V150.62H276.075ZM290.361 136.338V141.099H292.741V143.479H290.361V153H287.981V136.338H290.361ZM292.741 145.859V143.479H295.122V145.859H292.741ZM295.122 148.239V145.859H297.502V136.338H299.882V153H297.502V148.239H295.122Z" fill="white"/>
<path d="M171.38 192.718V190.338H183.282V192.718H178.521V207H176.141V192.718H171.38ZM199.948 190.338V192.718H190.427V197.479H195.188V199.859H190.427V204.62H199.948V207H188.047V190.338H199.948ZM214.235 190.338V192.718H207.094V190.338H214.235ZM204.713 207V192.718H207.094V199.859H214.235V192.718H216.615V207H214.235V202.239H207.094V207H204.713ZM223.76 190.338V192.718H226.141V195.099H223.76V207H221.38V190.338H223.76ZM226.141 197.479V195.099H228.521V197.479H226.141ZM228.521 195.099V192.718H230.901V190.338H233.281V207H230.901V195.099H228.521ZM266.615 190.338V192.718H257.094V197.479H261.854V199.859H257.094V207H254.713V190.338H266.615ZM273.76 190.338H280.901V192.718H273.76V190.338ZM271.38 204.62V192.718H273.76V204.62H271.38ZM273.76 207V204.62H280.901V207H273.76ZM280.901 204.62V192.718H283.281V204.62H280.901ZM297.568 199.859H295.187V202.239H292.807V199.859H290.427V207H288.046V190.338H297.568V192.718H290.427V197.479H297.568V199.859ZM295.187 204.62V202.239H297.568V204.62H295.187ZM297.568 207V204.62H299.948V207H297.568ZM297.568 197.479V192.718H299.948V197.479H297.568ZM307.093 190.338V192.718H309.474V195.099H307.093V207H304.713V190.338H307.093ZM309.474 197.479V195.099H311.854V197.479H309.474ZM311.854 195.099V192.718H314.234V190.338H316.614V207H314.234V195.099H311.854ZM330.901 190.338V192.718H323.76V190.338H330.901ZM321.38 207V192.718H323.76V199.859H330.901V192.718H333.281V207H330.901V202.239H323.76V207H321.38ZM338.046 192.718V190.338H349.948V192.718H345.187V207H342.807V192.718H338.046ZM359.473 204.62V192.718H357.093V190.338H364.234V192.718H361.854V204.62H364.234V207H357.093V204.62H359.473ZM373.76 190.338H380.901V192.718H373.76V190.338ZM371.379 204.62V192.718H373.76V204.62H371.379ZM373.76 207V204.62H380.901V207H373.76ZM380.901 204.62V192.718H383.281V204.62H380.901ZM390.426 190.338V195.099H392.807V197.479H390.426V207H388.046V190.338H390.426ZM392.807 199.859V197.479H395.187V199.859H392.807ZM395.187 202.239V199.859H397.567V190.338H399.947V207H397.567V202.239H395.187ZM414.234 192.718H407.093V190.338H414.234V192.718ZM404.713 204.62V202.239H407.093V204.62H404.713ZM404.713 197.479V192.718H407.093V197.479H404.713ZM407.093 207V204.62H414.234V207H407.093ZM407.093 199.859V197.479H414.234V199.859H407.093ZM414.234 204.62V199.859H416.614V204.62H414.234ZM414.234 195.099V192.718H416.614V195.099H414.234Z" fill="white"/>
<path d="M176.141 246.718H173.761V244.338H180.901V246.718H178.521V258.62H180.901V261H173.761V258.62H176.141V246.718ZM190.427 249.099H192.807V251.479H190.427V261H188.047V244.338H190.427V249.099ZM192.807 251.479H195.188V253.859H192.807V251.479ZM195.188 253.859H197.568V244.338H199.948V261H197.568V256.239H195.188V253.859ZM204.713 244.338H216.615V246.718H211.854V261H209.474V246.718H204.713V244.338ZM228.521 253.859V256.239H226.141V253.859H223.76V261H221.38V244.338H230.901V246.718H223.76V251.479H230.901V253.859H228.521ZM228.521 256.239H230.901V258.62H228.521V256.239ZM230.901 258.62H233.281V261H230.901V258.62ZM230.901 246.718H233.281V251.479H230.901V246.718ZM247.568 244.338V246.718H240.427V244.338H247.568ZM238.047 246.718H240.427V258.62H238.047V246.718ZM240.427 258.62H247.568V261H240.427V258.62ZM247.568 246.718H249.948V258.62H247.568V246.718ZM271.38 244.338H283.281V246.718H278.521V261H276.14V246.718H271.38V244.338ZM297.568 244.338V246.718H290.427V244.338H297.568ZM288.046 246.718H290.427V258.62H288.046V246.718ZM290.427 258.62H297.568V261H290.427V258.62ZM297.568 246.718H299.948V258.62H297.568V246.718ZM333.281 246.718H323.76V251.479H328.521V253.859H323.76V261H321.38V244.338H333.281V246.718ZM338.046 244.338H340.427V258.62H338.046V244.338ZM340.427 258.62H347.567V261H340.427V258.62ZM347.567 244.338H349.948V258.62H347.567V244.338ZM354.713 261V244.338H357.093V258.62H366.614V261H354.713ZM371.379 261V244.338H373.76V258.62H383.281V261H371.379ZM407.093 246.718V244.338H414.234V246.718H407.093ZM404.713 256.239H407.093V258.62H404.713V256.239ZM404.713 246.718H407.093V251.479H404.713V246.718ZM407.093 258.62H414.234V261H407.093V258.62ZM407.093 251.479H414.234V253.859H407.093V251.479ZM414.234 253.859H416.614V258.62H414.234V253.859ZM414.234 246.718H416.614V249.099H414.234V246.718ZM421.379 244.338H433.281V246.718H428.52V261H426.14V246.718H421.379V244.338ZM447.567 246.718H440.426V244.338H447.567V246.718ZM438.046 246.718H440.426V253.859H447.567V246.718H449.947V261H447.567V256.239H440.426V261H438.046V246.718ZM457.093 246.718V244.338H464.234V246.718H457.093ZM454.712 246.718H457.093V258.62H454.712V246.718ZM457.093 258.62H464.234V261H457.093V258.62ZM464.234 256.239H466.614V258.62H464.234V256.239ZM464.234 246.718H466.614V249.099H464.234V246.718ZM476.14 253.859H473.759V261H471.379V244.338H473.759V251.479H476.14V253.859ZM476.14 253.859H478.52V256.239H476.14V253.859ZM476.14 249.099H478.52V251.479H476.14V249.099ZM478.52 256.239H480.9V258.62H478.52V256.239ZM478.52 246.718H480.9V249.099H478.52V246.718ZM480.9 258.62H483.28V261H480.9V258.62ZM480.9 244.338H483.28V246.718H480.9V244.338ZM514.233 246.718H507.093V258.62H514.233V261H504.712V244.338H514.233V246.718ZM514.233 246.718H516.614V258.62H514.233V246.718ZM533.28 246.718H523.759V251.479H528.52V253.859H523.759V258.62H533.28V261H521.379V244.338H533.28V246.718ZM538.046 244.338H540.426V251.479H538.046V244.338ZM540.426 251.479H542.806V256.239H540.426V251.479ZM542.806 256.239H545.186V261H542.806V256.239ZM545.186 251.479H547.567V256.239H545.186V251.479ZM547.567 244.338H549.947V251.479H547.567V244.338Z" fill="white"/>
<path d="M183.282 298.338V315H180.901V307.859H173.761V315H171.38V298.338H173.761V305.479H180.901V298.338H183.282ZM197.568 298.338V300.718H190.427V298.338H197.568ZM188.047 315V300.718H190.427V307.859H197.568V300.718H199.948V315H197.568V310.239H190.427V315H188.047ZM214.235 300.718H207.094V298.338H214.235V300.718ZM204.713 312.62V300.718H207.094V312.62H204.713ZM207.094 315V312.62H214.235V315H207.094ZM214.235 312.62V310.239H216.615V312.62H214.235ZM214.235 303.099V300.718H216.615V303.099H214.235ZM226.141 305.479V307.859H223.76V315H221.38V298.338H223.76V305.479H226.141ZM226.141 310.239V307.859H228.521V310.239H226.141ZM226.141 305.479V303.099H228.521V305.479H226.141ZM228.521 312.62V310.239H230.901V312.62H228.521ZM228.521 303.099V300.718H230.901V303.099H228.521ZM230.901 315V312.62H233.281V315H230.901ZM230.901 300.718V298.338H233.281V300.718H230.901ZM247.568 298.338V300.718H240.427V298.338H247.568ZM238.047 315V300.718H240.427V307.859H247.568V300.718H249.948V315H247.568V310.239H240.427V315H238.047ZM254.713 300.718V298.338H266.615V300.718H261.854V315H259.474V300.718H254.713ZM283.281 298.338V315H280.901V307.859H273.76V315H271.38V298.338H273.76V305.479H280.901V298.338H283.281ZM290.427 298.338H297.568V300.718H290.427V298.338ZM288.046 312.62V300.718H290.427V312.62H288.046ZM290.427 315V312.62H297.568V315H290.427ZM297.568 312.62V300.718H299.948V312.62H297.568ZM307.093 298.338V303.099H309.474V305.479H307.093V315H304.713V298.338H307.093ZM309.474 307.859V305.479H311.854V307.859H309.474ZM311.854 310.239V307.859H314.234V298.338H316.614V315H314.234V310.239H311.854ZM345.187 298.338V315H342.807V303.099H340.427V300.718H342.807V298.338H345.187ZM357.093 298.338H364.234V300.718H357.093V298.338ZM354.713 312.62V300.718H357.093V312.62H354.713ZM357.093 315V312.62H364.234V315H357.093ZM364.234 312.62V300.718H366.614V312.62H364.234ZM378.52 298.338V315H376.14V303.099H373.76V300.718H376.14V298.338H378.52Z" fill="white"/>
<path d="M171.38 354.718V352.338H183.282V354.718H178.521V369H176.141V354.718H171.38ZM199.948 352.338V354.718H190.427V359.479H195.188V361.859H190.427V366.62H199.948V369H188.047V352.338H199.948ZM214.235 352.338V354.718H207.094V352.338H214.235ZM204.713 369V354.718H207.094V361.859H214.235V354.718H216.615V369H214.235V364.239H207.094V369H204.713ZM223.76 352.338V354.718H226.141V357.099H223.76V369H221.38V352.338H223.76ZM226.141 359.479V357.099H228.521V359.479H226.141ZM228.521 357.099V354.718H230.901V352.338H233.281V369H230.901V357.099H228.521ZM266.615 352.338V354.718H257.094V359.479H261.854V361.859H257.094V369H254.713V352.338H266.615ZM273.76 352.338H280.901V354.718H273.76V352.338ZM271.38 366.62V354.718H273.76V366.62H271.38ZM273.76 369V366.62H280.901V369H273.76ZM280.901 366.62V354.718H283.281V366.62H280.901ZM297.568 361.859H295.187V364.239H292.807V361.859H290.427V369H288.046V352.338H297.568V354.718H290.427V359.479H297.568V361.859ZM295.187 366.62V364.239H297.568V366.62H295.187ZM297.568 369V366.62H299.948V369H297.568ZM297.568 359.479V354.718H299.948V359.479H297.568ZM307.093 352.338V354.718H309.474V357.099H307.093V369H304.713V352.338H307.093ZM309.474 359.479V357.099H311.854V359.479H309.474ZM311.854 357.099V354.718H314.234V352.338H316.614V369H314.234V357.099H311.854ZM330.901 352.338V354.718H323.76V352.338H330.901ZM321.38 369V354.718H323.76V361.859H330.901V354.718H333.281V369H330.901V364.239H323.76V369H321.38ZM338.046 354.718V352.338H349.948V354.718H345.187V369H342.807V354.718H338.046ZM359.473 366.62V354.718H357.093V352.338H364.234V354.718H361.854V366.62H364.234V369H357.093V366.62H359.473ZM373.76 352.338H380.901V354.718H373.76V352.338ZM371.379 366.62V354.718H373.76V366.62H371.379ZM373.76 369V366.62H380.901V369H373.76ZM380.901 366.62V354.718H383.281V366.62H380.901ZM390.426 352.338V357.099H392.807V359.479H390.426V369H388.046V352.338H390.426ZM392.807 361.859V359.479H395.187V361.859H392.807ZM395.187 364.239V361.859H397.567V352.338H399.947V369H397.567V364.239H395.187ZM414.234 354.718H407.093V352.338H414.234V354.718ZM404.713 366.62V364.239H407.093V366.62H404.713ZM404.713 359.479V354.718H407.093V359.479H404.713ZM407.093 369V366.62H414.234V369H407.093ZM407.093 361.859V359.479H414.234V361.859H407.093ZM414.234 366.62V361.859H416.614V366.62H414.234ZM414.234 357.099V354.718H416.614V357.099H414.234Z" fill="white"/>
<path d="M183.282 423H171.38V406.338H173.761V420.62H183.282V423ZM188.047 420.62V406.338H190.427V420.62H188.047ZM190.427 423V420.62H197.568V423H190.427ZM197.568 420.62V406.338H199.948V420.62H197.568ZM207.094 406.338V411.099H209.474V413.479H207.094V423H204.713V406.338H207.094ZM209.474 415.859V413.479H211.854V415.859H209.474ZM211.854 418.239V415.859H214.235V406.338H216.615V423H214.235V418.239H211.854ZM230.901 408.718H223.76V406.338H230.901V408.718ZM221.38 420.62V408.718H223.76V420.62H221.38ZM223.76 423V420.62H230.901V423H223.76ZM230.901 420.62V418.239H233.281V420.62H230.901ZM230.901 411.099V408.718H233.281V411.099H230.901ZM249.948 406.338V423H247.568V415.859H240.427V423H238.047V406.338H240.427V413.479H247.568V406.338H249.948ZM280.901 415.859H273.76V420.62H280.901V423H271.38V406.338H280.901V408.718H273.76V413.479H280.901V415.859ZM280.901 420.62V415.859H283.281V420.62H280.901ZM280.901 413.479V408.718H283.281V413.479H280.901ZM297.568 415.859H295.187V418.239H292.807V415.859H290.427V423H288.046V406.338H297.568V408.718H290.427V413.479H297.568V415.859ZM295.187 420.62V418.239H297.568V420.62H295.187ZM297.568 423V420.62H299.948V423H297.568ZM297.568 413.479V408.718H299.948V413.479H297.568ZM316.614 406.338V408.718H307.093V413.479H311.854V415.859H307.093V420.62H316.614V423H304.713V406.338H316.614ZM330.901 406.338V408.718H323.76V406.338H330.901ZM321.38 423V408.718H323.76V415.859H330.901V408.718H333.281V423H330.901V418.239H323.76V423H321.38ZM342.807 413.479V415.859H340.427V423H338.046V406.338H340.427V413.479H342.807ZM342.807 418.239V415.859H345.187V418.239H342.807ZM342.807 413.479V411.099H345.187V413.479H342.807ZM345.187 420.62V418.239H347.567V420.62H345.187ZM345.187 411.099V408.718H347.567V411.099H345.187ZM347.567 423V420.62H349.948V423H347.567ZM347.567 408.718V406.338H349.948V408.718H347.567Z" fill="white"/>
<path d="M180.901 462.718H173.761V460.338H180.901V462.718ZM171.38 462.718H173.761V469.859H180.901V462.718H183.282V477H180.901V472.239H173.761V477H171.38V462.718ZM190.427 469.859V477H188.047V460.338H197.568V462.718H190.427V467.479H197.568V469.859H190.427ZM197.568 462.718H199.948V467.479H197.568V462.718ZM209.474 462.718H207.094V460.338H214.235V462.718H211.854V474.62H214.235V477H207.094V474.62H209.474V462.718ZM245.188 477H242.807V465.099H240.427V462.718H242.807V460.338H245.188V477ZM264.234 460.338V462.718H257.094V460.338H264.234ZM254.713 462.718H257.094V474.62H254.713V462.718ZM257.094 474.62H264.234V477H257.094V474.62ZM264.234 462.718H266.615V474.62H264.234V462.718ZM278.521 477H276.14V465.099H273.76V462.718H276.14V460.338H278.521V477Z" fill="white"/>
<path d="M176.141 516.718H173.761V514.338H180.901V516.718H178.521V528.62H180.901V531H173.761V528.62H176.141V516.718ZM190.427 519.099H192.807V521.479H190.427V531H188.047V514.338H190.427V519.099ZM192.807 521.479H195.188V523.859H192.807V521.479ZM195.188 523.859H197.568V514.338H199.948V531H197.568V526.239H195.188V523.859ZM204.713 514.338H216.615V516.718H211.854V531H209.474V516.718H204.713V514.338ZM228.521 523.859V526.239H226.141V523.859H223.76V531H221.38V514.338H230.901V516.718H223.76V521.479H230.901V523.859H228.521ZM228.521 526.239H230.901V528.62H228.521V526.239ZM230.901 528.62H233.281V531H230.901V528.62ZM230.901 516.718H233.281V521.479H230.901V516.718ZM247.568 514.338V516.718H240.427V514.338H247.568ZM238.047 516.718H240.427V528.62H238.047V516.718ZM240.427 528.62H247.568V531H240.427V528.62ZM247.568 516.718H249.948V528.62H247.568V516.718ZM271.38 514.338H283.281V516.718H278.521V531H276.14V516.718H271.38V514.338ZM297.568 514.338V516.718H290.427V514.338H297.568ZM288.046 516.718H290.427V528.62H288.046V516.718ZM290.427 528.62H297.568V531H290.427V528.62ZM297.568 516.718H299.948V528.62H297.568V516.718ZM321.38 514.338H323.76V528.62H321.38V514.338ZM323.76 528.62H326.14V531H323.76V528.62ZM326.14 521.479H328.521V528.62H326.14V521.479ZM328.521 528.62H330.901V531H328.521V528.62ZM330.901 514.338H333.281V528.62H330.901V514.338ZM349.948 516.718H340.427V521.479H345.187V523.859H340.427V528.62H349.948V531H338.046V514.338H349.948V516.718ZM357.093 523.859V528.62H364.234V531H354.713V514.338H364.234V516.718H357.093V521.479H364.234V523.859H357.093ZM364.234 523.859H366.614V528.62H364.234V523.859ZM364.234 516.718H366.614V521.479H364.234V516.718ZM397.567 516.718H390.426V528.62H397.567V531H388.046V514.338H397.567V516.718ZM397.567 516.718H399.947V528.62H397.567V516.718ZM416.614 516.718H407.093V521.479H411.854V523.859H407.093V528.62H416.614V531H404.713V514.338H416.614V516.718ZM421.379 514.338H423.76V521.479H421.379V514.338ZM423.76 521.479H426.14V526.239H423.76V521.479ZM426.14 526.239H428.52V531H426.14V526.239ZM428.52 521.479H430.9V526.239H428.52V521.479ZM430.9 514.338H433.281V521.479H430.9V514.338Z" fill="white"/>
<path d="M183.282 570.718H173.761V575.479H178.521V577.859H173.761V585H171.38V568.338H183.282V570.718ZM192.807 570.718H190.427V568.338H197.568V570.718H195.188V582.62H197.568V585H190.427V582.62H192.807V570.718ZM207.094 570.718V568.338H214.235V570.718H207.094ZM204.713 570.718H207.094V582.62H204.713V570.718ZM207.094 582.62H214.235V580.239H211.854V577.859H216.615V585H207.094V582.62ZM214.235 570.718H216.615V573.099H214.235V570.718ZM223.76 570.718H226.141V573.099H223.76V585H221.38V568.338H223.76V570.718ZM226.141 573.099H228.521V575.479H226.141V573.099ZM228.521 570.718H230.901V568.338H233.281V585H230.901V573.099H228.521V570.718ZM247.568 570.718H240.427V568.338H247.568V570.718ZM238.047 570.718H240.427V577.859H247.568V570.718H249.948V585H247.568V580.239H240.427V585H238.047V570.718ZM271.38 568.338H273.76V582.62H271.38V568.338ZM273.76 582.62H276.14V585H273.76V582.62ZM276.14 575.479H278.521V582.62H276.14V575.479ZM278.521 582.62H280.901V585H278.521V582.62ZM280.901 568.338H283.281V582.62H280.901V568.338ZM297.568 568.338V570.718H290.427V568.338H297.568ZM288.046 570.718H290.427V582.62H288.046V570.718ZM290.427 582.62H297.568V585H290.427V582.62ZM297.568 570.718H299.948V582.62H297.568V570.718ZM311.854 577.859V580.239H309.474V577.859H307.093V585H304.713V568.338H314.234V570.718H307.093V575.479H314.234V577.859H311.854ZM311.854 580.239H314.234V582.62H311.854V580.239ZM314.234 582.62H316.614V585H314.234V582.62ZM314.234 570.718H316.614V575.479H314.234V570.718ZM326.14 577.859H323.76V585H321.38V568.338H323.76V575.479H326.14V577.859ZM326.14 577.859H328.521V580.239H326.14V577.859ZM326.14 573.099H328.521V575.479H326.14V573.099ZM328.521 580.239H330.901V582.62H328.521V580.239ZM328.521 570.718H330.901V573.099H328.521V570.718ZM330.901 582.62H333.281V585H330.901V582.62ZM330.901 568.338H333.281V570.718H330.901V568.338ZM340.427 570.718V568.338H347.567V570.718H340.427ZM338.046 580.239H340.427V582.62H338.046V580.239ZM338.046 570.718H340.427V575.479H338.046V570.718ZM340.427 582.62H347.567V585H340.427V582.62ZM340.427 575.479H347.567V577.859H340.427V575.479ZM347.567 577.859H349.948V582.62H347.567V577.859ZM347.567 570.718H349.948V573.099H347.567V570.718ZM366.614 585H364.234V577.859H357.093V585H354.713V568.338H357.093V575.479H364.234V568.338H366.614V585ZM380.901 568.338V570.718H373.76V568.338H380.901ZM371.379 570.718H373.76V582.62H371.379V570.718ZM373.76 582.62H380.901V585H373.76V582.62ZM380.901 570.718H383.281V582.62H380.901V570.718ZM390.426 577.859V585H388.046V568.338H397.567V570.718H390.426V575.479H397.567V577.859H390.426ZM397.567 570.718H399.947V575.479H397.567V570.718Z" fill="white"/>
<path d="M183.282 624.718H173.761V629.479H178.521V631.859H173.761V636.62H183.282V639H171.38V622.338H183.282V624.718ZM188.047 622.338H199.948V624.718H195.188V639H192.807V624.718H188.047V622.338ZM216.615 639H214.235V631.859H207.094V639H204.713V622.338H207.094V629.479H214.235V622.338H216.615V639ZM226.141 624.718H223.76V622.338H230.901V624.718H228.521V636.62H230.901V639H223.76V636.62H226.141V624.718ZM240.427 624.718V622.338H247.568V624.718H240.427ZM238.047 624.718H240.427V636.62H238.047V624.718ZM240.427 636.62H247.568V639H240.427V636.62ZM247.568 634.239H249.948V636.62H247.568V634.239ZM247.568 624.718H249.948V627.099H247.568V624.718ZM264.234 624.718H257.094V622.338H264.234V624.718ZM254.713 624.718H257.094V631.859H264.234V624.718H266.615V639H264.234V634.239H257.094V639H254.713V624.718ZM271.38 639V622.338H273.76V636.62H283.281V639H271.38ZM314.234 624.718H307.093V622.338H314.234V624.718ZM304.713 624.718H307.093V631.859H314.234V624.718H316.614V639H314.234V634.239H307.093V639H304.713V624.718ZM326.14 624.718H323.76V622.338H330.901V624.718H328.521V636.62H330.901V639H323.76V636.62H326.14V624.718Z" fill="white"/>
<path d="M171.38 676.338H173.761V690.62H171.38V676.338ZM173.761 690.62H176.141V693H173.761V690.62ZM176.141 683.479H178.521V690.62H176.141V683.479ZM178.521 690.62H180.901V693H178.521V690.62ZM180.901 676.338H183.282V690.62H180.901V676.338ZM199.948 678.718H190.427V683.479H195.188V685.859H190.427V690.62H199.948V693H188.047V676.338H199.948V678.718ZM207.094 685.859V690.62H214.235V693H204.713V676.338H214.235V678.718H207.094V683.479H214.235V685.859H207.094ZM214.235 685.859H216.615V690.62H214.235V685.859ZM214.235 678.718H216.615V683.479H214.235V678.718ZM247.568 678.718H240.427V690.62H247.568V693H238.047V676.338H247.568V678.718ZM247.568 678.718H249.948V690.62H247.568V678.718ZM266.615 678.718H257.094V683.479H261.854V685.859H257.094V690.62H266.615V693H254.713V676.338H266.615V678.718ZM271.38 676.338H273.76V683.479H271.38V676.338ZM273.76 683.479H276.14V688.239H273.76V683.479ZM276.14 688.239H278.521V693H276.14V688.239ZM278.521 683.479H280.901V688.239H278.521V683.479ZM280.901 676.338H283.281V683.479H280.901V676.338ZM311.854 678.718H309.474V676.338H311.854V678.718ZM307.093 678.718H309.474V690.62H307.093V678.718ZM309.474 690.62H311.854V693H309.474V690.62ZM326.14 678.718H323.76V676.338H330.901V678.718H328.521V690.62H330.901V693H323.76V690.62H326.14V678.718ZM340.427 681.099H342.807V683.479H340.427V693H338.046V676.338H340.427V681.099ZM342.807 683.479H345.187V685.859H342.807V683.479ZM345.187 685.859H347.567V676.338H349.948V693H347.567V688.239H345.187V685.859ZM354.713 676.338H366.614V678.718H361.854V693H359.473V678.718H354.713V676.338ZM383.281 678.718H373.76V683.479H378.52V685.859H373.76V690.62H383.281V693H371.379V676.338H383.281V678.718ZM395.187 685.859V688.239H392.807V685.859H390.426V693H388.046V676.338H397.567V678.718H390.426V683.479H397.567V685.859H395.187ZM395.187 688.239H397.567V690.62H395.187V688.239ZM397.567 690.62H399.947V693H397.567V690.62ZM397.567 678.718H399.947V683.479H397.567V678.718ZM407.093 678.718H409.473V681.099H407.093V693H404.713V676.338H407.093V678.718ZM409.473 681.099H411.854V683.479H409.473V681.099ZM411.854 678.718H414.234V676.338H416.614V693H414.234V681.099H411.854V678.718ZM433.281 678.718H423.76V683.479H428.52V685.859H423.76V690.62H433.281V693H421.379V676.338H433.281V678.718ZM447.567 678.718H440.426V690.62H447.567V693H438.046V676.338H447.567V678.718ZM447.567 678.718H449.947V690.62H447.567V678.718ZM459.473 678.718H457.093V676.338H464.234V678.718H461.853V690.62H464.234V693H457.093V690.62H459.473V678.718ZM480.9 678.718H473.759V676.338H480.9V678.718ZM471.379 678.718H473.759V685.859H480.9V678.718H483.28V693H480.9V688.239H473.759V693H471.379V678.718ZM488.046 676.338H499.947V678.718H495.187V693H492.806V678.718H488.046V676.338ZM516.614 678.718H507.093V683.479H511.853V685.859H507.093V690.62H516.614V693H504.712V676.338H516.614V678.718ZM527.33 678.718H524.949V676.338H527.33V678.718ZM524.949 690.62H527.33V693H524.949V690.62ZM527.33 678.718H529.71V690.62H527.33V678.718Z" fill="white"/>
<path d="M176.141 732.718H173.761V730.338H180.901V732.718H178.521V744.62H180.901V747H173.761V744.62H176.141V732.718ZM190.427 735.099H192.807V737.479H190.427V747H188.047V730.338H190.427V735.099ZM192.807 737.479H195.188V739.859H192.807V737.479ZM195.188 739.859H197.568V730.338H199.948V747H197.568V742.239H195.188V739.859ZM204.713 730.338H216.615V732.718H211.854V747H209.474V732.718H204.713V730.338ZM228.521 739.859V742.239H226.141V739.859H223.76V747H221.38V730.338H230.901V732.718H223.76V737.479H230.901V739.859H228.521ZM228.521 742.239H230.901V744.62H228.521V742.239ZM230.901 744.62H233.281V747H230.901V744.62ZM230.901 732.718H233.281V737.479H230.901V732.718ZM247.568 730.338V732.718H240.427V730.338H247.568ZM238.047 732.718H240.427V744.62H238.047V732.718ZM240.427 744.62H247.568V747H240.427V744.62ZM247.568 732.718H249.948V744.62H247.568V732.718ZM271.38 730.338H283.281V732.718H278.521V747H276.14V732.718H271.38V730.338ZM297.568 730.338V732.718H290.427V730.338H297.568ZM288.046 732.718H290.427V744.62H288.046V732.718ZM290.427 744.62H297.568V747H290.427V744.62ZM297.568 732.718H299.948V744.62H297.568V732.718ZM330.901 732.718H323.76V730.338H330.901V732.718ZM321.38 732.718H323.76V739.859H330.901V732.718H333.281V747H330.901V742.239H323.76V747H321.38V732.718ZM342.807 732.718H340.427V730.338H347.567V732.718H345.187V744.62H347.567V747H340.427V744.62H342.807V732.718Z" fill="white"/>
<path d="M180.901 786.718H173.761V798.62H180.901V801H171.38V784.338H180.901V786.718ZM180.901 786.718H183.282V798.62H180.901V786.718ZM192.807 786.718H190.427V784.338H197.568V786.718H195.188V798.62H197.568V801H190.427V798.62H192.807V786.718ZM207.094 786.718V784.338H214.235V786.718H207.094ZM204.713 796.239H207.094V798.62H204.713V796.239ZM204.713 786.718H207.094V791.479H204.713V786.718ZM207.094 798.62H214.235V801H207.094V798.62ZM207.094 791.479H214.235V793.859H207.094V791.479ZM214.235 793.859H216.615V798.62H214.235V793.859ZM214.235 786.718H216.615V789.099H214.235V786.718ZM223.76 786.718V784.338H230.901V786.718H223.76ZM221.38 786.718H223.76V798.62H221.38V786.718ZM223.76 798.62H230.901V801H223.76V798.62ZM230.901 796.239H233.281V798.62H230.901V796.239ZM230.901 786.718H233.281V789.099H230.901V786.718ZM247.568 784.338V786.718H240.427V784.338H247.568ZM238.047 786.718H240.427V798.62H238.047V786.718ZM240.427 798.62H247.568V801H240.427V798.62ZM247.568 786.718H249.948V798.62H247.568V786.718ZM254.713 784.338H257.094V791.479H254.713V784.338ZM257.094 791.479H259.474V796.239H257.094V791.479ZM259.474 796.239H261.854V801H259.474V796.239ZM261.854 791.479H264.234V796.239H261.854V791.479ZM264.234 784.338H266.615V791.479H264.234V784.338ZM283.281 786.718H273.76V791.479H278.521V793.859H273.76V798.62H283.281V801H271.38V784.338H283.281V786.718ZM295.187 793.859V796.239H292.807V793.859H290.427V801H288.046V784.338H297.568V786.718H290.427V791.479H297.568V793.859H295.187ZM295.187 796.239H297.568V798.62H295.187V796.239ZM297.568 798.62H299.948V801H297.568V798.62ZM297.568 786.718H299.948V791.479H297.568V786.718ZM321.38 784.338H323.76V798.62H321.38V784.338ZM323.76 798.62H330.901V801H323.76V798.62ZM330.901 784.338H333.281V798.62H330.901V784.338ZM340.427 789.099H342.807V791.479H340.427V801H338.046V784.338H340.427V789.099ZM342.807 791.479H345.187V793.859H342.807V791.479ZM345.187 793.859H347.567V784.338H349.948V801H347.567V796.239H345.187V793.859ZM359.473 786.718H357.093V784.338H364.234V786.718H361.854V798.62H364.234V801H357.093V798.62H359.473V786.718ZM371.379 784.338H383.281V786.718H378.52V801H376.14V786.718H371.379V784.338ZM388.046 789.099V784.338H390.426V789.099H388.046ZM390.426 789.099H392.807V791.479H390.426V789.099ZM392.807 791.479H395.187V801H392.807V791.479ZM395.187 789.099H397.567V791.479H395.187V789.099ZM397.567 784.338H399.947V789.099H397.567V784.338Z" fill="white"/>
<path d="M178.521 847.859V850.239H176.141V847.859H173.761V855H171.38V838.338H180.901V840.718H173.761V845.479H180.901V847.859H178.521ZM178.521 850.239H180.901V852.62H178.521V850.239ZM180.901 852.62H183.282V855H180.901V852.62ZM180.901 840.718H183.282V845.479H180.901V840.718ZM199.948 840.718H190.427V845.479H195.188V847.859H190.427V852.62H199.948V855H188.047V838.338H199.948V840.718ZM207.094 840.718V838.338H214.235V840.718H207.094ZM204.713 850.239H207.094V852.62H204.713V850.239ZM204.713 840.718H207.094V845.479H204.713V840.718ZM207.094 852.62H214.235V855H207.094V852.62ZM207.094 845.479H214.235V847.859H207.094V845.479ZM214.235 847.859H216.615V852.62H214.235V847.859ZM214.235 840.718H216.615V843.099H214.235V840.718ZM221.38 838.338H223.76V852.62H221.38V838.338ZM223.76 852.62H230.901V855H223.76V852.62ZM230.901 838.338H233.281V852.62H230.901V838.338ZM240.427 840.718H242.807V843.099H240.427V855H238.047V838.338H240.427V840.718ZM242.807 843.099H245.188V845.479H242.807V843.099ZM245.188 840.718H247.568V838.338H249.948V855H247.568V843.099H245.188V840.718ZM266.615 840.718H257.094V845.479H261.854V847.859H257.094V852.62H266.615V855H254.713V838.338H266.615V840.718ZM288.046 838.338H290.427V852.62H288.046V838.338ZM290.427 852.62H292.807V855H290.427V852.62ZM292.807 845.479H295.187V852.62H292.807V845.479ZM295.187 852.62H297.568V855H295.187V852.62ZM297.568 838.338H299.948V852.62H297.568V838.338ZM314.234 838.338V840.718H307.093V838.338H314.234ZM304.713 840.718H307.093V852.62H304.713V840.718ZM307.093 852.62H314.234V855H307.093V852.62ZM314.234 840.718H316.614V852.62H314.234V840.718ZM328.521 847.859V850.239H326.14V847.859H323.76V855H321.38V838.338H330.901V840.718H323.76V845.479H330.901V847.859H328.521ZM328.521 850.239H330.901V852.62H328.521V850.239ZM330.901 852.62H333.281V855H330.901V852.62ZM330.901 840.718H333.281V845.479H330.901V840.718ZM342.807 847.859H340.427V855H338.046V838.338H340.427V845.479H342.807V847.859ZM342.807 847.859H345.187V850.239H342.807V847.859ZM342.807 843.099H345.187V845.479H342.807V843.099ZM345.187 850.239H347.567V852.62H345.187V850.239ZM345.187 840.718H347.567V843.099H345.187V840.718ZM347.567 852.62H349.948V855H347.567V852.62ZM347.567 838.338H349.948V840.718H347.567V838.338ZM357.093 840.718V838.338H364.234V840.718H357.093ZM354.713 850.239H357.093V852.62H354.713V850.239ZM354.713 840.718H357.093V845.479H354.713V840.718ZM357.093 852.62H364.234V855H357.093V852.62ZM357.093 845.479H364.234V847.859H357.093V845.479ZM364.234 847.859H366.614V852.62H364.234V847.859ZM364.234 840.718H366.614V843.099H364.234V840.718ZM383.281 855H380.901V847.859H373.76V855H371.379V838.338H373.76V845.479H380.901V838.338H383.281V855ZM397.567 838.338V840.718H390.426V838.338H397.567ZM388.046 840.718H390.426V852.62H388.046V840.718ZM390.426 852.62H397.567V855H390.426V852.62ZM397.567 840.718H399.947V852.62H397.567V840.718ZM407.093 847.859V855H404.713V838.338H414.234V840.718H407.093V845.479H414.234V847.859H407.093ZM414.234 840.718H416.614V845.479H414.234V840.718Z" fill="white"/>
<path d="M173.761 894.718H176.141V897.099H173.761V909H171.38V892.338H173.761V894.718ZM176.141 897.099H178.521V899.479H176.141V897.099ZM178.521 894.718H180.901V892.338H183.282V909H180.901V897.099H178.521V894.718ZM188.047 909V892.338H190.427V906.62H199.948V909H188.047ZM216.615 909H214.235V901.859H207.094V909H204.713V892.338H207.094V899.479H214.235V892.338H216.615V909ZM238.047 892.338H240.427V906.62H238.047V892.338ZM240.427 906.62H242.807V909H240.427V906.62ZM242.807 899.479H245.188V906.62H242.807V899.479ZM245.188 906.62H247.568V909H245.188V906.62ZM247.568 892.338H249.948V906.62H247.568V892.338ZM264.234 892.338V894.718H257.094V892.338H264.234ZM254.713 894.718H257.094V906.62H254.713V894.718ZM257.094 906.62H264.234V909H257.094V906.62ZM264.234 894.718H266.615V906.62H264.234V894.718ZM278.521 901.859V904.239H276.14V901.859H273.76V909H271.38V892.338H280.901V894.718H273.76V899.479H280.901V901.859H278.521ZM278.521 904.239H280.901V906.62H278.521V904.239ZM280.901 906.62H283.281V909H280.901V906.62ZM280.901 894.718H283.281V899.479H280.901V894.718ZM292.807 901.859H290.427V909H288.046V892.338H290.427V899.479H292.807V901.859ZM292.807 901.859H295.187V904.239H292.807V901.859ZM292.807 897.099H295.187V899.479H292.807V897.099ZM295.187 904.239H297.568V906.62H295.187V904.239ZM295.187 894.718H297.568V897.099H295.187V894.718ZM297.568 906.62H299.948V909H297.568V906.62ZM297.568 892.338H299.948V894.718H297.568V892.338ZM307.093 894.718V892.338H314.234V894.718H307.093ZM304.713 904.239H307.093V906.62H304.713V904.239ZM304.713 894.718H307.093V899.479H304.713V894.718ZM307.093 906.62H314.234V909H307.093V906.62ZM307.093 899.479H314.234V901.859H307.093V899.479ZM314.234 901.859H316.614V906.62H314.234V901.859ZM314.234 894.718H316.614V897.099H314.234V894.718ZM333.281 909H330.901V901.859H323.76V909H321.38V892.338H323.76V899.479H330.901V892.338H333.281V909ZM347.567 892.338V894.718H340.427V892.338H347.567ZM338.046 894.718H340.427V906.62H338.046V894.718ZM340.427 906.62H347.567V909H340.427V906.62ZM347.567 894.718H349.948V906.62H347.567V894.718ZM357.093 901.859V909H354.713V892.338H364.234V894.718H357.093V899.479H364.234V901.859H357.093ZM364.234 894.718H366.614V899.479H364.234V894.718Z" fill="white"/>
<path d="M180.901 948.718H173.761V960.62H180.901V963H171.38V946.338H180.901V948.718ZM180.901 948.718H183.282V960.62H180.901V948.718ZM192.807 948.718H190.427V946.338H197.568V948.718H195.188V960.62H197.568V963H190.427V960.62H192.807V948.718ZM207.094 951.099H209.474V953.479H207.094V963H204.713V946.338H207.094V951.099ZM209.474 953.479H211.854V955.859H209.474V953.479ZM211.854 955.859H214.235V946.338H216.615V963H214.235V958.239H211.854V955.859ZM223.76 951.099H226.141V953.479H223.76V963H221.38V946.338H223.76V951.099ZM226.141 953.479H228.521V955.859H226.141V953.479ZM228.521 955.859H230.901V946.338H233.281V963H230.901V958.239H228.521V955.859ZM249.948 948.718H240.427V953.479H245.188V955.859H240.427V960.62H249.948V963H238.047V946.338H249.948V948.718ZM261.854 955.859V958.239H259.474V955.859H257.094V963H254.713V946.338H264.234V948.718H257.094V953.479H264.234V955.859H261.854ZM261.854 958.239H264.234V960.62H261.854V958.239ZM264.234 960.62H266.615V963H264.234V960.62ZM264.234 948.718H266.615V953.479H264.234V948.718Z" fill="white"/>
<path d="M183.282 1002.72H173.761V1007.48H178.521V1009.86H173.761V1014.62H183.282V1017H171.38V1000.34H183.282V1002.72ZM190.427 1002.72V1000.34H197.568V1002.72H190.427ZM188.047 1002.72H190.427V1014.62H188.047V1002.72ZM190.427 1014.62H197.568V1017H190.427V1014.62ZM197.568 1012.24H199.948V1014.62H197.568V1012.24ZM197.568 1002.72H199.948V1005.1H197.568V1002.72ZM216.615 1017H214.235V1009.86H207.094V1017H204.713V1000.34H207.094V1007.48H214.235V1000.34H216.615V1017ZM230.901 1000.34V1002.72H223.76V1000.34H230.901ZM221.38 1002.72H223.76V1014.62H221.38V1002.72ZM223.76 1014.62H230.901V1017H223.76V1014.62ZM230.901 1002.72H233.281V1014.62H230.901V1002.72ZM264.234 1005.1V1002.72H254.713V1000.34H266.615V1005.1H264.234ZM254.713 1012.24H257.094V1014.62H254.713V1012.24ZM257.094 1014.62H264.234V1017H257.094V1014.62ZM259.474 1007.48H261.854V1005.1H264.234V1009.86H259.474V1007.48ZM264.234 1009.86H266.615V1014.62H264.234V1009.86ZM280.901 1002.72H273.76V1014.62H280.901V1017H271.38V1000.34H280.901V1002.72ZM280.901 1002.72H283.281V1014.62H280.901V1002.72ZM304.713 1000.34H307.093V1014.62H304.713V1000.34ZM307.093 1014.62H309.474V1017H307.093V1014.62ZM309.474 1007.48H311.854V1014.62H309.474V1007.48ZM311.854 1014.62H314.234V1017H311.854V1014.62ZM314.234 1000.34H316.614V1014.62H314.234V1000.34ZM330.901 1000.34V1002.72H323.76V1000.34H330.901ZM321.38 1002.72H323.76V1014.62H321.38V1002.72ZM323.76 1014.62H330.901V1017H323.76V1014.62ZM330.901 1002.72H333.281V1014.62H330.901V1002.72ZM345.187 1009.86V1012.24H342.807V1009.86H340.427V1017H338.046V1000.34H347.567V1002.72H340.427V1007.48H347.567V1009.86H345.187ZM345.187 1012.24H347.567V1014.62H345.187V1012.24ZM347.567 1014.62H349.948V1017H347.567V1014.62ZM347.567 1002.72H349.948V1007.48H347.567V1002.72ZM359.473 1009.86H357.093V1017H354.713V1000.34H357.093V1007.48H359.473V1009.86ZM359.473 1009.86H361.854V1012.24H359.473V1009.86ZM359.473 1005.1H361.854V1007.48H359.473V1005.1ZM361.854 1012.24H364.234V1014.62H361.854V1012.24ZM361.854 1002.72H364.234V1005.1H361.854V1002.72ZM364.234 1014.62H366.614V1017H364.234V1014.62ZM364.234 1000.34H366.614V1002.72H364.234V1000.34ZM373.76 1002.72V1000.34H380.901V1002.72H373.76ZM371.379 1012.24H373.76V1014.62H371.379V1012.24ZM371.379 1002.72H373.76V1007.48H371.379V1002.72ZM373.76 1014.62H380.901V1017H373.76V1014.62ZM373.76 1007.48H380.901V1009.86H373.76V1007.48ZM380.901 1009.86H383.281V1014.62H380.901V1009.86ZM380.901 1002.72H383.281V1005.1H380.901V1002.72ZM399.947 1017H397.567V1009.86H390.426V1017H388.046V1000.34H390.426V1007.48H397.567V1000.34H399.947V1017ZM414.234 1000.34V1002.72H407.093V1000.34H414.234ZM404.713 1002.72H407.093V1014.62H404.713V1002.72ZM407.093 1014.62H414.234V1017H407.093V1014.62ZM414.234 1002.72H416.614V1014.62H414.234V1002.72ZM423.76 1009.86V1017H421.379V1000.34H430.9V1002.72H423.76V1007.48H430.9V1009.86H423.76ZM430.9 1002.72H433.281V1007.48H430.9V1002.72Z" fill="white"/>
<path d="M176.141 1056.72H173.761V1054.34H180.901V1056.72H178.521V1068.62H180.901V1071H173.761V1068.62H176.141V1056.72ZM190.427 1059.1H192.807V1061.48H190.427V1071H188.047V1054.34H190.427V1059.1ZM192.807 1061.48H195.188V1063.86H192.807V1061.48ZM195.188 1063.86H197.568V1054.34H199.948V1071H197.568V1066.24H195.188V1063.86ZM204.713 1054.34H216.615V1056.72H211.854V1071H209.474V1056.72H204.713V1054.34ZM228.521 1063.86V1066.24H226.141V1063.86H223.76V1071H221.38V1054.34H230.901V1056.72H223.76V1061.48H230.901V1063.86H228.521ZM228.521 1066.24H230.901V1068.62H228.521V1066.24ZM230.901 1068.62H233.281V1071H230.901V1068.62ZM230.901 1056.72H233.281V1061.48H230.901V1056.72ZM247.568 1054.34V1056.72H240.427V1054.34H247.568ZM238.047 1056.72H240.427V1068.62H238.047V1056.72ZM240.427 1068.62H247.568V1071H240.427V1068.62ZM247.568 1056.72H249.948V1068.62H247.568V1056.72ZM271.38 1054.34H283.281V1056.72H278.521V1071H276.14V1056.72H271.38V1054.34ZM297.568 1054.34V1056.72H290.427V1054.34H297.568ZM288.046 1056.72H290.427V1068.62H288.046V1056.72ZM290.427 1068.62H297.568V1071H290.427V1068.62ZM297.568 1056.72H299.948V1068.62H297.568V1056.72ZM321.38 1071V1054.34H323.76V1068.62H333.281V1071H321.38ZM349.948 1056.72H340.427V1061.48H345.187V1063.86H340.427V1068.62H349.948V1071H338.046V1054.34H349.948V1056.72ZM366.614 1056.72H357.093V1061.48H361.854V1063.86H357.093V1068.62H366.614V1071H354.713V1054.34H366.614V1056.72ZM371.379 1054.34H383.281V1056.72H378.52V1071H376.14V1056.72H371.379V1054.34ZM390.426 1056.72V1054.34H397.567V1056.72H390.426ZM388.046 1056.72H390.426V1068.62H388.046V1056.72ZM390.426 1068.62H397.567V1071H390.426V1068.62ZM397.567 1066.24H399.947V1068.62H397.567V1066.24ZM397.567 1056.72H399.947V1059.1H397.567V1056.72ZM414.234 1054.34V1056.72H407.093V1054.34H414.234ZM404.713 1056.72H407.093V1068.62H404.713V1056.72ZM407.093 1068.62H414.234V1071H407.093V1068.62ZM414.234 1056.72H416.614V1068.62H414.234V1056.72ZM430.9 1056.72H423.76V1068.62H430.9V1071H421.379V1054.34H430.9V1056.72ZM430.9 1056.72H433.281V1068.62H430.9V1056.72ZM449.947 1056.72H440.426V1061.48H445.187V1063.86H440.426V1068.62H449.947V1071H438.046V1054.34H449.947V1056.72Z" fill="white"/>
<path d="M180.901 1110.72V1122.62H178.521V1110.72H176.141V1108.34H183.282V1110.72H180.901ZM171.38 1120.24H173.761V1122.62H171.38V1120.24ZM173.761 1122.62H178.521V1125H173.761V1122.62ZM199.948 1110.72H190.427V1115.48H195.188V1117.86H190.427V1122.62H199.948V1125H188.047V1108.34H199.948V1110.72ZM214.235 1108.34V1110.72H207.094V1108.34H214.235ZM204.713 1110.72H207.094V1122.62H204.713V1110.72ZM207.094 1122.62H214.235V1125H207.094V1122.62ZM214.235 1110.72H216.615V1122.62H214.235V1110.72ZM223.76 1117.86V1125H221.38V1108.34H230.901V1110.72H223.76V1115.48H230.901V1117.86H223.76ZM230.901 1110.72H233.281V1115.48H230.901V1110.72ZM249.948 1110.72H240.427V1115.48H245.188V1117.86H240.427V1122.62H249.948V1125H238.047V1108.34H249.948V1110.72ZM261.854 1117.86V1120.24H259.474V1117.86H257.094V1125H254.713V1108.34H264.234V1110.72H257.094V1115.48H264.234V1117.86H261.854ZM261.854 1120.24H264.234V1122.62H261.854V1120.24ZM264.234 1122.62H266.615V1125H264.234V1122.62ZM264.234 1110.72H266.615V1115.48H264.234V1110.72ZM280.901 1110.72H273.76V1122.62H280.901V1125H271.38V1108.34H280.901V1110.72ZM280.901 1110.72H283.281V1122.62H280.901V1110.72ZM288.046 1113.1V1108.34H290.427V1113.1H288.046ZM290.427 1113.1H292.807V1115.48H290.427V1113.1ZM292.807 1115.48H295.187V1125H292.807V1115.48ZM295.187 1113.1H297.568V1115.48H295.187V1113.1ZM297.568 1108.34H299.948V1113.1H297.568V1108.34Z" fill="white"/>
<path d="M171.38 1162.34H173.761V1169.48H171.38V1162.34ZM173.761 1169.48H176.141V1174.24H173.761V1169.48ZM176.141 1174.24H178.521V1179H176.141V1174.24ZM178.521 1169.48H180.901V1174.24H178.521V1169.48ZM180.901 1162.34H183.282V1169.48H180.901V1162.34ZM192.807 1164.72H190.427V1162.34H197.568V1164.72H195.188V1176.62H197.568V1179H190.427V1176.62H192.807V1164.72ZM214.235 1164.72H207.094V1176.62H214.235V1179H204.713V1162.34H214.235V1164.72ZM214.235 1164.72H216.615V1176.62H214.235V1164.72ZM233.281 1164.72H223.76V1169.48H228.521V1171.86H223.76V1176.62H233.281V1179H221.38V1162.34H233.281V1164.72ZM247.568 1162.34V1164.72H240.427V1162.34H247.568ZM238.047 1164.72H240.427V1176.62H238.047V1164.72ZM240.427 1176.62H247.568V1179H240.427V1176.62ZM247.568 1164.72H249.948V1176.62H247.568V1164.72ZM273.76 1164.72V1162.34H280.901V1164.72H273.76ZM271.38 1164.72H273.76V1176.62H271.38V1164.72ZM273.76 1176.62H280.901V1174.24H278.521V1171.86H283.281V1179H273.76V1176.62ZM280.901 1164.72H283.281V1167.1H280.901V1164.72ZM297.568 1164.72H290.427V1162.34H297.568V1164.72ZM288.046 1164.72H290.427V1171.86H297.568V1164.72H299.948V1179H297.568V1174.24H290.427V1179H288.046V1164.72ZM307.093 1164.72H309.474V1167.1H307.093V1179H304.713V1162.34H307.093V1164.72ZM309.474 1167.1H311.854V1169.48H309.474V1167.1ZM311.854 1164.72H314.234V1162.34H316.614V1179H314.234V1167.1H311.854V1164.72ZM333.281 1164.72H323.76V1169.48H328.521V1171.86H323.76V1176.62H333.281V1179H321.38V1162.34H333.281V1164.72ZM354.713 1162.34H357.093V1176.62H354.713V1162.34ZM357.093 1176.62H359.473V1179H357.093V1176.62ZM359.473 1169.48H361.854V1176.62H359.473V1169.48ZM361.854 1176.62H364.234V1179H361.854V1176.62ZM364.234 1162.34H366.614V1176.62H364.234V1162.34ZM380.901 1162.34V1164.72H373.76V1162.34H380.901ZM371.379 1164.72H373.76V1176.62H371.379V1164.72ZM373.76 1176.62H380.901V1179H373.76V1176.62ZM380.901 1164.72H383.281V1176.62H380.901V1164.72ZM395.187 1171.86V1174.24H392.807V1171.86H390.426V1179H388.046V1162.34H397.567V1164.72H390.426V1169.48H397.567V1171.86H395.187ZM395.187 1174.24H397.567V1176.62H395.187V1174.24ZM397.567 1176.62H399.947V1179H397.567V1176.62ZM397.567 1164.72H399.947V1169.48H397.567V1164.72ZM409.473 1171.86H407.093V1179H404.713V1162.34H407.093V1169.48H409.473V1171.86ZM409.473 1171.86H411.854V1174.24H409.473V1171.86ZM409.473 1167.1H411.854V1169.48H409.473V1167.1ZM411.854 1174.24H414.234V1176.62H411.854V1174.24ZM411.854 1164.72H414.234V1167.1H411.854V1164.72ZM414.234 1176.62H416.614V1179H414.234V1176.62ZM414.234 1162.34H416.614V1164.72H414.234V1162.34ZM423.76 1164.72V1162.34H430.9V1164.72H423.76ZM421.379 1174.24H423.76V1176.62H421.379V1174.24ZM421.379 1164.72H423.76V1169.48H421.379V1164.72ZM423.76 1176.62H430.9V1179H423.76V1176.62ZM423.76 1169.48H430.9V1171.86H423.76V1169.48ZM430.9 1171.86H433.281V1176.62H430.9V1171.86ZM430.9 1164.72H433.281V1167.1H430.9V1164.72ZM449.947 1179H447.567V1171.86H440.426V1179H438.046V1162.34H440.426V1169.48H447.567V1162.34H449.947V1179ZM464.234 1162.34V1164.72H457.093V1162.34H464.234ZM454.712 1164.72H457.093V1176.62H454.712V1164.72ZM457.093 1176.62H464.234V1179H457.093V1176.62ZM464.234 1164.72H466.614V1176.62H464.234V1164.72ZM473.759 1171.86V1179H471.379V1162.34H480.9V1164.72H473.759V1169.48H480.9V1171.86H473.759ZM480.9 1164.72H483.28V1169.48H480.9V1164.72Z" fill="white"/>
<path d="M176.141 1225.86H173.761V1233H171.38V1216.34H173.761V1223.48H176.141V1225.86ZM176.141 1225.86H178.521V1228.24H176.141V1225.86ZM176.141 1221.1H178.521V1223.48H176.141V1221.1ZM178.521 1228.24H180.901V1230.62H178.521V1228.24ZM178.521 1218.72H180.901V1221.1H178.521V1218.72ZM180.901 1230.62H183.282V1233H180.901V1230.62ZM180.901 1216.34H183.282V1218.72H180.901V1216.34ZM197.568 1218.72H190.427V1216.34H197.568V1218.72ZM188.047 1218.72H190.427V1225.86H197.568V1218.72H199.948V1233H197.568V1228.24H190.427V1233H188.047V1218.72ZM211.854 1225.86V1228.24H209.474V1225.86H207.094V1233H204.713V1216.34H214.235V1218.72H207.094V1223.48H214.235V1225.86H211.854ZM211.854 1228.24H214.235V1230.62H211.854V1228.24ZM214.235 1230.62H216.615V1233H214.235V1230.62ZM214.235 1218.72H216.615V1223.48H214.235V1218.72ZM230.901 1218.72H223.76V1216.34H230.901V1218.72ZM221.38 1218.72H223.76V1225.86H230.901V1218.72H233.281V1233H230.901V1228.24H223.76V1233H221.38V1218.72ZM247.568 1216.34V1218.72H240.427V1216.34H247.568ZM238.047 1218.72H240.427V1230.62H238.047V1218.72ZM240.427 1230.62H247.568V1233H240.427V1230.62ZM247.568 1218.72H249.948V1230.62H247.568V1218.72ZM259.474 1225.86H257.094V1233H254.713V1216.34H257.094V1223.48H259.474V1225.86ZM259.474 1225.86H261.854V1228.24H259.474V1225.86ZM259.474 1221.1H261.854V1223.48H259.474V1221.1ZM261.854 1228.24H264.234V1230.62H261.854V1228.24ZM261.854 1218.72H264.234V1221.1H261.854V1218.72ZM264.234 1230.62H266.615V1233H264.234V1230.62ZM264.234 1216.34H266.615V1218.72H264.234V1216.34ZM283.281 1218.72H273.76V1223.48H278.521V1225.86H273.76V1230.62H283.281V1233H271.38V1216.34H283.281V1218.72Z" fill="white"/>
<path d="M173.761 1279.86V1284.62H180.901V1287H171.38V1270.34H180.901V1272.72H173.761V1277.48H180.901V1279.86H173.761ZM180.901 1279.86H183.282V1284.62H180.901V1279.86ZM180.901 1272.72H183.282V1277.48H180.901V1272.72ZM197.568 1272.72H190.427V1270.34H197.568V1272.72ZM188.047 1272.72H190.427V1279.86H197.568V1272.72H199.948V1287H197.568V1282.24H190.427V1287H188.047V1272.72ZM204.713 1287V1270.34H207.094V1284.62H216.615V1287H204.713ZM221.38 1287V1270.34H223.76V1284.62H233.281V1287H221.38ZM247.568 1270.34V1272.72H240.427V1270.34H247.568ZM238.047 1272.72H240.427V1284.62H238.047V1272.72ZM240.427 1284.62H247.568V1287H240.427V1284.62ZM247.568 1272.72H249.948V1284.62H247.568V1272.72ZM264.234 1270.34V1272.72H257.094V1270.34H264.234ZM254.713 1272.72H257.094V1284.62H254.713V1272.72ZM257.094 1284.62H264.234V1287H257.094V1284.62ZM264.234 1272.72H266.615V1284.62H264.234V1272.72ZM273.76 1275.1H276.14V1277.48H273.76V1287H271.38V1270.34H273.76V1275.1ZM276.14 1277.48H278.521V1279.86H276.14V1277.48ZM278.521 1279.86H280.901V1270.34H283.281V1287H280.901V1282.24H278.521V1279.86ZM314.234 1272.72H307.093V1270.34H314.234V1272.72ZM304.713 1272.72H307.093V1279.86H314.234V1272.72H316.614V1287H314.234V1282.24H307.093V1287H304.713V1272.72ZM323.76 1275.1H326.14V1277.48H323.76V1287H321.38V1270.34H323.76V1275.1ZM326.14 1277.48H328.521V1279.86H326.14V1277.48ZM328.521 1279.86H330.901V1270.34H333.281V1287H330.901V1282.24H328.521V1279.86ZM342.807 1272.72H340.427V1270.34H347.567V1272.72H345.187V1284.62H347.567V1287H340.427V1284.62H342.807V1272.72ZM357.093 1272.72H359.473V1275.1H357.093V1287H354.713V1270.34H357.093V1272.72ZM359.473 1275.1H361.854V1277.48H359.473V1275.1ZM361.854 1272.72H364.234V1270.34H366.614V1287H364.234V1275.1H361.854V1272.72ZM380.901 1272.72H373.76V1270.34H380.901V1272.72ZM371.379 1272.72H373.76V1279.86H380.901V1272.72H383.281V1287H380.901V1282.24H373.76V1287H371.379V1272.72ZM388.046 1287V1270.34H390.426V1284.62H399.947V1287H388.046ZM421.379 1270.34H423.76V1284.62H421.379V1270.34ZM423.76 1284.62H426.14V1287H423.76V1284.62ZM426.14 1277.48H428.52V1284.62H426.14V1277.48ZM428.52 1284.62H430.9V1287H428.52V1284.62ZM430.9 1270.34H433.281V1284.62H430.9V1270.34ZM447.567 1270.34V1272.72H440.426V1270.34H447.567ZM438.046 1272.72H440.426V1284.62H438.046V1272.72ZM440.426 1284.62H447.567V1287H440.426V1284.62ZM447.567 1272.72H449.947V1284.62H447.567V1272.72ZM461.853 1279.86V1282.24H459.473V1279.86H457.093V1287H454.712V1270.34H464.234V1272.72H457.093V1277.48H464.234V1279.86H461.853ZM461.853 1282.24H464.234V1284.62H461.853V1282.24ZM464.234 1284.62H466.614V1287H464.234V1284.62ZM464.234 1272.72H466.614V1277.48H464.234V1272.72ZM476.14 1279.86H473.759V1287H471.379V1270.34H473.759V1277.48H476.14V1279.86ZM476.14 1279.86H478.52V1282.24H476.14V1279.86ZM476.14 1275.1H478.52V1277.48H476.14V1275.1ZM478.52 1282.24H480.9V1284.62H478.52V1282.24ZM478.52 1272.72H480.9V1275.1H478.52V1272.72ZM480.9 1284.62H483.28V1287H480.9V1284.62ZM480.9 1270.34H483.28V1272.72H480.9V1270.34ZM490.426 1272.72V1270.34H497.567V1272.72H490.426ZM488.046 1282.24H490.426V1284.62H488.046V1282.24ZM488.046 1272.72H490.426V1277.48H488.046V1272.72ZM490.426 1284.62H497.567V1287H490.426V1284.62ZM490.426 1277.48H497.567V1279.86H490.426V1277.48ZM497.567 1279.86H499.947V1284.62H497.567V1279.86ZM497.567 1272.72H499.947V1275.1H497.567V1272.72ZM516.614 1287H514.233V1279.86H507.093V1287H504.712V1270.34H507.093V1277.48H514.233V1270.34H516.614V1287ZM530.9 1270.34V1272.72H523.759V1270.34H530.9ZM521.379 1272.72H523.759V1284.62H521.379V1272.72ZM523.759 1284.62H530.9V1287H523.759V1284.62ZM530.9 1272.72H533.28V1284.62H530.9V1272.72ZM540.426 1279.86V1287H538.046V1270.34H547.567V1272.72H540.426V1277.48H547.567V1279.86H540.426ZM547.567 1272.72H549.947V1277.48H547.567V1272.72Z" fill="white"/>
<path d="M25.5848 140.099H27.5684V148.033H25.5848V150.016H23.6013V152H17.6506V150.016H21.6177V148.033H23.6013V146.049H17.6506V144.066H15.667V140.099H17.6506V138.115H25.5848V140.099ZM23.6013 144.066V140.099H19.6341V144.066H23.6013ZM33.523 140.099V144.066H29.5558V140.099H33.523ZM29.5558 148.033H33.523V152H29.5558V148.033ZM45.4205 140.099H47.404V150.016H45.4205V152H37.4862V150.016H35.5026V140.099H37.4862V138.115H45.4205V140.099ZM39.4698 140.099V144.066H41.4533V142.082H43.4369V140.099H39.4698ZM43.4369 150.016V146.049H41.4533V148.033H39.4698V150.016H43.4369ZM59.3093 140.099H61.2929V150.016H59.3093V152H51.375V150.016H49.3915V140.099H51.375V138.115H59.3093V140.099ZM53.3586 140.099V144.066H55.3422V142.082H57.3257V140.099H53.3586ZM57.3257 150.016V146.049H55.3422V148.033H53.3586V150.016H57.3257ZM81.1402 140.099H83.1237V152H79.1566V144.066H75.1895V152H71.2223V140.099H73.2059V138.115H81.1402V140.099ZM79.1566 142.082V140.099H75.1895V142.082H79.1566ZM97.0126 138.115V152H93.0454V144.066H89.0783V152H85.1112V138.115H89.0783V140.099H93.0454V138.115H97.0126Z" fill="white"/>
<path d="M12.6796 204.016V206H0.77816V204.016H4.74529V196.082H2.76173V194.099H4.74529V192.115H8.71242V204.016H12.6796ZM24.5848 194.099H26.5684V204.016H24.5848V206H16.6506V204.016H14.667V194.099H16.6506V192.115H24.5848V194.099ZM18.6341 194.099V198.066H20.6177V196.082H22.6013V194.099H18.6341ZM22.6013 204.016V200.049H20.6177V202.033H18.6341V204.016H22.6013ZM32.523 194.099V198.066H28.5558V194.099H32.523ZM28.5558 202.033H32.523V206H28.5558V202.033ZM44.4205 194.099H46.404V204.016H44.4205V206H36.4862V204.016H34.5027V194.099H36.4862V192.115H44.4205V194.099ZM38.4698 194.099V198.066H40.4533V196.082H42.4369V194.099H38.4698ZM42.4369 204.016V200.049H40.4533V202.033H38.4698V204.016H42.4369ZM58.3093 194.099H60.2929V204.016H58.3093V206H50.3751V204.016H48.3915V194.099H50.3751V192.115H58.3093V194.099ZM52.3586 194.099V198.066H54.3422V196.082H56.3258V194.099H52.3586ZM56.3258 204.016V200.049H54.3422V202.033H52.3586V204.016H56.3258ZM80.1402 194.099H82.1237V206H78.1566V198.066H74.1895V206H70.2223V194.099H72.2059V192.115H80.1402V194.099ZM78.1566 196.082V194.099H74.1895V196.082H78.1566ZM96.0126 192.115V206H92.0454V198.066H88.0783V206H84.1112V192.115H88.0783V194.099H92.0454V192.115H96.0126Z" fill="white"/>
<path d="M13.6796 258.016V260H1.77816V258.016H5.74529V250.082H3.76173V248.099H5.74529V246.115H9.71242V258.016H13.6796ZM27.5684 258.016V260H15.667V258.016H19.6341V250.082H17.6506V248.099H19.6341V246.115H23.6013V258.016H27.5684ZM33.523 248.099V252.066H29.5558V248.099H33.523ZM29.5558 256.033H33.523V260H29.5558V256.033ZM45.4205 248.099H47.404V258.016H45.4205V260H37.4862V258.016H35.5027V248.099H37.4862V246.115H45.4205V248.099ZM39.4698 248.099V252.066H41.4533V250.082H43.4369V248.099H39.4698ZM43.4369 258.016V254.049H41.4533V256.033H39.4698V258.016H43.4369ZM59.3093 248.099H61.2929V258.016H59.3093V260H51.3751V258.016H49.3915V248.099H51.3751V246.115H59.3093V248.099ZM53.3586 248.099V252.066H55.3422V250.082H57.3258V248.099H53.3586ZM57.3258 258.016V254.049H55.3422V256.033H53.3586V258.016H57.3258ZM81.1402 248.099H83.1237V260H79.1566V252.066H75.1895V260H71.2223V248.099H73.2059V246.115H81.1402V248.099ZM79.1566 250.082V248.099H75.1895V250.082H79.1566ZM97.0126 246.115V260H93.0454V252.066H89.0783V260H85.1112V246.115H89.0783V248.099H93.0454V246.115H97.0126Z" fill="white"/>
<path d="M13.6796 312.016V314H1.77816V312.016H5.74529V304.082H3.76173V302.099H5.74529V300.115H9.71242V312.016H13.6796ZM27.5684 312.016V314H15.667V312.016H19.6341V304.082H17.6506V302.099H19.6341V300.115H23.6013V312.016H27.5684ZM33.523 302.099V306.066H29.5558V302.099H33.523ZM29.5558 310.033H33.523V314H29.5558V310.033ZM45.4205 302.099H47.404V306.066H45.4205V308.049H47.404V312.016H45.4205V314H37.4862V312.016H35.5027V310.033H39.4698V312.016H43.4369V308.049H39.4698V306.066H43.4369V302.099H39.4698V304.082H35.5027V302.099H37.4862V300.115H45.4205V302.099ZM59.3093 302.099H61.2929V312.016H59.3093V314H51.3751V312.016H49.3915V302.099H51.3751V300.115H59.3093V302.099ZM53.3586 302.099V306.066H55.3422V304.082H57.3258V302.099H53.3586ZM57.3258 312.016V308.049H55.3422V310.033H53.3586V312.016H57.3258ZM81.1402 302.099H83.1237V314H79.1566V306.066H75.1895V314H71.2223V302.099H73.2059V300.115H81.1402V302.099ZM79.1566 304.082V302.099H75.1895V304.082H79.1566ZM97.0126 300.115V314H93.0454V306.066H89.0783V314H85.1112V300.115H89.0783V302.099H93.0454V300.115H97.0126Z" fill="white"/>
<path d="M13.6796 366.016V368H1.77816V366.016H5.74529V358.082H3.76173V356.099H5.74529V354.115H9.71242V366.016H13.6796ZM27.5684 366.016V368H15.667V366.016H19.6341V358.082H17.6506V356.099H19.6341V354.115H23.6013V366.016H27.5684ZM33.523 356.099V360.066H29.5558V356.099H33.523ZM29.5558 364.033H33.523V368H29.5558V364.033ZM39.4698 356.099V358.082H45.4205V360.066H47.404V366.016H45.4205V368H37.4862V366.016H35.5027V364.033H39.4698V366.016H43.4369V360.066H35.5027V354.115H47.404V356.099H39.4698ZM59.3093 356.099H61.2929V366.016H59.3093V368H51.3751V366.016H49.3915V356.099H51.3751V354.115H59.3093V356.099ZM53.3586 356.099V360.066H55.3422V358.082H57.3258V356.099H53.3586ZM57.3258 366.016V362.049H55.3422V364.033H53.3586V366.016H57.3258ZM81.1402 356.099H83.1237V368H79.1566V360.066H75.1895V368H71.2223V356.099H73.2059V354.115H81.1402V356.099ZM79.1566 358.082V356.099H75.1895V358.082H79.1566ZM97.0126 354.115V368H93.0454V360.066H89.0783V368H85.1112V354.115H89.0783V356.099H93.0454V354.115H97.0126Z" fill="white"/>
<path d="M13.6796 420.016V422H1.77816V420.016H5.74529V412.082H3.76173V410.099H5.74529V408.115H9.71242V420.016H13.6796ZM25.5848 410.099H27.5684V414.066H25.5848V416.049H21.6177V418.033H19.6341V420.016H23.6013V418.033H27.5684V422H15.667V418.033H17.6506V416.049H19.6341V414.066H23.6013V410.099H19.6341V412.082H15.667V410.099H17.6506V408.115H25.5848V410.099ZM33.523 410.099V414.066H29.5558V410.099H33.523ZM29.5558 418.033H33.523V422H29.5558V418.033ZM45.4205 410.099H47.404V420.016H45.4205V422H37.4862V420.016H35.5027V410.099H37.4862V408.115H45.4205V410.099ZM39.4698 410.099V414.066H41.4533V412.082H43.4369V410.099H39.4698ZM43.4369 420.016V416.049H41.4533V418.033H39.4698V420.016H43.4369ZM59.3093 410.099H61.2929V420.016H59.3093V422H51.3751V420.016H49.3915V410.099H51.3751V408.115H59.3093V410.099ZM53.3586 410.099V414.066H55.3422V412.082H57.3258V410.099H53.3586ZM57.3258 420.016V416.049H55.3422V418.033H53.3586V420.016H57.3258ZM81.1402 410.099H83.1237V412.082H81.1402V414.066H75.1895V422H71.2223V408.115H81.1402V410.099ZM79.1566 412.082V410.099H75.1895V412.082H79.1566ZM97.0126 408.115V422H93.0454V414.066H89.0783V422H85.1112V408.115H89.0783V410.099H93.0454V408.115H97.0126Z" fill="white"/>
<path d="M27.5684 474.016V476H15.667V474.016H19.6341V466.082H17.6506V464.099H19.6341V462.115H23.6013V474.016H27.5684ZM33.523 464.099V468.066H29.5558V464.099H33.523ZM29.5558 472.033H33.523V476H29.5558V472.033ZM45.4205 464.099H47.404V474.016H45.4205V476H37.4862V474.016H35.5026V464.099H37.4862V462.115H45.4205V464.099ZM39.4698 464.099V468.066H41.4533V466.082H43.4369V464.099H39.4698ZM43.4369 474.016V470.049H41.4533V472.033H39.4698V474.016H43.4369ZM59.3093 464.099H61.2929V474.016H59.3093V476H51.375V474.016H49.3915V464.099H51.375V462.115H59.3093V464.099ZM53.3586 464.099V468.066H55.3422V466.082H57.3257V464.099H53.3586ZM57.3257 474.016V470.049H55.3422V472.033H53.3586V474.016H57.3257ZM81.1402 464.099H83.1237V466.082H81.1402V468.066H75.1895V476H71.2223V462.115H81.1402V464.099ZM79.1566 466.082V464.099H75.1895V466.082H79.1566ZM97.0126 462.115V476H93.0454V468.066H89.0783V476H85.1112V462.115H89.0783V464.099H93.0454V462.115H97.0126Z" fill="white"/>
<path d="M27.5684 528.016V530H15.667V528.016H19.6341V520.082H17.6506V518.099H19.6341V516.115H23.6013V528.016H27.5684ZM33.523 518.099V522.066H29.5558V518.099H33.523ZM29.5558 526.033H33.523V530H29.5558V526.033ZM45.4205 518.099H47.404V528.016H45.4205V530H37.4862V528.016H35.5026V518.099H37.4862V516.115H45.4205V518.099ZM39.4698 518.099V522.066H41.4533V520.082H43.4369V518.099H39.4698ZM43.4369 528.016V524.049H41.4533V526.033H39.4698V528.016H43.4369ZM59.3093 518.099H61.2929V528.016H59.3093V530H51.375V528.016H49.3915V518.099H51.375V516.115H59.3093V518.099ZM53.3586 518.099V522.066H55.3422V520.082H57.3257V518.099H53.3586ZM57.3257 528.016V524.049H55.3422V526.033H53.3586V528.016H57.3257ZM81.1402 518.099H83.1237V520.082H81.1402V522.066H75.1895V530H71.2223V516.115H81.1402V518.099ZM79.1566 520.082V518.099H75.1895V520.082H79.1566ZM97.0126 516.115V530H93.0454V522.066H89.0783V530H85.1112V516.115H89.0783V518.099H93.0454V516.115H97.0126Z" fill="white"/>
<path d="M25.5848 572.099H27.5684V576.066H25.5848V578.049H21.6177V580.033H19.6341V582.016H23.6013V580.033H27.5684V584H15.667V580.033H17.6506V578.049H19.6341V576.066H23.6013V572.099H19.6341V574.082H15.667V572.099H17.6506V570.115H25.5848V572.099ZM33.523 572.099V576.066H29.5558V572.099H33.523ZM29.5558 580.033H33.523V584H29.5558V580.033ZM45.4205 572.099H47.404V582.016H45.4205V584H37.4862V582.016H35.5026V572.099H37.4862V570.115H45.4205V572.099ZM39.4698 572.099V576.066H41.4533V574.082H43.4369V572.099H39.4698ZM43.4369 582.016V578.049H41.4533V580.033H39.4698V582.016H43.4369ZM59.3093 572.099H61.2929V582.016H59.3093V584H51.375V582.016H49.3915V572.099H51.375V570.115H59.3093V572.099ZM53.3586 572.099V576.066H55.3422V574.082H57.3257V572.099H53.3586ZM57.3257 582.016V578.049H55.3422V580.033H53.3586V582.016H57.3257ZM81.1402 572.099H83.1237V574.082H81.1402V576.066H75.1895V584H71.2223V570.115H81.1402V572.099ZM79.1566 574.082V572.099H75.1895V574.082H79.1566ZM97.0126 570.115V584H93.0454V576.066H89.0783V584H85.1112V570.115H89.0783V572.099H93.0454V570.115H97.0126Z" fill="white"/>
<path d="M25.5848 626.099H27.5684V630.066H25.5848V632.049H21.6177V634.033H19.6341V636.016H23.6013V634.033H27.5684V638H15.667V634.033H17.6506V632.049H19.6341V630.066H23.6013V626.099H19.6341V628.082H15.667V626.099H17.6506V624.115H25.5848V626.099ZM33.523 626.099V630.066H29.5558V626.099H33.523ZM29.5558 634.033H33.523V638H29.5558V634.033ZM45.4205 626.099H47.404V636.016H45.4205V638H37.4862V636.016H35.5026V626.099H37.4862V624.115H45.4205V626.099ZM39.4698 626.099V630.066H41.4533V628.082H43.4369V626.099H39.4698ZM43.4369 636.016V632.049H41.4533V634.033H39.4698V636.016H43.4369ZM59.3093 626.099H61.2929V636.016H59.3093V638H51.375V636.016H49.3915V626.099H51.375V624.115H59.3093V626.099ZM53.3586 626.099V630.066H55.3422V628.082H57.3257V626.099H53.3586ZM57.3257 636.016V632.049H55.3422V634.033H53.3586V636.016H57.3257ZM81.1402 626.099H83.1237V628.082H81.1402V630.066H75.1895V638H71.2223V624.115H81.1402V626.099ZM79.1566 628.082V626.099H75.1895V628.082H79.1566ZM97.0126 624.115V638H93.0454V630.066H89.0783V638H85.1112V624.115H89.0783V626.099H93.0454V624.115H97.0126Z" fill="white"/>
<path d="M25.5848 680.099H27.5684V684.066H25.5848V686.049H27.5684V690.016H25.5848V692H17.6506V690.016H15.667V688.033H19.6341V690.016H23.6013V686.049H19.6341V684.066H23.6013V680.099H19.6341V682.082H15.667V680.099H17.6506V678.115H25.5848V680.099ZM33.523 680.099V684.066H29.5558V680.099H33.523ZM29.5558 688.033H33.523V692H29.5558V688.033ZM45.4205 680.099H47.404V690.016H45.4205V692H37.4862V690.016H35.5026V680.099H37.4862V678.115H45.4205V680.099ZM39.4698 680.099V684.066H41.4533V682.082H43.4369V680.099H39.4698ZM43.4369 690.016V686.049H41.4533V688.033H39.4698V690.016H43.4369ZM59.3093 680.099H61.2929V690.016H59.3093V692H51.375V690.016H49.3915V680.099H51.375V678.115H59.3093V680.099ZM53.3586 680.099V684.066H55.3422V682.082H57.3257V680.099H53.3586ZM57.3257 690.016V686.049H55.3422V688.033H53.3586V690.016H57.3257ZM81.1402 680.099H83.1237V682.082H81.1402V684.066H75.1895V692H71.2223V678.115H81.1402V680.099ZM79.1566 682.082V680.099H75.1895V682.082H79.1566ZM97.0126 678.115V692H93.0454V684.066H89.0783V692H85.1112V678.115H89.0783V680.099H93.0454V678.115H97.0126Z" fill="white"/>
<path d="M27.5684 732.115V746H23.6013V742.033H15.667V738.066H17.6506V736.082H19.6341V734.099H21.6177V732.115H27.5684ZM23.6013 740.049V736.082H21.6177V738.066H19.6341V740.049H23.6013ZM33.523 734.099V738.066H29.5558V734.099H33.523ZM29.5558 742.033H33.523V746H29.5558V742.033ZM45.4205 734.099H47.404V744.016H45.4205V746H37.4862V744.016H35.5026V734.099H37.4862V732.115H45.4205V734.099ZM39.4698 734.099V738.066H41.4533V736.082H43.4369V734.099H39.4698ZM43.4369 744.016V740.049H41.4533V742.033H39.4698V744.016H43.4369ZM59.3093 734.099H61.2929V744.016H59.3093V746H51.375V744.016H49.3915V734.099H51.375V732.115H59.3093V734.099ZM53.3586 734.099V738.066H55.3422V736.082H57.3257V734.099H53.3586ZM57.3257 744.016V740.049H55.3422V742.033H53.3586V744.016H57.3257ZM81.1402 734.099H83.1237V736.082H81.1402V738.066H75.1895V746H71.2223V732.115H81.1402V734.099ZM79.1566 736.082V734.099H75.1895V736.082H79.1566ZM97.0126 732.115V746H93.0454V738.066H89.0783V746H85.1112V732.115H89.0783V734.099H93.0454V732.115H97.0126Z" fill="white"/>
<path d="M27.5684 786.115V800H23.6013V796.033H15.667V792.066H17.6506V790.082H19.6341V788.099H21.6177V786.115H27.5684ZM23.6013 794.049V790.082H21.6177V792.066H19.6341V794.049H23.6013ZM33.523 788.099V792.066H29.5558V788.099H33.523ZM29.5558 796.033H33.523V800H29.5558V796.033ZM45.4205 788.099H47.404V798.016H45.4205V800H37.4862V798.016H35.5026V788.099H37.4862V786.115H45.4205V788.099ZM39.4698 788.099V792.066H41.4533V790.082H43.4369V788.099H39.4698ZM43.4369 798.016V794.049H41.4533V796.033H39.4698V798.016H43.4369ZM59.3093 788.099H61.2929V798.016H59.3093V800H51.375V798.016H49.3915V788.099H51.375V786.115H59.3093V788.099ZM53.3586 788.099V792.066H55.3422V790.082H57.3257V788.099H53.3586ZM57.3257 798.016V794.049H55.3422V796.033H53.3586V798.016H57.3257ZM81.1402 788.099H83.1237V790.082H81.1402V792.066H75.1895V800H71.2223V786.115H81.1402V788.099ZM79.1566 790.082V788.099H75.1895V790.082H79.1566ZM97.0126 786.115V800H93.0454V792.066H89.0783V800H85.1112V786.115H89.0783V788.099H93.0454V786.115H97.0126Z" fill="white"/>
<path d="M19.6341 842.099V844.082H25.5848V846.066H27.5684V852.016H25.5848V854H17.6506V852.016H15.667V850.033H19.6341V852.016H23.6013V846.066H15.667V840.115H27.5684V842.099H19.6341ZM33.523 842.099V846.066H29.5558V842.099H33.523ZM29.5558 850.033H33.523V854H29.5558V850.033ZM45.4205 842.099H47.404V852.016H45.4205V854H37.4862V852.016H35.5026V842.099H37.4862V840.115H45.4205V842.099ZM39.4698 842.099V846.066H41.4533V844.082H43.4369V842.099H39.4698ZM43.4369 852.016V848.049H41.4533V850.033H39.4698V852.016H43.4369ZM59.3093 842.099H61.2929V852.016H59.3093V854H51.375V852.016H49.3915V842.099H51.375V840.115H59.3093V842.099ZM53.3586 842.099V846.066H55.3422V844.082H57.3257V842.099H53.3586ZM57.3257 852.016V848.049H55.3422V850.033H53.3586V852.016H57.3257ZM81.1402 842.099H83.1237V844.082H81.1402V846.066H75.1895V854H71.2223V840.115H81.1402V842.099ZM79.1566 844.082V842.099H75.1895V844.082H79.1566ZM97.0126 840.115V854H93.0454V846.066H89.0783V854H85.1112V840.115H89.0783V842.099H93.0454V840.115H97.0126Z" fill="white"/>
<path d="M19.6341 896.099V898.082H25.5848V900.066H27.5684V906.016H25.5848V908H17.6506V906.016H15.667V904.033H19.6341V906.016H23.6013V900.066H15.667V894.115H27.5684V896.099H19.6341ZM33.523 896.099V900.066H29.5558V896.099H33.523ZM29.5558 904.033H33.523V908H29.5558V904.033ZM45.4205 896.099H47.404V906.016H45.4205V908H37.4862V906.016H35.5026V896.099H37.4862V894.115H45.4205V896.099ZM39.4698 896.099V900.066H41.4533V898.082H43.4369V896.099H39.4698ZM43.4369 906.016V902.049H41.4533V904.033H39.4698V906.016H43.4369ZM59.3093 896.099H61.2929V906.016H59.3093V908H51.375V906.016H49.3915V896.099H51.375V894.115H59.3093V896.099ZM53.3586 896.099V900.066H55.3422V898.082H57.3257V896.099H53.3586ZM57.3257 906.016V902.049H55.3422V904.033H53.3586V906.016H57.3257ZM81.1402 896.099H83.1237V898.082H81.1402V900.066H75.1895V908H71.2223V894.115H81.1402V896.099ZM79.1566 898.082V896.099H75.1895V898.082H79.1566ZM97.0126 894.115V908H93.0454V900.066H89.0783V908H85.1112V894.115H89.0783V896.099H93.0454V894.115H97.0126Z" fill="white"/>
<path d="M25.5848 956.049H27.5684V960.016H25.5848V962H17.6506V960.016H15.667V952.082H17.6506V950.099H19.6341V948.115H25.5848V950.099H21.6177V952.082H19.6341V954.066H25.5848V956.049ZM23.6013 960.016V956.049H19.6341V960.016H23.6013ZM33.523 950.099V954.066H29.5558V950.099H33.523ZM29.5558 958.033H33.523V962H29.5558V958.033ZM45.4205 950.099H47.404V954.066H45.4205V956.049H47.404V960.016H45.4205V962H37.4862V960.016H35.5026V958.033H39.4698V960.016H43.4369V956.049H39.4698V954.066H43.4369V950.099H39.4698V952.082H35.5026V950.099H37.4862V948.115H45.4205V950.099ZM59.3093 950.099H61.2929V960.016H59.3093V962H51.375V960.016H49.3915V950.099H51.375V948.115H59.3093V950.099ZM53.3586 950.099V954.066H55.3422V952.082H57.3257V950.099H53.3586ZM57.3257 960.016V956.049H55.3422V958.033H53.3586V960.016H57.3257ZM81.1402 950.099H83.1237V952.082H81.1402V954.066H75.1895V962H71.2223V948.115H81.1402V950.099ZM79.1566 952.082V950.099H75.1895V952.082H79.1566ZM97.0126 948.115V962H93.0454V954.066H89.0783V962H85.1112V948.115H89.0783V950.099H93.0454V948.115H97.0126Z" fill="white"/>
<path d="M27.5684 1002.12V1008.07H25.5848V1010.05H23.6013V1016H19.6341V1010.05H21.6177V1008.07H23.6013V1004.1H19.6341V1006.08H15.667V1002.12H27.5684ZM33.523 1004.1V1008.07H29.5558V1004.1H33.523ZM29.5558 1012.03H33.523V1016H29.5558V1012.03ZM45.4205 1004.1H47.404V1008.07H45.4205V1010.05H47.404V1014.02H45.4205V1016H37.4862V1014.02H35.5026V1012.03H39.4698V1014.02H43.4369V1010.05H39.4698V1008.07H43.4369V1004.1H39.4698V1006.08H35.5026V1004.1H37.4862V1002.12H45.4205V1004.1ZM59.3093 1004.1H61.2929V1014.02H59.3093V1016H51.375V1014.02H49.3915V1004.1H51.375V1002.12H59.3093V1004.1ZM53.3586 1004.1V1008.07H55.3422V1006.08H57.3257V1004.1H53.3586ZM57.3257 1014.02V1010.05H55.3422V1012.03H53.3586V1014.02H57.3257ZM81.1402 1004.1H83.1237V1006.08H81.1402V1008.07H75.1895V1016H71.2223V1002.12H81.1402V1004.1ZM79.1566 1006.08V1004.1H75.1895V1006.08H79.1566ZM97.0126 1002.12V1016H93.0454V1008.07H89.0783V1016H85.1112V1002.12H89.0783V1004.1H93.0454V1002.12H97.0126Z" fill="white"/>
<path d="M25.5848 1058.1H27.5684V1062.07H25.5848V1064.05H27.5684V1068.02H25.5848V1070H17.6506V1068.02H15.667V1064.05H17.6506V1062.07H15.667V1058.1H17.6506V1056.12H25.5848V1058.1ZM23.6013 1062.07V1058.1H19.6341V1062.07H23.6013ZM23.6013 1064.05H19.6341V1068.02H23.6013V1064.05ZM33.523 1058.1V1062.07H29.5558V1058.1H33.523ZM29.5558 1066.03H33.523V1070H29.5558V1066.03ZM45.4205 1058.1H47.404V1062.07H45.4205V1064.05H47.404V1068.02H45.4205V1070H37.4862V1068.02H35.5026V1066.03H39.4698V1068.02H43.4369V1064.05H39.4698V1062.07H43.4369V1058.1H39.4698V1060.08H35.5026V1058.1H37.4862V1056.12H45.4205V1058.1ZM59.3093 1058.1H61.2929V1068.02H59.3093V1070H51.375V1068.02H49.3915V1058.1H51.375V1056.12H59.3093V1058.1ZM53.3586 1058.1V1062.07H55.3422V1060.08H57.3257V1058.1H53.3586ZM57.3257 1068.02V1064.05H55.3422V1066.03H53.3586V1068.02H57.3257ZM81.1402 1058.1H83.1237V1060.08H81.1402V1062.07H75.1895V1070H71.2223V1056.12H81.1402V1058.1ZM79.1566 1060.08V1058.1H75.1895V1060.08H79.1566ZM97.0126 1056.12V1070H93.0454V1062.07H89.0783V1070H85.1112V1056.12H89.0783V1058.1H93.0454V1056.12H97.0126Z" fill="white"/>
<path d="M25.5848 1112.1H27.5684V1116.07H25.5848V1118.05H27.5684V1122.02H25.5848V1124H17.6506V1122.02H15.667V1118.05H17.6506V1116.07H15.667V1112.1H17.6506V1110.12H25.5848V1112.1ZM23.6013 1116.07V1112.1H19.6341V1116.07H23.6013ZM23.6013 1118.05H19.6341V1122.02H23.6013V1118.05ZM33.523 1112.1V1116.07H29.5558V1112.1H33.523ZM29.5558 1120.03H33.523V1124H29.5558V1120.03ZM45.4205 1112.1H47.404V1116.07H45.4205V1118.05H47.404V1122.02H45.4205V1124H37.4862V1122.02H35.5026V1120.03H39.4698V1122.02H43.4369V1118.05H39.4698V1116.07H43.4369V1112.1H39.4698V1114.08H35.5026V1112.1H37.4862V1110.12H45.4205V1112.1ZM59.3093 1112.1H61.2929V1122.02H59.3093V1124H51.375V1122.02H49.3915V1112.1H51.375V1110.12H59.3093V1112.1ZM53.3586 1112.1V1116.07H55.3422V1114.08H57.3257V1112.1H53.3586ZM57.3257 1122.02V1118.05H55.3422V1120.03H53.3586V1122.02H57.3257ZM81.1402 1112.1H83.1237V1114.08H81.1402V1116.07H75.1895V1124H71.2223V1110.12H81.1402V1112.1ZM79.1566 1114.08V1112.1H75.1895V1114.08H79.1566ZM97.0126 1110.12V1124H93.0454V1116.07H89.0783V1124H85.1112V1110.12H89.0783V1112.1H93.0454V1110.12H97.0126Z" fill="white"/>
<path d="M25.5848 1166.1H27.5684V1174.03H25.5848V1176.02H23.6013V1178H17.6506V1176.02H21.6177V1174.03H23.6013V1172.05H17.6506V1170.07H15.667V1166.1H17.6506V1164.12H25.5848V1166.1ZM23.6013 1170.07V1166.1H19.6341V1170.07H23.6013ZM33.523 1166.1V1170.07H29.5558V1166.1H33.523ZM29.5558 1174.03H33.523V1178H29.5558V1174.03ZM45.4205 1166.1H47.404V1170.07H45.4205V1172.05H47.404V1176.02H45.4205V1178H37.4862V1176.02H35.5026V1174.03H39.4698V1176.02H43.4369V1172.05H39.4698V1170.07H43.4369V1166.1H39.4698V1168.08H35.5026V1166.1H37.4862V1164.12H45.4205V1166.1ZM59.3093 1166.1H61.2929V1176.02H59.3093V1178H51.375V1176.02H49.3915V1166.1H51.375V1164.12H59.3093V1166.1ZM53.3586 1166.1V1170.07H55.3422V1168.08H57.3257V1166.1H53.3586ZM57.3257 1176.02V1172.05H55.3422V1174.03H53.3586V1176.02H57.3257ZM81.1402 1166.1H83.1237V1168.08H81.1402V1170.07H75.1895V1178H71.2223V1164.12H81.1402V1166.1ZM79.1566 1168.08V1166.1H75.1895V1168.08H79.1566ZM97.0126 1164.12V1178H93.0454V1170.07H89.0783V1178H85.1112V1164.12H89.0783V1166.1H93.0454V1164.12H97.0126Z" fill="white"/>
<path d="M13.6796 1230.02V1232H1.77816V1230.02H5.74529V1222.08H3.76173V1220.1H5.74529V1218.12H9.71242V1230.02H13.6796ZM25.5848 1220.1H27.5684V1230.02H25.5848V1232H17.6506V1230.02H15.667V1220.1H17.6506V1218.12H25.5848V1220.1ZM19.6341 1220.1V1224.07H21.6177V1222.08H23.6013V1220.1H19.6341ZM23.6013 1230.02V1226.05H21.6177V1228.03H19.6341V1230.02H23.6013ZM33.523 1220.1V1224.07H29.5558V1220.1H33.523ZM29.5558 1228.03H33.523V1232H29.5558V1228.03ZM45.4205 1220.1H47.404V1224.07H45.4205V1226.05H47.404V1230.02H45.4205V1232H37.4862V1230.02H35.5027V1228.03H39.4698V1230.02H43.4369V1226.05H39.4698V1224.07H43.4369V1220.1H39.4698V1222.08H35.5027V1220.1H37.4862V1218.12H45.4205V1220.1ZM59.3093 1220.1H61.2929V1230.02H59.3093V1232H51.3751V1230.02H49.3915V1220.1H51.3751V1218.12H59.3093V1220.1ZM53.3586 1220.1V1224.07H55.3422V1222.08H57.3258V1220.1H53.3586ZM57.3258 1230.02V1226.05H55.3422V1228.03H53.3586V1230.02H57.3258ZM81.1402 1220.1H83.1237V1222.08H81.1402V1224.07H75.1895V1232H71.2223V1218.12H81.1402V1220.1ZM79.1566 1222.08V1220.1H75.1895V1222.08H79.1566ZM97.0126 1218.12V1232H93.0454V1224.07H89.0783V1232H85.1112V1218.12H89.0783V1220.1H93.0454V1218.12H97.0126Z" fill="white"/>
<path d="M13.6796 1284.02V1286H1.77816V1284.02H5.74529V1276.08H3.76173V1274.1H5.74529V1272.12H9.71242V1284.02H13.6796ZM25.5848 1274.1H27.5684V1284.02H25.5848V1286H17.6506V1284.02H15.667V1274.1H17.6506V1272.12H25.5848V1274.1ZM19.6341 1274.1V1278.07H21.6177V1276.08H23.6013V1274.1H19.6341ZM23.6013 1284.02V1280.05H21.6177V1282.03H19.6341V1284.02H23.6013ZM33.523 1274.1V1278.07H29.5558V1274.1H33.523ZM29.5558 1282.03H33.523V1286H29.5558V1282.03ZM45.4205 1274.1H47.404V1278.07H45.4205V1280.05H47.404V1284.02H45.4205V1286H37.4862V1284.02H35.5027V1282.03H39.4698V1284.02H43.4369V1280.05H39.4698V1278.07H43.4369V1274.1H39.4698V1276.08H35.5027V1274.1H37.4862V1272.12H45.4205V1274.1ZM59.3093 1274.1H61.2929V1284.02H59.3093V1286H51.3751V1284.02H49.3915V1274.1H51.3751V1272.12H59.3093V1274.1ZM53.3586 1274.1V1278.07H55.3422V1276.08H57.3258V1274.1H53.3586ZM57.3258 1284.02V1280.05H55.3422V1282.03H53.3586V1284.02H57.3258ZM81.1402 1274.1H83.1237V1276.08H81.1402V1278.07H75.1895V1286H71.2223V1272.12H81.1402V1274.1ZM79.1566 1276.08V1274.1H75.1895V1276.08H79.1566ZM97.0126 1272.12V1286H93.0454V1278.07H89.0783V1286H85.1112V1272.12H89.0783V1274.1H93.0454V1272.12H97.0126Z" fill="white"/>
<path d="M176.465 49.95V54H156.022V49.95H151.972V41.5929H160.393V49.6286H172.093V33.8786H156.022V29.8929H151.972V13.4357H156.022V9.45H176.465V13.4357H180.45V21.8571H172.093V13.8214H160.393V29.5071H176.465V33.5571H180.45V49.95H176.465ZM208.317 54V49.95H204.652V54H192.245V49.95H188.195V37.5429H192.245V33.5571H204.267V21.8571H196.617V29.8929H188.195V21.4714H192.245V17.4857H208.638V21.4714H212.688V54H208.317ZM204.267 37.9286H196.617V49.6286H204.267V37.9286ZM236.987 49.95V54H224.58V49.95H220.53V21.8571H216.544V17.4857H220.53V9.45H228.951V17.4857H236.987V21.8571H228.951V49.6286H232.615V41.5929H240.972V49.95H236.987ZM268.836 54V49.95H261.121V54H252.764V49.95H248.714V17.4857H257.136V49.6286H260.8V45.5786H264.786V17.4857H273.207V54H268.836ZM296.991 29.8929V21.8571H293.327V25.8429H289.341V54H280.92V17.4857H285.291V21.4714H293.006V17.4857H301.363V21.4714H305.413V29.8929H296.991ZM333.247 54V49.95H325.533V54H317.176V49.95H313.126V21.4714H317.176V17.4857H325.533V21.4714H329.197V5.4H337.618V54H333.247ZM329.197 25.8429H325.211V21.8571H321.547V49.6286H325.211V45.5786H329.197V25.8429ZM365.453 54V49.95H361.788V54H349.381V49.95H345.331V37.5429H349.381V33.5571H361.403V21.8571H353.753V29.8929H345.331V21.4714H349.381V17.4857H365.774V21.4714H369.824V54H365.453ZM361.403 37.9286H353.753V49.6286H361.403V37.9286ZM393.994 62.0357V66.0214H381.587V62.0357H377.537V57.6643H385.958V61.65H393.608V49.95H389.944V54H381.587V49.95H377.537V17.4857H385.958V49.6286H389.623V45.5786H393.608V17.4857H402.03V62.0357H393.994Z" fill="white"/>
<path d="M786 488.949V128.949" stroke="white" stroke-width="5.90878" stroke-linecap="round"/>
<path d="M825.761 141.287V143.668H828.141V146.048H825.761V157.949H823.38V141.287H825.761ZM828.141 148.428V146.048H830.521V148.428H828.141ZM830.521 146.048V143.668H832.901V141.287H835.282V157.949H832.901V146.048H830.521ZM844.807 155.569V143.668H842.427V141.287H849.568V143.668H847.188V155.569H849.568V157.949H842.427V155.569H844.807ZM866.235 141.287V143.668H859.094V155.569H866.235V157.949H856.713V141.287H866.235ZM866.235 155.569V143.668H868.615V155.569H866.235ZM875.76 141.287V146.048H878.141V148.428H875.76V157.949H873.38V141.287H875.76ZM878.141 150.808V148.428H880.521V150.808H878.141ZM880.521 153.189V150.808H882.901V141.287H885.281V157.949H882.901V153.189H880.521ZM894.807 155.569V143.668H892.427V141.287H899.568V143.668H897.188V155.569H899.568V157.949H892.427V155.569H894.807ZM916.234 143.668H909.094V141.287H916.234V143.668ZM906.713 155.569V143.668H909.094V155.569H906.713ZM909.094 157.949V155.569H916.234V153.189H913.854V150.808H918.615V157.949H909.094ZM916.234 146.048V143.668H918.615V146.048H916.234ZM935.281 141.287V157.949H932.901V150.808H925.76V157.949H923.38V141.287H925.76V148.428H932.901V141.287H935.281ZM940.046 143.668V141.287H951.948V143.668H947.187V157.949H944.807V143.668H940.046ZM982.901 143.668H975.76V141.287H982.901V143.668ZM973.38 155.569V153.189H975.76V155.569H973.38ZM973.38 148.428V143.668H975.76V148.428H973.38ZM975.76 157.949V155.569H982.901V157.949H975.76ZM975.76 150.808V148.428H982.901V150.808H975.76ZM982.901 155.569V150.808H985.281V155.569H982.901ZM982.901 146.048V143.668H985.281V146.048H982.901ZM992.427 141.287V146.048H994.807V148.428H992.427V157.949H990.046V141.287H992.427ZM994.807 150.808V148.428H997.187V150.808H994.807ZM997.187 153.189V150.808H999.567V141.287H1001.95V157.949H999.567V153.189H997.187ZM1016.23 141.287V143.668H1009.09V141.287H1016.23ZM1006.71 157.949V143.668H1009.09V150.808H1016.23V143.668H1018.61V157.949H1016.23V153.189H1009.09V157.949H1006.71ZM1032.9 143.668H1025.76V141.287H1032.9V143.668ZM1023.38 155.569V143.668H1025.76V155.569H1023.38ZM1025.76 157.949V155.569H1032.9V157.949H1025.76ZM1032.9 155.569V153.189H1035.28V155.569H1032.9ZM1032.9 146.048V143.668H1035.28V146.048H1032.9ZM1044.81 148.428V150.808H1042.43V157.949H1040.05V141.287H1042.43V148.428H1044.81ZM1044.81 153.189V150.808H1047.19V153.189H1044.81ZM1044.81 148.428V146.048H1047.19V148.428H1044.81ZM1047.19 155.569V153.189H1049.57V155.569H1047.19ZM1047.19 146.048V143.668H1049.57V146.048H1047.19ZM1049.57 157.949V155.569H1051.95V157.949H1049.57ZM1049.57 143.668V141.287H1051.95V143.668H1049.57Z" fill="white"/>
<path d="M825.761 197.668V195.287H832.901V197.668H825.761ZM823.38 207.189H825.761V209.569H823.38V207.189ZM823.38 197.668H825.761V202.428H823.38V197.668ZM825.761 209.569H832.901V211.949H825.761V209.569ZM825.761 202.428H832.901V204.808H825.761V202.428ZM832.901 204.808H835.282V209.569H832.901V204.808ZM832.901 197.668H835.282V200.048H832.901V197.668ZM840.047 211.949V195.287H842.427V209.569H851.948V211.949H840.047ZM868.615 197.668H859.094V202.428H863.854V204.808H859.094V209.569H868.615V211.949H856.713V195.287H868.615V197.668ZM885.281 197.668H875.76V202.428H880.521V204.808H875.76V209.569H885.281V211.949H873.38V195.287H885.281V197.668ZM892.427 204.808V211.949H890.047V195.287H899.568V197.668H892.427V202.428H899.568V204.808H892.427ZM899.568 197.668H901.948V202.428H899.568V197.668Z" fill="white"/>
<path d="M832.901 258.808H825.761V263.569H832.901V265.949H823.38V249.287H832.901V251.668H825.761V256.428H832.901V258.808ZM832.901 263.569V258.808H835.282V263.569H832.901ZM832.901 256.428V251.668H835.282V256.428H832.901ZM849.568 258.808H847.188V261.189H844.807V258.808H842.427V265.949H840.047V249.287H849.568V251.668H842.427V256.428H849.568V258.808ZM847.188 263.569V261.189H849.568V263.569H847.188ZM849.568 265.949V263.569H851.948V265.949H849.568ZM849.568 256.428V251.668H851.948V256.428H849.568ZM868.615 249.287V251.668H859.094V256.428H863.854V258.808H859.094V263.569H868.615V265.949H856.713V249.287H868.615ZM882.901 249.287V251.668H875.76V249.287H882.901ZM873.38 265.949V251.668H875.76V258.808H882.901V251.668H885.281V265.949H882.901V261.189H875.76V265.949H873.38ZM894.807 256.428V258.808H892.427V265.949H890.047V249.287H892.427V256.428H894.807ZM894.807 261.189V258.808H897.188V261.189H894.807ZM894.807 256.428V254.048H897.188V256.428H894.807ZM897.188 263.569V261.189H899.568V263.569H897.188ZM897.188 254.048V251.668H899.568V254.048H897.188ZM899.568 265.949V263.569H901.948V265.949H899.568ZM899.568 251.668V249.287H901.948V251.668H899.568ZM918.615 249.287V251.668H909.094V256.428H913.854V258.808H909.094V265.949H906.713V249.287H918.615ZM932.901 249.287V251.668H925.76V249.287H932.901ZM923.38 265.949V251.668H925.76V258.808H932.901V251.668H935.281V265.949H932.901V261.189H925.76V265.949H923.38ZM949.568 251.668H942.427V249.287H949.568V251.668ZM940.046 263.569V261.189H942.427V263.569H940.046ZM940.046 256.428V251.668H942.427V256.428H940.046ZM942.427 265.949V263.569H949.568V265.949H942.427ZM942.427 258.808V256.428H949.568V258.808H942.427ZM949.568 263.569V258.808H951.948V263.569H949.568ZM949.568 254.048V251.668H951.948V254.048H949.568ZM956.713 251.668V249.287H968.614V251.668H963.854V265.949H961.474V251.668H956.713Z" fill="white"/>
<path d="M832.901 305.668H825.761V303.287H832.901V305.668ZM823.38 317.569V305.668H825.761V317.569H823.38ZM825.761 319.949V317.569H832.901V319.949H825.761ZM832.901 317.569V315.189H835.282V317.569H832.901ZM832.901 308.048V305.668H835.282V308.048H832.901ZM842.427 303.287H849.568V305.668H842.427V303.287ZM840.047 317.569V305.668H842.427V317.569H840.047ZM842.427 319.949V317.569H849.568V319.949H842.427ZM849.568 317.569V305.668H851.948V317.569H849.568ZM868.615 303.287V305.668H859.094V310.428H863.854V312.808H859.094V319.949H856.713V303.287H868.615ZM885.281 303.287V305.668H875.76V310.428H880.521V312.808H875.76V319.949H873.38V303.287H885.281ZM901.948 303.287V305.668H892.427V310.428H897.188V312.808H892.427V317.569H901.948V319.949H890.047V303.287H901.948ZM918.615 303.287V305.668H909.094V310.428H913.854V312.808H909.094V317.569H918.615V319.949H906.713V303.287H918.615ZM949.568 305.668H942.427V303.287H949.568V305.668ZM940.046 317.569V305.668H942.427V317.569H940.046ZM942.427 319.949V317.569H949.568V319.949H942.427ZM949.568 317.569V315.189H951.948V317.569H949.568ZM949.568 308.048V305.668H951.948V308.048H949.568ZM968.614 303.287V319.949H966.234V312.808H959.093V319.949H956.713V303.287H959.093V310.428H966.234V303.287H968.614ZM982.901 303.287V305.668H975.76V303.287H982.901ZM973.38 319.949V305.668H975.76V312.808H982.901V305.668H985.281V319.949H982.901V315.189H975.76V319.949H973.38ZM990.046 305.668V303.287H1001.95V305.668H997.187V319.949H994.807V305.668H990.046ZM1023.38 317.569V303.287H1025.76V317.569H1023.38ZM1025.76 319.949V317.569H1028.14V319.949H1025.76ZM1028.14 317.569V310.428H1030.52V317.569H1028.14ZM1030.52 319.949V317.569H1032.9V319.949H1030.52ZM1032.9 317.569V303.287H1035.28V317.569H1032.9ZM1042.43 303.287H1049.57V305.668H1042.43V303.287ZM1040.05 317.569V305.668H1042.43V317.569H1040.05ZM1042.43 319.949V317.569H1049.57V319.949H1042.43ZM1049.57 317.569V305.668H1051.95V317.569H1049.57ZM1066.23 312.808H1063.85V315.189H1061.47V312.808H1059.09V319.949H1056.71V303.287H1066.23V305.668H1059.09V310.428H1066.23V312.808ZM1063.85 317.569V315.189H1066.23V317.569H1063.85ZM1066.23 319.949V317.569H1068.61V319.949H1066.23ZM1066.23 310.428V305.668H1068.61V310.428H1066.23ZM1078.14 310.428V312.808H1075.76V319.949H1073.38V303.287H1075.76V310.428H1078.14ZM1078.14 315.189V312.808H1080.52V315.189H1078.14ZM1078.14 310.428V308.048H1080.52V310.428H1078.14ZM1080.52 317.569V315.189H1082.9V317.569H1080.52ZM1080.52 308.048V305.668H1082.9V308.048H1080.52ZM1082.9 319.949V317.569H1085.28V319.949H1082.9ZM1082.9 305.668V303.287H1085.28V305.668H1082.9ZM1099.57 305.668H1092.43V303.287H1099.57V305.668ZM1090.05 317.569V315.189H1092.43V317.569H1090.05ZM1090.05 310.428V305.668H1092.43V310.428H1090.05ZM1092.43 319.949V317.569H1099.57V319.949H1092.43ZM1092.43 312.808V310.428H1099.57V312.808H1092.43ZM1099.57 317.569V312.808H1101.95V317.569H1099.57ZM1099.57 308.048V305.668H1101.95V308.048H1099.57ZM1118.61 303.287V319.949H1116.23V312.808H1109.09V319.949H1106.71V303.287H1109.09V310.428H1116.23V303.287H1118.61ZM1125.76 303.287H1132.9V305.668H1125.76V303.287ZM1123.38 317.569V305.668H1125.76V317.569H1123.38ZM1125.76 319.949V317.569H1132.9V319.949H1125.76ZM1132.9 317.569V305.668H1135.28V317.569H1132.9ZM1149.57 312.808H1142.43V319.949H1140.05V303.287H1149.57V305.668H1142.43V310.428H1149.57V312.808ZM1149.57 310.428V305.668H1151.95V310.428H1149.57Z" fill="white"/>
<path d="M832.901 366.808H825.761V373.949H823.38V357.287H832.901V359.668H825.761V364.428H832.901V366.808ZM832.901 364.428V359.668H835.282V364.428H832.901ZM844.807 371.569V359.668H842.427V357.287H849.568V359.668H847.188V371.569H849.568V373.949H842.427V371.569H844.807ZM859.094 357.287V362.048H861.474V364.428H859.094V373.949H856.713V357.287H859.094ZM861.474 366.808V364.428H863.854V366.808H861.474ZM863.854 369.189V366.808H866.235V357.287H868.615V373.949H866.235V369.189H863.854ZM882.901 357.287V359.668H875.76V357.287H882.901ZM873.38 373.949V359.668H875.76V366.808H882.901V359.668H885.281V373.949H882.901V369.189H875.76V373.949H873.38ZM890.047 359.668V357.287H901.948V359.668H897.188V373.949H894.807V359.668H890.047ZM916.234 357.287V359.668H909.094V357.287H916.234ZM906.713 373.949V359.668H909.094V366.808H916.234V359.668H918.615V373.949H916.234V369.189H909.094V373.949H906.713ZM940.046 371.569V357.287H942.427V371.569H940.046ZM942.427 373.949V371.569H944.807V373.949H942.427ZM944.807 371.569V364.428H947.187V371.569H944.807ZM947.187 373.949V371.569H949.568V373.949H947.187ZM949.568 371.569V357.287H951.948V371.569H949.568ZM959.093 357.287H966.234V359.668H959.093V357.287ZM956.713 371.569V359.668H959.093V371.569H956.713ZM959.093 373.949V371.569H966.234V373.949H959.093ZM966.234 371.569V359.668H968.614V371.569H966.234ZM982.901 366.808H980.521V369.189H978.14V366.808H975.76V373.949H973.38V357.287H982.901V359.668H975.76V364.428H982.901V366.808ZM980.521 371.569V369.189H982.901V371.569H980.521ZM982.901 373.949V371.569H985.281V373.949H982.901ZM982.901 364.428V359.668H985.281V364.428H982.901ZM994.807 364.428V366.808H992.427V373.949H990.046V357.287H992.427V364.428H994.807ZM994.807 369.189V366.808H997.187V369.189H994.807ZM994.807 364.428V362.048H997.187V364.428H994.807ZM997.187 371.569V369.189H999.567V371.569H997.187ZM997.187 362.048V359.668H999.567V362.048H997.187ZM999.567 373.949V371.569H1001.95V373.949H999.567ZM999.567 359.668V357.287H1001.95V359.668H999.567ZM1016.23 359.668H1009.09V357.287H1016.23V359.668ZM1006.71 371.569V369.189H1009.09V371.569H1006.71ZM1006.71 364.428V359.668H1009.09V364.428H1006.71ZM1009.09 373.949V371.569H1016.23V373.949H1009.09ZM1009.09 366.808V364.428H1016.23V366.808H1009.09ZM1016.23 371.569V366.808H1018.61V371.569H1016.23ZM1016.23 362.048V359.668H1018.61V362.048H1016.23ZM1035.28 357.287V373.949H1032.9V366.808H1025.76V373.949H1023.38V357.287H1025.76V364.428H1032.9V357.287H1035.28ZM1042.43 357.287H1049.57V359.668H1042.43V357.287ZM1040.05 371.569V359.668H1042.43V371.569H1040.05ZM1042.43 373.949V371.569H1049.57V373.949H1042.43ZM1049.57 371.569V359.668H1051.95V371.569H1049.57ZM1066.23 366.808H1059.09V373.949H1056.71V357.287H1066.23V359.668H1059.09V364.428H1066.23V366.808ZM1066.23 364.428V359.668H1068.61V364.428H1066.23Z" fill="white"/>
<path d="M832.901 413.668V425.569H830.521V413.668H828.141V411.287H835.282V413.668H832.901ZM823.38 423.189H825.761V425.569H823.38V423.189ZM825.761 425.569H830.521V427.949H825.761V425.569ZM840.047 411.287H842.427V425.569H840.047V411.287ZM842.427 425.569H849.568V427.949H842.427V425.569ZM849.568 411.287H851.948V425.569H849.568V411.287ZM866.235 413.668H859.094V425.569H866.235V427.949H856.713V411.287H866.235V413.668ZM866.235 413.668H868.615V425.569H866.235V413.668ZM875.76 413.668V411.287H882.901V413.668H875.76ZM873.38 413.668H875.76V425.569H873.38V413.668ZM875.76 425.569H882.901V423.189H880.521V420.808H885.281V427.949H875.76V425.569ZM882.901 413.668H885.281V416.048H882.901V413.668ZM894.807 413.668H892.427V411.287H899.568V413.668H897.188V425.569H899.568V427.949H892.427V425.569H894.807V413.668ZM909.094 416.048H911.474V418.428H909.094V427.949H906.713V411.287H909.094V416.048ZM911.474 418.428H913.854V420.808H911.474V418.428ZM913.854 420.808H916.234V411.287H918.615V427.949H916.234V423.189H913.854V420.808ZM925.76 413.668V411.287H932.901V413.668H925.76ZM923.38 413.668H925.76V425.569H923.38V413.668ZM925.76 425.569H932.901V423.189H930.521V420.808H935.281V427.949H925.76V425.569ZM932.901 413.668H935.281V416.048H932.901V413.668Z" fill="white"/>
<path d="M832.901 467.668H825.761V465.287H832.901V467.668ZM823.38 479.569V467.668H825.761V479.569H823.38ZM825.761 481.949V479.569H832.901V481.949H825.761ZM832.901 479.569V477.189H835.282V479.569H832.901ZM832.901 470.048V467.668H835.282V470.048H832.901ZM851.948 481.949H840.047V465.287H842.427V479.569H851.948V481.949ZM859.094 465.287H866.235V467.668H859.094V465.287ZM856.713 479.569V467.668H859.094V479.569H856.713ZM859.094 481.949V479.569H866.235V481.949H859.094ZM866.235 479.569V467.668H868.615V479.569H866.235ZM882.901 467.668H875.76V465.287H882.901V467.668ZM873.38 479.569V477.189H875.76V479.569H873.38ZM873.38 472.428V467.668H875.76V472.428H873.38ZM875.76 481.949V479.569H882.901V481.949H875.76ZM875.76 474.808V472.428H882.901V474.808H875.76ZM882.901 479.569V474.808H885.281V479.569H882.901ZM882.901 470.048V467.668H885.281V470.048H882.901ZM894.807 479.569V467.668H892.427V465.287H899.568V467.668H897.188V479.569H899.568V481.949H892.427V479.569H894.807ZM909.094 465.287V470.048H911.474V472.428H909.094V481.949H906.713V465.287H909.094ZM911.474 474.808V472.428H913.854V474.808H911.474ZM913.854 477.189V474.808H916.234V465.287H918.615V481.949H916.234V477.189H913.854ZM932.901 467.668H925.76V465.287H932.901V467.668ZM923.38 479.569V467.668H925.76V479.569H923.38ZM925.76 481.949V479.569H932.901V477.189H930.521V474.808H935.281V481.949H925.76ZM932.901 470.048V467.668H935.281V470.048H932.901ZM966.234 467.668H959.093V465.287H966.234V467.668ZM956.713 479.569V467.668H959.093V479.569H956.713ZM959.093 481.949V479.569H966.234V481.949H959.093ZM966.234 479.569V477.189H968.614V479.569H966.234ZM966.234 470.048V467.668H968.614V470.048H966.234ZM985.281 465.287V467.668H975.76V472.428H980.521V474.808H975.76V479.569H985.281V481.949H973.38V465.287H985.281ZM999.567 474.808H997.187V477.189H994.807V474.808H992.427V481.949H990.046V465.287H999.567V467.668H992.427V472.428H999.567V474.808ZM997.187 479.569V477.189H999.567V479.569H997.187ZM999.567 481.949V479.569H1001.95V481.949H999.567ZM999.567 472.428V467.668H1001.95V472.428H999.567ZM1018.61 465.287V467.668H1009.09V472.428H1013.85V474.808H1009.09V479.569H1018.61V481.949H1006.71V465.287H1018.61ZM1025.76 465.287V467.668H1028.14V470.048H1025.76V481.949H1023.38V465.287H1025.76ZM1028.14 472.428V470.048H1030.52V472.428H1028.14ZM1030.52 470.048V467.668H1032.9V465.287H1035.28V481.949H1032.9V470.048H1030.52ZM1042.43 465.287H1049.57V467.668H1042.43V465.287ZM1040.05 479.569V467.668H1042.43V479.569H1040.05ZM1042.43 481.949V479.569H1049.57V481.949H1042.43ZM1049.57 479.569V467.668H1051.95V479.569H1049.57ZM1059.09 465.287V470.048H1061.47V472.428H1059.09V481.949H1056.71V465.287H1059.09ZM1061.47 474.808V472.428H1063.85V474.808H1061.47ZM1063.85 477.189V474.808H1066.23V465.287H1068.61V481.949H1066.23V477.189H1063.85ZM1075.76 470.048H1073.38V465.287H1075.76V470.048ZM1075.76 472.428V470.048H1078.14V472.428H1075.76ZM1078.14 481.949V472.428H1080.52V481.949H1078.14ZM1080.52 472.428V470.048H1082.9V472.428H1080.52ZM1082.9 470.048V465.287H1085.28V470.048H1082.9Z" fill="white"/>
<path d="M665.68 154.966V156.949H653.778V154.966H657.745V147.031H655.762V145.048H657.745V143.064H661.712V154.966H665.68ZM677.585 145.048H679.568V149.015H677.585V150.999H673.618V152.982H671.634V154.966H675.601V152.982H679.568V156.949H667.667V152.982H669.651V150.999H671.634V149.015H675.601V145.048H671.634V147.031H667.667V145.048H669.651V143.064H677.585V145.048ZM685.523 145.048V149.015H681.556V145.048H685.523ZM681.556 152.982H685.523V156.949H681.556V152.982ZM697.42 145.048H699.404V154.966H697.42V156.949H689.486V154.966H687.503V145.048H689.486V143.064H697.42V145.048ZM691.47 145.048V149.015H693.453V147.031H695.437V145.048H691.47ZM695.437 154.966V150.999H693.453V152.982H691.47V154.966H695.437ZM711.309 145.048H713.293V154.966H711.309V156.949H703.375V154.966H701.391V145.048H703.375V143.064H711.309V145.048ZM705.359 145.048V149.015H707.342V147.031H709.326V145.048H705.359ZM709.326 154.966V150.999H707.342V152.982H705.359V154.966H709.326ZM733.14 145.048H735.124V156.949H731.157V149.015H727.189V156.949H723.222V145.048H725.206V143.064H733.14V145.048ZM731.157 147.031V145.048H727.189V147.031H731.157ZM749.013 143.064V156.949H745.045V149.015H741.078V156.949H737.111V143.064H741.078V145.048H745.045V143.064H749.013Z" fill="white"/>
<path d="M679.568 208.966V210.949H667.667V208.966H671.634V201.031H669.651V199.048H671.634V197.064H675.601V208.966H679.568ZM685.523 199.048V203.015H681.556V199.048H685.523ZM681.556 206.982H685.523V210.949H681.556V206.982ZM697.42 199.048H699.404V208.966H697.42V210.949H689.486V208.966H687.503V199.048H689.486V197.064H697.42V199.048ZM691.47 199.048V203.015H693.453V201.031H695.437V199.048H691.47ZM695.437 208.966V204.999H693.453V206.982H691.47V208.966H695.437ZM711.309 199.048H713.293V208.966H711.309V210.949H703.375V208.966H701.391V199.048H703.375V197.064H711.309V199.048ZM705.359 199.048V203.015H707.342V201.031H709.326V199.048H705.359ZM709.326 208.966V204.999H707.342V206.982H705.359V208.966H709.326ZM733.14 199.048H735.124V210.949H731.157V203.015H727.189V210.949H723.222V199.048H725.206V197.064H733.14V199.048ZM731.157 201.031V199.048H727.189V201.031H731.157ZM749.013 197.064V210.949H745.045V203.015H741.078V210.949H737.111V197.064H741.078V199.048H745.045V197.064H749.013Z" fill="white"/>
<path d="M677.585 253.048H679.568V257.015H677.585V258.999H679.568V262.966H677.585V264.949H669.651V262.966H667.667V258.999H669.651V257.015H667.667V253.048H669.651V251.064H677.585V253.048ZM675.601 257.015V253.048H671.634V257.015H675.601ZM675.601 258.999H671.634V262.966H675.601V258.999ZM685.523 253.048V257.015H681.556V253.048H685.523ZM681.556 260.982H685.523V264.949H681.556V260.982ZM697.42 253.048H699.404V262.966H697.42V264.949H689.486V262.966H687.503V253.048H689.486V251.064H697.42V253.048ZM691.47 253.048V257.015H693.453V255.031H695.437V253.048H691.47ZM695.437 262.966V258.999H693.453V260.982H691.47V262.966H695.437ZM711.309 253.048H713.293V262.966H711.309V264.949H703.375V262.966H701.391V253.048H703.375V251.064H711.309V253.048ZM705.359 253.048V257.015H707.342V255.031H709.326V253.048H705.359ZM709.326 262.966V258.999H707.342V260.982H705.359V262.966H709.326ZM733.14 253.048H735.124V264.949H731.157V257.015H727.189V264.949H723.222V253.048H725.206V251.064H733.14V253.048ZM731.157 255.031V253.048H727.189V255.031H731.157ZM749.013 251.064V264.949H745.045V257.015H741.078V264.949H737.111V251.064H741.078V253.048H745.045V251.064H749.013Z" fill="white"/>
<path d="M677.585 307.048H679.568V314.982H677.585V316.966H675.601V318.949H669.651V316.966H673.618V314.982H675.601V312.999H669.651V311.015H667.667V307.048H669.651V305.064H677.585V307.048ZM675.601 311.015V307.048H671.634V311.015H675.601ZM685.523 307.048V311.015H681.556V307.048H685.523ZM681.556 314.982H685.523V318.949H681.556V314.982ZM697.42 307.048H699.404V316.966H697.42V318.949H689.486V316.966H687.503V307.048H689.486V305.064H697.42V307.048ZM691.47 307.048V311.015H693.453V309.031H695.437V307.048H691.47ZM695.437 316.966V312.999H693.453V314.982H691.47V316.966H695.437ZM711.309 307.048H713.293V316.966H711.309V318.949H703.375V316.966H701.391V307.048H703.375V305.064H711.309V307.048ZM705.359 307.048V311.015H707.342V309.031H709.326V307.048H705.359ZM709.326 316.966V312.999H707.342V314.982H705.359V316.966H709.326ZM733.14 307.048H735.124V318.949H731.157V311.015H727.189V318.949H723.222V307.048H725.206V305.064H733.14V307.048ZM731.157 309.031V307.048H727.189V309.031H731.157ZM749.013 305.064V318.949H745.045V311.015H741.078V318.949H737.111V305.064H741.078V307.048H745.045V305.064H749.013Z" fill="white"/>
<path d="M665.68 370.966V372.949H653.778V370.966H657.745V363.031H655.762V361.048H657.745V359.064H661.712V370.966H665.68ZM677.585 361.048H679.568V370.966H677.585V372.949H669.651V370.966H667.667V361.048H669.651V359.064H677.585V361.048ZM671.634 361.048V365.015H673.618V363.031H675.601V361.048H671.634ZM675.601 370.966V366.999H673.618V368.982H671.634V370.966H675.601ZM685.523 361.048V365.015H681.556V361.048H685.523ZM681.556 368.982H685.523V372.949H681.556V368.982ZM697.42 361.048H699.404V370.966H697.42V372.949H689.486V370.966H687.503V361.048H689.486V359.064H697.42V361.048ZM691.47 361.048V365.015H693.453V363.031H695.437V361.048H691.47ZM695.437 370.966V366.999H693.453V368.982H691.47V370.966H695.437ZM711.309 361.048H713.293V370.966H711.309V372.949H703.375V370.966H701.391V361.048H703.375V359.064H711.309V361.048ZM705.359 361.048V365.015H707.342V363.031H709.326V361.048H705.359ZM709.326 370.966V366.999H707.342V368.982H705.359V370.966H709.326ZM733.14 361.048H735.124V372.949H731.157V365.015H727.189V372.949H723.222V361.048H725.206V359.064H733.14V361.048ZM731.157 363.031V361.048H727.189V363.031H731.157ZM749.013 359.064V372.949H745.045V365.015H741.078V372.949H737.111V359.064H741.078V361.048H745.045V359.064H749.013Z" fill="white"/>
<path d="M665.68 424.966V426.949H653.778V424.966H657.745V417.031H655.762V415.048H657.745V413.064H661.712V424.966H665.68ZM679.568 424.966V426.949H667.667V424.966H671.634V417.031H669.651V415.048H671.634V413.064H675.601V424.966H679.568ZM685.523 415.048V419.015H681.556V415.048H685.523ZM681.556 422.982H685.523V426.949H681.556V422.982ZM697.42 415.048H699.404V424.966H697.42V426.949H689.486V424.966H687.503V415.048H689.486V413.064H697.42V415.048ZM691.47 415.048V419.015H693.453V417.031H695.437V415.048H691.47ZM695.437 424.966V420.999H693.453V422.982H691.47V424.966H695.437ZM711.309 415.048H713.293V424.966H711.309V426.949H703.375V424.966H701.391V415.048H703.375V413.064H711.309V415.048ZM705.359 415.048V419.015H707.342V417.031H709.326V415.048H705.359ZM709.326 424.966V420.999H707.342V422.982H705.359V424.966H709.326ZM733.14 415.048H735.124V426.949H731.157V419.015H727.189V426.949H723.222V415.048H725.206V413.064H733.14V415.048ZM731.157 417.031V415.048H727.189V417.031H731.157ZM749.013 413.064V426.949H745.045V419.015H741.078V426.949H737.111V413.064H741.078V415.048H745.045V413.064H749.013Z" fill="white"/>
<path d="M677.585 469.048H679.568V473.015H677.585V474.999H673.618V476.982H671.634V478.966H675.601V476.982H679.568V480.949H667.667V476.982H669.651V474.999H671.634V473.015H675.601V469.048H671.634V471.031H667.667V469.048H669.651V467.064H677.585V469.048ZM685.523 469.048V473.015H681.556V469.048H685.523ZM681.556 476.982H685.523V480.949H681.556V476.982ZM697.42 469.048H699.404V478.966H697.42V480.949H689.486V478.966H687.503V469.048H689.486V467.064H697.42V469.048ZM691.47 469.048V473.015H693.453V471.031H695.437V469.048H691.47ZM695.437 478.966V474.999H693.453V476.982H691.47V478.966H695.437ZM711.309 469.048H713.293V478.966H711.309V480.949H703.375V478.966H701.391V469.048H703.375V467.064H711.309V469.048ZM705.359 469.048V473.015H707.342V471.031H709.326V469.048H705.359ZM709.326 478.966V474.999H707.342V476.982H705.359V478.966H709.326ZM733.14 469.048H735.124V471.031H733.14V473.015H727.189V480.949H723.222V467.064H733.14V469.048ZM731.157 471.031V469.048H727.189V471.031H731.157ZM749.013 467.064V480.949H745.045V473.015H741.078V480.949H737.111V467.064H741.078V469.048H745.045V467.064H749.013Z" fill="white"/>
<path d="M826.626 49.5409V54H804.118V49.5409H799.659V40.3396H808.931V49.187H821.813V31.8461H804.118V27.4578H799.659V9.33831H804.118V4.95H826.626V9.33831H831.014V18.6104H821.813V9.76299H808.931V27.0331H826.626V31.4922H831.014V49.5409H826.626ZM861.695 54V49.5409H853.202V54H844V49.5409H839.541V13.7974H848.813V49.187H852.848V44.7279H857.236V13.7974H866.508V54H861.695ZM892.695 54V18.6104H888.66V22.9987H884.272V54H875V13.7974H879.813V18.1857H888.306V13.7974H897.508V18.1857H901.967V54H892.695ZM932.613 54V49.5409H924.119V54H914.918V49.5409H910.459V18.1857H914.918V13.7974H924.119V18.1857H928.153V0.490906H937.425V54H932.613ZM928.153 22.9987H923.765V18.6104H919.731V49.187H923.765V44.7279H928.153V22.9987ZM968.071 54V49.5409H964.037V54H950.376V49.5409H945.917V35.8805H950.376V31.4922H963.612V18.6104H955.189V27.4578H945.917V18.1857H950.376V13.7974H968.425V18.1857H972.884V54H968.071ZM963.612 36.3052H955.189V49.187H963.612V36.3052ZM999.496 62.8474V67.2357H985.835V62.8474H981.376V58.0344H990.648V62.4227H999.071V49.5409H995.036V54H985.835V49.5409H981.376V13.7974H990.648V49.187H994.683V44.7279H999.071V13.7974H1008.34V62.8474H999.496Z" fill="white"/>
</svg>
