<svg width="343" height="105" viewBox="0 0 343 105" fill="none" xmlns="http://www.w3.org/2000/svg">
<rect x="15.0093" width="312.752" height="4.03095" fill="#320B45"/>
<rect x="15.0093" y="100.769" width="312.752" height="4.03095" fill="#320B45"/>
<rect x="327.769" y="4.03598" width="5.84583" height="4.03095" fill="#320B45"/>
<rect width="5.84583" height="4.03095" transform="matrix(-1 0 0 1 15.0093 4.03598)" fill="#320B45"/>
<rect x="333.618" y="8.06543" width="2.92291" height="4.03095" fill="#320B45"/>
<rect width="2.92291" height="4.03095" transform="matrix(-1 0 0 1 9.17261 8.06543)" fill="#320B45"/>
<rect x="336.533" y="12.0884" width="2.92291" height="4.03095" fill="#320B45"/>
<rect width="2.92291" height="4.03095" transform="matrix(-1 0 0 1 6.25659 12.0884)" fill="#320B45"/>
<rect x="339.456" y="16.1244" width="2.92291" height="72.5571" fill="#320B45"/>
<rect width="2.92291" height="72.5571" transform="matrix(-1 0 0 1 3.32275 16.1244)" fill="#320B45"/>
<rect x="336.533" y="88.6807" width="2.92291" height="4.03095" fill="#320B45"/>
<rect width="2.92291" height="4.03095" transform="matrix(-1 0 0 1 6.25659 88.6807)" fill="#320B45"/>
<rect x="333.618" y="92.7166" width="2.92291" height="4.03095" fill="#320B45"/>
<rect width="2.92291" height="4.03095" transform="matrix(-1 0 0 1 9.17261 92.7166)" fill="#320B45"/>
<rect x="327.769" y="96.7396" width="5.84583" height="4.03095" fill="#320B45"/>
<rect width="5.84583" height="4.03095" transform="matrix(-1 0 0 1 15.0093 96.7396)" fill="#320B45"/>
<rect x="15.0093" y="4.03598" width="312.752" height="96.7428" fill="#9175E0"/>
<rect x="327.769" y="8.06543" width="5.84583" height="88.6809" fill="#9175E0"/>
<rect x="333.618" y="12.0884" width="2.92291" height="80.619" fill="#9175E0"/>
<rect x="336.533" y="16.1244" width="2.92291" height="72.5571" fill="#9175E0"/>
<rect x="3.32275" y="16.1244" width="2.92291" height="72.5571" fill="#9175E0"/>
<rect x="6.25659" y="12.0884" width="2.92291" height="80.619" fill="#9175E0"/>
<rect x="9.17261" y="8.06543" width="5.84583" height="88.6809" fill="#9175E0"/>
<rect x="22.1321" y="8.94028" width="297.976" height="3.31961" fill="#7A57B4"/>
<rect x="22.1321" y="91.9289" width="297.976" height="3.31961" fill="#7A57B4"/>
<rect x="320.098" y="12.2656" width="5.56965" height="3.31961" fill="#7A57B4"/>
<rect width="5.56965" height="3.31961" transform="matrix(-1 0 0 1 22.1321 12.2656)" fill="#7A57B4"/>
<rect x="325.674" y="15.5745" width="2.78482" height="3.31961" fill="#7A57B4"/>
<rect width="2.78482" height="3.31961" transform="matrix(-1 0 0 1 16.5569 15.5745)" fill="#7A57B4"/>
<rect x="328.455" y="18.8966" width="2.78482" height="3.31961" fill="#7A57B4"/>
<rect width="2.78482" height="3.31961" transform="matrix(-1 0 0 1 13.7815 18.8966)" fill="#7A57B4"/>
<rect x="331.243" y="22.2219" width="2.78482" height="59.7529" fill="#7A57B4"/>
<rect width="2.78482" height="59.7529" transform="matrix(-1 0 0 1 10.9934 22.2219)" fill="#7A57B4"/>
<rect x="328.455" y="81.9661" width="2.78482" height="3.31961" fill="#7A57B4"/>
<rect width="2.78482" height="3.31961" transform="matrix(-1 0 0 1 13.7815 81.9661)" fill="#7A57B4"/>
<rect x="325.674" y="85.2914" width="2.78482" height="3.31961" fill="#7A57B4"/>
<rect width="2.78482" height="3.31961" transform="matrix(-1 0 0 1 16.5569 85.2914)" fill="#7A57B4"/>
<rect x="320.098" y="88.6134" width="5.56965" height="3.31961" fill="#7A57B4"/>
<rect width="5.56965" height="3.31961" transform="matrix(-1 0 0 1 22.1321 88.6134)" fill="#7A57B4"/>
<rect x="22.1321" y="12.2656" width="297.976" height="79.6705" fill="#BFB3ED"/>
<rect x="320.098" y="15.5745" width="5.56965" height="73.0313" fill="#BFB3ED"/>
<rect x="325.674" y="18.8966" width="2.78482" height="66.3921" fill="#BFB3ED"/>
<rect x="328.455" y="22.2219" width="2.78482" height="59.7529" fill="#BFB3ED"/>
<rect x="10.9934" y="22.2219" width="2.78482" height="59.7529" fill="#BFB3ED"/>
<rect x="13.7815" y="18.8966" width="2.78482" height="66.3921" fill="#BFB3ED"/>
<rect x="16.5569" y="15.5745" width="5.56965" height="73.0313" fill="#BFB3ED"/>
</svg>
