<svg xmlns="http://www.w3.org/2000/svg" width="343" height="105" fill="none" viewBox="0 0 343 105"><rect width="312.752" height="4.031" x="15.009" fill="#320B45"/><rect width="312.752" height="4.031" x="15.009" y="100.769" fill="#320B45"/><rect width="5.846" height="4.031" x="327.769" y="4.036" fill="#320B45"/><rect width="5.846" height="4.031" fill="#320B45" transform="matrix(-1 0 0 1 15.0093 4.03598)"/><rect width="2.923" height="4.031" x="333.618" y="8.065" fill="#320B45"/><rect width="2.923" height="4.031" fill="#320B45" transform="matrix(-1 0 0 1 9.17261 8.06543)"/><rect width="2.923" height="4.031" x="336.533" y="12.088" fill="#320B45"/><rect width="2.923" height="4.031" fill="#320B45" transform="matrix(-1 0 0 1 6.25659 12.0884)"/><rect width="2.923" height="72.557" x="339.456" y="16.124" fill="#320B45"/><rect width="2.923" height="72.557" fill="#320B45" transform="matrix(-1 0 0 1 3.32275 16.1244)"/><rect width="2.923" height="4.031" x="336.533" y="88.681" fill="#320B45"/><rect width="2.923" height="4.031" fill="#320B45" transform="matrix(-1 0 0 1 6.25659 88.6807)"/><rect width="2.923" height="4.031" x="333.618" y="92.717" fill="#320B45"/><rect width="2.923" height="4.031" fill="#320B45" transform="matrix(-1 0 0 1 9.17261 92.7166)"/><rect width="5.846" height="4.031" x="327.769" y="96.74" fill="#320B45"/><rect width="5.846" height="4.031" fill="#320B45" transform="matrix(-1 0 0 1 15.0093 96.7396)"/><rect width="312.752" height="96.743" x="15.009" y="4.036" fill="#9175E0"/><rect width="5.846" height="88.681" x="327.769" y="8.065" fill="#9175E0"/><rect width="2.923" height="80.619" x="333.618" y="12.088" fill="#9175E0"/><rect width="2.923" height="72.557" x="336.533" y="16.124" fill="#9175E0"/><rect width="2.923" height="72.557" x="3.323" y="16.124" fill="#9175E0"/><rect width="2.923" height="80.619" x="6.257" y="12.088" fill="#9175E0"/><rect width="5.846" height="88.681" x="9.173" y="8.065" fill="#9175E0"/><rect width="297.976" height="3.32" x="22.132" y="8.94" fill="#7A57B4"/><rect width="297.976" height="3.32" x="22.132" y="91.929" fill="#7A57B4"/><rect width="5.57" height="3.32" x="320.098" y="12.266" fill="#7A57B4"/><rect width="5.57" height="3.32" fill="#7A57B4" transform="matrix(-1 0 0 1 22.1321 12.2656)"/><rect width="2.785" height="3.32" x="325.674" y="15.575" fill="#7A57B4"/><rect width="2.785" height="3.32" fill="#7A57B4" transform="matrix(-1 0 0 1 16.5569 15.5745)"/><rect width="2.785" height="3.32" x="328.455" y="18.897" fill="#7A57B4"/><rect width="2.785" height="3.32" fill="#7A57B4" transform="matrix(-1 0 0 1 13.7815 18.8966)"/><rect width="2.785" height="59.753" x="331.243" y="22.222" fill="#7A57B4"/><rect width="2.785" height="59.753" fill="#7A57B4" transform="matrix(-1 0 0 1 10.9934 22.2219)"/><rect width="2.785" height="3.32" x="328.455" y="81.966" fill="#7A57B4"/><rect width="2.785" height="3.32" fill="#7A57B4" transform="matrix(-1 0 0 1 13.7815 81.9661)"/><rect width="2.785" height="3.32" x="325.674" y="85.291" fill="#7A57B4"/><rect width="2.785" height="3.32" fill="#7A57B4" transform="matrix(-1 0 0 1 16.5569 85.2914)"/><rect width="5.57" height="3.32" x="320.098" y="88.613" fill="#7A57B4"/><rect width="5.57" height="3.32" fill="#7A57B4" transform="matrix(-1 0 0 1 22.1321 88.6134)"/><rect width="297.976" height="79.671" x="22.132" y="12.266" fill="#BFB3ED"/><rect width="5.57" height="73.031" x="320.098" y="15.575" fill="#BFB3ED"/><rect width="2.785" height="66.392" x="325.674" y="18.897" fill="#BFB3ED"/><rect width="2.785" height="59.753" x="328.455" y="22.222" fill="#BFB3ED"/><rect width="2.785" height="59.753" x="10.993" y="22.222" fill="#BFB3ED"/><rect width="2.785" height="66.392" x="13.781" y="18.897" fill="#BFB3ED"/><rect width="5.57" height="73.031" x="16.557" y="15.575" fill="#BFB3ED"/></svg>